<svg width="18" height="24" viewBox="0 0 18 24" fill="none" xmlns="http://www.w3.org/2000/svg">
<path d="M17.78 5.0429L13.1252 0.227586C12.9856 0.0831724 12.792 0 12.594 0H0.9852C0.5108 0 0 0.379035 0 1.21076V23.1724C0 23.5188 0.3368 23.8564 0.7352 23.9628C0.7552 23.9681 0.7744 23.976 0.7952 23.9801C0.8576 23.993 0.9212 24 0.9852 24H17.0148C17.0788 24 17.1424 23.993 17.2048 23.9801C17.2256 23.976 17.2448 23.9681 17.2648 23.9628C17.6632 23.8564 18 23.5188 18 23.1724V5.784C18 5.46662 17.9632 5.23241 17.78 5.0429ZM16.574 4.96552H13.2V1.47517L16.574 4.96552ZM0.9852 23.1724C0.9568 23.1724 0.9312 23.1617 0.906 23.1521C0.8436 23.1215 0.8 23.057 0.8 22.9808V16.9655H17.2V22.9808C17.2 23.057 17.1564 23.1211 17.094 23.1521C17.0688 23.1617 17.0432 23.1724 17.0148 23.1724H0.9852ZM0.8 16.1379V1.21076C0.8 1.12097 0.8132 0.827586 0.9852 0.827586H12.4232C12.41 0.879724 12.4 0.933517 12.4 0.989379V5.7931H17.0436C17.0976 5.7931 17.1492 5.78276 17.1996 5.7691C17.1996 5.77531 17.2 5.77779 17.2 5.784V16.1379H0.8Z" fill="url(#paint0_linear)"/>
<path d="M6.2168 18.5148C6.0836 18.4018 5.9332 18.3166 5.7656 18.2603C5.598 18.2036 5.4284 18.1754 5.2572 18.1754H4.098V22.3448H4.7544V20.8399H5.2412C5.4524 20.8399 5.646 20.808 5.8208 20.7439C5.9956 20.6797 6.1452 20.5891 6.2692 20.4724C6.3932 20.3557 6.4896 20.2113 6.5592 20.0396C6.6284 19.8679 6.6632 19.6767 6.6632 19.4652C6.6632 19.2654 6.622 19.0854 6.54 18.9248C6.458 18.7643 6.35 18.6281 6.2168 18.5148ZM5.968 19.8923C5.9276 20.0073 5.8752 20.0967 5.8096 20.1608C5.744 20.225 5.672 20.2713 5.5936 20.2994C5.5152 20.3276 5.4356 20.3421 5.3556 20.3421H4.754V18.6902H5.246C5.4136 18.6902 5.5484 18.7175 5.6508 18.7721C5.7528 18.8268 5.832 18.8946 5.8888 18.9757C5.9452 19.0568 5.9824 19.1417 6.0008 19.2302C6.0188 19.3188 6.028 19.397 6.028 19.4648C6.028 19.6349 6.008 19.7772 5.968 19.8923Z" fill="url(#paint1_linear)"/>
<path d="M10.1816 18.7862C10.012 18.6017 9.7988 18.4531 9.5416 18.3422C9.2844 18.2313 8.9864 18.1754 8.6476 18.1754H7.4336V22.3448H8.9592C9.01 22.3448 9.0884 22.3382 9.1944 22.325C9.3 22.3117 9.4168 22.2819 9.5444 22.2343C9.672 22.1872 9.804 22.1164 9.9408 22.0221C10.0776 21.9277 10.2004 21.7986 10.31 21.6343C10.4196 21.4701 10.5096 21.2665 10.5808 21.0232C10.652 20.7799 10.6876 20.4865 10.6876 20.1434C10.6876 19.8943 10.6456 19.6519 10.562 19.4164C10.4776 19.1814 10.3512 18.9712 10.1816 18.7862ZM9.7032 21.4055C9.5064 21.6997 9.1856 21.8466 8.7408 21.8466H8.09V18.6898H8.4728C8.7864 18.6898 9.0416 18.7324 9.2384 18.8172C9.4352 18.9021 9.5912 19.0134 9.706 19.1512C9.8208 19.289 9.898 19.4425 9.9384 19.6121C9.9784 19.7818 9.9984 19.9535 9.9984 20.1269C9.9984 20.6851 9.9 21.1117 9.7032 21.4055Z" fill="url(#paint2_linear)"/>
<path d="M11.6392 22.3448H12.3064V20.4666H13.9908V20.0028H12.3064V18.6902H14.16V18.1754H11.6392V22.3448Z" fill="url(#paint3_linear)"/>
<path d="M12.7712 9.5011C12.4036 9.5011 11.9524 9.55076 11.428 9.64924C10.696 8.84566 9.932 7.67214 9.3928 6.52014C9.9276 4.1909 9.66 3.8611 9.542 3.70552C9.4164 3.54 9.2392 3.27145 9.0376 3.27145C8.9532 3.27145 8.7228 3.31117 8.6312 3.34262C8.4008 3.42207 8.2768 3.60579 8.1776 3.84538C7.8948 4.52938 8.2828 5.69545 8.682 6.59421C8.3408 7.99821 7.7684 9.67862 7.1668 11.0425C5.6508 11.7608 4.8456 12.4663 4.7728 13.1396C4.7464 13.3846 4.8024 13.7441 5.2188 14.0673C5.3328 14.1554 5.4664 14.2022 5.6056 14.2022C5.9556 14.2022 6.3092 13.925 6.7184 13.3303C7.0168 12.8967 7.3372 12.3054 7.6716 11.5713C8.7428 11.0868 10.068 10.649 11.2028 10.4036C11.8348 11.0313 12.4008 11.3491 12.8872 11.3491C13.2456 11.3491 13.5528 11.1786 13.7752 10.8563C14.0068 10.5207 14.0596 10.2203 13.9312 9.96248C13.7772 9.65255 13.3976 9.5011 12.7712 9.5011ZM5.6144 13.5037C5.4272 13.3552 5.438 13.255 5.442 13.2174C5.4668 12.9873 5.8152 12.5789 6.67 12.0819C6.022 13.32 5.674 13.4843 5.6144 13.5037ZM8.8944 4.01876C8.9116 4.01297 9.3124 4.47435 8.9328 5.34952C8.3624 4.74579 8.8552 4.03241 8.8944 4.01876ZM8.0676 10.6502C8.4736 9.64924 8.8512 8.544 9.1372 7.52028C9.5864 8.35531 10.126 9.16552 10.666 9.81435C9.8124 10.0217 8.9036 10.3142 8.0676 10.6502ZM13.228 10.452C13.1048 10.6303 12.8376 10.6345 12.744 10.6345C12.5308 10.6345 12.4512 10.5033 12.1252 10.2439C12.394 10.2083 12.6476 10.1992 12.8496 10.1992C13.2052 10.1992 13.2704 10.2534 13.3196 10.2807C13.3108 10.3101 13.2876 10.3655 13.228 10.452Z" fill="url(#paint4_linear)"/>
<defs>
<linearGradient id="paint0_linear" x1="0.339623" y1="12.9496" x2="17.5477" y2="12.9393" gradientUnits="userSpaceOnUse">
<stop stop-color="#8F6D55"/>
<stop offset="1" stop-color="#4D4444"/>
</linearGradient>
<linearGradient id="paint1_linear" x1="0.339623" y1="12.9496" x2="17.5477" y2="12.9393" gradientUnits="userSpaceOnUse">
<stop stop-color="#8F6D55"/>
<stop offset="1" stop-color="#4D4444"/>
</linearGradient>
<linearGradient id="paint2_linear" x1="0.339623" y1="12.9496" x2="17.5477" y2="12.9393" gradientUnits="userSpaceOnUse">
<stop stop-color="#8F6D55"/>
<stop offset="1" stop-color="#4D4444"/>
</linearGradient>
<linearGradient id="paint3_linear" x1="0.339623" y1="12.9496" x2="17.5477" y2="12.9393" gradientUnits="userSpaceOnUse">
<stop stop-color="#8F6D55"/>
<stop offset="1" stop-color="#4D4444"/>
</linearGradient>
<linearGradient id="paint4_linear" x1="0.339623" y1="12.9496" x2="17.5477" y2="12.9393" gradientUnits="userSpaceOnUse">
<stop stop-color="#8F6D55"/>
<stop offset="1" stop-color="#4D4444"/>
</linearGradient>
</defs>
</svg>
