<svg id="Слой_1" data-name="Слой 1" xmlns="http://www.w3.org/2000/svg" xmlns:xlink="http://www.w3.org/1999/xlink" viewBox="0 0 121.25 124.25"><defs><style>.cls-1{fill:url(#main-gradient-14);}</style><linearGradient id="main-gradient-14" x1="24.81" y1="62.13" x2="96.44" y2="62.13" gradientUnits="userSpaceOnUse"><stop offset="0" stop-color="#916a40"/><stop offset="0.32" stop-color="#916a40"/><stop offset="0.71" stop-color="#63473f"/><stop offset="0.99" stop-color="#4d3c3f"/></linearGradient></defs><title>намек</title><path class="cls-1" d="M88.06,23.91q-23.21.29-46.43,0c-5.54-.08-10,3.67-9.88,9.9.23,16.73.08,33.46.08,50.19V86.5c-1.72,0-3.22,0-4.72,0-1.72-.05-2.43.79-2.28,2.43a12.53,12.53,0,0,0,3.05,7.33c1.94,2.23,4.51,3.27,7.22,4.11H79c5.22-1.83,7-5.65,7-11-.13-15.21,0-30.43,0-45.64V41.55a3,3,0,0,1,.65-.26c2.37,0,4.74,0,7.11-.06s2.68-.46,2.7-2.65-.1-4.22,0-6.32C96.71,27.55,93.84,23.83,88.06,23.91Zm-19.2,73q-15.78,0-31.57,0c-4.56,0-7.86-2.61-8.68-6.84H68.3l1.44,6.76A7.21,7.21,0,0,1,68.86,96.87Zm13.7-62.49q0,28.15,0,56.31c0,3.53-1.92,6-4.81,6.16a5.08,5.08,0,0,1-5.58-4.2A5.88,5.88,0,0,1,72,91.27c.15-5.49-.22-4.75-4.87-4.76q-14.82,0-29.64,0H35.15c0-6.07,0-11.8,0-17.53q0-17.58,0-35.17c0-4.53,2-6.52,6.48-6.52H82.9C82.77,29.71,82.56,32,82.56,34.37Zm10.31,3.38H86c0-2.55-.12-5,0-7.48a3.36,3.36,0,0,1,3.59-2.94,3.43,3.43,0,0,1,3.18,3.18C92.94,32.86,92.87,35.22,92.87,37.76ZM60.17,57.91c3.24-2.69,6.34-5.55,9.4-8.44a10.4,10.4,0,0,0,1.91-2.74,8.56,8.56,0,0,0-2.29-11C66,33.4,62.32,33.92,58.78,37.38c-2.39-2.69-5.21-3.81-8.57-2.55a7.72,7.72,0,0,0-5.09,6.93,9.19,9.19,0,0,0,2.93,7.68c3,3,6.15,5.76,9.38,8.45A2.85,2.85,0,0,0,60.17,57.91ZM50.57,47a9.76,9.76,0,0,1-1.93-4.94A4.09,4.09,0,0,1,56.35,40a7.4,7.4,0,0,0,.48.86c.64.73,1.32,1.44,2,2.15a11.61,11.61,0,0,0,2-2.16c1.38-2.59,3.37-3.64,5.58-2.75a4.75,4.75,0,0,1,2.43,6.14,14.82,14.82,0,0,1-3,4.28c-2.12,2.14-4.47,4.06-7,6.31C55.87,52.12,53,49.77,50.57,47ZM51.8,65.58H72.92c1.27,0,2.53.15,2.52,1.78s-1.27,1.76-2.54,1.76H51.78c-1.27,0-2.51-.15-2.51-1.79S50.54,65.58,51.8,65.58Zm23.64,12.3c-.06,1.39-1.09,1.58-2.25,1.57-3.61,0-7.22,0-10.84,0s-7.22,0-10.84,0c-1.26,0-2.3-.24-2.25-1.77s1.12-1.58,2.24-1.58H73.18C74.41,76.1,75.51,76.35,75.44,77.88Zm-28-10.52a1.74,1.74,0,1,1-1.74-1.74A1.74,1.74,0,0,1,47.47,67.35Zm0,10.48a1.74,1.74,0,1,1-1.74-1.74A1.74,1.74,0,0,1,47.47,77.84Z"/></svg>