<svg width="20" height="20" viewBox="0 0 20 20" fill="none" xmlns="http://www.w3.org/2000/svg">
  <path d="M10 0C4.486 0 0 4.486 0 10C0 15.514 4.486 20 10 20C15.514 20 20 15.514 20 10C20 4.486 15.514 0 10 0ZM10 17.8722C5.65932 17.8722 2.12762 14.3409 2.12762 10C2.12762 5.65912 5.65932 2.12783 10 2.12783C14.3407 2.12783 17.8724 5.65912 17.8724 10C17.8724 14.3409 14.3407 17.8722 10 17.8722Z" fill="url(#paint0_linear)"/>
  <path d="M15.2111 9.69169H10.7171V4.28823C10.7171 3.83351 10.3484 3.46484 9.8937 3.46484C9.43898 3.46484 9.07031 3.83351 9.07031 4.28823V10.5151C9.07031 10.9698 9.43898 11.3385 9.8937 11.3385H15.2111C15.6658 11.3385 16.0345 10.9698 16.0345 10.5151C16.0345 10.0604 15.6658 9.69169 15.2111 9.69169Z" fill="url(#paint1_linear)"/>
  <defs>
  <linearGradient id="paint0_linear" x1="0.377358" y1="10.7914" x2="19.4974" y2="10.7761" gradientUnits="userSpaceOnUse">
  <stop stop-color="#8F6D55"/>
  <stop offset="1" stop-color="#4D4444"/>
  </linearGradient>
  <linearGradient id="paint1_linear" x1="0.377358" y1="10.7914" x2="19.4974" y2="10.7761" gradientUnits="userSpaceOnUse">
  <stop stop-color="#8F6D55"/>
  <stop offset="1" stop-color="#4D4444"/>
  </linearGradient>
  </defs>
</svg>