<svg width="82" height="110" viewBox="0 0 82 110" fill="none" xmlns="http://www.w3.org/2000/svg">
<path d="M15.3861 6.38488C15.3861 6.12977 15.1797 5.92334 14.9246 5.92334H7.77073C7.51562 5.92334 7.30919 6.12977 7.30919 6.38488V13.5387C7.30919 13.7938 7.51562 14.0003 7.77073 14.0003C8.02584 14.0003 8.23227 13.7938 8.23227 13.5387V6.84642H14.9246C15.1797 6.84642 15.3861 6.63999 15.3861 6.38488Z" fill="url(#paint0_linear)"/>
<path d="M18.3087 6.84642H20.4632C20.7183 6.84642 20.9247 6.63999 20.9247 6.38488C20.9247 6.12977 20.7183 5.92334 20.4632 5.92334H18.3087C18.0536 5.92334 17.8472 6.12977 17.8472 6.38488C17.8472 6.63999 18.0536 6.84642 18.3087 6.84642Z" fill="url(#paint1_linear)"/>
<path d="M7.77073 16.4617C7.51562 16.4617 7.30919 16.6681 7.30919 16.9232V19.0772C7.30919 19.3323 7.51562 19.5387 7.77073 19.5387C8.02584 19.5387 8.23227 19.3323 8.23227 19.0772V16.9232C8.23227 16.6681 8.02584 16.4617 7.77073 16.4617Z" fill="url(#paint2_linear)"/>
<path d="M66.6169 102.385C66.6169 102.64 66.8233 102.846 67.0784 102.846H74.2323C74.4874 102.846 74.6938 102.64 74.6938 102.385V95.231C74.6938 94.9759 74.4874 94.7695 74.2323 94.7695C73.9772 94.7695 73.7707 94.9759 73.7707 95.231V101.923H67.0784C66.8233 101.923 66.6169 102.13 66.6169 102.385Z" fill="url(#paint3_linear)"/>
<path d="M63.6935 101.923H61.54C61.2849 101.923 61.0784 102.13 61.0784 102.385C61.0784 102.64 61.2849 102.846 61.54 102.846H63.6935C63.9486 102.846 64.155 102.64 64.155 102.385C64.155 102.13 63.9486 101.923 63.6935 101.923Z" fill="url(#paint4_linear)"/>
<path d="M74.2323 92.3081C74.4874 92.3081 74.6938 92.1017 74.6938 91.8466V89.6926C74.6938 89.4375 74.4874 89.231 74.2323 89.231C73.9772 89.231 73.7707 89.4375 73.7707 89.6926V91.8466C73.7707 92.1017 73.9772 92.3081 74.2323 92.3081Z" fill="url(#paint5_linear)"/>
<path d="M80.2323 0.538574H1.77073C1.26052 0.538574 0.847656 0.951886 0.847656 1.46165V108.539C0.847656 109.048 1.26052 109.462 1.77073 109.462H80.2323C80.7425 109.462 81.1553 109.048 81.1553 108.539V1.46165C81.1553 0.951886 80.7425 0.538574 80.2323 0.538574ZM2.69381 2.38473H79.3092V71.0003H69.9932C70.0172 70.6626 70.0318 70.324 70.0399 69.9848C70.04 69.9845 70.04 69.9841 70.04 69.9838C70.0417 69.9154 70.0485 69.8474 70.0494 69.779C70.0503 69.7195 70.0572 69.6606 70.0576 69.6011C70.0576 69.6002 70.0577 69.5994 70.0577 69.5985L70.0586 69.4462L70.0577 69.3159C70.0578 69.3133 70.0586 69.3102 70.0586 69.3078C70.0586 69.3044 70.0577 69.2995 70.0577 69.2957C70.0577 69.293 70.0577 69.2899 70.0577 69.2875C70.033 65.8737 69.1888 62.4912 67.6229 59.3835C68.8996 60.2603 69.5657 60.8663 69.5898 60.8888C69.689 60.9812 69.8179 61.0308 69.9504 61.0308C69.9946 61.0308 70.0397 61.0254 70.0838 61.0136C70.2587 60.9681 70.3984 60.8361 70.4534 60.6639L74.3603 48.4475C74.4225 48.2533 74.3675 48.0405 74.2188 47.9013C74.125 47.8134 64.64 39.1194 46.887 39.0604C46.6887 39.0387 46.4525 39.2082 46.3822 39.4277L46.3076 39.6609C46.2621 39.2798 46.2317 38.8826 46.2317 38.4496C46.2317 35.3332 47.4765 32.4398 49.7359 30.2956C49.9718 30.1666 50.1196 30.0051 50.1721 29.8107C50.2598 29.5992 50.2318 29.3424 50.0565 29.1923C49.9702 29.118 49.8703 29.0811 49.7698 29.0661C48.7375 28.458 45.8241 28.1493 41.0574 28.1493C31.9141 28.1493 31.9141 29.2716 31.9141 29.6403C31.9141 29.9116 32.0782 30.1296 32.4184 30.3106C34.6668 32.4545 35.9057 35.3422 35.9057 38.4496C35.9057 39.6227 35.7267 40.6543 35.3555 41.5754C33.8995 41.8527 30.3708 42.6673 29.9489 44.112C29.8525 44.4433 29.857 44.949 30.4285 45.4746C30.5731 45.6074 30.7332 45.7182 30.8862 45.8393C30.7007 45.9301 30.5137 46.0207 30.3167 46.1087C30.3122 46.1105 30.3077 46.1123 30.3032 46.1141C19.2923 49.9222 12.1303 59.0157 12.0634 69.2104C12.0589 69.237 12.0562 69.2803 12.0562 69.3074C12.0562 69.3164 12.0562 69.3267 12.0571 69.3367L12.0562 69.4462L12.0572 69.5616C12.0572 69.5625 12.0571 69.5634 12.0571 69.5643L12.0562 69.7166L12.0571 69.8261C12.0562 69.8358 12.0562 69.8454 12.0562 69.8544C12.0562 69.8543 12.0562 69.8544 12.0562 69.8544C12.0562 69.8814 12.0589 69.9253 12.0634 69.9519C12.0639 69.9549 12.0658 69.9573 12.0663 69.9602C12.0744 70.3086 12.1037 70.6541 12.1288 71.0003H2.69381V2.38473ZM40.1947 92.349C39.9946 91.8998 39.7985 91.342 39.6106 90.672C39.2403 89.3571 38.9099 87.6691 38.6252 85.672C39.538 85.0043 42.3763 82.6191 44.2624 77.7746C43.9636 83.1353 43.3735 87.7075 42.5763 90.681C42.4036 91.3285 42.2218 91.8888 42.0368 92.348C41.4279 92.3527 40.8108 92.3532 40.1947 92.349ZM30.9637 91.8862C30.3795 91.6916 29.7873 91.4751 29.2025 91.2385C20.9432 87.9003 15.129 81.2171 13.5527 73.6105C15.3273 77.2634 18.8303 82.6776 24.721 85.0212C26.5003 87.7331 28.769 90.0202 31.2948 91.6374C31.4941 91.7652 31.7031 91.8728 31.9063 91.9929C31.5663 91.9589 31.2478 91.9236 30.9637 91.8862ZM28.6049 47.9071C28.6117 47.9049 28.6187 47.9059 28.6256 47.9035C29.3937 47.6358 30.0668 47.3728 30.6839 47.0999C30.6872 47.0988 30.6902 47.0974 30.6935 47.0963C30.7043 47.0922 30.7151 47.0873 30.726 47.0823C31.1334 46.9012 31.5127 46.7111 31.8778 46.5162C31.988 46.5804 32.0928 46.653 32.2059 46.7127C26.5082 49.937 22.3538 56.0659 20.8516 63.3596C20.3217 60.9595 19.2997 58.0629 17.3779 56.6644C20.0633 52.975 23.9014 49.9204 28.6049 47.9071ZM31.1433 44.6966C31.0802 44.6394 30.9369 44.4956 30.963 44.4077C31.1131 43.8919 32.8552 43.2282 34.7027 42.7952C34.0554 43.7475 33.1321 44.5665 31.9022 45.2924C31.6373 45.1093 31.3809 44.915 31.1433 44.6966ZM47.8344 30.7675C47.8353 30.7675 47.8543 30.7648 47.875 30.7617C46.1442 32.9296 45.1752 35.6511 45.1752 38.4496C45.1752 39.6674 45.3481 40.699 45.6856 41.6063L45.4927 42.2097C45.4786 42.1716 45.4636 42.1343 45.4501 42.0955L45.378 41.881L45.195 41.1851C45.1602 41.0389 45.1396 40.9171 45.1134 40.7862C45.0539 40.472 44.9967 40.1562 44.9642 39.8279L44.9219 39.2839C44.9138 39.151 44.9075 39.0153 44.9038 38.8814L44.8984 38.4496C44.8984 38.091 44.9108 37.7347 44.9343 37.3815C44.9419 37.2658 44.9577 37.1526 44.9678 37.0375C44.9886 36.8017 45.0082 36.5657 45.0392 36.3334C45.0574 36.197 45.0842 36.0641 45.106 35.9291C45.1393 35.7216 45.1704 35.5134 45.2119 35.3095C45.2406 35.1684 45.2777 35.0315 45.3102 34.8922C45.3552 34.6996 45.3982 34.5059 45.4506 34.3171C45.4899 34.1756 45.5369 34.0389 45.5802 33.8997C45.6365 33.7189 45.6908 33.5371 45.7539 33.3607C45.8033 33.2223 45.8597 33.0893 45.9132 32.9538C45.9804 32.7836 46.0461 32.6125 46.1197 32.447C46.1792 32.3133 46.2452 32.1851 46.3087 32.0546C46.3865 31.895 46.4631 31.7348 46.5471 31.5805C46.6159 31.4538 46.6906 31.3327 46.7635 31.2097C46.8314 31.0954 46.8998 30.9817 46.971 30.8708C46.9998 30.8677 47.0278 30.864 47.0563 30.8608C47.2395 30.8414 47.4184 30.8215 47.5856 30.8009V30.7995C47.5936 30.7986 47.6012 30.7979 47.6091 30.7968V30.7953C47.6596 30.7891 47.7023 30.7838 47.7421 30.7789C47.7511 30.7778 47.764 30.7762 47.7722 30.7752C47.7745 30.775 47.8033 30.7718 47.8344 30.7675ZM13.1156 69.758L13.1127 69.4462L13.1136 69.305V69.2947C13.1436 65.0579 14.4479 61.0312 16.7671 57.5243C16.8149 57.559 16.8638 57.5914 16.9102 57.6286C19.583 59.7643 20.2325 65.7764 20.3349 66.9256C20.2655 67.765 20.2305 68.6122 20.2305 69.4457L20.2314 69.5587C20.2311 69.5684 20.2305 69.5781 20.2305 69.5877C20.2305 69.5972 20.2305 69.6066 20.2314 69.6161L20.2305 69.7162C20.2305 70.7059 20.2791 71.707 20.3756 72.6909C20.3827 72.7625 20.4051 72.8284 20.4371 72.8881C20.8659 76.6578 21.991 80.2535 23.7461 83.4124C16.4597 79.6239 13.3881 70.6022 13.1156 69.758ZM56.3453 54.1947L56.3612 54.2181C56.3632 54.2211 56.3825 54.2499 56.4013 54.2781C56.4157 54.2997 56.4304 54.3218 56.4315 54.3236L56.4628 54.3712C55.7661 55.0073 53.9174 57.0502 53.0283 61.29C52.5044 58.2218 51.6861 55.3937 50.6041 52.9265C52.6855 53.2504 54.5975 53.6897 56.3453 54.1947ZM49.3705 52.7527C50.6638 55.5145 51.6035 58.7941 52.1384 62.3887C50.7595 59.4084 48.3244 55.4233 44.5837 53.4176C44.5334 53.0524 44.4797 52.7063 44.4263 52.3597C46.1616 52.4129 47.8087 52.5506 49.3705 52.7527ZM39.6169 38.4492C39.6169 35.7692 39.2351 33.1876 38.538 31.0754L39.5251 31.0978C39.7586 33.1714 39.8882 35.7554 39.8882 38.4492C39.8882 41.2977 39.7395 43.4562 39.4177 45.1311C39.3257 45.5999 39.2184 46.0263 39.0913 46.4351C39.0143 46.6284 38.9388 46.8383 38.8642 47.0593C38.2253 47.0558 37.5857 47.0227 36.9543 46.9574C38.7954 45.0313 39.6169 42.4069 39.6169 38.4492ZM38.5474 48.119C37.6959 51.2543 37.0569 56.2406 36.7613 62.0629C36.003 59.553 34.6378 56.2963 32.2787 53.8069C33.289 51.3763 34.5325 49.3531 35.9503 47.8935C36.8048 48.0298 37.6765 48.1007 38.5474 48.119ZM39.6391 48.1207C40.5912 48.0972 41.5264 48.0233 42.4118 47.9163C42.5977 48.5353 42.7776 49.2412 42.9477 50.0521C42.9517 50.0712 42.9626 50.0863 42.9684 50.1044L42.4763 51.644C42.4249 51.8045 42.4528 51.9794 42.552 52.1155C42.6511 52.2516 42.8089 52.3323 42.9775 52.3332C43.1054 52.3336 43.2285 52.3388 43.3556 52.3401C43.413 52.7054 43.469 53.0794 43.5228 53.4665C42.6528 54.0956 39.7706 56.4686 37.8542 61.3846C38.1691 55.7649 38.8051 51.0142 39.6391 48.1207ZM43.1329 46.7363C43.1021 46.6532 43.0716 46.5591 43.0406 46.4815C42.9026 46.0474 42.7864 45.5845 42.6827 45.0486C42.378 43.4599 42.2302 41.3013 42.2302 38.4496C42.2302 35.7578 42.3595 33.1761 42.5928 31.1046L43.5805 31.088C43.576 31.1019 43.5729 31.118 43.5684 31.132C43.4158 31.5995 43.2822 32.0934 43.1611 32.6029C43.1403 32.6907 43.1188 32.7767 43.0989 32.8656C42.9865 33.3684 42.8903 33.8878 42.8093 34.4214C42.7942 34.5202 42.7807 34.6191 42.7668 34.7189C42.6908 35.2639 42.6293 35.8193 42.5871 36.3867C42.5814 36.4656 42.5782 36.545 42.5731 36.6241C42.5337 37.2252 42.5087 37.8337 42.5087 38.4496L42.515 39.0667C42.5204 39.2663 42.5276 39.4611 42.5367 39.6508C42.5457 39.8437 42.5565 40.0335 42.5709 40.2133L42.8395 42.2452C42.8819 42.4615 42.9297 42.6702 42.9802 42.8681C43.0207 43.0294 43.0631 43.1854 43.1091 43.3386C43.1469 43.4626 43.1848 43.5838 43.2263 43.7073C43.2704 43.8371 43.3164 43.9629 43.3642 44.0882L43.5697 44.583C43.5715 44.5853 43.6121 44.6763 43.613 44.6791L43.668 44.7958C43.7707 45.0081 43.8789 45.2095 43.9916 45.402C43.9934 45.4061 44.0493 45.4971 44.0511 45.5007C44.0538 45.5043 44.1205 45.6143 44.1232 45.6179C44.1232 45.6188 44.1935 45.7279 44.1944 45.7288C44.1953 45.731 44.2521 45.8176 44.2539 45.8198C44.2731 45.848 44.293 45.8741 44.3123 45.9019L44.0944 46.5833C43.7852 46.6371 43.4626 46.688 43.1329 46.7363ZM43.8474 38.9112C43.8528 39.0586 43.8591 39.2032 43.8672 39.338L43.9141 39.9388C43.9582 40.3922 44.0285 40.8434 44.1241 41.2811L44.4531 42.443C44.4874 42.5417 44.5225 42.6382 44.5559 42.7207C44.5748 42.7707 44.5947 42.8198 44.6019 42.8342C44.6184 42.8787 44.6264 42.8963 44.6307 42.9044C44.6387 42.924 44.646 42.944 44.655 42.9636L44.672 43.0029C44.6738 43.0071 44.6777 43.0165 44.6785 43.0181L44.6812 43.0242L44.7064 43.0826C44.7073 43.0839 44.7515 43.1809 44.7524 43.1822C44.7831 43.2498 44.8137 43.3156 44.8407 43.3675C44.8955 43.4821 44.9567 43.5899 45.0165 43.6991L44.7401 44.5634C44.7006 44.4882 44.6584 44.4167 44.6208 44.3392L44.5604 44.2117C44.5587 44.2076 44.5409 44.1674 44.5225 44.126C44.5189 44.1175 44.4829 44.0368 44.4793 44.0287L44.3495 43.7082C44.3071 43.5964 44.2656 43.4819 44.226 43.3661C44.189 43.2588 44.1547 43.1488 44.1205 43.0339C44.0799 42.8978 44.0412 42.7581 44.0042 42.6093C43.9573 42.4259 43.915 42.237 43.8663 41.9955L43.6238 40.1335C43.6094 39.9595 43.6004 39.7815 43.5913 39.5999C43.5823 39.4169 43.5769 39.2294 43.5715 39.0414L43.5652 38.4496C43.5652 35.7023 43.9801 33.08 44.7301 31.0112L45.668 30.9808C44.4856 33.1148 43.8419 35.7255 43.8419 38.4496L43.8474 38.9112ZM41.5282 31.1225C41.2994 33.2092 41.1737 35.7788 41.1737 38.4496C41.1737 41.4095 41.3242 43.5698 41.6496 45.2672C41.7578 45.8261 41.884 46.3282 42.0463 46.8362C42.0511 46.8484 42.0557 46.8636 42.0607 46.8759C41.393 46.9518 40.7004 47.0087 39.9965 47.0378C40.0255 46.9607 40.0536 46.8748 40.0829 46.8019C40.091 46.7808 40.0983 46.7591 40.1037 46.7375C40.2407 46.2958 40.3552 45.837 40.4516 45.3479C40.4525 45.343 40.4706 45.2524 40.4715 45.2474C40.7942 43.5662 40.9447 41.4059 40.9447 38.4492C40.9447 35.7872 40.8196 33.2239 40.591 31.122L40.8428 31.1277C40.887 31.1295 40.9312 31.1308 40.9465 31.129L41.0574 31.1304L41.5282 31.1225ZM37.4034 31.0312C38.148 33.0996 38.5604 35.7136 38.5604 38.4492C38.5604 43.1232 37.3065 45.0568 36.2049 46.2138C35.9985 46.3819 35.7973 46.5679 35.5969 46.7568C35.2554 46.6902 34.9177 46.6147 34.5888 46.522C34.7575 46.3978 34.9235 46.273 35.0799 46.143C37.2695 44.3252 38.29 41.8805 38.29 38.4492C38.29 35.7236 37.6448 33.1098 36.4587 30.9721L37.4034 31.0312ZM34.7323 47.6471C33.3691 49.2041 32.1769 51.2591 31.2031 53.6644C29.8671 54.3401 25.223 57.0545 21.9237 63.3649C23.4626 56.1586 27.6917 50.1791 33.4329 47.2548C33.854 47.4102 34.2891 47.5374 34.7323 47.6471ZM25.1838 83.7622C23.0866 80.3259 21.7757 76.2931 21.4005 72.041C21.3301 71.2559 21.2933 70.4405 21.2891 69.6181C21.2897 69.4622 21.2963 69.3066 21.2992 69.1507C21.3037 68.7034 21.3305 68.2533 21.3555 67.8027C21.3688 67.5977 21.3785 67.3915 21.396 67.1885C23.907 60.1917 28.4122 56.6236 30.6135 55.2272C29.5496 58.316 28.8276 61.885 28.5436 65.6912C28.4507 66.9226 28.4038 68.186 28.4038 69.4457C28.4038 69.483 28.4058 69.5206 28.4059 69.558L28.4047 69.6134C28.4047 69.6187 28.4038 69.7066 28.4038 69.7145C28.4038 69.7146 28.4038 69.7154 28.4038 69.7157L28.4273 71.2563C28.4295 71.3302 28.434 71.4044 28.4365 71.4783C28.4405 71.5878 28.4458 71.6983 28.4503 71.8079C28.4588 72.0121 28.4656 72.2155 28.476 72.4218L28.4764 72.4294L28.4769 72.4448C28.4778 72.4502 28.4832 72.5435 28.4832 72.5489L28.4902 72.6414L28.4886 72.6418L28.5173 73.075C28.4711 79.5886 26.1591 82.7286 25.1838 83.7622ZM29.5737 72.7904C29.5019 71.73 29.4657 70.6528 29.4627 69.5834L29.4911 67.9788C29.5105 67.4215 29.5385 66.8654 29.5766 66.3146C29.5766 66.3146 29.5766 66.3145 29.5766 66.3146C29.8611 62.1868 30.6728 58.2957 31.9206 54.9871C35.6762 59.3399 36.5741 65.9465 36.5826 66.0162C36.5838 66.0247 36.5887 66.0313 36.5902 66.0397C36.5953 66.0685 36.6058 66.0942 36.6155 66.1214C36.6029 66.6966 36.6 67.2875 36.5942 67.8741C36.5907 68.1579 36.5827 68.4324 36.5808 68.7196L36.5797 69.0662C36.5797 69.0865 36.579 69.1058 36.579 69.1262L36.5781 69.5927L36.579 70.0177C36.579 70.0192 36.579 70.0206 36.579 70.0221C36.5892 75.2089 36.8677 80.2599 37.362 84.4104C32.1079 81.0838 29.7274 73.3124 29.5737 72.7904ZM38.463 84.4448C37.9492 80.3221 37.6549 75.2498 37.6355 70.0109L37.6346 69.7162L37.6366 68.9656C37.6369 68.8469 37.6384 68.7281 37.6391 68.6096C37.6458 67.7139 37.659 66.8304 37.6815 65.9594L37.6864 65.7286C38.9602 59.3151 42.2231 55.9314 43.6524 54.7167C44.1665 58.8413 44.4608 63.9133 44.4793 69.1464L44.4802 69.3596L44.4793 70.0312C44.4757 71.1057 44.4603 72.164 44.4342 73.198L44.4295 73.3945C43.1587 79.8293 39.8936 83.2282 38.463 84.4448ZM45.4992 73.0406C45.5209 72.0553 45.5341 71.054 45.5358 70.0375V69.1455C45.5358 69.1458 45.5358 69.1453 45.5358 69.1455C45.5358 69.144 45.5358 69.1415 45.5358 69.14C45.5256 63.9492 45.2479 58.898 44.7536 54.7508C50.0696 58.1062 52.4034 65.896 52.5411 66.3721C52.6121 67.4076 52.6496 68.4682 52.6525 69.5558L52.6229 71.2297C52.604 71.7746 52.5742 72.3137 52.5382 72.8482C52.2538 76.9782 51.4425 80.8677 50.1951 84.1736C46.4491 79.8302 45.5409 73.2137 45.5322 73.1439C45.5274 73.1068 45.5112 73.0747 45.4992 73.0406ZM53.5721 73.4702C53.6641 72.2348 53.7109 70.9719 53.7109 69.7162L53.71 69.58C53.71 69.5661 53.7094 69.5522 53.7092 69.5382C53.7085 69.189 53.6981 68.8404 53.6899 68.4917C53.689 68.4527 53.6887 68.4137 53.6877 68.3749C53.6706 67.713 53.6433 67.0545 53.5996 66.4046C53.5974 66.3697 53.5965 66.3338 53.594 66.2989C53.594 66.297 53.5939 66.2951 53.5938 66.2933C53.5933 66.2876 53.5933 66.2818 53.5928 66.2761L53.5938 66.032C53.5938 66.0276 53.5941 66.0237 53.5942 66.0193C53.5942 66.0194 53.5942 66.0192 53.5942 66.0193C53.5942 66.0187 53.5942 66.0178 53.5942 66.0172C53.655 59.5478 55.958 56.4304 56.9308 55.3998C59.0281 58.8361 60.339 62.869 60.7133 67.1209C60.7846 67.9076 60.8213 68.7171 60.8264 69.5547C60.8251 69.8691 60.8166 70.1845 60.8055 70.4998C60.8012 70.6699 60.7897 70.8403 60.7825 71.0106C60.7654 71.3324 60.7465 71.6542 60.7188 71.9734C58.2168 78.9447 53.7411 82.5111 51.511 83.9276C52.583 80.8042 53.2914 77.2223 53.5721 73.4702ZM65.7614 58.1995C67.2069 60.5482 68.1795 63.1066 68.6563 65.7449C67.1682 62.6286 64.3863 58.1161 59.8766 55.3764C62.2764 56.2982 64.2419 57.3026 65.7614 58.1995ZM66.4918 57.4133C66.4151 57.3674 66.3311 57.3198 66.252 57.2733C64.0406 55.9717 60.9366 54.4705 56.974 53.2898C56.8344 53.2482 56.6941 53.207 56.5524 53.1662C52.9436 52.1286 48.6622 51.3662 43.7004 51.2839L44.9028 47.5233C46.9544 47.1266 48.3978 46.6727 48.5673 46.6181C48.845 46.5288 48.9982 46.2318 48.909 45.9541C48.8197 45.6769 48.5231 45.5251 48.2446 45.6125C48.207 45.6247 47.0308 45.9952 45.2754 46.3583L47.2701 40.1196C62.7776 40.2827 71.6848 47.1436 73.2488 48.457L69.6872 59.593C69.0724 59.1039 67.9954 58.3135 66.4918 57.4133ZM47.7497 29.7133C47.7443 29.7138 47.6541 29.7264 47.6487 29.7268C47.6461 29.7273 47.6016 29.7332 47.5559 29.7392C47.5505 29.7401 47.4594 29.7521 47.454 29.7525C47.3888 29.7607 47.3161 29.7681 47.2485 29.7761C47.1435 29.7884 47.0391 29.8007 46.9294 29.8126C46.9055 29.8152 46.8821 29.818 46.8582 29.8206L46.7157 29.8341L46.6058 29.8458L46.2299 29.8778C46.2236 29.8783 46.0703 29.8927 46.064 29.8931L40.9754 30.0734C40.9709 30.073 40.7987 30.0716 40.7942 30.0716L35.6605 29.8596L34.3279 29.7052C34.1884 29.6849 34.0508 29.6645 33.9261 29.6428L33.8966 29.6379C35.2375 29.4117 37.7464 29.2058 41.0574 29.2058C44.3691 29.2058 46.8782 29.4115 48.2184 29.6381L47.7497 29.7133ZM34.2844 30.7664C34.3207 30.7714 34.3471 30.7758 34.3858 30.7811L34.8951 30.8433C34.8969 30.8433 34.9907 30.8536 34.9925 30.8536L35.1602 30.87C36.4949 32.9511 37.2335 35.6282 37.2335 38.4492C37.2335 41.542 36.3347 43.7285 34.4057 45.3303C34.0713 45.6075 33.7095 45.867 33.3595 46.0932C33.216 46.0325 33.0774 45.9643 32.9384 45.8967C35.7025 44.0965 36.9621 41.7285 36.9621 38.4496C36.9621 35.6092 36.0165 32.9355 34.2713 30.7648L34.2844 30.7664ZM34.6175 92.1941C33.6732 91.7983 32.7474 91.3144 31.8645 90.7482C29.5386 89.2588 27.4418 87.1646 25.7678 84.6824C26.5374 83.9392 28.245 81.9075 29.0883 77.911C30.0418 83.4746 31.9476 88.2135 34.5309 91.2841C34.8203 91.6286 35.1171 91.9433 35.4132 92.2336C35.1426 92.2212 34.8755 92.2083 34.6175 92.1941ZM37.0279 92.2949C36.9759 92.2397 36.9191 92.181 36.8504 92.1125C36.332 91.6879 35.8245 91.1804 35.3395 90.6039C33.3964 88.2945 31.8501 84.9779 30.8314 81.0458C30.4812 79.6933 30.1975 78.2643 29.9774 76.7821C31.3617 79.7777 33.8096 83.7766 37.5715 85.7629C37.8644 87.8327 38.2068 89.5859 38.5938 90.9582C38.7394 91.4764 38.8919 91.9329 39.0483 92.3382C38.3535 92.3283 37.6763 92.3143 37.0279 92.2949ZM43.5968 90.9537C44.4477 87.78 45.0668 82.8485 45.3559 77.094C46.1057 79.5771 47.4494 82.7837 49.7587 85.2628C48.8468 87.4142 47.7739 89.2106 46.558 90.5841C45.9432 91.2802 45.2972 91.856 44.6381 92.3074C44.163 92.3202 43.6623 92.3269 43.1638 92.3343C43.3126 91.9214 43.4585 91.4709 43.5968 90.9537ZM47.3495 91.2841C48.6617 89.801 49.8138 87.8726 50.7812 85.564C51.8004 85.0729 56.7127 82.437 60.1698 75.8505C58.8032 82.1487 55.3596 87.5937 50.5919 90.7955C49.8753 91.2773 49.1271 91.7082 48.3681 92.076C48.3347 92.0904 48.3032 92.1084 48.2743 92.1292L48.2394 92.1514C47.6665 92.1874 47.0466 92.2181 46.4014 92.2455C46.7237 91.9498 47.0412 91.6324 47.3495 91.2841ZM51.1423 91.8872C51.0216 91.903 50.892 91.9182 50.7621 91.9334C50.9013 91.8449 51.0445 91.7642 51.1815 91.6721C56.2409 88.2742 59.8773 82.4838 61.2616 75.8093C61.7777 78.1383 62.7574 80.9657 64.5877 82.4019C61.7293 86.2453 57.711 89.2998 52.9123 91.2381C52.3243 91.4753 51.7296 91.6928 51.1423 91.8872ZM65.2082 81.53C62.4966 79.3676 61.8676 73.2579 61.7811 72.219C61.8003 71.9867 61.8015 71.7521 61.8145 71.5187C61.8148 71.5127 61.8154 71.507 61.8158 71.501L61.8347 71.1936L61.8299 71.1933C61.8309 71.1712 61.8321 71.1492 61.833 71.1271C61.8341 71.1117 61.8352 71.0963 61.8361 71.0808L61.841 71.08L61.8555 70.7681C61.8557 70.762 61.8559 70.756 61.8561 70.7498C61.8631 70.5921 61.8696 70.4347 61.8734 70.2785C61.8738 70.261 61.875 70.243 61.8753 70.2255L61.8765 70.1276C61.8785 69.9906 61.8852 69.853 61.8852 69.7166L61.8843 69.5791C61.8843 69.5722 61.8839 69.5653 61.8839 69.5583L61.8852 69.4462C61.8852 69.4462 61.8852 69.4461 61.8852 69.4462C61.8852 68.7372 61.8512 68.0262 61.8017 67.3204C61.8016 67.3195 61.8016 67.3186 61.8016 67.3177C61.7818 67.0348 61.7667 66.7504 61.7392 66.4701C61.7337 66.4139 61.727 66.355 61.7212 66.2982C61.7021 66.1141 61.6808 65.9235 61.6526 65.6899L61.5959 65.263C61.5796 65.1413 61.5625 65.021 61.5445 64.9101L61.5057 64.655C61.4697 64.4287 61.4309 64.2043 61.3894 63.9798L61.2623 63.3349C61.2614 63.333 61.2614 63.3308 61.2614 63.329C61.2407 63.2222 61.2182 63.1162 61.1911 62.9964L61.0307 62.3054C60.9838 62.1147 60.9351 61.9241 60.8855 61.7411L60.6511 60.9127C60.5953 60.7193 60.5349 60.5282 60.4763 60.3493C60.4591 60.292 60.4411 60.2361 60.4267 60.1978L60.2518 59.6809L60.2311 59.6191C60.2266 59.6069 60.2221 59.5952 60.2175 59.5835L59.7118 58.262C59.5901 57.9681 59.4648 57.6778 59.3386 57.402C59.3071 57.3303 59.2746 57.2587 59.2458 57.1992L58.8879 56.4582C58.8861 56.4541 58.8456 56.373 58.8438 56.3694L58.5733 55.8544C65.7141 59.7019 68.729 68.5667 68.9992 69.4033L69.001 69.5906C68.9973 70.142 68.9712 70.6918 68.924 71.2393C68.8898 71.6364 68.8326 72.0306 68.7756 72.4248C68.3124 75.6339 67.1021 78.7299 65.2082 81.53ZM79.3092 107.616H2.69381V72.8464H12.3415C13.6779 81.1982 19.8648 88.6039 28.8059 92.2175C29.427 92.4686 30.0562 92.6998 30.6764 92.9049C30.6971 92.9118 30.7178 92.9108 30.7388 92.915C30.7505 92.9174 30.7598 92.9249 30.7719 92.9265C31.5391 93.0293 32.509 93.1199 33.6538 93.1956C33.9153 93.2127 34.1839 93.2294 34.4588 93.2438C35.1818 93.2839 35.9552 93.3182 36.7728 93.3448C36.7773 93.3449 36.7821 93.345 36.7865 93.3451C36.7874 93.3451 36.7882 93.3457 36.7891 93.3457C36.7899 93.3457 36.7906 93.3453 36.7914 93.3453C37.7065 93.3738 38.6742 93.3949 39.6719 93.4038L39.8531 93.4056C40.2488 93.4092 40.6508 93.4115 41.0574 93.4115C41.5189 93.4115 41.9748 93.4091 42.4222 93.4043C42.4243 93.4043 42.4265 93.4052 42.4285 93.4052C42.4304 93.4052 42.4321 93.4043 42.4341 93.4043C43.2526 93.3967 44.0468 93.3818 44.8085 93.3604C44.8094 93.3604 44.8101 93.361 44.811 93.361C44.8118 93.361 44.8125 93.3603 44.8133 93.3603C44.8171 93.3602 44.8216 93.3602 44.8254 93.3601L45.3329 93.3448C46.457 93.3087 47.5018 93.2587 48.4402 93.1978C49.5787 93.123 50.5532 93.032 51.3356 92.9274C51.3472 92.9259 51.3561 92.9187 51.3674 92.9164C51.3888 92.9122 51.41 92.9131 51.4312 92.9062C52.0532 92.7007 52.6842 92.469 53.3071 92.2175C58.4724 90.1316 62.7831 86.8025 65.7749 82.5906C67.8888 79.614 69.2459 76.2927 69.7873 72.8464H79.3092V107.616Z" fill="url(#paint6_linear)"/>
<path d="M62.7912 45.6206L54.4727 49.8628C54.213 49.9953 54.1094 50.3135 54.2419 50.5731C54.3356 50.7561 54.5204 50.8616 54.7124 50.8616C54.7936 50.8616 54.8756 50.8431 54.9522 50.8039L63.2707 46.5617C63.5304 46.4292 63.634 46.111 63.5015 45.8514C63.3681 45.5918 63.0508 45.4894 62.7912 45.6206Z" fill="url(#paint7_linear)"/>
<path d="M57.4177 46.9858C57.4546 46.9858 57.4925 46.9849 57.5313 46.9827C58.0334 46.9529 58.494 46.7294 58.8275 46.3535C59.162 45.9776 59.3296 45.4939 59.2999 44.9918C59.2702 44.4897 59.0466 44.0291 58.6707 43.6951C58.2948 43.3616 57.8233 43.1885 57.3086 43.2232C56.8065 43.253 56.3459 43.4765 56.0123 43.8524C55.6779 44.2283 55.5102 44.7119 55.54 45.214C55.5697 45.7161 55.7933 46.1768 56.1692 46.5108C56.5171 46.8195 56.9561 46.9858 57.4177 46.9858ZM56.802 44.5542C56.948 44.3888 57.1509 44.291 57.3717 44.2779C57.3879 44.2765 57.4051 44.2761 57.4213 44.2761C57.6232 44.2761 57.8161 44.3496 57.9694 44.4848C58.1343 44.6317 58.2326 44.8336 58.2452 45.054C58.2587 45.2744 58.1848 45.4867 58.0379 45.6517C57.8918 45.8171 57.689 45.9149 57.4682 45.928C57.2428 45.9474 57.0364 45.8667 56.8705 45.7211C56.7055 45.5742 56.6073 45.3722 56.5947 45.1518C56.5811 44.9314 56.6551 44.7192 56.802 44.5542Z" fill="url(#paint8_linear)"/>
<path d="M60.9289 49.0384C59.8931 49.0997 59.0999 49.9931 59.1612 51.0293C59.1909 51.5314 59.4145 51.9916 59.7904 52.3255C60.1374 52.6343 60.5764 52.8006 61.0371 52.8006C61.0749 52.8006 61.1128 52.7997 61.1515 52.7974C61.6536 52.7677 62.1143 52.5441 62.4478 52.1687C62.7822 51.7928 62.9499 51.3092 62.9202 50.8071C62.858 49.7704 61.9719 48.9753 60.9289 49.0384ZM61.6582 51.4669C61.5121 51.6319 61.3093 51.7297 61.0884 51.7428C60.8667 51.7585 60.6558 51.6824 60.4917 51.5359C60.3267 51.3894 60.2285 51.1875 60.2159 50.9671C60.1888 50.5118 60.5368 50.1197 60.992 50.0931C61.0082 50.0918 61.0244 50.0913 61.0407 50.0913C61.4743 50.0913 61.8393 50.4307 61.8655 50.8693C61.879 51.0897 61.8051 51.302 61.6582 51.4669Z" fill="url(#paint9_linear)"/>
<defs>
<linearGradient id="paint0_linear" x1="2.3629" y1="59.31" x2="79.1373" y2="59.2647" gradientUnits="userSpaceOnUse">
<stop stop-color="#8F6D55"/>
<stop offset="1" stop-color="#4D4444"/>
</linearGradient>
<linearGradient id="paint1_linear" x1="2.3629" y1="59.31" x2="79.1373" y2="59.2647" gradientUnits="userSpaceOnUse">
<stop stop-color="#8F6D55"/>
<stop offset="1" stop-color="#4D4444"/>
</linearGradient>
<linearGradient id="paint2_linear" x1="2.3629" y1="59.31" x2="79.1373" y2="59.2647" gradientUnits="userSpaceOnUse">
<stop stop-color="#8F6D55"/>
<stop offset="1" stop-color="#4D4444"/>
</linearGradient>
<linearGradient id="paint3_linear" x1="2.3629" y1="59.31" x2="79.1373" y2="59.2647" gradientUnits="userSpaceOnUse">
<stop stop-color="#8F6D55"/>
<stop offset="1" stop-color="#4D4444"/>
</linearGradient>
<linearGradient id="paint4_linear" x1="2.3629" y1="59.31" x2="79.1373" y2="59.2647" gradientUnits="userSpaceOnUse">
<stop stop-color="#8F6D55"/>
<stop offset="1" stop-color="#4D4444"/>
</linearGradient>
<linearGradient id="paint5_linear" x1="2.3629" y1="59.31" x2="79.1373" y2="59.2647" gradientUnits="userSpaceOnUse">
<stop stop-color="#8F6D55"/>
<stop offset="1" stop-color="#4D4444"/>
</linearGradient>
<linearGradient id="paint6_linear" x1="2.3629" y1="59.31" x2="79.1373" y2="59.2647" gradientUnits="userSpaceOnUse">
<stop stop-color="#8F6D55"/>
<stop offset="1" stop-color="#4D4444"/>
</linearGradient>
<linearGradient id="paint7_linear" x1="2.3629" y1="59.31" x2="79.1373" y2="59.2647" gradientUnits="userSpaceOnUse">
<stop stop-color="#8F6D55"/>
<stop offset="1" stop-color="#4D4444"/>
</linearGradient>
<linearGradient id="paint8_linear" x1="2.3629" y1="59.31" x2="79.1373" y2="59.2647" gradientUnits="userSpaceOnUse">
<stop stop-color="#8F6D55"/>
<stop offset="1" stop-color="#4D4444"/>
</linearGradient>
<linearGradient id="paint9_linear" x1="2.3629" y1="59.31" x2="79.1373" y2="59.2647" gradientUnits="userSpaceOnUse">
<stop stop-color="#8F6D55"/>
<stop offset="1" stop-color="#4D4444"/>
</linearGradient>
</defs>
</svg>
