<svg width="88" height="118" viewBox="0 0 88 118" fill="none" xmlns="http://www.w3.org/2000/svg">
<path d="M34.36 54.37C34.3626 55.2338 34.7069 56.0615 35.3177 56.6723C35.9285 57.2831 36.7562 57.6274 37.62 57.63H50.38C51.2446 57.63 52.0738 57.2865 52.6852 56.6752C53.2965 56.0638 53.64 55.2346 53.64 54.37C53.64 53.5054 53.2965 52.6762 52.6852 52.0648C52.0738 51.4535 51.2446 51.11 50.38 51.11H37.62C36.7554 51.11 35.9262 51.4535 35.3148 52.0648C34.7035 52.6762 34.36 53.5054 34.36 54.37ZM52.64 54.37C52.64 54.6668 52.5815 54.9607 52.468 55.2349C52.3544 55.5091 52.1879 55.7582 51.9781 55.9681C51.7682 56.1779 51.5191 56.3444 51.2449 56.458C50.9707 56.5715 50.6768 56.63 50.38 56.63H37.62C37.3232 56.63 37.0293 56.5715 36.7551 56.458C36.4809 56.3444 36.2318 56.1779 36.0219 55.9681C35.8121 55.7582 35.6456 55.5091 35.532 55.2349C35.4185 54.9607 35.36 54.6668 35.36 54.37C35.36 54.0732 35.4185 53.7793 35.532 53.5051C35.6456 53.2309 35.8121 52.9818 36.0219 52.7719C36.2318 52.5621 36.4809 52.3956 36.7551 52.282C37.0293 52.1685 37.3232 52.11 37.62 52.11H50.38C50.6768 52.11 50.9707 52.1685 51.2449 52.282C51.5191 52.3956 51.7682 52.5621 51.9781 52.7719C52.1879 52.9818 52.3544 53.2309 52.468 53.5051C52.5815 53.7793 52.64 54.0732 52.64 54.37Z" fill="url(#paint0_linear)"/>
<path d="M31.67 56.89H22.1C21.9674 56.89 21.8402 56.9427 21.7464 57.0364C21.6527 57.1302 21.6 57.2574 21.6 57.39C21.6026 57.5218 21.6561 57.6475 21.7493 57.7407C21.8425 57.8339 21.9682 57.8874 22.1 57.89H31.67C31.8026 57.89 31.9298 57.8373 32.0236 57.7436C32.1173 57.6498 32.17 57.5226 32.17 57.39C32.17 57.2574 32.1173 57.1302 32.0236 57.0364C31.9298 56.9427 31.8026 56.89 31.67 56.89Z" fill="url(#paint1_linear)"/>
<path d="M31.67 59H22.1C21.9674 59 21.8402 59.0527 21.7464 59.1464C21.6527 59.2402 21.6 59.3674 21.6 59.5C21.6026 59.6318 21.6561 59.7575 21.7493 59.8507C21.8425 59.9439 21.9682 59.9974 22.1 60H31.67C31.8026 60 31.9298 59.9473 32.0236 59.8536C32.1173 59.7598 32.17 59.6326 32.17 59.5C32.17 59.3674 32.1173 59.2402 32.0236 59.1464C31.9298 59.0527 31.8026 59 31.67 59Z" fill="url(#paint2_linear)"/>
<path d="M29.88 61.09H22.1C21.9674 61.09 21.8402 61.1427 21.7464 61.2365C21.6527 61.3302 21.6 61.4574 21.6 61.59C21.6026 61.7218 21.6561 61.8475 21.7493 61.9407C21.8425 62.0339 21.9682 62.0874 22.1 62.09H29.88C30.0118 62.0874 30.1375 62.0339 30.2307 61.9407C30.3239 61.8475 30.3774 61.7218 30.38 61.59C30.38 61.4574 30.3273 61.3302 30.2336 61.2365C30.1398 61.1427 30.0126 61.09 29.88 61.09Z" fill="url(#paint3_linear)"/>
<path d="M21.63 54.5V54.59L21.68 54.67L21.75 54.74C21.8311 54.792 21.9239 54.8229 22.02 54.83H30.08C30.1764 54.8247 30.2697 54.7936 30.35 54.74L30.42 54.67C30.4402 54.6457 30.457 54.6188 30.47 54.59C30.4742 54.5602 30.4742 54.5299 30.47 54.5C30.4756 54.4669 30.4756 54.4331 30.47 54.4V43.65C30.4747 43.6202 30.4747 43.5898 30.47 43.56C30.4742 43.5302 30.4742 43.4999 30.47 43.47C30.457 43.4412 30.4402 43.4143 30.42 43.39L30.35 43.31H21.76L21.69 43.39L21.64 43.47V43.56C21.6353 43.5898 21.6353 43.6202 21.64 43.65V54.37C21.6272 54.4121 21.6238 54.4565 21.63 54.5ZM23.11 53.87L26.11 49.87L29.11 53.87H23.11ZM29.66 52.87L26.76 49L29.66 45.14V52.87ZM29.16 44.15L26.16 48.15L23.16 44.15H29.16ZM22.6 45.15L25.51 49L22.6 52.87V45.15Z" fill="url(#paint4_linear)"/>
<path d="M16.25 7C16.25 6.86739 16.1973 6.74021 16.1036 6.64645C16.0098 6.55268 15.8826 6.5 15.75 6.5H8C7.86739 6.5 7.74021 6.55268 7.64645 6.64645C7.55268 6.74021 7.5 6.86739 7.5 7V14.75C7.5 14.8826 7.55268 15.0098 7.64645 15.1036C7.74021 15.1973 7.86739 15.25 8 15.25C8.13261 15.25 8.25979 15.1973 8.35355 15.1036C8.44732 15.0098 8.5 14.8826 8.5 14.75V7.5H15.75C15.8826 7.5 16.0098 7.44732 16.1036 7.35355C16.1973 7.25979 16.25 7.13261 16.25 7Z" fill="url(#paint5_linear)"/>
<path d="M86.5 0H1.5C1.23478 0 0.980429 0.105357 0.792892 0.292893C0.605356 0.48043 0.5 0.734784 0.5 1V117C0.5 117.265 0.605356 117.52 0.792892 117.707C0.980429 117.895 1.23478 118 1.5 118H86.5C86.7652 118 87.0196 117.895 87.2071 117.707C87.3946 117.52 87.5 117.265 87.5 117V1C87.5 0.734784 87.3946 0.48043 87.2071 0.292893C87.0196 0.105357 86.7652 0 86.5 0ZM2.5 116V2H85.5V66.32C84.7361 65.9151 83.9479 65.5577 83.14 65.25C78.73 63.59 74.61 63.9 71.24 66.15L70.24 66.83V41.35H71.33C71.4626 41.35 71.5898 41.2973 71.6836 41.2036C71.7773 41.1098 71.83 40.9826 71.83 40.85V29C71.83 28.8674 71.7773 28.7402 71.6836 28.6464C71.5898 28.5527 71.4626 28.5 71.33 28.5H16.71C16.5774 28.5 16.4502 28.5527 16.3564 28.6464C16.2627 28.7402 16.21 28.8674 16.21 29V40.85C16.21 40.9826 16.2627 41.1098 16.3564 41.2036C16.4502 41.2973 16.5774 41.35 16.71 41.35H17.8V70.26C15.36 69.52 13.46 69.64 12.17 70.64C11.6251 71.1442 11.2044 71.7677 10.9407 72.4617C10.677 73.1556 10.5775 73.9012 10.65 74.64C10.6542 74.7835 10.6917 74.9241 10.7593 75.0508C10.827 75.1774 10.9231 75.2867 11.04 75.37L14.52 77.82L14.46 78.03C14.2733 78.8022 14.2733 79.6078 14.46 80.38C14.537 80.7065 14.7198 80.9983 14.98 81.21C17.07 83 28.59 91.62 51.6 91.94H51.71C58.76 90.45 78.12 86.58 83.04 86.58C83.3559 86.5679 83.6721 86.5982 83.98 86.67C84.27 86.75 84.8 86.95 85.5 87.22V116H2.5ZM15.5 78.09C15.5653 77.7662 15.6908 77.4575 15.87 77.18L16 77C16.4261 76.4979 17.0338 76.1851 17.69 76.13H17.79L18.79 76.29L19.7 76.47L19.99 76.54C20.71 76.7 21.4 76.88 22.05 77.08C22.49 77.22 22.93 77.38 23.37 77.54C24.06 77.79 24.75 78.07 25.43 78.38C25.81 78.56 26.2 78.75 26.62 78.97C27.6966 79.5375 28.7385 80.1686 29.74 80.86L29.82 80.92L30.13 81.13C30.3001 81.2705 30.5099 81.3544 30.73 81.37H34L37.27 81.28L40.11 81.16L43.79 80.94L46 80.81H46.37L47.67 80.71H47.93L48 80.96C48 81.11 48.08 81.26 48.13 81.41V81.49C48.21 81.74 48.31 82 48.42 82.27C48.4576 82.3398 48.5103 82.4003 48.5743 82.447C48.6384 82.4938 48.7121 82.5255 48.79 82.54H49.07L50.47 82.76L54.18 83.33L60.64 84.3L62.53 84.57C62.9817 84.6187 63.4357 84.6421 63.89 84.64C67.3232 84.5068 70.7457 84.1729 74.14 83.64C74.209 83.6302 74.2753 83.6069 74.3353 83.5714C74.3952 83.5359 74.4476 83.489 74.4894 83.4333C74.5312 83.3776 74.5616 83.3141 74.5788 83.2467C74.5961 83.1792 74.5999 83.1089 74.59 83.04C74.5755 82.9502 74.5386 82.8656 74.4826 82.7939C74.4267 82.7223 74.3535 82.6659 74.27 82.63C74.1749 82.605 74.0751 82.605 73.98 82.63C73.1 82.76 65.26 83.91 62.67 83.57L60.29 83.23L55.95 82.58H55.7V82.52L55.63 79.52C55.63 79.2548 55.5246 79.0004 55.3371 78.8129C55.1496 78.6254 54.8952 78.52 54.63 78.52L49 78.12L49.23 77.63C49.4268 77.2691 49.6957 76.9526 50.02 76.7L50.14 76.63C50.5599 76.3351 51.0314 76.1214 51.53 76C52.2187 75.893 52.9134 75.8296 53.61 75.81C54.13 75.81 54.75 75.74 55.61 75.71L57.49 75.64C59.62 75.57 62.25 75.5 64.7 75.46H65.39C65.4459 75.4728 65.5041 75.4728 65.56 75.46L65.69 75.4C65.84 75.29 67.26 74.28 69.25 73.05C69.57 72.86 69.9 72.65 70.25 72.45C73.43 70.56 77.6 68.45 80.42 68.36C80.55 68.36 80.65 68.36 80.75 68.36C80.887 68.3639 81.0199 68.3136 81.12 68.22C81.2262 68.1209 81.2906 67.985 81.3 67.84C81.3017 67.6986 81.2478 67.5621 81.15 67.46C81.1037 67.4073 81.0468 67.3649 80.9831 67.3356C80.9193 67.3063 80.8501 67.2908 80.78 67.29H80.62C77.71 67.29 73.51 69.29 70.22 71.23V68.23C70.8 67.87 71.35 67.51 71.85 67.23C76.85 63.91 82.36 65.97 85.52 67.74V86.07C84.98 85.86 84.52 85.71 84.3 85.63C83.9285 85.5528 83.5493 85.5192 83.17 85.53C77.03 85.53 54.17 90.32 51.61 90.87C38.54 90.67 29.44 87.82 24.11 85.47C21.2119 84.2371 18.4858 82.6338 16 80.7C15.7704 80.5206 15.6197 80.2587 15.58 79.97C15.539 79.6983 15.5123 79.4245 15.5 79.15C15.4757 78.7962 15.4891 78.4409 15.54 78.09H15.5ZM15.15 76.33C15.1269 76.3722 15.1001 76.4124 15.07 76.45L14.83 76.81H14.77L12.02 74.87C11.9044 74.7929 11.8111 74.6867 11.7497 74.562C11.6882 74.4373 11.6607 74.2987 11.67 74.16C11.6631 73.6624 11.7601 73.1689 11.9547 72.7109C12.1492 72.2529 12.4371 71.8405 12.8 71.5C13.8 70.72 15.45 70.68 17.65 71.38H17.76V75.1C17.5753 75.1044 17.3913 75.1245 17.21 75.16C16.4215 75.3042 15.7075 75.7178 15.19 76.33H15.15ZM48.74 41.33V47.65H39.22V41.35L48.74 41.33ZM39.18 40.33V29.53H48.74V40.35L39.18 40.33ZM49.24 48.65C49.3726 48.65 49.4998 48.5973 49.5936 48.5036C49.6873 48.4098 49.74 48.2826 49.74 48.15V41.35H69.2V71.71C67.2 72.94 65.62 74.01 65.2 74.28L65.12 74.34H65.03L60.62 74.43H59.37L57 74.53C55.091 74.5494 53.1847 74.6763 51.29 74.91C50.2203 75.1424 49.2612 75.7312 48.57 76.58H23.78C22.6328 76.1712 21.4604 75.8372 20.27 75.58C19.81 75.47 19.27 75.38 18.8 75.29V41.35H38.22V48.17C38.22 48.3026 38.2727 48.4298 38.3664 48.5236C38.4602 48.6173 38.5874 48.67 38.72 48.67L49.24 48.65ZM49.74 29.53H70.74V40.35H49.74V29.53ZM47.74 79.58H47.45C47 79.58 45.77 79.72 43.99 79.83H44C41.906 79.2334 39.8629 78.471 37.89 77.55H48.07C47.8721 78.1013 47.7772 78.6843 47.79 79.27L47.74 79.58ZM30.42 77.58H35.42L36.15 77.99C37.2482 78.5606 38.3765 79.0714 39.53 79.52L40.89 80.06L37.32 80.22H37.27C34.9329 79.5429 32.6606 78.6594 30.48 77.58H30.42ZM34.09 80.32H30.76L30.36 80.05C29.0211 79.1218 27.6099 78.3025 26.14 77.6H28.26C29.6741 78.4325 31.1521 79.1515 32.68 79.75L34.09 80.32ZM38.16 40.32H17.16V29.53H38.16V40.32ZM48.85 79.18L53.96 79.47C54.1485 79.48 54.3263 79.5607 54.4579 79.696C54.5895 79.8313 54.6652 80.0113 54.67 80.2V82.36L49.3 81.53L49.18 81.18C49.08 80.87 49.01 80.62 48.95 80.38C48.8872 80.1 48.8437 79.816 48.82 79.53L48.85 79.18Z" fill="url(#paint6_linear)"/>
<path d="M19.42 7.5H21.75C21.8826 7.5 22.0098 7.44732 22.1036 7.35355C22.1973 7.25979 22.25 7.13261 22.25 7C22.25 6.86739 22.1973 6.74021 22.1036 6.64645C22.0098 6.55268 21.8826 6.5 21.75 6.5H19.42C19.2874 6.5 19.1602 6.55268 19.0664 6.64645C18.9727 6.74021 18.92 6.86739 18.92 7C18.92 7.13261 18.9727 7.25979 19.0664 7.35355C19.1602 7.44732 19.2874 7.5 19.42 7.5Z" fill="url(#paint7_linear)"/>
<path d="M8 17.92C7.86739 17.92 7.74021 17.9727 7.64645 18.0664C7.55268 18.1602 7.5 18.2874 7.5 18.42V20.75C7.5 20.8826 7.55268 21.0098 7.64645 21.1036C7.74021 21.1973 7.86739 21.25 8 21.25C8.13261 21.25 8.25979 21.1973 8.35355 21.1036C8.44732 21.0098 8.5 20.8826 8.5 20.75V18.42C8.5 18.2874 8.44732 18.1602 8.35355 18.0664C8.25979 17.9727 8.13261 17.92 8 17.92Z" fill="url(#paint8_linear)"/>
<path d="M80 102.75C79.8674 102.75 79.7402 102.803 79.6464 102.896C79.5527 102.99 79.5 103.117 79.5 103.25V110.5H72.25C72.1174 110.5 71.9902 110.553 71.8964 110.646C71.8027 110.74 71.75 110.867 71.75 111C71.75 111.133 71.8027 111.26 71.8964 111.354C71.9902 111.447 72.1174 111.5 72.25 111.5H80C80.1326 111.5 80.2598 111.447 80.3536 111.354C80.4473 111.26 80.5 111.133 80.5 111V103.25C80.5 103.117 80.4473 102.99 80.3536 102.896C80.2598 102.803 80.1326 102.75 80 102.75Z" fill="url(#paint9_linear)"/>
<path d="M68.58 110.5H66.25C66.1174 110.5 65.9902 110.553 65.8964 110.646C65.8027 110.74 65.75 110.867 65.75 111C65.75 111.133 65.8027 111.26 65.8964 111.354C65.9902 111.447 66.1174 111.5 66.25 111.5H68.58C68.7126 111.5 68.8398 111.447 68.9336 111.354C69.0273 111.26 69.08 111.133 69.08 111C69.08 110.867 69.0273 110.74 68.9336 110.646C68.8398 110.553 68.7126 110.5 68.58 110.5Z" fill="url(#paint10_linear)"/>
<path d="M80 96.75C79.8674 96.75 79.7402 96.8027 79.6464 96.8964C79.5527 96.9902 79.5 97.1174 79.5 97.25V99.58C79.5 99.7126 79.5527 99.8398 79.6464 99.9336C79.7402 100.027 79.8674 100.08 80 100.08C80.1326 100.08 80.2598 100.027 80.3536 99.9336C80.4473 99.8398 80.5 99.7126 80.5 99.58V97.25C80.5 97.1174 80.4473 96.9902 80.3536 96.8964C80.2598 96.8027 80.1326 96.75 80 96.75Z" fill="url(#paint11_linear)"/>
<defs>
<linearGradient id="paint0_linear" x1="2.14151" y1="63.669" x2="85.3138" y2="63.62" gradientUnits="userSpaceOnUse">
<stop stop-color="#8F6D55"/>
<stop offset="1" stop-color="#4D4444"/>
</linearGradient>
<linearGradient id="paint1_linear" x1="2.14151" y1="63.669" x2="85.3138" y2="63.62" gradientUnits="userSpaceOnUse">
<stop stop-color="#8F6D55"/>
<stop offset="1" stop-color="#4D4444"/>
</linearGradient>
<linearGradient id="paint2_linear" x1="2.14151" y1="63.669" x2="85.3138" y2="63.62" gradientUnits="userSpaceOnUse">
<stop stop-color="#8F6D55"/>
<stop offset="1" stop-color="#4D4444"/>
</linearGradient>
<linearGradient id="paint3_linear" x1="2.14151" y1="63.669" x2="85.3138" y2="63.62" gradientUnits="userSpaceOnUse">
<stop stop-color="#8F6D55"/>
<stop offset="1" stop-color="#4D4444"/>
</linearGradient>
<linearGradient id="paint4_linear" x1="2.14151" y1="63.669" x2="85.3138" y2="63.62" gradientUnits="userSpaceOnUse">
<stop stop-color="#8F6D55"/>
<stop offset="1" stop-color="#4D4444"/>
</linearGradient>
<linearGradient id="paint5_linear" x1="2.14151" y1="63.669" x2="85.3138" y2="63.62" gradientUnits="userSpaceOnUse">
<stop stop-color="#8F6D55"/>
<stop offset="1" stop-color="#4D4444"/>
</linearGradient>
<linearGradient id="paint6_linear" x1="2.14151" y1="63.669" x2="85.3138" y2="63.62" gradientUnits="userSpaceOnUse">
<stop stop-color="#8F6D55"/>
<stop offset="1" stop-color="#4D4444"/>
</linearGradient>
<linearGradient id="paint7_linear" x1="2.14151" y1="63.669" x2="85.3138" y2="63.62" gradientUnits="userSpaceOnUse">
<stop stop-color="#8F6D55"/>
<stop offset="1" stop-color="#4D4444"/>
</linearGradient>
<linearGradient id="paint8_linear" x1="2.14151" y1="63.669" x2="85.3138" y2="63.62" gradientUnits="userSpaceOnUse">
<stop stop-color="#8F6D55"/>
<stop offset="1" stop-color="#4D4444"/>
</linearGradient>
<linearGradient id="paint9_linear" x1="2.14151" y1="63.669" x2="85.3138" y2="63.62" gradientUnits="userSpaceOnUse">
<stop stop-color="#8F6D55"/>
<stop offset="1" stop-color="#4D4444"/>
</linearGradient>
<linearGradient id="paint10_linear" x1="2.14151" y1="63.669" x2="85.3138" y2="63.62" gradientUnits="userSpaceOnUse">
<stop stop-color="#8F6D55"/>
<stop offset="1" stop-color="#4D4444"/>
</linearGradient>
<linearGradient id="paint11_linear" x1="2.14151" y1="63.669" x2="85.3138" y2="63.62" gradientUnits="userSpaceOnUse">
<stop stop-color="#8F6D55"/>
<stop offset="1" stop-color="#4D4444"/>
</linearGradient>
</defs>
</svg>
