<svg width="88" height="118" viewBox="0 0 88 118" fill="none" xmlns="http://www.w3.org/2000/svg">
<path d="M8 15.25C8.13261 15.25 8.25979 15.1973 8.35355 15.1036C8.44732 15.0098 8.5 14.8826 8.5 14.75V7.5H15.75C15.8826 7.5 16.0098 7.44732 16.1036 7.35355C16.1973 7.25979 16.25 7.13261 16.25 7C16.25 6.86739 16.1973 6.74021 16.1036 6.64645C16.0098 6.55268 15.8826 6.5 15.75 6.5H8C7.86739 6.5 7.74021 6.55268 7.64645 6.64645C7.55268 6.74021 7.5 6.86739 7.5 7V14.75C7.5 14.8826 7.55268 15.0098 7.64645 15.1036C7.74021 15.1973 7.86739 15.25 8 15.25Z" fill="url(#paint0_linear)"/>
<path d="M86.5 0H1.5C1.23478 0 0.980429 0.105357 0.792892 0.292893C0.605356 0.48043 0.5 0.734784 0.5 1V117C0.5 117.265 0.605356 117.52 0.792892 117.707C0.980429 117.895 1.23478 118 1.5 118H86.5C86.7652 118 87.0196 117.895 87.2071 117.707C87.3946 117.52 87.5 117.265 87.5 117V1C87.5 0.734784 87.3946 0.48043 87.2071 0.292893C87.0196 0.105357 86.7652 0 86.5 0ZM85.5 116H2.5V2H85.5V116Z" fill="url(#paint1_linear)"/>
<path d="M19.42 7.5H21.75C21.8826 7.5 22.0098 7.44732 22.1036 7.35355C22.1973 7.25979 22.25 7.13261 22.25 7C22.25 6.86739 22.1973 6.74021 22.1036 6.64645C22.0098 6.55268 21.8826 6.5 21.75 6.5H19.42C19.2874 6.5 19.1602 6.55268 19.0664 6.64645C18.9727 6.74021 18.92 6.86739 18.92 7C18.92 7.13261 18.9727 7.25979 19.0664 7.35355C19.1602 7.44732 19.2874 7.5 19.42 7.5Z" fill="url(#paint2_linear)"/>
<path d="M8 21.25C8.13261 21.25 8.25979 21.1973 8.35355 21.1036C8.44732 21.0098 8.5 20.8826 8.5 20.75V18.42C8.5 18.2874 8.44732 18.1602 8.35355 18.0664C8.25979 17.9727 8.13261 17.92 8 17.92C7.86739 17.92 7.74021 17.9727 7.64645 18.0664C7.55268 18.1602 7.5 18.2874 7.5 18.42V20.75C7.5 20.8826 7.55268 21.0098 7.64645 21.1036C7.74021 21.1973 7.86739 21.25 8 21.25Z" fill="url(#paint3_linear)"/>
<path d="M72.25 111.5H80C80.1326 111.5 80.2598 111.447 80.3536 111.354C80.4473 111.26 80.5 111.133 80.5 111V103.25C80.5 103.117 80.4473 102.99 80.3536 102.896C80.2598 102.803 80.1326 102.75 80 102.75C79.8674 102.75 79.7402 102.803 79.6464 102.896C79.5527 102.99 79.5 103.117 79.5 103.25V110.5H72.25C72.1174 110.5 71.9902 110.553 71.8964 110.646C71.8027 110.74 71.75 110.867 71.75 111C71.75 111.133 71.8027 111.26 71.8964 111.354C71.9902 111.447 72.1174 111.5 72.25 111.5Z" fill="url(#paint4_linear)"/>
<path d="M68.58 110.5H66.25C66.1174 110.5 65.9902 110.553 65.8964 110.646C65.8027 110.74 65.75 110.867 65.75 111C65.75 111.133 65.8027 111.26 65.8964 111.354C65.9902 111.447 66.1174 111.5 66.25 111.5H68.58C68.7126 111.5 68.8398 111.447 68.9336 111.354C69.0273 111.26 69.08 111.133 69.08 111C69.08 110.867 69.0273 110.74 68.9336 110.646C68.8398 110.553 68.7126 110.5 68.58 110.5Z" fill="url(#paint5_linear)"/>
<path d="M80 100.08C80.1326 100.08 80.2598 100.027 80.3536 99.9336C80.4473 99.8398 80.5 99.7126 80.5 99.58V97.25C80.5 97.1174 80.4473 96.9902 80.3536 96.8964C80.2598 96.8027 80.1326 96.75 80 96.75C79.8674 96.75 79.7402 96.8027 79.6464 96.8964C79.5527 96.9902 79.5 97.1174 79.5 97.25V99.58C79.5 99.7126 79.5527 99.8398 79.6464 99.9336C79.7402 100.027 79.8674 100.08 80 100.08Z" fill="url(#paint6_linear)"/>
<path d="M39 80.25C40.8239 80.2421 42.5896 79.6065 44 78.45C45.4129 79.6022 47.1769 80.2373 49 80.25C51.1217 80.25 53.1566 79.4071 54.6569 77.9069C56.1571 76.4066 57 74.3717 57 72.25C57.0008 71.1944 56.7927 70.149 56.3877 69.1741C55.9827 68.1993 55.3887 67.3142 54.64 66.57C53.9065 65.8153 53.03 65.2144 52.0616 64.8023C51.0932 64.3902 50.0524 64.1753 49 64.17C47.1721 64.1847 45.4055 64.8313 44 66C42.5882 64.8471 40.8227 64.2151 39 64.21C36.8677 64.21 34.8227 65.0571 33.3149 66.5649C31.8071 68.0727 30.96 70.1177 30.96 72.25C30.96 74.3823 31.8071 76.4273 33.3149 77.9351C34.8227 79.4429 36.8677 80.29 39 80.29V80.25ZM44 67.32C45.2774 68.6237 45.995 70.3748 46 72.2C45.995 74.0252 45.2774 75.7763 44 77.08C42.7264 75.7729 42.0137 74.02 42.0137 72.195C42.0137 70.37 42.7264 68.6171 44 67.31V67.32ZM49 65.17C50.8565 65.17 52.637 65.9075 53.9497 67.2203C55.2625 68.533 56 70.3135 56 72.17C56 74.0265 55.2625 75.807 53.9497 77.1198C52.637 78.4325 50.8565 79.17 49 79.17C47.4407 79.1661 45.9274 78.6417 44.7 77.68C46.1395 76.2189 46.9629 74.2608 47 72.21C46.9995 70.1399 46.1966 68.1505 44.76 66.66C45.9689 65.7068 47.4605 65.1826 49 65.17ZM34 67.23C34.6552 66.5722 35.4346 66.0513 36.293 65.6977C37.1514 65.344 38.0716 65.1646 39 65.17C40.5581 65.171 42.0713 65.6919 43.3 66.65C41.861 68.1413 41.0569 70.1327 41.0569 72.205C41.0569 74.2773 41.861 76.2687 43.3 77.76C42.0753 78.7265 40.5602 79.2515 39 79.25C37.6008 79.2703 36.2277 78.8709 35.0578 78.1032C33.8879 77.3354 32.9749 76.2347 32.4367 74.943C31.8985 73.6514 31.7598 72.228 32.0384 70.8568C32.3171 69.4855 33.0003 68.2292 34 67.25V67.23Z" fill="url(#paint7_linear)"/>
<path d="M38.78 87.09H39.66L39.88 85.52H39L39.17 84.52H37.54C37.54 84.52 36.54 90.03 36.54 90.7C36.5139 90.8857 36.5299 91.0748 36.5867 91.2535C36.6436 91.4322 36.74 91.5957 36.8687 91.7321C36.9974 91.8685 37.1551 91.9741 37.3301 92.0413C37.5052 92.1084 37.6931 92.1353 37.88 92.12C38.3045 92.1015 38.7247 92.0275 39.13 91.9L39.34 90.47C39.22 90.47 39.06 90.52 38.91 90.52C38.33 90.52 38.26 90.21 38.3 89.98L38.78 87.09Z" fill="url(#paint8_linear)"/>
<path d="M44.76 89.31C44.8724 88.8056 44.9526 88.2946 45 87.78C45.0295 87.4569 44.9887 87.1312 44.8805 86.8254C44.7723 86.5195 44.5992 86.2406 44.3732 86.0079C44.1471 85.7752 43.8734 85.5941 43.5708 85.4771C43.2682 85.3601 42.9438 85.3099 42.62 85.33C40.93 85.33 39.69 87.15 39.69 89.2C39.6427 89.5927 39.6845 89.991 39.8124 90.3652C39.9403 90.7395 40.1509 91.0801 40.4287 91.3617C40.7064 91.6433 41.0441 91.8586 41.4166 91.9916C41.789 92.1246 42.1867 92.1719 42.58 92.13C43.1824 92.1643 43.7853 92.0723 44.35 91.86L44.64 90.24C44.0755 90.4806 43.4729 90.6194 42.86 90.65C41.07 90.65 41.38 89.31 41.38 89.31H44.76ZM42.6 86.83C43.55 86.83 43.37 87.9 43.37 87.98H41.52C41.52 87.87 41.69 86.83 42.6 86.83Z" fill="url(#paint9_linear)"/>
<path d="M50.45 88.62C50.45 86.62 51.45 85.55 52.61 85.55C53.1575 85.5664 53.6901 85.7324 54.15 86.03L54.42 84.25C53.816 84.0132 53.1779 83.8748 52.53 83.84C50.6 83.84 48.72 85.52 48.72 88.67C48.72 90.76 49.72 92.15 51.72 92.15C52.2163 92.1208 52.7085 92.0438 53.19 91.92L53.49 90.09C53.0555 90.3102 52.5844 90.4491 52.1 90.5C51.863 90.5007 51.6287 90.4506 51.4127 90.3531C51.1967 90.2557 51.004 90.1131 50.8477 89.935C50.6914 89.7569 50.575 89.5474 50.5064 89.3206C50.4378 89.0938 50.4186 88.8549 50.45 88.62Z" fill="url(#paint10_linear)"/>
<path d="M29.94 85.36C29.2567 85.3639 28.5795 85.4892 27.94 85.73L27.7 87.17C28.2855 86.9694 28.9012 86.8713 29.52 86.88C30.14 86.88 30.6 86.95 30.6 87.45C30.6096 87.5959 30.5892 87.7423 30.54 87.88C30.54 87.88 30.05 87.88 29.83 87.88C28.38 87.88 26.83 88.5 26.83 90.37C26.7981 90.5982 26.8161 90.8306 26.8829 91.0511C26.9496 91.2716 27.0635 91.475 27.2166 91.6471C27.3698 91.8193 27.5585 91.9561 27.7697 92.0481C27.9809 92.1401 28.2097 92.1851 28.44 92.18C28.7658 92.1871 29.0892 92.1217 29.3866 91.9885C29.6841 91.8553 29.9482 91.6577 30.16 91.41L30.1 92H31.58L32.24 87.38C32.2462 87.0884 32.1886 86.799 32.0712 86.532C31.9538 86.2651 31.7794 86.027 31.5602 85.8346C31.3411 85.6421 31.0825 85.4999 30.8026 85.4179C30.5228 85.336 30.2283 85.3162 29.94 85.36ZM29.11 90.72C29.0249 90.7256 28.9395 90.7134 28.8594 90.684C28.7794 90.6546 28.7063 90.6087 28.6451 90.5494C28.5838 90.49 28.5357 90.4184 28.5038 90.3393C28.4719 90.2602 28.457 90.1752 28.46 90.09C28.46 89.63 28.71 89.09 29.93 89.09C30.0523 89.067 30.1777 89.067 30.3 89.09C30.33 89.4 30.12 90.72 29.11 90.72Z" fill="url(#paint11_linear)"/>
<path d="M35.26 86.9C35.49 86.9 36.4 86.98 36.4 86.98L36.61 85.5C36.1022 85.4063 35.5864 85.3628 35.07 85.37C33.83 85.37 32.57 85.86 32.57 87.56C32.57 89.48 34.67 89.28 34.67 90.09C34.67 90.63 34.08 90.68 33.67 90.68C33.1666 90.666 32.668 90.5784 32.19 90.42L31.96 91.88C32.5676 92.069 33.2057 92.1403 33.84 92.09C34.22 92.09 36.37 92.19 36.37 89.96C36.37 87.88 34.37 88.29 34.37 87.45C34.34 87 34.66 86.9 35.26 86.9Z" fill="url(#paint12_linear)"/>
<path d="M65.9 91.4L65.83 92H67.45L68.73 84H67.06L66.69 86.24C66.4993 85.9884 66.257 85.7806 65.9793 85.6305C65.7016 85.4805 65.3949 85.3916 65.08 85.37C63.55 85.37 62.27 87.22 62.27 89.37C62.27 90.75 62.95 92.09 64.34 92.09C64.634 92.0918 64.9251 92.0312 65.194 91.9123C65.4629 91.7933 65.7035 91.6187 65.9 91.4ZM64.9 90.47C64.3 90.47 64.02 89.97 64.02 89.17C64.02 87.87 64.6 87.01 65.34 87.01C66.08 87.01 66.25 87.43 66.25 88.41C66.25 89.39 65.84 90.47 64.93 90.47H64.9Z" fill="url(#paint13_linear)"/>
<path d="M24.78 84.02L23.13 88.92L23.05 84.02H20.6L19.27 92H20.88L21.9 85.99L22.05 92H23.2L25.35 85.99L24.4 92H26.11L27.43 84.02H24.78Z" fill="url(#paint14_linear)"/>
<path d="M48.69 85.43C47.95 85.43 47.39 86.43 47.39 86.43L47.54 85.49H46L45 91.99H46.72C47.2 89.21 47.29 86.99 48.46 87.37C48.5394 86.7091 48.7216 86.0647 49 85.46C48.8981 85.4384 48.7941 85.4284 48.69 85.43Z" fill="url(#paint15_linear)"/>
<path d="M57.06 85.36C56.3767 85.3639 55.6995 85.4892 55.06 85.73L54.82 87.17C55.4051 86.968 56.0211 86.8698 56.64 86.88C57.26 86.88 57.72 86.95 57.72 87.45C57.7296 87.5959 57.7092 87.7423 57.66 87.88C57.66 87.88 57.17 87.88 56.94 87.88C55.5 87.88 53.94 88.5 53.94 90.37C53.9081 90.5982 53.9261 90.8306 53.9929 91.0511C54.0596 91.2716 54.1735 91.475 54.3266 91.6471C54.4798 91.8193 54.6685 91.9561 54.8797 92.0481C55.091 92.1401 55.3197 92.1851 55.55 92.18C55.8758 92.1871 56.1992 92.1217 56.4966 91.9885C56.7941 91.8553 57.0582 91.6577 57.27 91.41L57.21 92.05H58.7L59.36 87.43C59.3738 87.1343 59.3217 86.8392 59.2076 86.5661C59.0935 86.2929 58.9201 86.0485 58.7001 85.8505C58.48 85.6524 58.2188 85.5057 57.9352 85.4209C57.6516 85.3361 57.3526 85.3153 57.06 85.36ZM56.23 90.72C56.1449 90.7256 56.0595 90.7134 55.9794 90.684C55.8994 90.6546 55.8263 90.6087 55.7651 90.5494C55.7038 90.49 55.6557 90.4184 55.6238 90.3393C55.5919 90.2602 55.577 90.1752 55.58 90.09C55.58 89.63 55.83 89.09 57.05 89.09C57.1723 89.067 57.2977 89.067 57.42 89.09C57.45 89.4 57.24 90.72 56.23 90.72Z" fill="url(#paint16_linear)"/>
<path d="M63.06 85.46C62.9538 85.4463 62.8462 85.4463 62.74 85.46C61.99 85.46 61.44 86.46 61.44 86.46L61.59 85.52H60L59 92H60.7C61.19 89.22 61.28 87 62.44 87.38C62.5437 86.7112 62.753 86.0631 63.06 85.46Z" fill="url(#paint17_linear)"/>
<path d="M40.39 41.7L43.05 26.12H38.8L36.14 41.7H40.39Z" fill="url(#paint18_linear)"/>
<path d="M22.09 28.7L25.9 41.7H30.39L37.08 26.15H32.58L28.42 36.77L28 35.16C26.6408 32.5185 24.6004 30.2883 22.09 28.7Z" fill="url(#paint19_linear)"/>
<path d="M27.8 34.14L26.36 27.25C26.2563 26.8523 26.0113 26.5061 25.6708 26.276C25.3303 26.0459 24.9176 25.9478 24.51 26H17.93V26.31C23 27.54 26.39 30.54 27.8 34.14Z" fill="url(#paint20_linear)"/>
<path d="M47.78 41.94C52.24 41.94 55.14 39.85 55.17 36.61C55.17 34.84 54.06 33.49 51.6 32.38C50.12 31.66 49.21 31.18 49.22 30.45C49.23 29.72 49.99 29.11 51.65 29.11C52.7404 29.0846 53.8239 29.289 54.83 29.71L55.21 29.89L55.79 26.51C54.5761 26.066 53.2926 25.8425 52 25.85C47.81 25.85 44.85 27.97 44.83 31C44.83 33.23 46.93 34.48 48.55 35.23C50.17 35.98 50.76 36.48 50.75 37.16C50.75 38.21 49.43 38.68 48.21 38.68C46.832 38.7227 45.4628 38.4455 44.21 37.87L43.66 37.62L43 41.11C44.5309 41.6701 46.1499 41.9512 47.78 41.94Z" fill="url(#paint21_linear)"/>
<path d="M59.34 41.71C59.34 41.71 60.06 39.79 60.23 39.37H65.67L66.18 41.7H70.12L66.69 26.14H63.41C62.9484 26.082 62.4805 26.1767 62.0779 26.4096C61.6752 26.6426 61.3598 27.001 61.18 27.43L54.88 41.71H59.34ZM63.14 31.83C63.14 31.83 63.49 30.93 63.71 30.34L64 31.68L65 36.18H61.45C61.8 35.29 63.14 31.83 63.14 31.83Z" fill="url(#paint22_linear)"/>
<defs>
<linearGradient id="paint0_linear" x1="2.14151" y1="63.669" x2="85.3138" y2="63.62" gradientUnits="userSpaceOnUse">
<stop stop-color="#8F6D55"/>
<stop offset="1" stop-color="#4D4444"/>
</linearGradient>
<linearGradient id="paint1_linear" x1="2.14151" y1="63.669" x2="85.3138" y2="63.62" gradientUnits="userSpaceOnUse">
<stop stop-color="#8F6D55"/>
<stop offset="1" stop-color="#4D4444"/>
</linearGradient>
<linearGradient id="paint2_linear" x1="2.14151" y1="63.669" x2="85.3138" y2="63.62" gradientUnits="userSpaceOnUse">
<stop stop-color="#8F6D55"/>
<stop offset="1" stop-color="#4D4444"/>
</linearGradient>
<linearGradient id="paint3_linear" x1="2.14151" y1="63.669" x2="85.3138" y2="63.62" gradientUnits="userSpaceOnUse">
<stop stop-color="#8F6D55"/>
<stop offset="1" stop-color="#4D4444"/>
</linearGradient>
<linearGradient id="paint4_linear" x1="2.14151" y1="63.669" x2="85.3138" y2="63.62" gradientUnits="userSpaceOnUse">
<stop stop-color="#8F6D55"/>
<stop offset="1" stop-color="#4D4444"/>
</linearGradient>
<linearGradient id="paint5_linear" x1="2.14151" y1="63.669" x2="85.3138" y2="63.62" gradientUnits="userSpaceOnUse">
<stop stop-color="#8F6D55"/>
<stop offset="1" stop-color="#4D4444"/>
</linearGradient>
<linearGradient id="paint6_linear" x1="2.14151" y1="63.669" x2="85.3138" y2="63.62" gradientUnits="userSpaceOnUse">
<stop stop-color="#8F6D55"/>
<stop offset="1" stop-color="#4D4444"/>
</linearGradient>
<linearGradient id="paint7_linear" x1="2.14151" y1="63.669" x2="85.3138" y2="63.62" gradientUnits="userSpaceOnUse">
<stop stop-color="#8F6D55"/>
<stop offset="1" stop-color="#4D4444"/>
</linearGradient>
<linearGradient id="paint8_linear" x1="2.14151" y1="63.669" x2="85.3138" y2="63.62" gradientUnits="userSpaceOnUse">
<stop stop-color="#8F6D55"/>
<stop offset="1" stop-color="#4D4444"/>
</linearGradient>
<linearGradient id="paint9_linear" x1="2.14151" y1="63.669" x2="85.3138" y2="63.62" gradientUnits="userSpaceOnUse">
<stop stop-color="#8F6D55"/>
<stop offset="1" stop-color="#4D4444"/>
</linearGradient>
<linearGradient id="paint10_linear" x1="2.14151" y1="63.669" x2="85.3138" y2="63.62" gradientUnits="userSpaceOnUse">
<stop stop-color="#8F6D55"/>
<stop offset="1" stop-color="#4D4444"/>
</linearGradient>
<linearGradient id="paint11_linear" x1="2.14151" y1="63.669" x2="85.3138" y2="63.62" gradientUnits="userSpaceOnUse">
<stop stop-color="#8F6D55"/>
<stop offset="1" stop-color="#4D4444"/>
</linearGradient>
<linearGradient id="paint12_linear" x1="2.14151" y1="63.669" x2="85.3138" y2="63.62" gradientUnits="userSpaceOnUse">
<stop stop-color="#8F6D55"/>
<stop offset="1" stop-color="#4D4444"/>
</linearGradient>
<linearGradient id="paint13_linear" x1="2.14151" y1="63.669" x2="85.3138" y2="63.62" gradientUnits="userSpaceOnUse">
<stop stop-color="#8F6D55"/>
<stop offset="1" stop-color="#4D4444"/>
</linearGradient>
<linearGradient id="paint14_linear" x1="2.14151" y1="63.669" x2="85.3138" y2="63.62" gradientUnits="userSpaceOnUse">
<stop stop-color="#8F6D55"/>
<stop offset="1" stop-color="#4D4444"/>
</linearGradient>
<linearGradient id="paint15_linear" x1="2.14151" y1="63.669" x2="85.3138" y2="63.62" gradientUnits="userSpaceOnUse">
<stop stop-color="#8F6D55"/>
<stop offset="1" stop-color="#4D4444"/>
</linearGradient>
<linearGradient id="paint16_linear" x1="2.14151" y1="63.669" x2="85.3138" y2="63.62" gradientUnits="userSpaceOnUse">
<stop stop-color="#8F6D55"/>
<stop offset="1" stop-color="#4D4444"/>
</linearGradient>
<linearGradient id="paint17_linear" x1="2.14151" y1="63.669" x2="85.3138" y2="63.62" gradientUnits="userSpaceOnUse">
<stop stop-color="#8F6D55"/>
<stop offset="1" stop-color="#4D4444"/>
</linearGradient>
<linearGradient id="paint18_linear" x1="2.14151" y1="63.669" x2="85.3138" y2="63.62" gradientUnits="userSpaceOnUse">
<stop stop-color="#8F6D55"/>
<stop offset="1" stop-color="#4D4444"/>
</linearGradient>
<linearGradient id="paint19_linear" x1="2.14151" y1="63.669" x2="85.3138" y2="63.62" gradientUnits="userSpaceOnUse">
<stop stop-color="#8F6D55"/>
<stop offset="1" stop-color="#4D4444"/>
</linearGradient>
<linearGradient id="paint20_linear" x1="2.14151" y1="63.669" x2="85.3138" y2="63.62" gradientUnits="userSpaceOnUse">
<stop stop-color="#8F6D55"/>
<stop offset="1" stop-color="#4D4444"/>
</linearGradient>
<linearGradient id="paint21_linear" x1="2.14151" y1="63.669" x2="85.3138" y2="63.62" gradientUnits="userSpaceOnUse">
<stop stop-color="#8F6D55"/>
<stop offset="1" stop-color="#4D4444"/>
</linearGradient>
<linearGradient id="paint22_linear" x1="2.14151" y1="63.669" x2="85.3138" y2="63.62" gradientUnits="userSpaceOnUse">
<stop stop-color="#8F6D55"/>
<stop offset="1" stop-color="#4D4444"/>
</linearGradient>
</defs>
</svg>
