<svg width="88" height="118" viewBox="0 0 88 118" fill="none" xmlns="http://www.w3.org/2000/svg">
<path d="M8 15.25C8.13261 15.25 8.25979 15.1973 8.35355 15.1036C8.44732 15.0098 8.5 14.8826 8.5 14.75V7.5H15.75C15.8826 7.5 16.0098 7.44732 16.1036 7.35355C16.1973 7.25979 16.25 7.13261 16.25 7C16.25 6.86739 16.1973 6.74021 16.1036 6.64645C16.0098 6.55268 15.8826 6.5 15.75 6.5H8C7.86739 6.5 7.74021 6.55268 7.64645 6.64645C7.55268 6.74021 7.5 6.86739 7.5 7V14.75C7.5 14.8826 7.55268 15.0098 7.64645 15.1036C7.74021 15.1973 7.86739 15.25 8 15.25Z" fill="url(#paint0_linear)"/>
<path d="M86.5 0H1.5C1.23478 0 0.980429 0.105357 0.792892 0.292893C0.605356 0.48043 0.5 0.734784 0.5 1V117C0.5 117.265 0.605356 117.52 0.792892 117.707C0.980429 117.895 1.23478 118 1.5 118H86.5C86.7652 118 87.0196 117.895 87.2071 117.707C87.3946 117.52 87.5 117.265 87.5 117V1C87.5 0.734784 87.3946 0.48043 87.2071 0.292893C87.0196 0.105357 86.7652 0 86.5 0ZM85.5 2V70.2H78C77.3829 68.1709 76.0689 66.4249 74.29 65.27C72.9772 64.5329 71.5339 64.0574 70.04 63.87L69.94 63.67H70.52C71.4786 63.749 72.4369 63.5138 73.25 63C73.4106 62.8589 73.5392 62.685 73.6272 62.4902C73.7152 62.2953 73.7604 62.0838 73.76 61.87C73.7628 61.6117 73.7087 61.356 73.6015 61.1209C73.4944 60.8859 73.3368 60.6773 73.14 60.51C71.77 59.3 68.43 59.61 67.73 59.69C65.65 56.15 62.73 51.54 60.82 50.63C58.21 49.38 44.65 49.56 44 49.57C43.35 49.58 29.79 49.38 27.18 50.65C25.31 51.56 22.35 56.17 20.27 59.71C19.57 59.63 16.27 59.31 14.86 60.53C14.6632 60.6973 14.5056 60.9059 14.3985 61.1409C14.2913 61.376 14.2372 61.6317 14.24 61.89C14.2424 62.1004 14.289 62.308 14.3769 62.4993C14.4648 62.6905 14.5919 62.8611 14.75 63C15.5578 63.5089 16.5081 63.7438 17.46 63.67H18.04L17.94 63.87C16.4461 64.0574 15.0028 64.5329 13.69 65.27C11.9186 66.4283 10.612 68.1739 10 70.2H2.5V2H85.5ZM44 93.54C40 93.54 29.5 93.2 24.71 93.03C25.0876 92.613 25.5427 92.2733 26.05 92.03C30.61 92.03 57.39 92.03 61.95 92.03C62.4573 92.2733 62.9124 92.613 63.29 93.03C58.49 93.2 48 93.54 44 93.54ZM64.46 93C63.9356 92.1516 63.1694 91.4795 62.26 91.07C62.1975 91.0551 62.1325 91.0551 62.07 91.07C57.59 91.07 30.41 91.07 25.93 91.07C25.8675 91.0551 25.8025 91.0551 25.74 91.07C24.8306 91.4795 24.0644 92.1516 23.54 93H22.28C16.02 92.55 13.28 90.63 12.71 90.22L10.13 81.91C10.13 81.45 10.13 80.97 10.13 80.46V78.34C9.93 69.12 12.78 67.18 14.32 66.15C16.06 64.97 20.17 64.64 20.38 64.63H21.17C23.0729 67.0868 24.8229 69.6583 26.41 72.33C28.35 75.63 29.53 76.04 32.48 76.04H55.59C58.59 76.04 59.72 75.63 61.66 72.33C63.2471 69.6583 64.9971 67.0868 66.9 64.63H67.69C67.9 64.63 72.01 64.97 73.75 66.15C75.29 67.15 78.15 69.15 77.94 78.34V80.46C77.94 80.97 77.94 81.46 77.94 81.91L75.36 90.22C74.83 90.63 72.04 92.55 65.8 93H64.46ZM21.64 93.91C21.39 94.51 20.56 94.74 17.13 94.74C12.55 94.74 11.66 94.23 11.01 92.49C10.51 91.14 10.34 89.3 10.22 85.49L11.8 90.57C11.8245 90.6553 11.8731 90.7317 11.94 90.79C12.05 90.93 14.7 93.28 21.64 93.9V93.91ZM18.64 62.64C17.64 62.75 15.99 62.75 15.44 62.27C15.384 62.2266 15.3392 62.1703 15.3096 62.1059C15.28 62.0414 15.2664 61.9708 15.27 61.9C15.2676 61.7838 15.2915 61.6685 15.34 61.5629C15.3885 61.4572 15.4603 61.3639 15.55 61.29C16.4616 60.7753 17.5065 60.5454 18.55 60.63C18.9 60.63 19.23 60.63 19.55 60.63L18.64 62.64ZM44 50.57C47.88 50.51 58.37 50.57 60.37 51.57C62 52.37 64.95 56.95 67.12 60.68H66.41C64.59 57.49 61.83 53.01 60.15 52.19C57.65 51 44.62 51.12 44 51.13C43.38 51.14 30.35 50.94 27.84 52.13C26.16 52.95 23.4 57.43 21.59 60.62H20.87C23 56.93 26 52.35 27.62 51.55C29.61 50.57 40.12 50.51 44 50.57ZM68.46 60.65C69.7 60.57 71.7 60.59 72.46 61.28C72.5497 61.3539 72.6215 61.4472 72.67 61.5529C72.7185 61.6585 72.7424 61.7738 72.74 61.89C72.7436 61.9608 72.73 62.0314 72.7004 62.0958C72.6708 62.1603 72.626 62.2166 72.57 62.26C72.02 62.74 70.42 62.74 69.37 62.63L68.46 60.65ZM33.83 75C29.83 75.08 29.13 75.09 27.2 71.8C25.725 69.3131 24.109 66.9125 22.36 64.61H26.94C28.5369 66.8896 29.9417 69.2979 31.14 71.81C31.1779 71.9002 31.242 71.977 31.324 72.0305C31.406 72.084 31.5021 72.1117 31.6 72.11C31.6625 72.1242 31.7275 72.1242 31.79 72.11C31.9099 72.0571 32.0048 71.9601 32.0551 71.839C32.1054 71.718 32.1071 71.5823 32.06 71.46C30.9435 69.0877 29.6359 66.8102 28.15 64.65H31.81C32.03 65.19 32.49 66.4 32.87 67.65C32.9017 67.753 32.9652 67.8434 33.0515 67.9081C33.1377 67.9727 33.2422 68.0084 33.35 68.01H33.5C33.6262 67.9686 33.7313 67.8797 33.7929 67.762C33.8546 67.6444 33.8679 67.5073 33.83 67.38C33.51 66.3 33.13 65.29 32.88 64.65H55.12C54.87 65.29 54.49 66.3 54.12 67.38C54.0821 67.5073 54.0954 67.6444 54.1571 67.762C54.2187 67.8797 54.3238 67.9686 54.45 68.01H54.6C54.7078 68.0084 54.8123 67.9727 54.8985 67.9081C54.9848 67.8434 55.0483 67.753 55.08 67.65C55.46 66.38 55.92 65.17 56.14 64.65H59.8C58.3141 66.8102 57.0065 69.0877 55.89 71.46C55.8429 71.5823 55.8446 71.718 55.8949 71.839C55.9452 71.9601 56.0401 72.0571 56.16 72.11C56.2225 72.1242 56.2875 72.1242 56.35 72.11C56.4479 72.1117 56.544 72.084 56.626 72.0305C56.708 71.977 56.7721 71.9002 56.81 71.81C58.0083 69.2979 59.4131 66.8896 61.01 64.61H65.59C63.841 66.9125 62.225 69.3131 60.75 71.8C58.82 75.09 58.11 75.08 54.12 75C53.51 75 34.49 75 33.83 75ZM20.3 61.66H21L20.84 61.96H20.11C20.18 61.86 20.24 61.76 20.3 61.66ZM44 52.13C47.72 52.07 57.8 52.13 59.71 53.07C61.18 53.78 64.1 58.57 65.99 61.96H22C23.89 58.57 26.81 53.78 28.28 53.07C30.19 52.14 40.27 52.08 44 52.13ZM67.87 62H67.14L66.98 61.7H67.7C67.76 61.76 67.82 61.86 67.87 62ZM21.12 63.62C21.22 63.42 21.33 63.22 21.45 63H66.55C66.67 63.22 66.78 63.42 66.88 63.62H21.12ZM68 63.6L67.69 63H68.43C68.4605 63.0478 68.4873 63.098 68.51 63.15L68.61 63.34L68.79 63.68L68 63.6ZM19.33 63.35L19.42 63.17L19.51 63.01H20.25L20 63.6L19.19 63.69C19.23 63.58 19.29 63.46 19.36 63.35H19.33ZM76.03 90.83C76.0969 90.7717 76.1455 90.6953 76.17 90.61L77.75 85.53C77.63 89.29 77.46 91.14 76.96 92.53C76.31 94.27 75.42 94.78 70.84 94.78C67.41 94.78 66.58 94.55 66.33 93.95C73.3 93.28 76 90.93 76.06 90.83H76.03ZM2.5 116V72.2H9.5C9.1486 74.2165 9.01117 76.2646 9.09 78.31V80.43C9.25 87.99 9.31 90.82 10.09 92.83C11.01 95.29 12.73 95.73 17.14 95.73C20.71 95.73 22.26 95.57 22.67 93.96C25.31 94.06 39.27 94.54 44.01 94.54C48.75 94.54 62.71 94.06 65.35 93.96C65.76 95.57 67.35 95.73 70.88 95.73C75.29 95.73 77.01 95.29 77.88 92.83C78.64 90.83 78.7 87.99 78.88 80.43V78.31C78.9588 76.2646 78.8214 74.2165 78.47 72.2H85.47V116H2.5Z" fill="url(#paint1_linear)"/>
<path d="M19.42 7.5H21.75C21.8826 7.5 22.0098 7.44732 22.1036 7.35355C22.1973 7.25979 22.25 7.13261 22.25 7C22.25 6.86739 22.1973 6.74021 22.1036 6.64645C22.0098 6.55268 21.8826 6.5 21.75 6.5H19.42C19.2874 6.5 19.1602 6.55268 19.0664 6.64645C18.9727 6.74021 18.92 6.86739 18.92 7C18.92 7.13261 18.9727 7.25979 19.0664 7.35355C19.1602 7.44732 19.2874 7.5 19.42 7.5Z" fill="url(#paint2_linear)"/>
<path d="M8 21.25C8.13261 21.25 8.25979 21.1973 8.35355 21.1036C8.44732 21.0098 8.5 20.8826 8.5 20.75V18.42C8.5 18.2874 8.44732 18.1602 8.35355 18.0664C8.25979 17.9727 8.13261 17.92 8 17.92C7.86739 17.92 7.74021 17.9727 7.64645 18.0664C7.55268 18.1602 7.5 18.2874 7.5 18.42V20.75C7.5 20.8826 7.55268 21.0098 7.64645 21.1036C7.74021 21.1973 7.86739 21.25 8 21.25Z" fill="url(#paint3_linear)"/>
<path d="M80 102.75C79.8674 102.75 79.7402 102.803 79.6464 102.896C79.5527 102.99 79.5 103.117 79.5 103.25V110.5H72.25C72.1174 110.5 71.9902 110.553 71.8964 110.646C71.8027 110.74 71.75 110.867 71.75 111C71.75 111.133 71.8027 111.26 71.8964 111.354C71.9902 111.447 72.1174 111.5 72.25 111.5H80C80.1326 111.5 80.2598 111.447 80.3536 111.354C80.4473 111.26 80.5 111.133 80.5 111V103.25C80.5 103.117 80.4473 102.99 80.3536 102.896C80.2598 102.803 80.1326 102.75 80 102.75Z" fill="url(#paint4_linear)"/>
<path d="M68.58 110.5H66.25C66.1174 110.5 65.9902 110.553 65.8964 110.646C65.8027 110.74 65.75 110.867 65.75 111C65.75 111.133 65.8027 111.26 65.8964 111.354C65.9902 111.447 66.1174 111.5 66.25 111.5H68.58C68.7126 111.5 68.8398 111.447 68.9336 111.354C69.0273 111.26 69.08 111.133 69.08 111C69.08 110.867 69.0273 110.74 68.9336 110.646C68.8398 110.553 68.7126 110.5 68.58 110.5Z" fill="url(#paint5_linear)"/>
<path d="M80 96.75C79.8674 96.75 79.7402 96.8027 79.6464 96.8964C79.5527 96.9902 79.5 97.1174 79.5 97.25V99.58C79.5 99.7126 79.5527 99.8398 79.6464 99.9336C79.7402 100.027 79.8674 100.08 80 100.08C80.1326 100.08 80.2598 100.027 80.3536 99.9336C80.4473 99.8398 80.5 99.7126 80.5 99.58V97.25C80.5 97.1174 80.4473 96.9902 80.3536 96.8964C80.2598 96.8027 80.1326 96.75 80 96.75Z" fill="url(#paint6_linear)"/>
<path d="M19.73 27.1V41.1C19.7326 41.3263 19.8244 41.5425 19.9854 41.7017C20.1464 41.8608 20.3636 41.95 20.59 41.95H20.87C21.0964 41.95 21.3136 41.8608 21.4746 41.7017C21.6356 41.5425 21.7274 41.3263 21.73 41.1V34.36H26.46C26.6873 34.3574 26.9045 34.266 27.0652 34.1052C27.226 33.9445 27.3174 33.7273 27.32 33.5C27.32 33.2719 27.2294 33.0532 27.0681 32.8919C26.9068 32.7306 26.6881 32.64 26.46 32.64H21.73V27.64H28.4C28.5133 27.6413 28.6257 27.62 28.7307 27.5773C28.8356 27.5345 28.931 27.4712 29.0111 27.3911C29.0912 27.311 29.1545 27.2156 29.1973 27.1107C29.24 27.0057 29.2613 26.8933 29.26 26.78C29.26 26.5519 29.1694 26.3332 29.0081 26.1719C28.8468 26.0106 28.6281 25.92 28.4 25.92H21C20.6768 25.9143 20.364 26.0341 20.1272 26.2541C19.8904 26.4741 19.7481 26.7773 19.73 27.1Z" fill="url(#paint7_linear)"/>
<path d="M32.35 41.93H32.61C32.7216 41.93 32.8322 41.908 32.9353 41.8653C33.0384 41.8226 33.1321 41.76 33.211 41.681C33.29 41.6021 33.3526 41.5084 33.3953 41.4053C33.438 41.3022 33.46 41.1916 33.46 41.08V34.75H37.33L40.55 41.38C40.6881 41.5719 40.8897 41.7087 41.1191 41.7661C41.3484 41.8235 41.5907 41.7978 41.8029 41.6935C42.0151 41.5892 42.1835 41.4131 42.2781 41.1964C42.3728 40.9798 42.3876 40.7366 42.32 40.51L39.32 34.29C40.2451 34.044 41.0745 33.5247 41.7 32.8C42.2814 32.0455 42.5819 31.112 42.55 30.16C42.5968 29.5246 42.4787 28.8878 42.2071 28.3114C41.9356 27.735 41.5198 27.2385 41 26.87C39.4903 26.0906 37.7943 25.7445 36.1 25.87H32.73C32.4002 25.8726 32.0848 26.0055 31.8526 26.2396C31.6203 26.4738 31.49 26.7902 31.49 27.12V41.12C31.5028 41.3393 31.599 41.5454 31.7589 41.696C31.9188 41.8467 32.1303 41.9304 32.35 41.93ZM33.46 27.58H36.05C37.2561 27.4809 38.4676 27.6908 39.57 28.19C39.8898 28.4388 40.1411 28.7648 40.3003 29.1374C40.4595 29.51 40.5213 29.9169 40.48 30.32C40.5162 30.7218 40.4423 31.1259 40.2661 31.4889C40.0899 31.8518 39.8181 32.1599 39.48 32.38C38.3944 32.888 37.1943 33.1018 36 33H33.46V27.58Z" fill="url(#paint8_linear)"/>
<path d="M47.05 41.93H54.91C55.0225 41.9313 55.1341 41.9103 55.2383 41.8682C55.3426 41.8261 55.4375 41.7637 55.5175 41.6846C55.5975 41.6055 55.661 41.5114 55.7044 41.4076C55.7477 41.3038 55.77 41.1925 55.77 41.08C55.77 40.9675 55.7477 40.8562 55.7044 40.7524C55.661 40.6486 55.5975 40.5545 55.5175 40.4754C55.4375 40.3963 55.3426 40.3339 55.2383 40.2918C55.1341 40.2497 55.0225 40.2287 54.91 40.23H47.8V34.36H52.33C52.5581 34.36 52.7768 34.2694 52.9381 34.1081C53.0994 33.9468 53.19 33.7281 53.19 33.5C53.19 33.2719 53.0994 33.0532 52.9381 32.8919C52.7768 32.7306 52.5581 32.64 52.33 32.64H47.8V27.64H54.54C54.7681 27.64 54.9868 27.5494 55.1481 27.3881C55.3094 27.2268 55.4 27.0081 55.4 26.78C55.3974 26.5527 55.306 26.3355 55.1452 26.1748C54.9845 26.014 54.7673 25.9226 54.54 25.92H47.05C46.7303 25.9195 46.4225 26.0415 46.19 26.261C45.9575 26.4805 45.8179 26.7808 45.8 27.1V40.69C45.8 40.8537 45.8324 41.0157 45.8953 41.1668C45.9583 41.3179 46.0505 41.4551 46.1667 41.5704C46.2829 41.6856 46.4208 41.7768 46.5724 41.8385C46.724 41.9002 46.8863 41.9313 47.05 41.93Z" fill="url(#paint9_linear)"/>
<path d="M59.54 41.93H67.41C67.6364 41.93 67.8536 41.8408 68.0146 41.6817C68.1756 41.5225 68.2674 41.3064 68.27 41.08C68.2674 40.8537 68.1756 40.6375 68.0146 40.4783C67.8536 40.3192 67.6364 40.23 67.41 40.23H60.29V34.36H64.82C65.0481 34.36 65.2668 34.2694 65.4281 34.1081C65.5894 33.9468 65.68 33.7281 65.68 33.5C65.68 33.2719 65.5894 33.0532 65.4281 32.8919C65.2668 32.7306 65.0481 32.64 64.82 32.64H60.29V27.64H67C67.1125 27.64 67.2238 27.6177 67.3276 27.5744C67.4314 27.531 67.5255 27.4675 67.6046 27.3875C67.6837 27.3075 67.7461 27.2126 67.7882 27.1084C67.8303 27.0041 67.8513 26.8925 67.85 26.78C67.85 26.5536 67.7608 26.3364 67.6017 26.1754C67.4425 26.0144 67.2263 25.9226 67 25.92H59.5C59.189 25.932 58.8936 26.0596 58.6717 26.2778C58.4497 26.496 58.3172 26.7892 58.3 27.1V40.69C58.3 41.0189 58.4306 41.3343 58.6632 41.5668C58.8957 41.7994 59.2111 41.93 59.54 41.93Z" fill="url(#paint10_linear)"/>
<path d="M61.8 78.94C59.44 76.6 52.71 76.61 52.45 76.62H35.55C35.28 76.62 28.55 76.62 26.2 78.94C24.09 81.02 23.15 82.33 23.15 84.58C23.15 87.22 26.2 88.86 31.15 88.86H56.89C61.8 88.86 64.89 87.22 64.89 84.58C64.85 82.33 63.91 81 61.8 78.94ZM56.89 87.86H31.11C27.75 87.86 24.11 87 24.11 84.58C24.11 82.7 24.83 81.66 26.86 79.65C28.89 77.64 35.42 77.65 35.51 77.65H52.41C52.5 77.65 58.99 77.65 61.06 79.65C63.13 81.65 63.81 82.65 63.81 84.58C63.85 87 60.25 87.86 56.89 87.86Z" fill="url(#paint11_linear)"/>
<path d="M62.17 75.9C62.2393 75.9137 62.3107 75.9137 62.38 75.9C62.4624 75.8992 62.5435 75.8789 62.6165 75.8407C62.6896 75.8024 62.7524 75.7473 62.8 75.68C64.6592 73.4522 66.9657 71.6397 69.57 70.36C71.2213 69.6041 72.9724 69.0889 74.77 68.83C74.8577 68.8198 74.9412 68.7866 75.0119 68.7337C75.0827 68.6808 75.1381 68.6102 75.1727 68.5289C75.2072 68.4476 75.2196 68.3586 75.2086 68.271C75.1976 68.1834 75.1636 68.1002 75.11 68.03C73.19 65.49 69.48 65.32 69.33 65.31C69.2278 65.3092 69.1274 65.3369 69.04 65.39C63.93 68.71 62 75 61.9 75.3C61.8648 75.4158 61.8728 75.5403 61.9224 75.6507C61.9721 75.761 62.06 75.8496 62.17 75.9ZM69.44 66.37C70.9966 66.4776 72.4862 67.0449 73.72 68C72.1392 68.3017 70.6011 68.7953 69.14 69.47C67.2322 70.4178 65.4653 71.626 63.89 73.06C65.129 70.3867 67.0415 68.0814 69.44 66.37Z" fill="url(#paint12_linear)"/>
<path d="M63.12 76.24C63.0742 76.2988 63.0416 76.3667 63.0244 76.4391C63.0071 76.5116 63.0056 76.5869 63.02 76.66C63.0333 76.7332 63.0638 76.8022 63.109 76.8613C63.1542 76.9204 63.2128 76.968 63.28 77C64.3189 77.5494 65.4748 77.8409 66.65 77.85C67.5949 77.8715 68.528 77.6365 69.35 77.17C70.3874 76.5673 71.584 76.2952 72.78 76.39C73.566 76.4314 74.3467 76.24 75.0244 75.8398C75.7022 75.4396 76.2467 74.8483 76.59 74.14C77.45 72.22 76.13 69.66 76.07 69.55C76.0259 69.463 75.9563 69.3916 75.8706 69.3451C75.7848 69.2987 75.6869 69.2794 75.59 69.29C68.61 69.82 63.34 76 63.12 76.24ZM75.33 70.31C75.868 71.3632 75.9928 72.5795 75.68 73.72C75.4172 74.255 75.001 74.6995 74.4845 74.9969C73.968 75.2943 73.3746 75.4312 72.78 75.39C71.3824 75.2764 69.9841 75.6014 68.78 76.32C68.0829 76.6616 67.319 76.8451 66.5428 76.8572C65.7666 76.8693 64.9974 76.7097 64.29 76.39C65.71 75 70 70.88 75.33 70.31Z" fill="url(#paint13_linear)"/>
<path d="M76.62 80.59C76.514 80.5882 76.4104 80.6216 76.3254 80.685C76.2404 80.7483 76.1787 80.838 76.15 80.94C76.15 80.94 75.63 82.02 71.78 82.59C66.62 83.37 66.06 86.09 66.04 86.2C66.0208 86.2903 66.0275 86.3843 66.0593 86.471C66.0912 86.5577 66.1469 86.6336 66.22 86.69C66.3093 86.757 66.4184 86.7922 66.53 86.79C66.6034 86.794 66.6763 86.7766 66.74 86.74C68.6701 86.0502 70.6924 85.6525 72.74 85.56C73.4745 85.5612 74.2003 85.4005 74.8658 85.0894C75.5312 84.7783 76.1199 84.3244 76.59 83.76C76.8587 83.359 77.0425 82.9073 77.1302 82.4327C77.2179 81.9581 77.2076 81.4705 77.1 81C77.0728 80.8937 77.0127 80.7988 76.9283 80.7287C76.8439 80.6587 76.7395 80.6171 76.63 80.61L76.62 80.59ZM75.76 83.2C75.373 83.6409 74.8939 83.9912 74.3564 84.2262C73.819 84.4613 73.2364 84.5752 72.65 84.56C70.9635 84.6947 69.2911 84.969 67.65 85.38C68.8405 84.3328 70.3391 83.7011 71.92 83.58C73.3973 83.4381 74.8299 82.9957 76.13 82.28C76.079 82.611 75.9524 82.9258 75.76 83.2Z" fill="url(#paint14_linear)"/>
<path d="M13.23 68.88C15.0275 69.1389 16.7787 69.6541 18.43 70.41C21.0343 71.6897 23.3407 73.5022 25.2 75.73C25.2476 75.7973 25.3104 75.8524 25.3835 75.8907C25.4565 75.9289 25.5376 75.9492 25.62 75.95C25.6893 75.9637 25.7607 75.9637 25.83 75.95C25.94 75.8996 26.0279 75.811 26.0776 75.7007C26.1272 75.5903 26.1352 75.4658 26.1 75.35C26.02 75.09 24.1 68.76 18.96 65.49C18.8747 65.4323 18.7728 65.4042 18.67 65.41C18.52 65.41 14.81 65.59 12.89 68.13C12.8364 68.2002 12.8024 68.2834 12.7914 68.371C12.7804 68.4586 12.7928 68.5476 12.8273 68.6289C12.8619 68.7102 12.9173 68.7809 12.9881 68.8337C13.0588 68.8866 13.1423 68.9198 13.23 68.93V68.88ZM18.56 66.37C20.9604 68.0961 22.8725 70.4148 24.11 73.1C22.5347 71.666 20.7678 70.4578 18.86 69.51C17.4007 68.8216 15.8626 68.3145 14.28 68C15.5138 67.0449 17.0034 66.4776 18.56 66.37Z" fill="url(#paint15_linear)"/>
<path d="M15.22 76.39C16.4161 76.2939 17.613 76.5661 18.65 77.17C19.4751 77.6378 20.4118 77.8728 21.36 77.85C22.5319 77.8397 23.6842 77.5482 24.72 77C24.7873 76.9667 24.8463 76.9189 24.893 76.8602C24.9397 76.8014 24.9728 76.733 24.99 76.66C25.0052 76.5863 25.0031 76.51 24.9841 76.4371C24.965 76.3643 24.9294 76.2968 24.88 76.24C24.66 75.97 19.38 69.82 12.41 69.29C12.3129 69.278 12.2144 69.2966 12.1284 69.3432C12.0423 69.3898 11.973 69.4621 11.93 69.55C11.87 69.66 10.54 72.22 11.41 74.14C11.7533 74.8483 12.2978 75.4396 12.9756 75.8398C13.6533 76.24 14.434 76.4314 15.22 76.39ZM12.67 70.31C17.96 70.88 22.29 74.96 23.67 76.39C22.9626 76.7097 22.1934 76.8693 21.4172 76.8572C20.641 76.8451 19.8771 76.6616 19.18 76.32C17.9759 75.6015 16.5776 75.2764 15.18 75.39C14.5854 75.4312 13.992 75.2944 13.4755 74.9969C12.959 74.6995 12.5428 74.255 12.28 73.72C11.8 72.57 12.39 71 12.67 70.31Z" fill="url(#paint16_linear)"/>
<path d="M16.22 82.59C12.41 82 11.87 81 11.86 81C11.8331 80.8934 11.7711 80.799 11.6841 80.7319C11.597 80.6648 11.4899 80.6289 11.38 80.63C11.2701 80.6289 11.163 80.6648 11.0759 80.7319C10.9889 80.799 10.9269 80.8934 10.9 81C10.7895 81.4736 10.7778 81.9648 10.8655 82.4431C10.9533 82.9214 11.1386 83.3765 11.41 83.78C11.8801 84.3444 12.4688 84.7983 13.1342 85.1094C13.7997 85.4205 14.5254 85.5812 15.26 85.58C17.3076 85.6725 19.3299 86.0702 21.26 86.76C21.3237 86.7966 21.3966 86.814 21.47 86.81C21.5816 86.8122 21.6907 86.777 21.78 86.71C21.864 86.6572 21.93 86.5802 21.9692 86.4892C22.0085 86.3981 22.0192 86.2973 22 86.2C21.94 86.09 21.38 83.37 16.22 82.59ZM15.35 84.59C14.7636 84.6052 14.181 84.4913 13.6436 84.2562C13.1061 84.0212 12.627 83.6709 12.24 83.23C12.0441 82.9567 11.914 82.6419 11.86 82.31C13.1601 83.0257 14.5927 83.4681 16.07 83.61C17.6509 83.7311 19.1495 84.3628 20.34 85.41C18.703 84.9894 17.0339 84.7051 15.35 84.56V84.59Z" fill="url(#paint17_linear)"/>
<defs>
<linearGradient id="paint0_linear" x1="2.14151" y1="63.669" x2="85.3138" y2="63.62" gradientUnits="userSpaceOnUse">
<stop stop-color="#8F6D55"/>
<stop offset="1" stop-color="#4D4444"/>
</linearGradient>
<linearGradient id="paint1_linear" x1="2.14151" y1="63.669" x2="85.3138" y2="63.62" gradientUnits="userSpaceOnUse">
<stop stop-color="#8F6D55"/>
<stop offset="1" stop-color="#4D4444"/>
</linearGradient>
<linearGradient id="paint2_linear" x1="2.14151" y1="63.669" x2="85.3138" y2="63.62" gradientUnits="userSpaceOnUse">
<stop stop-color="#8F6D55"/>
<stop offset="1" stop-color="#4D4444"/>
</linearGradient>
<linearGradient id="paint3_linear" x1="2.14151" y1="63.669" x2="85.3138" y2="63.62" gradientUnits="userSpaceOnUse">
<stop stop-color="#8F6D55"/>
<stop offset="1" stop-color="#4D4444"/>
</linearGradient>
<linearGradient id="paint4_linear" x1="2.14151" y1="63.669" x2="85.3138" y2="63.62" gradientUnits="userSpaceOnUse">
<stop stop-color="#8F6D55"/>
<stop offset="1" stop-color="#4D4444"/>
</linearGradient>
<linearGradient id="paint5_linear" x1="2.14151" y1="63.669" x2="85.3138" y2="63.62" gradientUnits="userSpaceOnUse">
<stop stop-color="#8F6D55"/>
<stop offset="1" stop-color="#4D4444"/>
</linearGradient>
<linearGradient id="paint6_linear" x1="2.14151" y1="63.669" x2="85.3138" y2="63.62" gradientUnits="userSpaceOnUse">
<stop stop-color="#8F6D55"/>
<stop offset="1" stop-color="#4D4444"/>
</linearGradient>
<linearGradient id="paint7_linear" x1="2.14151" y1="63.669" x2="85.3138" y2="63.62" gradientUnits="userSpaceOnUse">
<stop stop-color="#8F6D55"/>
<stop offset="1" stop-color="#4D4444"/>
</linearGradient>
<linearGradient id="paint8_linear" x1="2.14151" y1="63.669" x2="85.3138" y2="63.62" gradientUnits="userSpaceOnUse">
<stop stop-color="#8F6D55"/>
<stop offset="1" stop-color="#4D4444"/>
</linearGradient>
<linearGradient id="paint9_linear" x1="2.14151" y1="63.669" x2="85.3138" y2="63.62" gradientUnits="userSpaceOnUse">
<stop stop-color="#8F6D55"/>
<stop offset="1" stop-color="#4D4444"/>
</linearGradient>
<linearGradient id="paint10_linear" x1="2.14151" y1="63.669" x2="85.3138" y2="63.62" gradientUnits="userSpaceOnUse">
<stop stop-color="#8F6D55"/>
<stop offset="1" stop-color="#4D4444"/>
</linearGradient>
<linearGradient id="paint11_linear" x1="2.14151" y1="63.669" x2="85.3138" y2="63.62" gradientUnits="userSpaceOnUse">
<stop stop-color="#8F6D55"/>
<stop offset="1" stop-color="#4D4444"/>
</linearGradient>
<linearGradient id="paint12_linear" x1="2.14151" y1="63.669" x2="85.3138" y2="63.62" gradientUnits="userSpaceOnUse">
<stop stop-color="#8F6D55"/>
<stop offset="1" stop-color="#4D4444"/>
</linearGradient>
<linearGradient id="paint13_linear" x1="2.14151" y1="63.669" x2="85.3138" y2="63.62" gradientUnits="userSpaceOnUse">
<stop stop-color="#8F6D55"/>
<stop offset="1" stop-color="#4D4444"/>
</linearGradient>
<linearGradient id="paint14_linear" x1="2.14151" y1="63.669" x2="85.3138" y2="63.62" gradientUnits="userSpaceOnUse">
<stop stop-color="#8F6D55"/>
<stop offset="1" stop-color="#4D4444"/>
</linearGradient>
<linearGradient id="paint15_linear" x1="2.14151" y1="63.669" x2="85.3138" y2="63.62" gradientUnits="userSpaceOnUse">
<stop stop-color="#8F6D55"/>
<stop offset="1" stop-color="#4D4444"/>
</linearGradient>
<linearGradient id="paint16_linear" x1="2.14151" y1="63.669" x2="85.3138" y2="63.62" gradientUnits="userSpaceOnUse">
<stop stop-color="#8F6D55"/>
<stop offset="1" stop-color="#4D4444"/>
</linearGradient>
<linearGradient id="paint17_linear" x1="2.14151" y1="63.669" x2="85.3138" y2="63.62" gradientUnits="userSpaceOnUse">
<stop stop-color="#8F6D55"/>
<stop offset="1" stop-color="#4D4444"/>
</linearGradient>
</defs>
</svg>
