<svg width="88" height="118" viewBox="0 0 88 118" fill="none" xmlns="http://www.w3.org/2000/svg">
<path d="M8 15.25C8.13261 15.25 8.25979 15.1973 8.35355 15.1036C8.44732 15.0098 8.5 14.8826 8.5 14.75V7.5H15.75C15.8826 7.5 16.0098 7.44732 16.1036 7.35355C16.1973 7.25979 16.25 7.13261 16.25 7C16.25 6.86739 16.1973 6.74021 16.1036 6.64645C16.0098 6.55268 15.8826 6.5 15.75 6.5H8C7.86739 6.5 7.74021 6.55268 7.64645 6.64645C7.55268 6.74021 7.5 6.86739 7.5 7V14.75C7.5 14.8826 7.55268 15.0098 7.64645 15.1036C7.74021 15.1973 7.86739 15.25 8 15.25Z" fill="url(#paint0_linear)"/>
<path d="M86.5 0H1.5C1.23478 0 0.980429 0.105357 0.792892 0.292893C0.605356 0.48043 0.5 0.734784 0.5 1V117C0.5 117.265 0.605356 117.52 0.792892 117.707C0.980429 117.895 1.23478 118 1.5 118H86.5C86.7652 118 87.0196 117.895 87.2071 117.707C87.3946 117.52 87.5 117.265 87.5 117V1C87.5 0.734784 87.3946 0.48043 87.2071 0.292893C87.0196 0.105357 86.7652 0 86.5 0ZM2.5 116V2H85.5V60.82C84.749 60.4443 83.9779 60.1105 83.19 59.82C78.6 58.09 74.31 58.41 70.79 60.76C67.86 62.76 63.55 65.28 57.99 68.4V68.31C57.99 67.45 56.4 66.98 54.59 66.72V65.7C54.5995 65.6504 54.5995 65.5996 54.59 65.55C54.5945 65.5101 54.5945 65.4699 54.59 65.43V63.14C54.5948 63.1001 54.5948 63.0599 54.59 63.02C54.59 63.02 54.59 62.95 54.59 62.91V60.63C54.6004 60.5671 54.6004 60.5029 54.59 60.44C54.5947 60.3901 54.5947 60.3399 54.59 60.29V60H67.7C67.8326 60 67.9598 59.9473 68.0536 59.8536C68.1473 59.7598 68.2 59.6326 68.2 59.5V54.58H73.08C73.2126 54.58 73.3398 54.5273 73.4336 54.4336C73.5273 54.3398 73.58 54.2126 73.58 54.08V31C73.58 30.8674 73.5273 30.7402 73.4336 30.6464C73.3398 30.5527 73.2126 30.5 73.08 30.5H23.75C23.6174 30.5 23.4902 30.5527 23.3964 30.6464C23.3027 30.7402 23.25 30.8674 23.25 31V35.88H18.37C18.2374 35.88 18.1102 35.9327 18.0164 36.0264C17.9227 36.1202 17.87 36.2474 17.87 36.38V59.46C17.87 59.5926 17.9227 59.7198 18.0164 59.8136C18.1102 59.9073 18.2374 59.96 18.37 59.96H29.94V61.56C29.9355 61.5965 29.9355 61.6335 29.94 61.67C29.931 61.7095 29.931 61.7505 29.94 61.79V64.08C29.9342 64.1131 29.9342 64.1469 29.94 64.18C29.931 64.2195 29.931 64.2605 29.94 64.3V64.89C29.3906 64.8493 28.8387 64.9242 28.32 65.11C28.1022 65.2005 27.8916 65.3075 27.69 65.43C27.3381 65.6557 27.0214 65.932 26.75 66.25L26.61 66.42L26.43 66.31C25.3298 65.7221 24.1825 65.227 23 64.83C20.15 63.83 18 63.93 16.58 65.07L16.37 65.26L16 65.12C13.19 64.12 11 64.25 9.58 65.36C9.00278 65.8978 8.5593 66.563 8.28497 67.3027C8.01063 68.0424 7.91305 68.8359 8 69.62C8.00187 69.7795 8.04187 69.9363 8.11667 70.0772C8.19148 70.2181 8.29891 70.3391 8.43 70.43L12 72.94V73.12C11.7972 73.9275 11.7972 74.7725 12 75.58C12.0826 75.9334 12.2794 76.2498 12.56 76.48C14.71 78.27 26.65 87.21 50.51 87.55H50.64C58.38 85.9 78 82 83.06 82C83.3953 81.9872 83.731 82.014 84.06 82.08C84.35 82.17 84.87 82.36 85.55 82.63V116H2.5ZM30 66.69C29.9919 66.733 29.9919 66.777 30 66.82V68.62C29.26 68.09 28.57 67.62 27.81 67.1L27.62 67L27.48 66.9L27.71 66.68C27.9947 66.3844 28.3448 66.1599 28.7321 66.0244C29.1194 65.8889 29.5332 65.8463 29.94 65.9V66.58C29.9517 66.6206 29.9722 66.6581 30 66.69ZM29.51 69.81L29.97 70.15V71.73C29.9655 71.7665 29.9655 71.8035 29.97 71.84C29.9598 71.8827 29.9598 71.9273 29.97 71.97V73.16C28.9848 72.7211 28.0234 72.2304 27.09 71.69C25.7597 70.9059 24.4744 70.0479 23.24 69.12C21.7055 67.9122 20.05 66.8666 18.3 66L17.69 65.71L18.34 65.53C19.785 65.2417 21.2833 65.3951 22.64 65.97C23.7302 66.3405 24.7873 66.8021 25.8 67.35L26.49 67.73L27.43 68.34C28.12 68.83 28.79 69.31 29.48 69.81H29.51ZM22.51 70.11C23.9148 71.1693 25.388 72.1347 26.92 73C27.82 73.5 28.85 74 30.01 74.5C30.3181 74.9371 30.778 75.2437 31.3 75.36H28.94L28.6 75.12C28.17 74.84 27.6 74.44 26.86 74C24.1505 72.3428 21.188 71.1403 18.09 70.44C17.47 70.29 16.78 70.17 16.03 70.06H15.85L15.53 70H15.42C15.2244 70.0063 15.03 70.0331 14.84 70.08C14.0116 70.2293 13.2635 70.669 12.73 71.32L12.63 71.46L12.42 71.76L9.57 69.76C9.46045 69.6853 9.37236 69.5832 9.31447 69.4639C9.25658 69.3446 9.23091 69.2123 9.24 69.08C9.23544 68.5735 9.33519 68.0716 9.53304 67.6053C9.73089 67.1391 10.0226 66.7186 10.39 66.37C11.008 65.9246 11.7591 65.7025 12.52 65.74C13.4807 65.771 14.4314 65.9463 15.34 66.26H15.45L15.63 66.31L16.01 66.46L16.18 66.52C16.47 66.62 16.75 66.74 17.02 66.84C18.9722 67.6984 20.8097 68.7969 22.49 70.11H22.51ZM54.58 55.36C54.5847 55.3268 54.5847 55.2932 54.58 55.26V54.58H64.15C63.7157 54.8492 63.3451 55.2095 63.0637 55.6359C62.7822 56.0624 62.5967 56.5449 62.52 57.05H54.6V55.48C54.5982 55.4393 54.5915 55.399 54.58 55.36ZM54.58 58.05H63C63.1326 58.05 63.2598 57.9973 63.3536 57.9036C63.4473 57.8098 63.5 57.6826 63.5 57.55C63.496 57.2182 63.5576 56.8889 63.6813 56.581C63.8049 56.2731 63.9881 55.9927 64.2204 55.7557C64.4526 55.5188 64.7294 55.3301 65.0348 55.2004C65.3402 55.0707 65.6682 55.0026 66 55C66.1233 55.0004 66.2422 54.9543 66.3331 54.8709C66.4239 54.7875 66.4799 54.6729 66.49 54.55H67.17V59H54.6L54.58 58.05ZM54.6 53.58V53C54.6048 52.9601 54.6048 52.9199 54.6 52.88C54.6 52.88 54.6 52.81 54.6 52.77V52.7H68.39C68.5226 52.7 68.6498 52.6473 68.7436 52.5536C68.8373 52.4598 68.89 52.3326 68.89 52.2C68.89 51.5317 69.1555 50.8907 69.6281 50.4181C70.1007 49.9455 70.7417 49.68 71.41 49.68C71.5426 49.68 71.6698 49.6273 71.7635 49.5336C71.8573 49.4398 71.91 49.3126 71.91 49.18V35.87C71.9074 35.7382 71.8539 35.6125 71.7607 35.5193C71.6675 35.4261 71.5418 35.3726 71.41 35.37C70.7417 35.37 70.1007 35.1045 69.6281 34.6319C69.1555 34.1593 68.89 33.5183 68.89 32.85C68.89 32.7174 68.8373 32.5902 68.7436 32.4964C68.6498 32.4027 68.5226 32.35 68.39 32.35H28.44C28.3074 32.35 28.1802 32.4027 28.0864 32.4964C27.9927 32.5902 27.94 32.7174 27.94 32.85C27.94 33.5183 27.6745 34.1593 27.2019 34.6319C26.7293 35.1045 26.0883 35.37 25.42 35.37C25.2958 35.3721 25.1768 35.4204 25.0862 35.5054C24.9956 35.5904 24.9399 35.7062 24.93 35.83V49.15C24.93 49.2826 24.9827 49.4098 25.0764 49.5036C25.1702 49.5973 25.2974 49.65 25.43 49.65C26.0983 49.65 26.7393 49.9155 27.2119 50.3881C27.6845 50.8607 27.95 51.5017 27.95 52.17C27.95 52.3026 28.0027 52.4298 28.0964 52.5236C28.1902 52.6173 28.3174 52.67 28.45 52.67H37.84V52.74C37.8355 52.7765 37.8355 52.8135 37.84 52.85C37.8355 52.8899 37.8355 52.9301 37.84 52.97V53.58H24.25V31.45H72.58V53.58H54.6ZM47.45 71.36H45.71C44.9196 71.282 44.1347 71.1551 43.36 70.98L42.97 70.88C42.7098 70.8222 42.4623 70.7171 42.24 70.57V69.37C42.4427 69.454 42.6497 69.5275 42.86 69.59C43.1 69.66 43.36 69.72 43.63 69.78C44.06 69.87 44.52 69.94 44.99 70H45.1L45.74 70.07H46.74C47.74 70.14 48.62 70.16 49.2 70.17C48.8785 70.3094 48.5733 70.4838 48.29 70.69H48.14L48 70.8C47.7929 70.9618 47.608 71.1501 47.45 71.36ZM52.93 74.63C53.1096 74.6401 53.2786 74.718 53.403 74.8479C53.5273 74.9779 53.5978 75.1502 53.6 75.33L53.66 77.48L48.2 76.64V76.32C48.1 76 48.02 75.74 47.96 75.5C47.8972 75.2132 47.8537 74.9226 47.83 74.63V74.34L52.93 74.63ZM38.83 72.63H36.34C35.2583 72.5889 34.1798 72.4854 33.11 72.32C32.6248 72.2385 32.1441 72.1317 31.67 72C31.4102 71.9357 31.1633 71.8275 30.94 71.68V70.12C31.5336 70.35 32.1506 70.5143 32.78 70.61C34.4353 70.8594 36.1061 70.9931 37.78 71.01H41.16V72.64C40.51 72.59 39.7 72.62 38.83 72.63ZM41.21 73.54V75C40.62 75 39.9 75.08 39.21 75.1H38.34C37 75.16 35.94 75.1 35 75C32.62 74.79 31.24 74.4 31 74.15V72.74C32.4695 73.2274 34.0024 73.497 35.55 73.54C36.62 73.61 37.55 73.63 38.12 73.64H38.92C39.34 73.64 39.92 73.64 40.55 73.64L41.21 73.54ZM40.46 70C39.95 70 39.41 70 38.83 70H37.83C35.906 70.0176 33.9855 69.8333 32.1 69.45C31.6889 69.3728 31.2956 69.2203 30.94 69V67.6C32.2313 68.0389 33.5777 68.2947 34.94 68.36C35.73 68.43 36.49 68.46 37.1 68.48H38.83C39.25 68.48 39.83 68.48 40.46 68.48H41.18V69.99L40.46 70ZM38.83 67.54H37.83C36.92 67.54 36.07 67.54 35.33 67.44C34.59 67.34 33.71 67.28 33.09 67.18C32.6104 67.1081 32.136 67.0045 31.67 66.87C31.4098 66.8122 31.1623 66.7071 30.94 66.56V65.09C31.3054 65.2404 31.6836 65.3575 32.07 65.44C33.9681 65.8051 35.8971 65.986 37.83 65.98H39C39.46 65.98 40.07 65.98 40.74 65.92C41.41 65.86 42.34 65.81 43.15 65.7C44.0385 65.6047 44.9118 65.3998 45.75 65.09V66.5C45.1125 66.5577 44.4783 66.6479 43.85 66.77H43.57C43.1717 66.8526 42.7805 66.9663 42.4 67.11C42.2724 67.1568 42.1486 67.2136 42.03 67.28C41.09 67.41 40 67.47 38.83 67.49V67.54ZM39.42 51.72L40.05 51.89C40.7758 52.0456 41.5105 52.1558 42.25 52.22C43.33 52.33 44.4 52.38 45.19 52.4H47C47.81 52.4 49 52.35 50.23 52.22C51.1866 52.1398 52.1338 51.9724 53.06 51.72C53.26 51.66 53.45 51.59 53.62 51.52V52.71C53.408 52.8539 53.1704 52.9558 52.92 53.01C51.5086 53.3634 50.064 53.5678 48.61 53.62C47.89 53.62 47.12 53.69 46.26 53.69C45.72 53.69 45.21 53.69 44.73 53.69H43.9C42.6635 53.6361 41.4331 53.4857 40.22 53.24C40.0104 53.1987 39.8034 53.1453 39.6 53.08C39.3472 53.0236 39.1067 52.922 38.89 52.78V51.58C38.9298 51.5856 38.9702 51.5856 39.01 51.58C39.1451 51.6167 39.2819 51.6467 39.42 51.67V51.72ZM39 50.46C39.65 50.1 42.12 49.55 46.27 49.55C46.78 49.55 47.27 49.55 47.73 49.55H48.78C50.4019 49.5589 52.0108 49.8394 53.54 50.38C51.74 50.9871 49.8493 51.2814 47.95 51.25H46.27C42.12 51.25 39.65 50.71 39 50.35V50.46ZM39.9 54.08C41.1904 54.356 42.5016 54.5233 43.82 54.58C44.91 54.64 45.82 54.65 46.26 54.65C46.7 54.65 47.6 54.65 48.69 54.58C50.0117 54.5232 51.3262 54.356 52.62 54.08C52.9614 53.996 53.2957 53.8857 53.62 53.75V55.18C53.4111 55.3228 53.1769 55.4246 52.93 55.48C50.7397 56.0006 48.4902 56.2293 46.24 56.16C43.9897 56.2307 41.74 56.002 39.55 55.48C39.3002 55.4239 39.0629 55.3222 38.85 55.18V53.75C39.1778 53.8854 39.5155 53.9958 39.86 54.08H39.9ZM43.2 57.08C44.55 57.18 45.76 57.19 46.26 57.19C46.76 57.19 47.97 57.19 49.32 57.08C50.7902 57.0308 52.2454 56.7681 53.64 56.3V57.72C53.4217 57.8678 53.1774 57.973 52.92 58.03H52.71C50.6554 58.485 48.5539 58.6931 46.45 58.65C46.067 58.3572 45.6279 58.1461 45.16 58.03H44.97C44.0857 57.8136 43.1866 57.6632 42.28 57.58C40.95 57.45 39.65 57.42 38.87 57.41V56.27C40.2555 56.7333 41.7001 56.996 43.16 57.05L43.2 57.08ZM52.75 65.73C50.7816 66.1746 48.7678 66.386 46.75 66.36V64.81C48.3 64.81 51.89 64.67 53.64 63.92V65.35C53.3563 65.5272 53.0402 65.6462 52.71 65.7L52.75 65.73ZM53.64 66.47V66.54H53.52L53.64 66.47ZM52.92 63.17C50.8991 63.6482 48.8265 63.8733 46.75 63.84V62.19C48.3 62.19 51.89 62.04 53.64 61.29V62.83C53.4096 62.9826 53.1513 63.0879 52.88 63.14L52.92 63.17ZM52.49 60.66C50.6011 61.0431 48.6773 61.2274 46.75 61.21V59.67C47.59 59.67 49.04 59.61 50.48 59.46C51.3829 59.3717 52.2763 59.2044 53.15 58.96L53.64 58.78V60.2C53.2754 60.4201 52.8711 60.5663 52.45 60.63L52.49 60.66ZM39.19 58.42C41.0419 58.4105 42.8893 58.6016 44.7 58.99C44.98 59.06 45.21 59.13 45.38 59.19L45.65 59.31C45.5048 59.3813 45.3543 59.4415 45.2 59.49C45.02 59.55 44.8 59.61 44.54 59.67C44.04 59.78 43.4 59.89 42.61 59.99C41.3715 60.1283 40.1262 60.1984 38.88 60.2H37.88C36.6239 60.2039 35.3686 60.1371 34.12 60C33.2399 59.913 32.3696 59.7456 31.52 59.5C31.3657 59.4515 31.2152 59.3913 31.07 59.32C31.3665 59.1774 31.6786 59.0701 32 59C33.9095 58.594 35.8579 58.3995 37.81 58.42H39.19ZM37.87 61.21H40.05C40.73 61.21 41.53 61.14 42.33 61.06C43.1207 60.9892 43.9058 60.8656 44.68 60.69C45.0447 60.6035 45.4023 60.4899 45.75 60.35V61.54C45.6318 61.6275 45.5 61.695 45.36 61.74L45 61.8C44.5326 61.9286 44.0585 62.0321 43.58 62.11C42.0137 62.3393 40.433 62.4563 38.85 62.46H37.85C35.7773 62.4945 33.7083 62.2728 31.69 61.8C31.4302 61.7357 31.1833 61.6275 30.96 61.48V60.28C32.69 61 36.28 61.16 37.83 61.18L37.87 61.21ZM37.87 63.49H39C39.46 63.49 40.07 63.49 40.74 63.43C41.6439 63.3906 42.5452 63.3038 43.44 63.17C44.2304 63.0751 45.0062 62.8837 45.75 62.6V64C45.5441 64.1416 45.3134 64.2434 45.07 64.3C44.4141 64.4822 43.7456 64.6159 43.07 64.7C41.6805 64.88 40.2811 64.9735 38.88 64.98H37.88C35.7963 65.014 33.7166 64.7855 31.69 64.3C31.4402 64.2439 31.2029 64.1422 30.99 64V62.57C32.7 63.32 36.29 63.45 37.83 63.46L37.87 63.49ZM42.25 74.88V74C42.7287 74.1872 43.2243 74.3279 43.73 74.42C43.99 74.48 44.27 74.52 44.55 74.56C44.83 74.6 45.17 74.65 45.49 74.68L42.89 74.87H42.21L42.25 74.88ZM43.25 73.37L42.92 73.28C42.6766 73.2234 42.4459 73.1216 42.24 72.98V71.52C42.7198 71.7064 43.215 71.8503 43.72 71.95H43.82L44.54 72.07L45.72 72.21H46.9C46.8673 72.2706 46.8405 72.3343 46.82 72.4C46.82 72.49 46.75 72.58 46.72 72.67C46.6695 72.8204 46.6294 72.9741 46.6 73.13C46.5587 73.318 46.5287 73.5084 46.51 73.7H46.22L45.72 73.65C44.8871 73.6046 44.0584 73.501 43.24 73.34L43.25 73.37ZM46.71 69H45.71L45.17 68.94C44.2926 68.8506 43.4276 68.6662 42.59 68.39H42.49L42.35 68.32C43.4269 67.9123 44.5602 67.6728 45.71 67.61H46.71C47.56 67.55 48.53 67.51 49.61 67.51C50.946 67.5033 52.2813 67.57 53.61 67.71L54.11 67.77L54.61 67.84C55.3927 67.9238 56.16 68.1156 56.89 68.41C56.1627 68.7146 55.3944 68.9101 54.61 68.99L54.11 69.06H53.61C52.86 69.14 51.98 69.21 50.99 69.24H49.62C48.53 69.13 47.56 69.09 46.71 69ZM49 48.64H47.98C47.22 48.64 46.6 48.64 46.28 48.64C45.12 48.64 40.14 48.71 38.46 49.76C38.2936 49.8121 38.1379 49.8934 38 50C37.9629 50.0578 37.9295 50.1179 37.9 50.18C37.8571 50.2566 37.833 50.3423 37.83 50.43V51.64H28.91C28.8477 51.2941 28.7401 50.9578 28.59 50.64C28.5002 50.4558 28.3965 50.2786 28.28 50.11C27.879 49.5518 27.3225 49.124 26.68 48.88C26.4864 48.8026 26.2854 48.7457 26.08 48.71H25.92V36.34C26.3849 36.2598 26.8299 36.09 27.23 35.84C27.6659 35.5702 28.0376 35.2085 28.3191 34.7802C28.6007 34.3518 28.7853 33.8671 28.86 33.36H67.86C67.9689 34.117 68.32 34.8184 68.8608 35.3592C69.4016 35.9 70.103 36.2511 70.86 36.36V48.69C70.2726 48.777 69.7165 49.0103 69.243 49.3686C68.7694 49.7268 68.3935 50.1984 68.15 50.74C68.0176 51.0369 67.9235 51.3494 67.87 51.67H54.6V50.5C54.62 49.23 51.45 48.8 49 48.64ZM37.83 54.58V55.26C37.8256 55.2932 37.8256 55.3268 37.83 55.36C37.8255 55.3999 37.8255 55.4401 37.83 55.48V57.05H23.52C23.4142 56.2917 23.0641 55.5886 22.5228 55.0472C21.9814 54.5059 21.2783 54.1558 20.52 54.05V41.72C21.1075 41.6294 21.6631 41.3935 22.1363 41.0338C22.6096 40.6741 22.9855 40.2018 23.23 39.66V54.08C23.23 54.2126 23.2827 54.3398 23.3764 54.4336C23.4702 54.5273 23.5974 54.58 23.73 54.58H37.83ZM23.27 37.73H23.08C22.9474 37.73 22.8202 37.7827 22.7264 37.8764C22.6327 37.9702 22.58 38.0974 22.58 38.23C22.5801 38.566 22.513 38.8987 22.3826 39.2084C22.2522 39.5181 22.0612 39.7987 21.8208 40.0335C21.5804 40.2683 21.2955 40.4526 20.9828 40.5757C20.6701 40.6987 20.3359 40.758 20 40.75C19.8674 40.75 19.7402 40.8027 19.6464 40.8964C19.5527 40.9902 19.5 41.1174 19.5 41.25V54.53C19.5 54.6626 19.5527 54.7898 19.6464 54.8836C19.7402 54.9773 19.8674 55.03 20 55.03C20.6683 55.03 21.3093 55.2955 21.7819 55.7681C22.2545 56.2407 22.52 56.8817 22.52 57.55C22.52 57.6157 22.5329 57.6807 22.5581 57.7413C22.5832 57.802 22.62 57.8571 22.6664 57.9036C22.7129 57.95 22.768 57.9868 22.8287 58.0119C22.8893 58.0371 22.9543 58.05 23.02 58.05H31.51C30.9073 58.1711 30.37 58.5091 30 59H18.87V36.83H23.25L23.27 37.73ZM13.27 73.16C13.3373 72.8321 13.459 72.5177 13.63 72.23C13.6627 72.1685 13.703 72.1114 13.75 72.06C13.9612 71.8124 14.2192 71.609 14.5092 71.4614C14.7992 71.3138 15.1155 71.225 15.44 71.2C16.13 71.29 16.79 71.41 17.51 71.57C18.23 71.73 19.17 71.96 19.94 72.2C21.1293 72.5664 22.2921 73.0141 23.42 73.54L24.66 74.15C25.7749 74.7473 26.8504 75.4154 27.88 76.15L28.29 76.43C28.4749 76.5797 28.7024 76.6672 28.94 76.68H29.16C30.2067 76.68 31.2467 76.68 32.28 76.68C33.44 76.68 34.57 76.65 35.67 76.59L38.61 76.47L42.49 76.25C43.38 76.19 44.16 76.14 44.8 76.08H45.17L46.53 75.97H46.74L46.8 76.18C46.8 76.33 46.88 76.49 46.93 76.65V76.73C47.01 76.99 47.12 77.26 47.23 77.54V77.61C47.278 77.6882 47.342 77.7554 47.4179 77.8071C47.4937 77.8588 47.5796 77.8939 47.67 77.91L49.4 78.18L55.25 79.07C56.94 79.33 58.62 79.59 59.94 79.77C60.75 79.9 61.43 79.99 61.94 80.05C62.4072 80.1132 62.8786 80.14 63.35 80.13C66.9184 79.9535 70.474 79.5762 74 79C74.0817 78.9882 74.1602 78.96 74.2306 78.917C74.3011 78.8741 74.3621 78.8172 74.41 78.75C74.4588 78.6869 74.4938 78.6142 74.5128 78.5367C74.5317 78.4592 74.5342 78.3785 74.52 78.3C74.5075 78.194 74.4665 78.0934 74.4013 78.0089C74.3362 77.9243 74.2493 77.8591 74.15 77.82C74.042 77.7902 73.928 77.7902 73.82 77.82C72.9 77.96 64.82 79.14 62.11 78.82L59.65 78.47C58.34 78.28 56.74 78.04 55.16 77.79H54.95L54.87 74.64C54.864 74.3689 54.759 74.1094 54.5747 73.9104C54.3905 73.7115 54.1398 73.5868 53.87 73.56L47.96 73.23L48.13 72.88C48.1269 72.8534 48.1269 72.8266 48.13 72.8C48.339 72.4129 48.6248 72.0727 48.97 71.8C49.3999 71.4353 49.9003 71.163 50.44 71C51.1484 70.8867 51.8631 70.8166 52.58 70.79L54.58 70.7L56.52 70.63C58.71 70.55 61.43 70.48 64 70.44H64.7C64.7698 70.4474 64.8402 70.4474 64.91 70.44C64.9602 70.42 65.0073 70.3931 65.05 70.36C65.15 70.29 74.98 63.24 80.27 63.08H80.64C80.7182 63.0865 80.7969 63.0765 80.8709 63.0507C80.945 63.0248 81.0128 62.9837 81.07 62.93C81.1942 62.8118 81.2692 62.6511 81.28 62.48C81.2827 62.3991 81.2692 62.3184 81.2404 62.2427C81.2115 62.1671 81.1679 62.0979 81.1121 62.0392C81.0562 61.9806 80.9892 61.9337 80.9151 61.9012C80.8409 61.8687 80.761 61.8513 80.68 61.85C75.36 61.69 65.68 68.44 64.55 69.21H64.41L59.85 69.3H58.85L59.76 68.8C64.81 65.94 68.76 63.56 71.5 61.74C76.6 58.35 82.25 60.42 85.5 62.23V81.3C85 81.11 84.61 80.97 84.36 80.89C83.973 80.8033 83.5764 80.7663 83.18 80.78C76.81 80.78 53.18 85.78 50.46 86.31C36.94 86.11 27.54 83.16 22.03 80.72C19.0264 79.443 16.1971 77.7898 13.61 75.8C13.3935 75.611 13.2487 75.3532 13.2 75.07C13.1622 74.7914 13.1388 74.511 13.13 74.23C13.1137 73.8714 13.1406 73.5122 13.21 73.16H13.27Z" fill="url(#paint1_linear)"/>
<path d="M19.42 7.5H21.75C21.8826 7.5 22.0098 7.44732 22.1036 7.35355C22.1973 7.25979 22.25 7.13261 22.25 7C22.25 6.86739 22.1973 6.74021 22.1036 6.64645C22.0098 6.55268 21.8826 6.5 21.75 6.5H19.42C19.2874 6.5 19.1602 6.55268 19.0664 6.64645C18.9727 6.74021 18.92 6.86739 18.92 7C18.92 7.13261 18.9727 7.25979 19.0664 7.35355C19.1602 7.44732 19.2874 7.5 19.42 7.5Z" fill="url(#paint2_linear)"/>
<path d="M8.5 20.75V18.42C8.5 18.2874 8.44732 18.1602 8.35355 18.0664C8.25979 17.9727 8.13261 17.92 8 17.92C7.86739 17.92 7.74021 17.9727 7.64645 18.0664C7.55268 18.1602 7.5 18.2874 7.5 18.42V20.75C7.5 20.8826 7.55268 21.0098 7.64645 21.1036C7.74021 21.1973 7.86739 21.25 8 21.25C8.13261 21.25 8.25979 21.1973 8.35355 21.1036C8.44732 21.0098 8.5 20.8826 8.5 20.75Z" fill="url(#paint3_linear)"/>
<path d="M80 102.75C79.8674 102.75 79.7402 102.803 79.6464 102.896C79.5527 102.99 79.5 103.117 79.5 103.25V110.5H72.25C72.1174 110.5 71.9902 110.553 71.8964 110.646C71.8027 110.74 71.75 110.867 71.75 111C71.75 111.133 71.8027 111.26 71.8964 111.354C71.9902 111.447 72.1174 111.5 72.25 111.5H80C80.1326 111.5 80.2598 111.447 80.3536 111.354C80.4473 111.26 80.5 111.133 80.5 111V103.25C80.5 103.117 80.4473 102.99 80.3536 102.896C80.2598 102.803 80.1326 102.75 80 102.75Z" fill="url(#paint4_linear)"/>
<path d="M68.58 110.5H66.25C66.1174 110.5 65.9902 110.553 65.8964 110.646C65.8027 110.74 65.75 110.867 65.75 111C65.75 111.133 65.8027 111.26 65.8964 111.354C65.9902 111.447 66.1174 111.5 66.25 111.5H68.58C68.7126 111.5 68.8398 111.447 68.9336 111.354C69.0273 111.26 69.08 111.133 69.08 111C69.08 110.867 69.0273 110.74 68.9336 110.646C68.8398 110.553 68.7126 110.5 68.58 110.5Z" fill="url(#paint5_linear)"/>
<path d="M80 96.75C79.8674 96.75 79.7402 96.8027 79.6464 96.8964C79.5527 96.9902 79.5 97.1174 79.5 97.25V99.58C79.5 99.7126 79.5527 99.8398 79.6464 99.9336C79.7402 100.027 79.8674 100.08 80 100.08C80.1326 100.08 80.2598 100.027 80.3536 99.9336C80.4473 99.8398 80.5 99.7126 80.5 99.58V97.25C80.5 97.1174 80.4473 96.9902 80.3536 96.8964C80.2598 96.8027 80.1326 96.75 80 96.75Z" fill="url(#paint6_linear)"/>
<path d="M52.57 38.23C52.38 38.05 52.18 37.89 51.98 37.73C51.4471 37.3348 50.8524 37.0306 50.22 36.83C49.0478 36.4432 47.7822 36.4432 46.61 36.83C45.9776 37.0306 45.3829 37.3348 44.85 37.73C44.65 37.89 44.45 38.05 44.26 38.23C44.07 38.41 43.94 38.56 43.8 38.73C43.0424 39.6632 42.5825 40.8024 42.48 42C42.47 42.1699 42.47 42.3401 42.48 42.51C42.48 42.67 42.48 42.83 42.48 42.98C42.5977 44.3923 43.2115 45.7174 44.2128 46.7204C45.214 47.7234 46.5379 48.3397 47.95 48.46H48.43C48.6 48.46 48.77 48.46 48.93 48.46C50.0342 48.3495 51.0862 47.9348 51.9689 47.2622C52.8516 46.5896 53.5305 45.6853 53.93 44.65C54.196 43.9714 54.3317 43.2488 54.33 42.52C54.3353 41.1414 53.8656 39.803 53 38.73C52.89 38.56 52.73 38.39 52.57 38.23ZM52.9 44.61C52.5384 45.3683 51.9915 46.0233 51.3098 46.5144C50.6282 47.0055 49.8338 47.317 49 47.42C48.8335 47.4299 48.6665 47.4299 48.5 47.42H48.44C48.2868 47.4304 48.1332 47.4304 47.98 47.42C47.0733 47.3333 46.2076 47.0006 45.4762 46.4578C44.7448 45.9149 44.1756 45.1827 43.83 44.34C43.658 43.9103 43.5437 43.4597 43.49 43C43.49 42.85 43.49 42.7 43.49 42.54V42.48C43.49 42.31 43.49 42.14 43.49 41.98C43.6328 40.7246 44.252 39.572 45.22 38.76C45.4409 38.5765 45.6748 38.4094 45.92 38.26C46.299 38.0467 46.7017 37.8789 47.12 37.76C47.9579 37.5066 48.8521 37.5066 49.69 37.76C50.1083 37.8789 50.511 38.0467 50.89 38.26C51.1352 38.4094 51.3691 38.5765 51.59 38.76C52.4332 39.4534 53.0195 40.4096 53.2551 41.4756C53.4908 42.5415 53.3622 43.6557 52.89 44.64L52.9 44.61Z" fill="url(#paint7_linear)"/>
<path d="M62.72 45.3C63.0864 45.3 63.4492 45.2278 63.7877 45.0876C64.1262 44.9474 64.4338 44.7419 64.6928 44.4828C64.9519 44.2238 65.1574 43.9162 65.2976 43.5777C65.4378 43.2392 65.51 42.8764 65.51 42.51C65.5041 42.228 65.4569 41.9484 65.37 41.68C65.2304 41.2416 64.9849 40.8444 64.6552 40.5235C64.3256 40.2026 63.922 39.9678 63.48 39.84C63.2739 39.7857 63.0628 39.7522 62.85 39.74H62.72C62.0102 39.7826 61.3435 40.0945 60.856 40.6121C60.3684 41.1297 60.097 41.8139 60.097 42.525C60.097 43.2361 60.3684 43.9203 60.856 44.4379C61.3435 44.9555 62.0102 45.2675 62.72 45.31V45.3ZM62.72 40.73C63.0749 40.728 63.4223 40.8316 63.7182 41.0275C64.0141 41.2234 64.2451 41.5029 64.3818 41.8304C64.5185 42.1578 64.5548 42.5186 64.4861 42.8667C64.4173 43.2149 64.2466 43.5348 63.9957 43.7857C63.7448 44.0366 63.4249 44.2073 63.0767 44.2761C62.7286 44.3448 62.3679 44.3085 62.0404 44.1718C61.7129 44.0351 61.4334 43.8041 61.2375 43.5082C61.0416 43.2123 60.938 42.8649 60.94 42.51C60.9426 42.0387 61.131 41.5875 61.4642 41.2542C61.7975 40.921 62.2487 40.7326 62.72 40.73Z" fill="url(#paint8_linear)"/>
<path d="M34.11 39.73C33.5573 39.728 33.0165 39.8902 32.5562 40.196C32.0959 40.5018 31.7367 40.9375 31.5243 41.4477C31.3119 41.9579 31.2558 42.5197 31.3631 43.0618C31.4705 43.604 31.7364 44.102 32.1272 44.4928C32.518 44.8836 33.016 45.1495 33.5582 45.2569C34.1003 45.3642 34.6621 45.3081 35.1723 45.0957C35.6825 44.8833 36.1182 44.5241 36.424 44.0638C36.7298 43.6035 36.892 43.0627 36.89 42.51C36.8874 41.7735 36.5936 41.0679 36.0728 40.5472C35.5521 40.0264 34.8465 39.7326 34.11 39.73ZM34.11 44.3C33.7556 44.302 33.4085 44.1987 33.1128 44.0032C32.8171 43.8077 32.5862 43.5289 32.4491 43.202C32.3121 42.8751 32.2753 42.5148 32.3432 42.167C32.4111 41.8191 32.5808 41.4992 32.8307 41.2479C33.0807 40.9965 33.3996 40.825 33.7471 40.7552C34.0946 40.6853 34.455 40.7201 34.7827 40.8553C35.1103 40.9905 35.3905 41.2199 35.5876 41.5145C35.7848 41.8091 35.89 42.1555 35.89 42.51C35.89 42.983 35.7028 43.4368 35.3693 43.7722C35.0357 44.1076 34.583 44.2974 34.11 44.3Z" fill="url(#paint9_linear)"/>
<defs>
<linearGradient id="paint0_linear" x1="2.14151" y1="63.669" x2="85.3138" y2="63.62" gradientUnits="userSpaceOnUse">
<stop stop-color="#8F6D55"/>
<stop offset="1" stop-color="#4D4444"/>
</linearGradient>
<linearGradient id="paint1_linear" x1="2.14151" y1="63.669" x2="85.3138" y2="63.62" gradientUnits="userSpaceOnUse">
<stop stop-color="#8F6D55"/>
<stop offset="1" stop-color="#4D4444"/>
</linearGradient>
<linearGradient id="paint2_linear" x1="2.14151" y1="63.669" x2="85.3138" y2="63.62" gradientUnits="userSpaceOnUse">
<stop stop-color="#8F6D55"/>
<stop offset="1" stop-color="#4D4444"/>
</linearGradient>
<linearGradient id="paint3_linear" x1="2.14151" y1="63.669" x2="85.3138" y2="63.62" gradientUnits="userSpaceOnUse">
<stop stop-color="#8F6D55"/>
<stop offset="1" stop-color="#4D4444"/>
</linearGradient>
<linearGradient id="paint4_linear" x1="2.14151" y1="63.669" x2="85.3138" y2="63.62" gradientUnits="userSpaceOnUse">
<stop stop-color="#8F6D55"/>
<stop offset="1" stop-color="#4D4444"/>
</linearGradient>
<linearGradient id="paint5_linear" x1="2.14151" y1="63.669" x2="85.3138" y2="63.62" gradientUnits="userSpaceOnUse">
<stop stop-color="#8F6D55"/>
<stop offset="1" stop-color="#4D4444"/>
</linearGradient>
<linearGradient id="paint6_linear" x1="2.14151" y1="63.669" x2="85.3138" y2="63.62" gradientUnits="userSpaceOnUse">
<stop stop-color="#8F6D55"/>
<stop offset="1" stop-color="#4D4444"/>
</linearGradient>
<linearGradient id="paint7_linear" x1="2.14151" y1="63.669" x2="85.3138" y2="63.62" gradientUnits="userSpaceOnUse">
<stop stop-color="#8F6D55"/>
<stop offset="1" stop-color="#4D4444"/>
</linearGradient>
<linearGradient id="paint8_linear" x1="2.14151" y1="63.669" x2="85.3138" y2="63.62" gradientUnits="userSpaceOnUse">
<stop stop-color="#8F6D55"/>
<stop offset="1" stop-color="#4D4444"/>
</linearGradient>
<linearGradient id="paint9_linear" x1="2.14151" y1="63.669" x2="85.3138" y2="63.62" gradientUnits="userSpaceOnUse">
<stop stop-color="#8F6D55"/>
<stop offset="1" stop-color="#4D4444"/>
</linearGradient>
</defs>
</svg>
