<svg width="118" height="141" viewBox="0 0 118 141" fill="none" xmlns="http://www.w3.org/2000/svg">
<path d="M105.607 43.1789C104.719 42.8842 103.832 43.3263 103.684 44.2105C103.388 45.0947 103.832 45.9789 104.719 46.1263C105.607 46.4211 106.495 45.9789 106.643 45.0947C106.791 44.3579 106.347 43.4737 105.607 43.1789Z" fill="url(#paint0_linear)"/>
<path d="M47.9031 82.8211C47.0153 82.5263 46.1275 82.9684 45.9796 83.8526C45.6837 84.7368 46.1275 85.6211 47.0153 85.7684C47.9031 86.0632 48.7908 85.6211 48.9388 84.7368C49.2347 83.8526 48.7908 83.1158 47.9031 82.8211Z" fill="url(#paint1_linear)"/>
<path d="M85.6327 70.5895C84.7449 70.2947 83.8571 70.7368 83.7092 71.6211C80.1582 82.821 68.0255 89.1579 56.6327 85.4737C55.7449 85.1789 54.8571 85.6211 54.7092 86.5053C54.4133 87.3895 54.8571 88.2737 55.7449 88.4211C68.6173 92.5474 82.5255 85.3263 86.6684 72.5053C86.9643 71.7684 86.5204 70.8842 85.6327 70.5895Z" fill="url(#paint2_linear)"/>
<path d="M117 57.3263L114.929 44.5053C114.041 39.2 110.49 35.0737 105.311 33.4526C101.168 32.1263 96.5816 32.8632 93.0306 35.3684L83.7092 40.8211L83.4133 39.9368C82.5255 37.1368 80.75 34.7789 78.3826 33.3053L68.3214 26.6737C60.6275 21.5158 54.2653 12.0842 51.1582 1.17895C51.0102 0.442105 50.4184 0 49.6786 0C48.9388 0 48.3469 0.442105 48.199 1.03158L44.5 12.8211C42.7245 18.2737 41.8367 23.8737 41.8367 29.4737V30.2105H41.0969C39.1735 30.0632 37.398 29.9158 35.6224 29.6211C32.0714 29.0316 28.5204 28.2947 25.1173 27.2632L7.80612 21.8105C7.21428 21.6632 6.62245 21.8105 6.32653 22.1053C5.88265 22.5474 5.73469 23.1368 5.88265 23.5789L12.3929 48.7789C15.0561 59.2421 22.75 67.7895 33.1071 71.4737L34.5867 72.0632L4.2551 90.0421C2.47959 91.0737 1.29592 92.8421 0.999997 94.9053C0.704078 96.9684 1.59183 98.8842 3.07143 100.211L12.9847 109.642C15.648 111.853 19.6429 111.558 21.7143 108.905L36.2143 91.9579L52.9337 97.2632C54.1173 97.7053 55.301 98 56.4847 98.1474C56.6326 98.8842 57.0765 99.6211 58.1122 100.211C57.6684 101.537 56.9286 103.747 56.0408 106.105L23.7857 109.642C22.75 109.789 21.4184 110.526 20.6786 113.326C20.2347 115.095 20.0867 117.305 20.3826 119.516C20.8265 123.937 22.602 128.358 25.5612 128.358C25.7092 128.358 25.7092 128.358 25.8571 128.358L64.0306 124.232C63.1428 125.116 61.5153 126.147 58.4082 126.589C48.7908 127.916 47.1633 132.926 47.0153 134.105C50.7143 131.011 51.75 129.979 58.4082 129.095C59.2959 128.947 60.0357 128.8 60.7755 128.653C60.4796 128.8 60.1837 129.095 59.8877 129.242C51.75 133.663 52.7857 140.589 52.9337 140C53.9694 137.2 56.0408 133.958 60.9235 131.6C65.8061 129.242 67.4337 125.853 68.0255 123.937L102.796 120.105C105.755 119.811 106.643 114.8 106.199 110.232C105.903 108.021 105.311 105.811 104.571 104.189C103.24 101.537 101.76 101.242 100.724 101.242L74.8316 104.042C75.7194 101.979 76.3112 100.063 76.7551 98.5895C77.6428 98 78.0867 96.8211 78.0867 95.7895C86.8163 91.9579 93.9184 84.8842 96.8775 75.6L101.02 62.4842C102.352 58.5053 106.643 56.2947 110.638 57.4737L115.077 58.8C115.52 58.9474 116.112 58.8 116.556 58.5053C116.852 58.5053 117.148 57.9158 117 57.3263ZM44.7959 29.6211C44.7959 24.3158 45.6837 18.8632 47.3112 13.7053L49.5306 6.48421L50.2704 8.25263C53.9694 17.0947 59.8877 24.4632 66.6939 29.0316L76.7551 35.6632C78.8265 37.1368 80.3061 39.3474 80.75 41.8526L80.8979 42.2947L72.0204 47.6L63.2908 37.7263C59.7398 33.7474 55.0051 31.0947 49.6786 30.3579C47.9031 30.0632 46.8673 30.0632 45.5357 30.0632H44.7959V29.6211ZM100.872 104.189C101.464 104.484 102.648 106.547 103.092 110.526C103.092 110.674 103.092 110.968 103.092 111.116L69.0612 114.8C69.0612 114.8 69.0612 114.8 69.0612 114.653C69.0612 114.505 69.0612 114.211 69.0612 114.063C68.9133 112.884 68.7653 111.705 68.3214 110.674C68.0255 109.642 67.7296 108.758 67.2857 108.021C67.2857 107.874 67.1377 107.874 67.1377 107.726L70.0969 107.432L71.5765 107.284C72.0204 108.168 72.1684 108.758 72.3163 109.495C72.4643 110.379 72.4643 112.442 72.4643 112.442C72.4643 112.442 74.5357 111.263 74.6837 109.2C74.6837 108.611 74.6837 108.021 74.5357 107.284C75.1275 107.579 75.8673 108.168 76.6071 109.2C77.3469 110.379 77.6428 112.442 77.6428 112.442C77.6428 112.442 78.9745 111.116 78.8265 109.053C78.6786 108.021 78.2347 107.137 77.7908 106.4L100.872 104.189ZM68.6173 120.842C68.9133 119.958 69.0612 118.926 69.0612 117.895L103.24 114.211C103.092 115.979 102.648 117.011 102.5 117.305L68.6173 120.842ZM55.153 109.2C55.5969 110.232 55.7449 110.821 55.8928 111.705C56.0408 112 56.0408 112.589 56.0408 113.032C56.0408 113.916 56.0408 114.8 56.0408 114.8C56.0408 114.8 58.2602 113.474 58.4082 111.263C58.4082 110.674 58.4082 109.937 58.2602 109.2C59 109.495 59.7398 110.084 60.4796 111.263C61.3673 112.737 61.6633 114.947 61.6633 114.947C61.6633 114.947 63.1428 113.474 62.8469 111.263C62.699 110.084 62.2551 109.2 61.8112 108.463L63.4388 108.316C63.4388 108.316 63.5867 108.316 63.5867 108.463C64.1786 108.905 65.5102 110.968 65.8061 114.505C65.8061 114.8 65.8061 114.947 65.8061 115.242L64.4745 115.389L54.2653 116.568L50.8622 116.863L29.1122 119.221C29.1122 119.074 29.1122 118.779 29.1122 118.632C28.8163 116.421 28.2245 114.211 27.4847 112.589C27.4847 112.442 27.3367 112.442 27.3367 112.295L54.7092 109.347L55.153 109.2ZM24.0816 112.737C24.6735 113.179 25.8571 115.242 26.301 118.926C26.7449 122.611 26.0051 124.821 25.5612 125.411C24.9694 124.968 23.7857 122.905 23.3418 119.221C22.898 115.537 23.4898 113.326 24.0816 112.737ZM29.2602 122.168L65.3622 118.189L66.102 118.042C65.9541 119.074 65.8061 119.811 65.6582 120.4C65.5102 120.695 65.3622 120.989 65.3622 121.137L28.6684 125.263C28.9643 124.232 29.1122 123.347 29.2602 122.168ZM59.2959 105.811C60.0357 103.747 60.6275 101.979 60.9235 100.8C62.2551 100.653 62.9949 99.7684 63.2908 99.0316C66.25 99.0316 69.3571 98.7368 72.1684 98C72.4643 98.4421 72.7602 98.8842 73.352 99.179C72.7602 100.8 72.1684 102.568 71.2806 104.632L59.2959 105.811ZM111.525 54.8211C105.903 53.0526 99.8367 56.1474 97.9133 61.7474L93.7704 74.8632C88.7398 90.6316 70.5408 99.6211 53.9694 94.3158L36.3622 88.7158C30.2959 86.8 23.9337 88.4211 19.4949 92.9895L18.7551 93.7263C18.4592 94.0211 18.3112 94.4632 18.3112 94.7579C18.3112 95.2 18.4592 95.6421 18.7551 95.9368C19.3469 96.5263 20.3826 96.5263 20.9745 95.9368C21.1224 95.7895 21.1224 95.7895 21.2704 95.6421C24.0816 92.5474 27.6326 91.0737 31.4796 91.0737H33.1071L19.4949 106.842C18.6071 107.874 17.4235 108.168 16.2398 107.874C15.9439 107.726 15.648 107.579 15.352 107.432L7.21428 99.6211C5.73469 98.1474 5.58673 98 5.43877 98C4.69898 97.2632 4.2551 96.379 4.2551 95.3474C4.40306 94.3158 4.99489 93.4316 5.88265 92.9895C6.03061 92.8421 9.28571 90.9263 19.199 85.0316L38.5816 73.5368L38.8775 73.6842C46.8673 75.8947 55.301 74.8632 62.699 71.1789C63.1428 71.0316 63.2908 70.7368 63.4388 70.2947C63.5867 69.8526 63.5867 69.5579 63.2908 69.1158C62.8469 68.379 61.9592 68.0842 61.2194 68.379C49.8265 74.2737 39.7653 70.7368 36.5102 69.7053C36.0663 69.5579 35.6224 69.4105 35.6224 69.4105C25.5612 66.3158 18.1633 58.3579 15.648 48.3368L14.4643 43.4737L17.5714 45.979C26.1531 52.9053 38.8775 55.5579 49.2347 52.4632C50.1224 52.1684 50.5663 51.4316 50.2704 50.5474C50.1224 50.1053 49.8265 49.8105 49.5306 49.6632C49.0867 49.5158 48.7908 49.3684 48.3469 49.5158C38.8775 52.1684 27.3367 49.8105 19.4949 43.4737L12.8367 38.1684L9.58163 25.6421L23.9337 30.2105C27.4847 31.3895 31.1837 32.1263 35.0306 32.7158C39.7653 33.4526 42.8724 33.4526 45.3877 33.4526C47.0153 33.4526 48.199 33.4526 49.3826 33.6C53.9694 34.3368 58.1122 36.5474 61.0714 39.9368L74.9796 55.8526C75.2755 56.1474 75.5714 56.2947 76.0153 56.4421C76.4592 56.4421 76.9031 56.2947 77.199 56C77.4949 55.7053 77.6428 55.4105 77.7908 54.9684C77.7908 54.5263 77.6428 54.0842 77.3469 53.7895L74.2398 50.2526L90.9592 40.3789C94.2143 38.4632 94.9541 38.0211 94.9541 38.0211C97.7653 36.1053 101.316 35.5158 104.571 36.5474C108.418 37.7263 111.378 41.1158 111.969 45.0947L113.597 55.4105L111.525 54.8211Z" fill="url(#paint3_linear)"/>
<defs>
<linearGradient id="paint0_linear" x1="-2.27389" y1="44.6898" x2="116.894" y2="44.6898" gradientUnits="userSpaceOnUse">
<stop stop-color="#8E6D55"/>
<stop offset="1" stop-color="#4D4444"/>
</linearGradient>
<linearGradient id="paint1_linear" x1="-2.27378" y1="84.2813" x2="116.891" y2="84.2813" gradientUnits="userSpaceOnUse">
<stop stop-color="#8E6D55"/>
<stop offset="1" stop-color="#4D4444"/>
</linearGradient>
<linearGradient id="paint2_linear" x1="-2.27374" y1="80.1471" x2="116.891" y2="80.1471" gradientUnits="userSpaceOnUse">
<stop stop-color="#8E6D55"/>
<stop offset="1" stop-color="#4D4444"/>
</linearGradient>
<linearGradient id="paint3_linear" x1="-2.27375" y1="69.999" x2="116.891" y2="69.999" gradientUnits="userSpaceOnUse">
<stop stop-color="#8E6D55"/>
<stop offset="1" stop-color="#4D4444"/>
</linearGradient>
</defs>
</svg>
