<svg width="572" height="695" viewBox="0 0 572 695" fill="none" xmlns="http://www.w3.org/2000/svg">
<path opacity="0.4" d="M0.0462913 347.331C0.0462913 245.769 0.0462913 144.208 0.0462913 42.6629C0.0462913 36.8784 0.0154303 31.0939 0 25.2923C0 22.3403 0.0308612 19.3884 0.0308612 16.4534C0.0308612 15.3614 0.123443 14.2693 0.277745 13.1943C1.04926 7.7852 4.35134 3.24632 8.96499 1.26696C10.9401 0.430853 12.9769 0.157838 15.0754 0.311409C17.0504 0.46498 18.9792 0.925693 20.8772 1.5741C22.0961 2.00069 23.3151 2.4614 24.5033 2.99037C29.1786 5.05505 33.8077 7.23917 38.3751 9.5598C50.9353 15.9245 63.4801 22.3233 76.0404 28.705C76.8427 29.1145 77.6605 29.4899 78.4783 29.8653C78.6789 29.9677 79.1264 29.7629 79.2344 29.507C79.4504 29.0121 79.6665 28.5344 79.8516 28.0225C81.0089 24.8999 82.1662 21.7602 83.3234 18.6205C83.5549 18.0062 83.7555 17.3919 84.0024 16.8118C84.7122 15.1737 85.8386 13.9792 87.3353 13.2455C87.6902 13.0749 88.076 12.9554 88.4617 12.8701C89.4338 12.6312 90.4214 12.58 91.4089 12.58C92.7976 12.58 94.1709 12.58 95.5596 12.563C96.146 12.5459 96.7478 12.4947 97.3341 12.4094C97.6119 12.3582 97.8896 12.2217 98.0902 11.9316C99.1858 10.3788 100.281 8.84313 101.392 7.30742C102.009 6.45425 102.596 5.58402 103.228 4.73084C104.571 2.90505 106.268 1.62529 108.259 0.840376C109.478 0.362599 110.728 0.089583 112.024 0.0213292C112.518 -0.0127977 113.011 0.00426599 113.505 0.00426599C114.4 0.00426599 115.28 0.00426599 116.174 0.00426599C229.541 0.00426599 342.907 0.00426599 456.273 0.00426599C457.461 0.00426599 458.649 -0.0127977 459.822 0.0213292C461.411 0.0725196 462.954 0.447917 464.42 1.14752C466.087 1.93244 467.522 3.07569 468.679 4.6114C469.435 5.61814 470.145 6.65901 470.885 7.69988C471.858 9.08202 472.83 10.4471 473.802 11.8292C474.126 12.29 474.573 12.4777 475.083 12.5288C475.468 12.563 475.869 12.5971 476.271 12.5971C477.659 12.6142 479.033 12.58 480.421 12.6142C481.301 12.6312 482.196 12.6653 483.075 12.8189C485.405 13.1943 487.026 14.6788 488.044 16.9824C488.306 17.5626 488.507 18.1939 488.723 18.7911C489.88 21.9308 491.037 25.0534 492.195 28.1931C492.349 28.6026 492.519 28.978 492.688 29.3875C492.858 29.8141 493.321 30.053 493.661 29.8824C494.555 29.4387 495.466 28.9951 496.361 28.5514C508.828 22.2209 521.281 15.8733 533.748 9.54274C538.316 7.22211 542.96 5.05505 547.62 2.97331C549.549 2.12014 551.524 1.4376 553.545 0.891566C554.996 0.499107 556.462 0.311409 557.943 0.294346C563.807 0.226092 568.775 4.11656 570.92 9.88401C571.645 11.8292 571.907 13.8769 571.938 15.9586C571.985 18.2451 572 20.5487 572 22.8352C572 28.6197 571.954 34.4042 571.954 40.2058C571.954 245.07 571.954 449.933 571.954 654.797C571.954 659.933 572 665.07 572 670.189C572 673.021 571.954 675.871 571.954 678.703C571.954 680.017 571.784 681.314 571.614 682.611C571.506 683.481 571.213 684.317 570.92 685.102C569.115 689.829 565.951 692.9 561.477 694.265C560.057 694.692 558.56 694.811 557.063 694.675C555.088 694.504 553.16 694.077 551.262 693.446C549.935 693.002 548.639 692.491 547.358 691.927C542.791 689.88 538.239 687.747 533.748 685.477C521.281 679.147 508.828 672.799 496.361 666.469C495.466 666.008 494.555 665.581 493.661 665.138C493.337 664.984 492.874 665.206 492.688 665.616C492.519 666.008 492.334 666.4 492.195 666.793C491.037 669.916 489.88 673.055 488.723 676.195C488.507 676.809 488.291 677.406 488.044 678.004C487.365 679.659 486.269 680.87 484.788 681.655C484.433 681.843 484.047 681.962 483.677 682.065C482.705 682.321 481.717 682.389 480.73 682.389C479.341 682.389 477.968 682.389 476.579 682.406C475.993 682.423 475.391 682.474 474.805 682.525C474.512 682.56 474.218 682.679 474.018 682.935C473.694 683.344 473.37 683.754 473.077 684.198C471.672 686.177 470.299 688.173 468.88 690.136C467.553 691.979 465.871 693.275 463.896 694.094C462.692 694.589 461.427 694.862 460.146 694.965C459.652 694.999 459.158 694.999 458.665 694.999C457.677 694.999 456.69 694.999 455.702 694.999C342.536 694.999 229.371 694.999 116.19 694.999C115.11 694.999 114.014 694.982 112.934 694.999C111.839 695.016 110.774 694.845 109.709 694.589C107.209 693.992 105.126 692.644 103.429 690.528C103.043 690.033 102.688 689.504 102.318 688.992C100.976 687.098 99.6332 685.221 98.3062 683.31C97.905 682.73 97.3958 682.508 96.7786 682.474C95.5905 682.44 94.4024 682.423 93.2297 682.406C92.3347 682.389 91.4552 682.406 90.5602 682.372C89.9739 682.355 89.3721 682.269 88.8012 682.167C86.7027 681.792 85.2059 680.461 84.1721 678.464C83.8326 677.799 83.6166 677.065 83.3543 676.366C82.197 673.243 81.0398 670.103 79.8825 666.981C79.6973 666.486 79.4813 665.991 79.2653 665.496C79.1573 665.223 78.7252 665.018 78.5246 665.121C77.7068 665.513 76.889 665.872 76.0866 666.281C64.6991 672.066 53.3116 677.85 41.924 683.669C36.4617 686.467 30.9377 689.112 25.3674 691.654C23.0837 692.695 20.7537 693.6 18.3312 694.18C16.2944 694.658 14.2421 694.914 12.1591 694.623C8.77982 694.146 5.97151 692.474 3.68783 689.726C2.25282 688.02 1.24985 686.006 0.663502 683.788C0.246885 682.218 0.0617215 680.58 0.0462913 678.942C0.030861 677.304 0 675.666 0 674.028C0 668.568 0.015431 663.107 0.0308612 657.647C0.0308612 656.333 0.0308612 655.019 0.0308612 653.722C0.0462915 551.529 0.0462913 449.422 0.0462913 347.331ZM555.829 347.467C555.829 245.257 555.829 143.047 555.829 40.8542C555.829 39.5403 555.829 38.2264 555.814 36.9296C555.814 36.503 555.752 36.0593 555.69 35.6328C555.629 35.1891 555.397 34.8478 555.042 34.609C554.24 34.0629 553.376 33.9094 552.496 34.2847C551.663 34.6431 550.861 35.0526 550.058 35.4792C543.377 38.9943 536.696 42.5264 530.03 46.0585C527.623 47.3212 525.231 48.601 522.808 49.8637C519.645 51.5018 516.312 52.4061 512.794 52.4744C511.112 52.5085 509.43 52.4915 507.779 52.1672C503.536 51.3311 499.647 49.5224 496.237 46.5704C495.697 46.0927 495.142 45.6319 494.648 45.0859C493.892 44.2669 493.105 43.7208 492.01 44.2157C490.25 44.5228 488.476 44.6423 486.702 44.6593C485.128 44.6764 483.538 44.5911 481.98 44.301C478.045 43.5673 474.357 42.0827 470.932 39.8304C464.574 35.6328 459.02 28.0054 457.261 20.0026C457.168 19.576 457.044 19.1665 456.921 18.757C456.859 18.5522 456.736 18.3816 456.643 18.1768C456.551 17.955 456.396 17.8526 456.18 17.8014C455.008 17.5626 453.82 17.682 452.632 17.682C341.549 17.682 230.451 17.682 119.369 17.682C118.474 17.682 117.594 17.682 116.699 17.6991C116.406 17.6991 116.113 17.7673 115.82 17.8185C115.619 17.8526 115.496 18.0062 115.372 18.1939C115.079 18.6546 114.94 19.1665 114.832 19.6955C114.061 23.3641 112.61 26.6744 110.697 29.7629C107.904 34.2506 104.386 37.851 100.065 40.4617C96.0226 42.9018 91.7175 44.3692 87.0884 44.5911C85.9003 44.6423 84.7276 44.6764 83.5395 44.574C82.0582 44.4546 80.5769 44.3693 79.1264 44.028C78.8332 43.9597 78.5092 44.045 78.2777 44.2498C77.7377 44.7276 77.2285 45.2395 76.7039 45.7343C71.9822 50.1026 66.5662 52.4061 60.4095 52.4573C58.1258 52.4744 55.873 52.2867 53.6665 51.6212C51.8457 51.0752 50.1021 50.3244 48.4048 49.4371C41.7234 45.905 35.0421 42.3899 28.3608 38.8578C26.0463 37.6292 23.7318 36.4006 21.4172 35.1891C20.8 34.8649 20.1674 34.5407 19.5193 34.2677C18.6243 33.8923 17.7757 34.0459 16.9733 34.609C16.6184 34.8478 16.4024 35.2062 16.3252 35.6498C16.2481 36.0764 16.1864 36.5201 16.1864 36.9466C16.1709 38.3629 16.1709 39.7792 16.1709 41.2125C16.1709 189.289 16.1709 337.349 16.1709 485.425C16.1709 541.667 16.1709 597.891 16.1709 654.132C16.1709 655.446 16.1709 656.76 16.1864 658.056C16.1864 658.483 16.2635 658.927 16.3252 659.353C16.4024 659.797 16.6338 660.138 16.9887 660.377C17.7911 660.923 18.6552 661.077 19.5347 660.701C20.368 660.343 21.1703 659.933 21.9727 659.507C26.9567 656.879 31.9407 654.234 36.9246 651.589C40.9365 649.474 44.9329 647.358 48.9448 645.242C52.2932 643.484 55.8113 642.512 59.5145 642.495C61.6902 642.495 63.835 642.631 65.9798 643.211C69.7911 644.235 73.2012 646.095 76.2409 648.808C76.781 649.286 77.3056 649.781 77.7994 650.327C78.3549 650.924 78.9721 651.009 79.6973 650.839C81.5335 650.412 83.416 650.344 85.2985 650.31C86.8724 650.293 88.4617 650.378 90.0202 650.668C92.6588 651.163 95.2048 651.982 97.6582 653.176C106.515 657.493 112.857 666.418 114.739 674.966C114.817 675.291 114.878 675.598 114.971 675.922C115.033 676.127 115.11 676.331 115.202 676.519C115.388 676.929 115.681 677.219 116.097 677.236C117.285 677.27 118.474 677.287 119.646 677.287C230.544 677.287 341.426 677.287 452.323 677.287C453.31 677.287 454.298 677.287 455.285 677.27C455.579 677.27 455.872 677.202 456.165 677.15C456.381 677.116 456.504 676.98 456.612 676.775C456.875 676.297 457.029 675.802 457.153 675.256C457.585 673.345 458.109 671.468 458.912 669.711C461.936 662.954 466.395 657.715 472.459 654.183C476.348 651.914 480.499 650.583 484.912 650.361C486.1 650.293 487.272 650.276 488.461 650.378C489.942 650.497 491.408 650.583 492.874 650.924C493.136 650.992 493.491 650.89 493.707 650.702C494.34 650.173 494.91 649.559 495.512 649.013C500.357 644.628 505.897 642.426 512.177 642.478C515.896 642.512 519.414 643.365 522.777 645.122C523.132 645.31 523.487 645.498 523.842 645.685C527.576 647.665 531.326 649.627 535.06 651.607C539.951 654.2 544.858 656.777 549.75 659.37C550.644 659.831 551.539 660.309 552.45 660.701C553.453 661.128 554.394 660.889 555.227 660.172C555.366 660.053 555.505 659.848 555.551 659.643C555.659 659.234 555.752 658.79 555.752 658.364C555.783 656.947 555.783 655.531 555.783 654.098C555.829 551.888 555.829 449.678 555.829 347.467ZM567.402 347.689C567.402 240.582 567.402 133.475 567.402 26.3502C567.402 25.0364 567.402 23.7225 567.402 22.4256C567.402 21.7772 567.402 21.1118 567.34 20.4634C567.263 19.4566 566.939 18.5522 566.368 17.7673C564.918 15.805 563.02 14.7642 560.782 14.4229C559.995 14.3034 559.193 14.3205 558.437 14.5594C557.588 14.8153 556.724 15.0713 555.891 15.4126C553.947 16.1975 552.018 17.0336 550.104 17.9209C538.918 23.1252 527.731 28.3467 516.559 33.551C512.47 35.4621 508.381 37.3562 504.292 39.2843C503.937 39.455 503.613 39.7109 503.274 39.9328C503.042 40.1034 503.042 40.274 503.258 40.4447C503.412 40.5641 503.551 40.7518 503.737 40.8201C505.958 41.7927 508.288 42.2704 510.665 42.3387C513.257 42.407 515.772 41.9121 518.179 40.8201C519.83 40.0693 521.435 39.2332 523.04 38.4141C530.477 34.6431 537.93 30.855 545.367 27.084C547.065 26.2137 548.793 25.3947 550.49 24.5245C551.493 24.0125 552.558 23.7566 553.653 23.7907C555.721 23.876 557.48 24.7463 558.838 26.5209C559.764 27.7153 560.35 29.0804 560.366 30.6844C560.381 32.2201 560.396 33.7387 560.396 35.2744C560.396 243.38 560.396 451.486 560.396 659.592C560.396 660.684 560.396 661.776 560.396 662.868C560.396 663.517 560.381 664.182 560.335 664.831C560.304 665.257 560.227 665.701 560.088 666.11C558.869 669.574 556.246 671.144 553.453 671.178C552.465 671.195 551.493 670.956 550.583 670.496C550.135 670.257 549.688 670.052 549.24 669.813C539.828 665.035 530.4 660.258 520.988 655.497C520 655.002 518.997 654.524 517.994 654.081C515.772 653.091 513.442 652.63 511.05 652.63C508.566 652.63 506.144 653.142 503.814 654.115C503.629 654.183 503.474 654.337 503.32 654.473C503.243 654.541 503.119 654.661 503.135 654.712C503.212 654.9 503.289 655.122 503.443 655.207C503.968 655.514 504.493 655.804 505.048 656.043C520.231 663.124 535.399 670.223 550.598 677.287C552.326 678.089 554.101 678.771 555.845 679.539C556.678 679.915 557.542 680.137 558.391 680.41C559.162 680.648 559.949 680.683 560.736 680.563C562.973 680.239 564.887 679.215 566.353 677.287C566.939 676.519 567.278 675.615 567.386 674.608C567.433 674.181 567.433 673.738 567.448 673.294C567.464 671.878 567.464 670.462 567.464 669.028C567.402 561.904 567.402 454.797 567.402 347.689ZM4.61365 347.348C4.61365 454.353 4.61365 561.358 4.61365 668.363C4.61365 669.779 4.61365 671.195 4.61365 672.629C4.61365 673.277 4.64451 673.943 4.67537 674.591C4.70623 675.137 4.87597 675.649 5.07656 676.161C5.27715 676.673 5.5549 677.116 5.89436 677.509C6.98991 678.823 8.31691 679.71 9.87537 680.205C11.2487 680.631 12.5911 680.734 13.9644 680.29C14.7205 680.051 15.492 679.829 16.2172 679.505C18.0534 678.686 19.9205 677.969 21.7258 677.133C33.8231 671.52 45.9205 665.872 58.0024 660.241C61.2736 658.722 64.5448 657.186 67.816 655.651C68.1709 655.48 68.5412 655.309 68.8036 654.951C68.8653 654.883 68.927 654.712 68.9116 654.695C68.6955 654.49 68.4795 654.217 68.2172 654.098C66.1804 653.21 64.0356 652.767 61.8754 652.63C59.1751 652.46 56.5674 652.972 54.0522 654.047C52.4012 654.763 50.7964 655.616 49.1917 656.435C44.3466 658.893 39.5015 661.333 34.6564 663.79C30.4439 665.923 26.216 668.039 22.0036 670.189C21.1858 670.598 20.3525 670.888 19.473 671.042C18.1614 671.298 16.8807 671.076 15.7234 670.479C13.2083 669.165 11.6961 667.032 11.6653 663.841C11.6499 662.425 11.6499 661.008 11.6499 659.575C11.6499 451.469 11.6499 243.346 11.6499 35.2403C11.6499 34.1482 11.6499 33.0562 11.6499 31.9641C11.6499 31.3157 11.6807 30.6502 11.727 30.0018C11.7579 29.4558 11.9122 28.9439 12.0973 28.432C12.5294 27.3058 13.1929 26.3673 14.0261 25.5824C14.705 24.934 15.4766 24.4221 16.3407 24.1661C17.5905 23.7737 18.8558 23.6201 20.1365 24.0125C20.6148 24.1491 21.0777 24.3026 21.5407 24.5245C23.5157 25.5141 25.5062 26.4867 27.4813 27.4764C35.3662 31.4863 43.251 35.4963 51.1513 39.5062C51.9537 39.9157 52.7869 40.257 53.6048 40.6494C54.9626 41.3149 56.3976 41.6903 57.8481 41.9974C60.7335 42.6117 63.5418 42.2363 66.3502 41.5026C66.9211 41.349 67.492 41.1443 68.0475 40.9054C68.3098 40.7859 68.5412 40.5641 68.8036 40.3935C69.035 40.2399 69.0196 40.0863 68.8036 39.8816C68.4178 39.5232 67.9703 39.3185 67.5074 39.1137C52.0309 31.9471 36.5697 24.7463 21.1086 17.5455C19.473 16.7776 17.7911 16.1463 16.1401 15.4126C15.3068 15.0372 14.4427 14.8153 13.5941 14.5594C12.73 14.3034 11.835 14.3034 10.9555 14.457C9.05757 14.8153 7.3911 15.7026 6.03324 17.2554C5.18457 18.2451 4.65994 19.3884 4.64451 20.7705C4.62908 22.4086 4.61365 24.0467 4.61365 25.6848C4.61365 132.912 4.61365 240.138 4.61365 347.348ZM285.722 12.58C344.064 12.58 402.421 12.58 460.763 12.58C461.751 12.58 462.738 12.58 463.726 12.58C464.127 12.58 464.513 12.58 464.914 12.563C465.115 12.563 465.3 12.5118 465.5 12.4947C465.886 12.4606 466.148 11.9146 466.01 11.5221C465.562 10.2935 464.914 9.20147 464.142 8.21179C463.433 7.29036 462.599 6.52251 461.658 5.90822C460.964 5.46457 460.239 5.15743 459.421 5.15743C458.032 5.15743 456.659 5.14037 455.27 5.14037C342.521 5.14037 229.772 5.14037 117.023 5.14037C116.128 5.14037 115.249 5.14037 114.354 5.14037C113.767 5.14037 113.166 5.17449 112.579 5.15743C111.761 5.14037 111.021 5.46457 110.342 5.90822C108.336 7.25623 106.901 9.13322 105.991 11.5221C105.852 11.8975 106.16 12.4606 106.515 12.4947C106.716 12.5118 106.901 12.563 107.101 12.563C108.182 12.58 109.277 12.58 110.357 12.58C168.823 12.58 227.272 12.58 285.722 12.58ZM286.154 682.372C227.812 682.372 169.455 682.372 111.113 682.372C110.033 682.372 108.938 682.372 107.858 682.372C107.456 682.372 107.071 682.406 106.669 682.44C106.145 682.474 105.821 683.089 106.037 683.6C106.407 684.488 106.855 685.341 107.395 686.126C108.228 687.371 109.262 688.361 110.481 689.129C111.082 689.522 111.731 689.794 112.44 689.794C113.628 689.812 114.817 689.829 115.989 689.829C229.325 689.829 342.675 689.829 456.011 689.829C456.798 689.829 457.585 689.829 458.387 689.829C458.788 689.829 459.174 689.794 459.575 689.794C460.285 689.777 460.933 689.504 461.535 689.129C461.874 688.907 462.214 688.668 462.522 688.412C464.065 687.15 465.176 685.495 465.963 683.583C466.009 683.481 466.01 683.379 466.04 683.276C466.102 683.071 465.824 682.577 465.624 682.525C464.451 682.235 463.263 682.372 462.09 682.372C403.44 682.372 344.805 682.372 286.154 682.372ZM465.145 17.682C464.065 17.6991 462.985 17.5455 461.905 17.7673C461.704 17.8015 461.427 18.228 461.458 18.484C461.473 18.5864 461.458 18.7058 461.488 18.8082C461.874 20.2757 462.337 21.709 463.109 22.9887C467.012 29.507 473.385 32.8514 478.169 33.3974C478.662 33.4486 479.141 33.551 479.634 33.6193C480.514 33.7387 481.409 33.7899 482.288 33.6875C483.554 33.534 484.834 33.3633 486.084 33.1244C486.655 33.0221 487.195 32.732 487.751 32.5102C487.936 32.4419 488.152 31.9129 488.106 31.674C488.09 31.5717 488.09 31.4522 488.059 31.3498C487.211 28.3296 486.269 25.3606 485.143 22.4598C485.02 22.1526 484.896 21.8626 484.742 21.5895C484.094 20.3268 483.199 19.3372 482.103 18.5522C481.934 18.4328 481.764 18.3304 481.579 18.2622C480.838 17.9891 480.082 17.7161 479.28 17.6991C478.94 17.6991 478.616 17.8526 478.57 18.1086C478.523 18.3304 478.539 18.5522 478.678 18.7399C479.341 19.6955 480.005 20.634 480.668 21.5725C481.347 22.5451 481.718 23.6542 481.872 24.8657C481.918 25.1899 481.918 25.5312 481.856 25.8383C481.764 26.3673 481.671 26.9304 481.471 27.4082C480.684 29.3363 479.372 30.5308 477.428 30.7356C476.95 30.7867 476.44 30.7356 475.962 30.6844C475.669 30.6502 475.376 30.582 475.098 30.4625C473.972 29.9336 473.061 29.1486 472.521 27.903C472.182 27.1181 471.858 26.3332 471.549 25.5312C470.731 23.4324 469.929 21.3165 469.126 19.2177C469.018 18.9276 468.88 18.6205 468.725 18.3475C468.509 17.9721 468.185 17.6991 467.769 17.6991C466.92 17.682 466.04 17.682 465.145 17.682ZM481.501 661.196C480.9 661.23 480.406 661.23 479.912 661.299C478.832 661.435 477.752 661.572 476.687 661.776C476.008 661.913 475.345 662.152 474.697 662.391C470.469 663.909 466.935 666.571 464.127 670.393C462.862 672.117 461.998 674.045 461.488 676.178C461.458 676.28 461.473 676.4 461.458 676.502C461.427 676.741 461.72 677.185 461.921 677.202C463.88 677.406 465.855 677.304 467.815 677.27C467.907 677.27 468.015 677.253 468.108 677.202C468.278 677.099 468.463 676.997 468.586 676.843C468.772 676.587 468.941 676.314 469.049 676.024C470.021 673.533 470.993 671.025 471.966 668.516C472.166 668.021 472.336 667.51 472.583 667.032C473.447 665.274 474.789 664.302 476.61 664.182C476.903 664.165 477.196 664.182 477.49 664.199C478.307 664.233 479.033 664.558 479.681 665.052C480.684 665.82 481.378 666.844 481.702 668.158C481.949 669.131 481.98 670.069 481.718 671.042C481.517 671.775 481.255 672.475 480.838 673.089C480.483 673.618 480.113 674.113 479.742 674.642C479.388 675.154 479.017 675.683 478.678 676.195C478.554 676.383 478.539 676.604 478.585 676.826C478.631 677.065 478.986 677.219 479.31 677.202C481.193 677.099 482.705 676.212 483.909 674.642C484.418 673.977 484.834 673.243 485.143 672.424C486.269 669.523 487.211 666.554 488.059 663.534C488.09 663.431 488.075 663.312 488.106 663.21C488.152 662.971 487.921 662.459 487.735 662.373C485.714 661.452 483.538 661.418 481.501 661.196ZM90.3596 33.7387C91.5632 33.7387 94.9733 33.3121 95.714 33.0903C100.112 31.8105 103.923 29.4217 106.993 25.6677C108.459 23.876 109.678 21.8967 110.296 19.5419C110.373 19.2348 110.45 18.9106 110.512 18.6034C110.527 18.5011 110.512 18.3987 110.496 18.2792C110.465 18.0233 110.357 17.8697 110.172 17.8014C109.493 17.5626 108.799 17.6479 108.12 17.6479C106.747 17.6479 105.358 17.682 103.985 17.7332C103.661 17.7332 103.445 18.0062 103.275 18.2622C103.105 18.5181 102.966 18.8253 102.858 19.1153C101.917 21.5213 100.991 23.9272 100.065 26.3332C99.8338 26.9304 99.6178 27.5447 99.3246 28.1078C98.4605 29.7117 97.1798 30.6502 95.4825 30.7526C94.9887 30.7867 94.495 30.7355 94.0012 30.6673C93.708 30.6332 93.4148 30.5308 93.1525 30.3943C91.2855 29.4387 90.2979 27.7836 90.0665 25.5653C90.051 25.3435 90.051 25.1217 90.0819 24.9169C90.2362 23.8249 90.5139 22.784 91.1157 21.8796C91.4706 21.3507 91.841 20.8387 92.1958 20.3268C92.5507 19.8149 92.9056 19.286 93.2605 18.757C93.3994 18.5693 93.4148 18.3645 93.3377 18.1427C93.2297 17.8526 92.9674 17.7332 92.6279 17.7503C91.8255 17.7503 91.0694 18.0403 90.3288 18.3304C90.1436 18.3987 89.9739 18.5181 89.8042 18.6376C88.616 19.4737 87.6902 20.5999 87.0421 21.982C86.9033 22.2721 86.7953 22.5792 86.6718 22.8864C85.638 25.5994 84.7739 28.3808 83.9407 31.1792C83.9098 31.2816 83.8944 31.384 83.8789 31.5034C83.8635 31.6058 83.8789 31.7252 83.8635 31.8276C83.8326 32.0665 84.095 32.5272 84.2955 32.6125C86.3941 33.4828 88.5697 33.5681 90.3596 33.7387ZM107.009 677.304C107.009 677.321 107.009 677.321 107.009 677.338C107.996 677.304 108.984 677.27 109.972 677.236C110.373 677.219 110.65 676.741 110.527 676.297C110.419 675.888 110.296 675.461 110.188 675.052C109.709 673.243 108.814 671.69 107.75 670.223C103.83 664.831 98.0131 661.947 93.6309 661.503C91.054 660.923 88.5234 661.299 85.9775 661.793C85.4065 661.913 84.851 662.186 84.2801 662.373C84.095 662.442 83.8481 662.954 83.8789 663.193C83.9252 663.517 83.9561 663.841 84.0487 664.148C84.5887 665.906 85.1442 667.663 85.7151 669.404C86.0546 670.427 86.4404 671.434 86.8261 672.441C87.3662 673.891 88.2303 675.052 89.3567 675.99C89.835 676.383 90.3442 676.69 90.9306 676.86C91.5941 677.065 92.2576 677.287 92.9674 677.15C93.1988 677.116 93.3223 676.963 93.3377 676.741C93.3531 676.639 93.384 676.502 93.3377 676.434C93.0754 675.973 92.7976 675.512 92.5199 675.086C91.9952 674.301 91.378 673.567 90.9306 672.731C90.1282 671.281 89.835 669.762 90.2979 668.039C90.7917 666.247 92.5816 664.114 94.9424 664.182C95.2356 664.182 95.5288 664.199 95.822 664.233C96.3157 664.285 96.7786 664.438 97.2261 664.694C98.2291 665.257 99.0006 666.059 99.4789 667.185C99.695 667.68 99.8955 668.175 100.081 668.67C100.852 670.683 101.624 672.68 102.395 674.693C103.506 677.56 103.306 677.27 105.805 677.304C106.222 677.304 106.623 677.304 107.009 677.304Z" fill="white"/>
</svg>
