<svg id="Слой_1" data-name="Слой 1" xmlns="http://www.w3.org/2000/svg" viewBox="0 0 26.63 25.63"><defs><style>.cls-1{fill:#fff;}.cls-2{fill:#8b6d55;}</style></defs><title>намек</title><path class="cls-1" d="M14.66,9.65s-.46.39-.14.81.77.89.9,1a11.43,11.43,0,0,1-1,1.52,8,8,0,0,1-2,1.69l-.41.22c-.08-.08-.71-.66-1-.92s-.81.14-.81.14-1.3,1.3-1.56,1.6a.64.64,0,0,0-.12.64,2.38,2.38,0,0,0,2.44,1.31c1.58,0,3.2-1.19,4.46-2.49,1.42-1.3,2.85-3.07,2.84-4.79A2.38,2.38,0,0,0,16.89,8a.64.64,0,0,0-.64.11c-.3.26-1.6,1.56-1.6,1.56Zm0,0"/><path class="cls-2" d="M19.44,8.52H16.82V7.9a3.48,3.48,0,0,0-7,0v.62H7.19L5.75,21.21H20.88ZM10.57,7.9a2.77,2.77,0,1,1,5.54,0v.62H10.57Zm-.26,3.59a.92.92,0,1,1,.92-.92A.92.92,0,0,1,10.31,11.49Zm6,0a.92.92,0,1,1,.92-.92A.92.92,0,0,1,16.31,11.49Z"/></svg>