<svg width="18" height="16" viewBox="0 0 18 16" xmlns="http://www.w3.org/2000/svg">
<path d="M17.981 12.652L17.0733 4.62321C17.0446 4.36889 16.8319 4.18331 16.5789 4.18331H14.2853C13.7046 1.76626 11.5634 0 9.01657 0C6.46978 0 4.32853 1.76626 3.74787 4.18331H1.42114C1.1681 4.18331 0.955352 4.36889 0.926684 4.62321L0.0190042 12.6553C-0.0761568 13.4971 0.189086 14.3577 0.746714 14.9899C1.30421 15.6222 2.10439 16 2.94186 16H15.0582C15.8956 16 16.6957 15.6207 17.2532 14.9884C17.8109 14.3561 18.0761 13.4939 17.981 12.652ZM9.01657 1.0071C11.0103 1.0071 12.7001 2.30338 13.2539 4.18331H4.77925C5.33303 2.30338 7.02283 1.0071 9.01657 1.0071Z" />
</svg>
