<svg width="410" height="504" viewBox="0 0 410 504" fill="none" xmlns="http://www.w3.org/2000/svg">
<path opacity="0.4" d="M0.0331808 251.877C0.0331808 178.227 0.0331808 104.576 0.0331808 30.9383C0.0331808 26.7435 0.0110602 22.5487 0 18.3415C0 16.2008 0.0221208 14.06 0.0221208 11.9317C0.0221208 11.1398 0.0884816 10.3478 0.199083 9.56825C0.752091 5.64567 3.11896 2.35417 6.42595 0.918775C7.84165 0.312446 9.30159 0.114461 10.8058 0.225827C12.2215 0.337194 13.604 0.671294 14.9644 1.14151C15.8381 1.45086 16.7119 1.78496 17.5635 2.16856C20.9148 3.66582 24.2328 5.2497 27.5066 6.93258C36.5096 11.5481 45.5015 16.1884 54.5044 20.8163C55.0796 21.1133 55.6658 21.3855 56.2519 21.6577C56.3957 21.732 56.7165 21.5835 56.7939 21.3979C56.9487 21.039 57.1036 20.6925 57.2363 20.3213C58.0658 18.0569 58.8953 15.78 59.7248 13.5032C59.8907 13.0577 60.0345 12.6123 60.2115 12.1916C60.7203 11.0036 61.5276 10.1375 62.6005 9.60538C62.8549 9.48164 63.1314 9.39502 63.4079 9.33315C64.1047 9.15991 64.8125 9.12279 65.5204 9.12279C66.5158 9.12279 67.5001 9.12279 68.4955 9.11041C68.9158 9.09804 69.3472 9.06092 69.7675 8.99905C69.9665 8.96192 70.1656 8.86293 70.3094 8.65257C71.0947 7.52653 71.88 6.41286 72.6763 5.2992C73.1187 4.68049 73.539 4.04942 73.9924 3.43071C74.9547 2.10669 76.1713 1.17863 77.5981 0.609423C78.4718 0.262949 79.3677 0.0649638 80.2967 0.0154675C80.6507 -0.00928065 81.0046 0.00309361 81.3585 0.00309361C82 0.00309361 82.6304 0.00309361 83.2719 0.00309361C164.531 0.00309361 245.79 0.00309361 327.049 0.00309361C327.9 0.00309361 328.752 -0.00928065 329.593 0.0154675C330.732 0.0525897 331.838 0.32482 332.889 0.832157C334.083 1.40136 335.112 2.23043 335.941 3.34409C336.483 4.07416 336.992 4.82898 337.523 5.5838C338.22 6.5861 338.916 7.57603 339.613 8.57833C339.845 8.91243 340.166 9.04854 340.531 9.08566C340.808 9.11041 341.095 9.13516 341.383 9.13516C342.378 9.14753 343.363 9.12279 344.358 9.14754C344.988 9.15991 345.63 9.18466 346.26 9.29602C347.93 9.56825 349.092 10.6448 349.822 12.3153C350.01 12.736 350.153 13.1939 350.308 13.6269C351.138 15.9038 351.967 18.1682 352.797 20.4451C352.907 20.742 353.029 21.0143 353.151 21.3112C353.272 21.6206 353.604 21.7938 353.848 21.6701C354.489 21.3484 355.142 21.0266 355.783 20.7049C364.72 16.1141 373.645 11.511 382.582 6.9202C385.856 5.23733 389.185 3.66582 392.525 2.15618C393.907 1.53748 395.323 1.04252 396.772 0.646546C397.812 0.361942 398.862 0.225828 399.924 0.213453C404.127 0.163957 407.688 2.98525 409.226 7.16768C409.746 8.57833 409.934 10.0632 409.956 11.5729C409.989 13.231 410 14.9015 410 16.5596C410 20.7544 409.967 24.9492 409.967 29.1564C409.967 177.72 409.967 326.283 409.967 474.846C409.967 478.57 410 482.295 410 486.007C410 488.061 409.967 490.128 409.967 492.182C409.967 493.135 409.845 494.075 409.723 495.016C409.646 495.647 409.436 496.253 409.226 496.822C407.932 500.25 405.664 502.477 402.457 503.467C401.439 503.776 400.367 503.863 399.294 503.764C397.878 503.64 396.496 503.331 395.135 502.873C394.184 502.551 393.255 502.18 392.337 501.772C389.063 500.287 385.8 498.74 382.582 497.094C373.645 492.504 364.72 487.9 355.783 483.31C355.142 482.976 354.489 482.666 353.848 482.345C353.615 482.233 353.284 482.394 353.151 482.691C353.029 482.976 352.896 483.26 352.797 483.545C351.967 485.809 351.138 488.086 350.308 490.363C350.153 490.808 349.999 491.241 349.822 491.675C349.335 492.875 348.55 493.753 347.488 494.323C347.234 494.459 346.957 494.545 346.692 494.62C345.995 494.805 345.287 494.855 344.579 494.855C343.584 494.855 342.599 494.855 341.604 494.867C341.184 494.879 340.752 494.917 340.332 494.954C340.122 494.978 339.912 495.065 339.768 495.251C339.536 495.548 339.303 495.845 339.093 496.166C338.087 497.602 337.102 499.05 336.085 500.473C335.134 501.809 333.928 502.749 332.513 503.343C331.65 503.702 330.743 503.9 329.825 503.974C329.471 503.999 329.117 503.999 328.763 503.999C328.055 503.999 327.347 503.999 326.64 503.999C245.524 503.999 164.409 503.999 83.283 503.999C82.5088 503.999 81.7235 503.987 80.9493 503.999C80.164 504.012 79.4009 503.888 78.6377 503.702C76.846 503.269 75.3528 502.292 74.1362 500.757C73.8597 500.398 73.6053 500.015 73.3399 499.643C72.3777 498.27 71.4154 496.909 70.4642 495.523C70.1767 495.102 69.8117 494.941 69.3693 494.917C68.5177 494.892 67.666 494.879 66.8255 494.867C66.184 494.855 65.5535 494.867 64.9121 494.842C64.4918 494.83 64.0604 494.768 63.6512 494.694C62.147 494.422 61.0742 493.456 60.3332 492.009C60.0898 491.526 59.935 490.994 59.747 490.487C58.9175 488.222 58.0879 485.945 57.2584 483.681C57.1257 483.322 56.9709 482.963 56.816 482.604C56.7386 482.406 56.4289 482.258 56.2851 482.332C55.6989 482.617 55.1128 482.877 54.5376 483.174C46.3752 487.368 38.2128 491.563 30.0504 495.783C26.1352 497.812 22.1756 499.73 18.1829 501.574C16.546 502.329 14.8759 502.984 13.1395 503.405C11.6795 503.752 10.2085 503.937 8.7154 503.727C6.29323 503.38 4.28028 502.168 2.64338 500.176C1.61478 498.938 0.895873 497.478 0.475587 495.869C0.176963 494.731 0.044241 493.543 0.0331808 492.355C0.0221207 491.167 0 489.979 0 488.791C0 484.832 0.0110607 480.872 0.0221208 476.912C0.0221208 475.96 0.0221208 475.007 0.0221208 474.066C0.033181 399.958 0.0331808 325.911 0.0331808 251.877ZM398.409 251.976C398.409 177.856 398.409 103.735 398.409 29.6266C398.409 28.6738 398.409 27.721 398.398 26.7806C398.398 26.4712 398.354 26.1495 398.309 25.8402C398.265 25.5184 398.099 25.271 397.845 25.0977C397.27 24.7017 396.65 24.5904 396.02 24.8626C395.423 25.1225 394.848 25.4194 394.272 25.7288C389.483 28.2779 384.694 30.8393 379.916 33.4007C378.191 34.3164 376.477 35.2445 374.74 36.1601C372.473 37.348 370.084 38.0039 367.562 38.0534C366.357 38.0781 365.151 38.0657 363.968 37.8306C360.926 37.2243 358.139 35.9127 355.695 33.7719C355.308 33.4255 354.909 33.0914 354.555 32.6954C354.013 32.1014 353.449 31.7055 352.664 32.0643C351.403 32.2871 350.131 32.3737 348.859 32.386C347.731 32.3984 346.592 32.3365 345.475 32.1262C342.655 31.5941 340.011 30.5176 337.556 28.8842C332.999 25.8402 329.018 20.309 327.757 14.5055C327.69 14.1962 327.602 13.8992 327.513 13.6022C327.469 13.4537 327.381 13.33 327.314 13.1815C327.248 13.0206 327.137 12.9464 326.982 12.9093C326.142 12.736 325.29 12.8226 324.439 12.8226C244.817 12.8226 165.183 12.8226 85.5614 12.8226C84.9199 12.8226 84.2895 12.8226 83.648 12.835C83.4378 12.835 83.2277 12.8845 83.0175 12.9216C82.8737 12.9464 82.7853 13.0577 82.6968 13.1939C82.4866 13.528 82.3871 13.8992 82.3097 14.2828C81.7567 16.9432 80.717 19.3438 79.3456 21.5835C77.3437 24.8379 74.822 27.4488 71.7251 29.342C68.8273 31.1115 65.7416 32.1757 62.4235 32.3365C61.5719 32.3737 60.7313 32.3984 59.8797 32.3242C58.8179 32.2376 57.7561 32.1757 56.7165 31.9282C56.5063 31.8787 56.2741 31.9406 56.1082 32.0891C55.7211 32.4355 55.3561 32.8068 54.98 33.1656C51.5956 36.3334 47.7135 38.0039 43.3005 38.041C41.6636 38.0534 40.0488 37.9173 38.4672 37.4347C37.1621 37.0387 35.9123 36.4942 34.6957 35.8508C29.9067 33.2893 25.1176 30.7403 20.3286 28.1789C18.6695 27.2879 17.0105 26.397 15.3515 25.5184C14.9091 25.2833 14.4556 25.0482 13.9911 24.8502C13.3496 24.578 12.7413 24.6894 12.1662 25.0977C11.9118 25.271 11.7569 25.5308 11.7016 25.8525C11.6463 26.1619 11.6021 26.4836 11.6021 26.793C11.591 27.82 11.591 28.8471 11.591 29.8865C11.591 137.269 11.591 244.639 11.591 352.021C11.591 392.806 11.591 433.578 11.591 474.363C11.591 475.316 11.591 476.269 11.6021 477.209C11.6021 477.519 11.6574 477.84 11.7016 478.15C11.7569 478.471 11.9228 478.719 12.1772 478.892C12.7524 479.288 13.3717 479.4 14.0022 479.127C14.5994 478.867 15.1745 478.57 15.7497 478.261C19.3221 476.355 22.8945 474.438 26.467 472.52C29.3426 470.985 32.2072 469.451 35.0828 467.916C37.4829 466.642 40.0046 465.936 42.659 465.924C44.2185 465.924 45.7559 466.023 47.2932 466.444C50.0251 467.186 52.4694 468.535 54.6482 470.503C55.0353 470.849 55.4114 471.208 55.7653 471.604C56.1635 472.037 56.6059 472.099 57.1257 471.975C58.4419 471.666 59.7912 471.616 61.1405 471.591C62.2687 471.579 63.4079 471.641 64.5249 471.851C66.4162 472.21 68.2412 472.804 69.9997 473.67C76.3483 476.801 80.894 483.273 82.2433 489.472C82.2986 489.707 82.3429 489.93 82.4092 490.165C82.4535 490.313 82.5088 490.462 82.5751 490.598C82.7078 490.895 82.918 491.105 83.2166 491.118C84.0682 491.142 84.9199 491.155 85.7604 491.155C165.25 491.155 244.728 491.155 324.217 491.155C324.925 491.155 325.633 491.155 326.341 491.142C326.551 491.142 326.761 491.093 326.971 491.056C327.126 491.031 327.215 490.932 327.292 490.784C327.48 490.437 327.591 490.078 327.679 489.682C327.989 488.296 328.365 486.935 328.94 485.661C331.108 480.761 334.304 476.962 338.651 474.4C341.438 472.755 344.413 471.789 347.576 471.629C348.428 471.579 349.269 471.567 350.12 471.641C351.182 471.728 352.233 471.789 353.284 472.037C353.472 472.086 353.726 472.012 353.881 471.876C354.334 471.492 354.743 471.047 355.175 470.651C358.648 467.471 362.618 465.875 367.12 465.912C369.785 465.936 372.307 466.555 374.718 467.83C374.972 467.966 375.227 468.102 375.481 468.238C378.158 469.673 380.845 471.096 383.522 472.532C387.028 474.413 390.545 476.281 394.051 478.162C394.693 478.496 395.334 478.843 395.987 479.127C396.706 479.437 397.38 479.263 397.978 478.744C398.077 478.657 398.177 478.509 398.21 478.36C398.287 478.063 398.354 477.741 398.354 477.432C398.376 476.405 398.376 475.378 398.376 474.339C398.409 400.218 398.409 326.097 398.409 251.976ZM406.704 252.137C406.704 174.465 406.704 96.7931 406.704 19.1087C406.704 18.1559 406.704 17.2031 406.704 16.2626C406.704 15.7924 406.704 15.3098 406.66 14.8396C406.605 14.1095 406.372 13.4537 405.963 12.8845C404.923 11.4615 403.563 10.7067 401.959 10.4592C401.395 10.3726 400.82 10.3849 400.278 10.5582C399.67 10.7438 399.05 10.9294 398.453 11.1769C397.06 11.7461 395.677 12.3524 394.306 12.9959C386.287 16.77 378.268 20.5564 370.261 24.3305C367.33 25.7164 364.399 27.0899 361.468 28.4882C361.214 28.612 360.981 28.7976 360.738 28.9584C360.572 29.0822 360.572 29.2059 360.727 29.3297C360.838 29.4163 360.937 29.5524 361.07 29.6019C362.663 30.3072 364.333 30.6537 366.036 30.7032C367.894 30.7527 369.697 30.3938 371.422 29.6019C372.606 29.0574 373.756 28.4511 374.906 27.8571C380.237 25.1225 385.579 22.3754 390.91 19.6408C392.127 19.0097 393.366 18.4157 394.582 17.7846C395.301 17.4134 396.064 17.2278 396.849 17.2526C398.332 17.3144 399.592 17.9455 400.566 19.2324C401.229 20.0986 401.65 21.0885 401.661 22.2517C401.672 23.3653 401.683 24.4666 401.683 25.5803C401.683 176.495 401.683 327.409 401.683 478.323C401.683 479.115 401.683 479.907 401.683 480.699C401.683 481.169 401.672 481.652 401.639 482.122C401.616 482.431 401.561 482.753 401.462 483.05C400.588 485.562 398.708 486.7 396.706 486.725C395.998 486.737 395.301 486.564 394.648 486.23C394.328 486.057 394.007 485.908 393.686 485.735C386.94 482.27 380.182 478.806 373.435 475.353C372.727 474.994 372.008 474.648 371.289 474.326C369.697 473.608 368.027 473.274 366.312 473.274C364.532 473.274 362.795 473.646 361.125 474.351C360.992 474.4 360.882 474.512 360.771 474.611C360.716 474.66 360.627 474.747 360.638 474.784C360.694 474.92 360.749 475.081 360.86 475.143C361.236 475.366 361.612 475.576 362.01 475.749C372.893 480.884 383.765 486.032 394.66 491.155C395.898 491.736 397.17 492.231 398.42 492.788C399.017 493.06 399.637 493.221 400.245 493.419C400.798 493.593 401.362 493.617 401.926 493.531C403.53 493.296 404.901 492.553 405.952 491.155C406.372 490.598 406.616 489.942 406.693 489.212C406.726 488.903 406.726 488.581 406.737 488.259C406.748 487.232 406.748 486.205 406.748 485.166C406.704 407.481 406.704 329.809 406.704 252.137ZM3.30699 251.89C3.30699 329.488 3.30699 407.085 3.30699 484.683C3.30699 485.71 3.30699 486.737 3.30699 487.777C3.30699 488.247 3.32911 488.73 3.35123 489.2C3.37335 489.596 3.49501 489.967 3.63879 490.338C3.78257 490.709 3.98166 491.031 4.22498 491.316C5.01025 492.269 5.96142 492.912 7.0785 493.271C8.06285 493.58 9.02509 493.654 10.0094 493.333C10.5514 493.159 11.1044 492.999 11.6242 492.764C12.9404 492.17 14.2787 491.65 15.5727 491.043C24.2439 486.972 32.915 482.877 41.5751 478.793C43.9199 477.692 46.2646 476.578 48.6094 475.465C48.8638 475.341 49.1292 475.217 49.3172 474.957C49.3615 474.908 49.4057 474.784 49.3947 474.772C49.2398 474.623 49.085 474.425 48.8969 474.339C47.437 473.695 45.8996 473.373 44.3512 473.274C42.4157 473.151 40.5465 473.522 38.7437 474.301C37.5603 474.821 36.41 475.44 35.2598 476.034C31.7869 477.816 28.314 479.585 24.8411 481.367C21.8217 482.914 18.7912 484.448 15.7718 486.007C15.1856 486.304 14.5883 486.515 13.9579 486.626C13.0178 486.812 12.0998 486.651 11.2703 486.218C9.46749 485.265 8.3836 483.718 8.36148 481.404C8.35042 480.377 8.35042 479.35 8.35042 478.311C8.35042 327.396 8.35042 176.47 8.35042 25.5556C8.35042 24.7636 8.35042 23.9717 8.35042 23.1797C8.35042 22.7095 8.37254 22.2269 8.40572 21.7567C8.42784 21.3607 8.53844 20.9895 8.67116 20.6183C8.98085 19.8016 9.45643 19.121 10.0537 18.5518C10.5403 18.0816 11.0933 17.7104 11.7127 17.5248C12.6086 17.2402 13.5155 17.1288 14.4335 17.4134C14.7764 17.5124 15.1082 17.6238 15.44 17.7846C16.8557 18.5023 18.2824 19.2077 19.6981 19.9254C25.3499 22.8333 31.0016 25.7412 36.6644 28.6491C37.2395 28.9461 37.8368 29.1935 38.423 29.4781C39.3963 29.9607 40.4249 30.233 41.4645 30.4557C43.5328 30.9012 45.5457 30.6289 47.5587 30.0968C47.9679 29.9855 48.3771 29.837 48.7753 29.6637C48.9633 29.5771 49.1292 29.4163 49.3172 29.2925C49.4831 29.1812 49.4721 29.0698 49.3172 28.9213C49.0407 28.6614 48.72 28.513 48.3882 28.3645C37.2948 23.1674 26.2126 17.9455 15.1303 12.7236C13.9579 12.1668 12.7524 11.709 11.5689 11.1769C10.9717 10.9047 10.3523 10.7438 9.744 10.5582C9.12463 10.3726 8.48314 10.3726 7.85271 10.4839C6.49231 10.7438 5.29782 11.3872 4.32452 12.5133C3.71621 13.231 3.34017 14.06 3.32911 15.0623C3.31805 16.2503 3.30699 17.4382 3.30699 18.6261C3.30699 96.3848 3.30699 174.143 3.30699 251.89ZM204.801 9.12279C246.619 9.12279 288.449 9.12279 330.267 9.12279C330.975 9.12279 331.683 9.12279 332.391 9.12279C332.678 9.12279 332.955 9.12279 333.242 9.11041C333.386 9.11041 333.519 9.07329 333.663 9.06092C333.939 9.03617 334.127 8.6402 334.028 8.35559C333.707 7.46466 333.242 6.67272 332.689 5.95502C332.181 5.28682 331.583 4.72999 330.909 4.28452C330.411 3.9628 329.891 3.74006 329.305 3.74006C328.31 3.74006 327.325 3.72769 326.33 3.72769C245.513 3.72769 164.697 3.72769 83.8802 3.72769C83.2387 3.72769 82.6083 3.72769 81.9668 3.72769C81.5465 3.72769 81.1152 3.75244 80.6949 3.74006C80.1087 3.72769 79.5778 3.9628 79.0912 4.28452C77.6534 5.26207 76.6248 6.62322 75.9722 8.35559C75.8727 8.62782 76.0939 9.03617 76.3483 9.06092C76.492 9.07329 76.6248 9.11041 76.7685 9.11041C77.5428 9.12279 78.328 9.12279 79.1022 9.12279C121.009 9.12279 162.905 9.12279 204.801 9.12279ZM205.111 494.842C163.292 494.842 121.463 494.842 79.6442 494.842C78.87 494.842 78.0847 494.842 77.3105 494.842C77.0229 494.842 76.7464 494.867 76.4589 494.892C76.0828 494.917 75.8506 495.362 76.0054 495.733C76.2708 496.377 76.5916 496.995 76.9787 497.565C77.5759 498.468 78.317 499.186 79.1907 499.742C79.6221 500.027 80.0866 500.225 80.5954 500.225C81.447 500.237 82.2986 500.25 83.1392 500.25C164.376 500.25 245.624 500.25 326.861 500.25C327.425 500.25 327.989 500.25 328.564 500.25C328.852 500.25 329.128 500.225 329.416 500.225C329.924 500.213 330.389 500.015 330.82 499.742C331.064 499.582 331.307 499.408 331.528 499.223C332.634 498.307 333.431 497.107 333.995 495.721C334.028 495.647 334.028 495.572 334.05 495.498C334.094 495.35 333.895 494.991 333.751 494.954C332.911 494.743 332.059 494.842 331.218 494.842C289.179 494.842 247.15 494.842 205.111 494.842ZM333.408 12.8226C332.634 12.835 331.86 12.7236 331.086 12.8845C330.942 12.9093 330.743 13.2186 330.765 13.4042C330.776 13.4785 330.765 13.5651 330.787 13.6393C331.064 14.7035 331.395 15.7429 331.948 16.671C334.747 21.3979 339.315 23.8232 342.743 24.2192C343.097 24.2563 343.44 24.3305 343.794 24.38C344.424 24.4666 345.066 24.5038 345.696 24.4295C346.603 24.3182 347.521 24.1944 348.417 24.0212C348.826 23.9469 349.213 23.7366 349.612 23.5757C349.744 23.5262 349.899 23.1426 349.866 22.9694C349.855 22.8951 349.855 22.8085 349.833 22.7343C349.224 20.5441 348.55 18.391 347.742 16.2874C347.654 16.0646 347.565 15.8543 347.455 15.6563C346.99 14.7406 346.349 14.0229 345.564 13.4537C345.442 13.3671 345.32 13.2929 345.187 13.2434C344.657 13.0454 344.115 12.8474 343.54 12.835C343.296 12.835 343.064 12.9464 343.031 13.132C342.998 13.2928 343.009 13.4537 343.108 13.5898C343.584 14.2828 344.059 14.9634 344.535 15.6439C345.022 16.3492 345.287 17.1536 345.398 18.0321C345.431 18.2672 345.431 18.5147 345.387 18.7374C345.32 19.121 345.254 19.5294 345.11 19.8759C344.546 21.2741 343.606 22.1403 342.212 22.2888C341.869 22.3259 341.504 22.2888 341.162 22.2517C340.951 22.2269 340.741 22.1774 340.542 22.0908C339.735 21.7072 339.082 21.138 338.695 20.2347C338.452 19.6655 338.22 19.0963 337.998 18.5147C337.412 16.9927 336.837 15.4583 336.262 13.9363C336.185 13.7259 336.085 13.5032 335.974 13.3052C335.82 13.033 335.587 12.835 335.289 12.835C334.68 12.8226 334.05 12.8226 333.408 12.8226ZM345.132 479.486C344.701 479.511 344.347 479.511 343.993 479.56C343.219 479.659 342.445 479.758 341.681 479.907C341.195 480.006 340.719 480.179 340.255 480.352C337.224 481.454 334.691 483.384 332.678 486.156C331.772 487.405 331.152 488.804 330.787 490.351C330.765 490.425 330.776 490.511 330.765 490.586C330.743 490.759 330.953 491.081 331.097 491.093C332.501 491.241 333.917 491.167 335.322 491.142C335.388 491.142 335.466 491.13 335.532 491.093C335.654 491.019 335.786 490.944 335.875 490.833C336.008 490.647 336.129 490.45 336.207 490.239C336.903 488.433 337.6 486.614 338.297 484.795C338.441 484.436 338.562 484.065 338.739 483.718C339.359 482.444 340.321 481.738 341.626 481.652C341.836 481.639 342.046 481.652 342.257 481.664C342.843 481.689 343.363 481.924 343.827 482.283C344.546 482.839 345.044 483.582 345.276 484.535C345.453 485.24 345.475 485.921 345.287 486.626C345.143 487.158 344.955 487.665 344.657 488.111C344.402 488.494 344.137 488.853 343.871 489.237C343.617 489.608 343.352 489.992 343.108 490.363C343.02 490.499 343.009 490.66 343.042 490.821C343.075 490.994 343.329 491.105 343.562 491.093C344.911 491.019 345.995 490.375 346.858 489.237C347.223 488.754 347.521 488.222 347.742 487.628C348.55 485.525 349.224 483.372 349.833 481.181C349.855 481.107 349.844 481.021 349.866 480.946C349.899 480.773 349.733 480.402 349.6 480.34C348.152 479.672 346.592 479.647 345.132 479.486ZM64.7683 24.4666C65.631 24.4666 68.0753 24.1573 68.6061 23.9964C71.7583 23.0684 74.4901 21.336 76.6911 18.6137C77.7418 17.3144 78.6156 15.879 79.058 14.1714C79.1133 13.9487 79.1686 13.7136 79.2128 13.4908C79.2239 13.4166 79.2128 13.3423 79.2018 13.2557C79.1797 13.0701 79.1022 12.9587 78.9695 12.9093C78.4829 12.736 77.9852 12.7979 77.4985 12.7979C76.5142 12.7979 75.5187 12.8226 74.5344 12.8598C74.3021 12.8598 74.1473 13.0577 74.0256 13.2434C73.904 13.429 73.8044 13.6517 73.727 13.8621C73.0523 15.6068 72.3887 17.3515 71.7251 19.0963C71.5592 19.5294 71.4044 19.9748 71.1942 20.3832C70.5749 21.5464 69.6569 22.2269 68.4402 22.3012C68.0863 22.3259 67.7324 22.2888 67.3785 22.2393C67.1683 22.2146 66.9582 22.1403 66.7702 22.0413C65.4319 21.3484 64.724 20.1481 64.5581 18.5395C64.5471 18.3786 64.5471 18.2177 64.5692 18.0692C64.6798 17.2773 64.8789 16.5225 65.3102 15.8667C65.5646 15.4831 65.83 15.1118 66.0844 14.7406C66.3388 14.3694 66.5932 13.9858 66.8476 13.6022C66.9471 13.4661 66.9582 13.3176 66.9029 13.1567C66.8255 12.9464 66.6374 12.8598 66.3941 12.8721C65.819 12.8721 65.277 13.0825 64.7461 13.2928C64.6134 13.3423 64.4918 13.429 64.3701 13.5156C63.5185 14.1219 62.8549 14.9386 62.3903 15.9409C62.2908 16.1513 62.2134 16.374 62.1249 16.5967C61.3839 18.5642 60.7645 20.5812 60.1672 22.6105C60.1451 22.6848 60.1341 22.759 60.123 22.8456C60.1119 22.9199 60.123 23.0065 60.1119 23.0807C60.0898 23.254 60.2778 23.5881 60.4216 23.65C61.9258 24.281 63.4853 24.3429 64.7683 24.4666ZM76.7022 491.167C76.7022 491.18 76.7022 491.18 76.7022 491.192C77.41 491.167 78.1179 491.142 78.8257 491.118C79.1133 491.105 79.3124 490.759 79.2239 490.437C79.1465 490.14 79.058 489.831 78.9806 489.534C78.6377 488.222 77.9962 487.096 77.2331 486.032C74.4238 482.122 70.2541 480.031 67.113 479.709C65.266 479.288 63.4521 479.56 61.6272 479.919C61.218 480.006 60.8198 480.204 60.4106 480.34C60.2779 480.389 60.1009 480.761 60.123 480.934C60.1562 481.169 60.1783 481.404 60.2447 481.627C60.6318 482.901 61.0299 484.176 61.4392 485.438C61.6825 486.181 61.959 486.911 62.2355 487.641C62.6226 488.692 63.242 489.534 64.0494 490.214C64.3922 490.499 64.7572 490.722 65.1775 490.846C65.6531 490.994 66.1287 491.155 66.6374 491.056C66.8033 491.031 66.8918 490.92 66.9029 490.759C66.9139 490.685 66.9361 490.586 66.9029 490.536C66.7149 490.202 66.5158 489.868 66.3167 489.559C65.9406 488.989 65.4982 488.457 65.1775 487.851C64.6024 486.799 64.3922 485.698 64.724 484.448C65.078 483.149 66.3609 481.602 68.0531 481.652C68.2633 481.652 68.4734 481.664 68.6836 481.689C69.0375 481.726 69.3693 481.837 69.69 482.023C70.409 482.431 70.962 483.013 71.3048 483.829C71.4597 484.188 71.6034 484.547 71.7362 484.906C72.2892 486.366 72.8422 487.814 73.3952 489.274C74.1915 491.353 74.0477 491.142 75.8395 491.167C76.1381 491.167 76.4257 491.167 76.7022 491.167Z" fill="white"/>
</svg>
