<svg width="412" height="598" viewBox="0 0 412 598" fill="none" xmlns="http://www.w3.org/2000/svg">
<path opacity="0.4" d="M0.0333427 298.855C0.0333427 211.468 0.0333427 124.081 0.0333427 36.7085C0.0333427 31.7313 0.0111141 26.7542 0 21.7623C0 19.2223 0.0222287 16.6824 0.0222287 14.1571C0.0222287 13.2174 0.0889132 12.2778 0.200054 11.3528C0.75576 6.69863 3.13418 2.79324 6.4573 1.09013C7.8799 0.370719 9.34696 0.135808 10.8585 0.267946C12.2811 0.400083 13.6704 0.796496 15.0374 1.35441C15.9154 1.72146 16.7934 2.11787 17.6492 2.57301C21.0168 4.34952 24.351 6.22881 27.6408 8.22556C36.6877 13.7019 45.7234 19.2076 54.7703 24.6987C55.3483 25.0511 55.9373 25.3741 56.5263 25.6971C56.6708 25.7852 56.9931 25.609 57.0709 25.3887C57.2265 24.963 57.3821 24.5519 57.5155 24.1114C58.3491 21.4246 59.1826 18.7231 60.0162 16.0217C60.1829 15.4931 60.3274 14.9646 60.5052 14.4654C61.0164 13.0559 61.8278 12.0282 62.9058 11.3969C63.1615 11.25 63.4393 11.1473 63.7172 11.0739C64.4174 10.8683 65.1287 10.8243 65.84 10.8243C66.8402 10.8243 67.8294 10.8243 68.8297 10.8096C69.252 10.7949 69.6855 10.7508 70.1078 10.6774C70.3078 10.6334 70.5079 10.5159 70.6524 10.2663C71.4415 8.93029 72.2306 7.60891 73.0308 6.28754C73.4754 5.55344 73.8977 4.80466 74.3534 4.07057C75.3203 2.4996 76.5429 1.39845 77.9766 0.723086C78.8546 0.311991 79.7548 0.0770801 80.6884 0.0183523C81.0441 -0.0110116 81.3997 0.0036706 81.7554 0.0036706C82.4 0.0036706 83.0335 0.0036706 83.6781 0.0036706C165.333 0.0036706 246.989 0.0036706 328.644 0.0036706C329.5 0.0036706 330.356 -0.0110116 331.2 0.0183523C332.345 0.0623981 333.457 0.385402 334.512 0.987361C335.713 1.66273 336.746 2.64642 337.58 3.96779C338.125 4.83403 338.636 5.72963 339.169 6.62522C339.869 7.81446 340.57 8.98902 341.27 10.1783C341.503 10.5747 341.826 10.7362 342.192 10.7802C342.47 10.8096 342.759 10.8389 343.048 10.8389C344.048 10.8536 345.037 10.8243 346.038 10.8536C346.671 10.8683 347.316 10.8977 347.949 11.0298C349.628 11.3528 350.795 12.6301 351.528 14.6122C351.717 15.1114 351.862 15.6546 352.017 16.1685C352.851 18.87 353.684 21.5568 354.518 24.2582C354.629 24.6106 354.751 24.9336 354.873 25.286C354.996 25.653 355.329 25.8586 355.574 25.7117C356.218 25.33 356.874 24.9483 357.519 24.5665C366.499 19.1196 375.468 13.6579 384.448 8.21087C387.738 6.21413 391.083 4.34952 394.44 2.55833C395.829 1.82423 397.252 1.23695 398.707 0.767132C399.752 0.429447 400.808 0.267946 401.875 0.253264C406.098 0.194536 409.677 3.54202 411.222 8.50451C411.744 10.1783 411.933 11.9401 411.956 13.7313C411.989 15.6987 412 17.6807 412 19.6481C412 24.6253 411.967 29.6025 411.967 34.5943C411.967 210.866 411.967 387.137 411.967 563.408C411.967 567.828 412 572.247 412 576.651C412 579.089 411.967 581.541 411.967 583.978C411.967 585.108 411.844 586.224 411.722 587.34C411.644 588.089 411.433 588.808 411.222 589.483C409.922 593.55 407.643 596.193 404.42 597.368C403.398 597.735 402.32 597.838 401.241 597.72C399.819 597.573 398.43 597.206 397.063 596.663C396.107 596.281 395.173 595.841 394.251 595.356C390.961 593.594 387.682 591.759 384.448 589.806C375.468 584.359 366.499 578.898 357.519 573.451C356.874 573.054 356.218 572.687 355.574 572.306C355.34 572.173 355.007 572.364 354.873 572.717C354.751 573.054 354.618 573.392 354.518 573.73C353.684 576.417 352.851 579.118 352.017 581.819C351.862 582.348 351.706 582.862 351.528 583.376C351.039 584.8 350.25 585.842 349.183 586.518C348.927 586.679 348.65 586.782 348.383 586.87C347.683 587.09 346.971 587.149 346.26 587.149C345.26 587.149 344.271 587.149 343.27 587.164C342.848 587.178 342.415 587.222 341.992 587.266C341.781 587.296 341.57 587.399 341.425 587.619C341.192 587.971 340.959 588.324 340.747 588.705C339.736 590.408 338.747 592.126 337.724 593.815C336.769 595.4 335.557 596.516 334.135 597.221C333.268 597.647 332.356 597.881 331.434 597.97C331.078 597.999 330.723 597.999 330.367 597.999C329.656 597.999 328.944 597.999 328.233 597.999C246.722 597.999 165.211 597.999 83.6892 597.999C82.9112 597.999 82.1221 597.984 81.3442 597.999C80.555 598.014 79.7882 597.867 79.0213 597.647C77.2208 597.133 75.7204 595.973 74.4979 594.152C74.22 593.727 73.9644 593.271 73.6976 592.831C72.7307 591.201 71.7638 589.586 70.808 587.942C70.519 587.443 70.1522 587.252 69.7077 587.222C68.8519 587.193 67.9961 587.178 67.1514 587.164C66.5068 587.149 65.8733 587.164 65.2287 587.134C64.8064 587.12 64.3729 587.046 63.9617 586.958C62.4502 586.635 61.3721 585.49 60.6275 583.772C60.3829 583.2 60.2274 582.568 60.0384 581.966C59.2049 579.279 58.3713 576.578 57.5377 573.891C57.4044 573.465 57.2488 573.04 57.0932 572.614C57.0154 572.379 56.7042 572.203 56.5597 572.291C55.9706 572.629 55.3816 572.937 54.8037 573.289C46.6015 578.266 38.3992 583.244 30.197 588.25C26.2626 590.658 22.2838 592.934 18.2716 595.121C16.6267 596.017 14.9485 596.795 13.2036 597.294C11.7365 597.705 10.2583 597.926 8.75792 597.676C6.32393 597.265 4.30116 595.826 2.65627 593.462C1.62266 591.994 0.900243 590.262 0.477907 588.353C0.177826 587.002 0.0444568 585.593 0.0333427 584.183C0.0222286 582.774 0 581.364 0 579.955C0 575.257 0.0111146 570.558 0.0222287 565.86C0.0222287 564.73 0.0222287 563.599 0.0222287 562.483C0.0333428 474.553 0.0333427 386.697 0.0333427 298.855ZM400.352 298.972C400.352 211.027 400.352 123.082 400.352 35.1522C400.352 34.0217 400.352 32.8912 400.341 31.7754C400.341 31.4083 400.297 31.0266 400.252 30.6596C400.208 30.2778 400.041 29.9842 399.786 29.7786C399.208 29.3088 398.585 29.1767 397.952 29.4997C397.352 29.808 396.774 30.1604 396.196 30.5274C391.383 33.5519 386.571 36.5911 381.77 39.6302C380.036 40.7167 378.313 41.8178 376.568 42.9043C374.29 44.3138 371.889 45.0919 369.355 45.1506C368.144 45.18 366.932 45.1653 365.743 44.8863C362.687 44.1669 359.886 42.6106 357.43 40.0707C357.041 39.6596 356.641 39.2632 356.285 38.7933C355.74 38.0886 355.174 37.6188 354.384 38.0446C353.117 38.3088 351.839 38.4116 350.561 38.4263C349.428 38.441 348.283 38.3676 347.16 38.118C344.326 37.4867 341.67 36.2093 339.203 34.2713C334.624 30.6596 330.622 24.0967 329.355 17.2109C329.289 16.8439 329.2 16.4915 329.111 16.1391C329.066 15.9629 328.978 15.8161 328.911 15.6399C328.844 15.4491 328.733 15.361 328.577 15.3169C327.733 15.1114 326.877 15.2142 326.021 15.2142C246.011 15.2142 165.989 15.2142 85.9787 15.2142C85.3341 15.2142 84.7006 15.2142 84.056 15.2288C83.8448 15.2288 83.6337 15.2876 83.4225 15.3316C83.278 15.361 83.1891 15.4931 83.1002 15.6546C82.889 16.051 82.789 16.4915 82.7112 16.9466C82.1555 20.1032 81.1108 22.9515 79.7326 25.609C77.7209 29.4703 75.1869 32.5682 72.075 34.8145C69.1631 36.9141 66.0623 38.1767 62.728 38.3676C61.8722 38.4116 61.0276 38.441 60.1718 38.3529C59.1048 38.2501 58.0379 38.1767 56.9931 37.8831C56.782 37.8243 56.5486 37.8977 56.3819 38.0739C55.9929 38.485 55.6261 38.9255 55.2482 39.3513C51.8473 43.1098 47.9463 45.0919 43.5117 45.1359C41.8668 45.1506 40.2442 44.9891 38.6549 44.4165C37.3434 43.9467 36.0875 43.3007 34.865 42.5372C30.0525 39.4981 25.2401 36.4736 20.4277 33.4344C18.7606 32.3773 17.0935 31.3202 15.4264 30.2778C14.9818 29.9989 14.5261 29.7199 14.0593 29.485C13.4147 29.162 12.8035 29.2941 12.2255 29.7786C11.9699 29.9842 11.8143 30.2925 11.7587 30.6742C11.7032 31.0413 11.6587 31.423 11.6587 31.7901C11.6476 33.0087 11.6476 34.2273 11.6476 35.4605C11.6476 162.87 11.6476 290.266 11.6476 417.675C11.6476 466.067 11.6476 514.444 11.6476 562.836C11.6476 563.966 11.6476 565.097 11.6587 566.213C11.6587 566.58 11.7143 566.961 11.7587 567.328C11.8143 567.71 11.981 568.004 12.2366 568.209C12.8146 568.679 13.437 568.811 14.0705 568.488C14.6706 568.18 15.2486 567.828 15.8265 567.461C19.4163 565.2 23.0062 562.924 26.5961 560.648C29.4857 558.828 32.3643 557.007 35.254 555.186C37.6657 553.674 40.1997 552.837 42.8671 552.823C44.4342 552.823 45.9791 552.94 47.5239 553.439C50.2691 554.32 52.7253 555.921 54.9148 558.255C55.3038 558.666 55.6817 559.092 56.0373 559.562C56.4374 560.076 56.882 560.149 57.4044 560.002C58.7269 559.635 60.0829 559.576 61.4388 559.547C62.5724 559.532 63.7172 559.606 64.8397 559.855C66.7402 560.281 68.574 560.986 70.3412 562.014C76.7207 565.728 81.2886 573.407 82.6445 580.762C82.7001 581.041 82.7445 581.306 82.8112 581.585C82.8557 581.761 82.9112 581.937 82.9779 582.098C83.1113 582.451 83.3225 582.7 83.6225 582.715C84.4783 582.744 85.3341 582.759 86.1788 582.759C166.056 582.759 245.922 582.759 325.799 582.759C326.51 582.759 327.222 582.759 327.933 582.744C328.144 582.744 328.355 582.686 328.566 582.642C328.722 582.612 328.811 582.495 328.889 582.319C329.078 581.908 329.189 581.482 329.278 581.012C329.589 579.368 329.967 577.753 330.545 576.24C332.723 570.426 335.935 565.919 340.303 562.88C343.104 560.927 346.093 559.782 349.272 559.591C350.128 559.532 350.972 559.518 351.828 559.606C352.895 559.708 353.951 559.782 355.007 560.076C355.196 560.134 355.451 560.046 355.607 559.885C356.063 559.43 356.474 558.901 356.907 558.431C360.397 554.658 364.387 552.764 368.911 552.808C371.589 552.837 374.123 553.571 376.546 555.084C376.802 555.245 377.057 555.407 377.313 555.568C380.002 557.271 382.703 558.96 385.393 560.663C388.916 562.894 392.45 565.111 395.973 567.343C396.618 567.74 397.263 568.151 397.918 568.488C398.641 568.855 399.319 568.65 399.919 568.033C400.019 567.93 400.119 567.754 400.152 567.578C400.23 567.226 400.297 566.844 400.297 566.477C400.319 565.258 400.319 564.04 400.319 562.806C400.352 474.862 400.352 386.917 400.352 298.972ZM408.688 299.163C408.688 207.004 408.688 114.846 408.688 22.6726C408.688 21.5421 408.688 20.4116 408.688 19.2957C408.688 18.7378 408.688 18.1652 408.644 17.6073C408.588 16.7411 408.355 15.9629 407.943 15.2876C406.899 13.5991 405.532 12.7035 403.92 12.4099C403.353 12.3071 402.775 12.3218 402.231 12.5274C401.619 12.7476 400.997 12.9678 400.397 13.2615C398.996 13.9368 397.607 14.6562 396.229 15.4197C388.171 19.8977 380.114 24.3904 372.067 28.8684C369.122 30.5127 366.177 32.1424 363.231 33.8015C362.976 33.9483 362.742 34.1685 362.498 34.3594C362.331 34.5062 362.331 34.653 362.487 34.7999C362.598 34.9026 362.698 35.0641 362.831 35.1229C364.432 35.9597 366.11 36.3708 367.821 36.4296C369.689 36.4883 371.5 36.0625 373.234 35.1229C374.423 34.4769 375.579 33.7574 376.735 33.0527C382.092 29.808 387.46 26.5486 392.817 23.3039C394.04 22.5551 395.284 21.8504 396.507 21.1016C397.229 20.6612 397.996 20.4409 398.785 20.4703C400.275 20.5437 401.542 21.2925 402.52 22.8194C403.186 23.8471 403.609 25.0217 403.62 26.4018C403.631 27.7232 403.642 29.0299 403.642 30.3512C403.642 209.412 403.642 388.473 403.642 567.534C403.642 568.474 403.642 569.413 403.642 570.353C403.642 570.911 403.631 571.483 403.598 572.041C403.575 572.408 403.52 572.79 403.42 573.142C402.542 576.123 400.652 577.474 398.641 577.503C397.93 577.518 397.229 577.312 396.574 576.916C396.251 576.71 395.929 576.534 395.607 576.328C388.827 572.217 382.036 568.107 375.257 564.01C374.545 563.585 373.823 563.173 373.101 562.792C371.5 561.94 369.822 561.544 368.099 561.544C366.31 561.544 364.565 561.984 362.887 562.821C362.753 562.88 362.642 563.012 362.531 563.129C362.476 563.188 362.387 563.291 362.398 563.335C362.453 563.496 362.509 563.687 362.62 563.761C362.998 564.025 363.376 564.275 363.776 564.48C374.712 570.573 385.637 576.681 396.585 582.759C397.829 583.449 399.108 584.036 400.363 584.697C400.964 585.02 401.586 585.211 402.197 585.446C402.753 585.651 403.32 585.681 403.887 585.578C405.498 585.299 406.876 584.418 407.932 582.759C408.355 582.098 408.599 581.32 408.677 580.454C408.71 580.087 408.71 579.705 408.721 579.323C408.732 578.105 408.732 576.886 408.732 575.653C408.688 483.48 408.688 391.321 408.688 299.163ZM3.32312 298.869C3.32312 390.94 3.32312 483.01 3.32312 575.081C3.32312 576.299 3.32312 577.518 3.32312 578.751C3.32312 579.309 3.34535 579.881 3.36757 580.439C3.3898 580.909 3.51206 581.35 3.65654 581.79C3.80103 582.231 4.00108 582.612 4.24559 582.95C5.03469 584.081 5.9905 584.844 7.11303 585.27C8.10218 585.637 9.06911 585.725 10.0583 585.343C10.6029 585.138 11.1586 584.947 11.6809 584.668C13.0035 583.963 14.3483 583.346 15.6487 582.627C24.3621 577.797 33.0756 572.937 41.7779 568.092C44.1341 566.785 46.4903 565.464 48.8465 564.142C49.1021 563.996 49.3689 563.849 49.5578 563.54C49.6023 563.482 49.6467 563.335 49.6356 563.32C49.48 563.144 49.3244 562.909 49.1355 562.806C47.6684 562.043 46.1235 561.661 44.5676 561.544C42.6226 561.397 40.7443 561.837 38.9327 562.762C37.7435 563.379 36.5876 564.113 35.4318 564.818C31.9419 566.932 28.4521 569.031 24.9623 571.146C21.9281 572.981 18.8829 574.802 15.8487 576.651C15.2597 577.004 14.6595 577.253 14.026 577.385C13.0813 577.606 12.1588 577.415 11.3253 576.901C9.51368 575.771 8.42449 573.935 8.40227 571.19C8.39115 569.971 8.39115 568.753 8.39115 567.519C8.39115 388.458 8.39115 209.383 8.39115 30.3219C8.39115 29.3822 8.39115 28.4426 8.39115 27.5029C8.39115 26.945 8.41338 26.3724 8.44672 25.8145C8.46895 25.3447 8.58009 24.9042 8.71346 24.4638C9.02466 23.4948 9.50256 22.6873 10.1027 22.0119C10.5917 21.454 11.1475 21.0135 11.7698 20.7933C12.6701 20.4556 13.5814 20.3235 14.5039 20.6612C14.8484 20.7786 15.1819 20.9107 15.5153 21.1016C16.9379 21.9532 18.3716 22.79 19.7942 23.6416C25.4735 27.0918 31.1528 30.5421 36.8433 33.9924C37.4212 34.3447 38.0214 34.6384 38.6104 34.976C39.5885 35.5486 40.6221 35.8716 41.6668 36.1359C43.7451 36.6645 45.7679 36.3415 47.7907 35.7101C48.2019 35.578 48.6131 35.4018 49.0132 35.1963C49.2022 35.0935 49.3689 34.9026 49.5578 34.7558C49.7245 34.6237 49.7134 34.4915 49.5578 34.3154C49.2799 34.007 48.9576 33.8309 48.6242 33.6547C37.4768 27.4883 26.3404 21.2925 15.2041 15.0967C14.026 14.436 12.8146 13.8928 11.6254 13.2615C11.0252 12.9385 10.4028 12.7476 9.79153 12.5274C9.16914 12.3071 8.52452 12.3071 7.89102 12.4393C6.52398 12.7476 5.32366 13.5111 4.34562 14.8471C3.73434 15.6987 3.35646 16.6824 3.34535 17.8716C3.33423 19.2811 3.32312 20.6905 3.32312 22.1C3.32312 114.361 3.32312 206.623 3.32312 298.869ZM205.8 10.8243C247.822 10.8243 289.856 10.8243 331.878 10.8243C332.59 10.8243 333.301 10.8243 334.012 10.8243C334.301 10.8243 334.579 10.8243 334.868 10.8096C335.013 10.8096 335.146 10.7655 335.29 10.7508C335.568 10.7215 335.757 10.2517 335.657 9.91398C335.335 8.85688 334.868 7.91723 334.312 7.06568C333.801 6.27286 333.201 5.61217 332.523 5.08362C332.023 4.70189 331.501 4.43762 330.911 4.43762C329.911 4.43762 328.922 4.42293 327.922 4.42293C246.711 4.42293 165.5 4.42293 84.2894 4.42293C83.6448 4.42293 83.0113 4.42293 82.3666 4.42293C81.9443 4.42293 81.5109 4.4523 81.0885 4.43762C80.4995 4.42293 79.966 4.70189 79.477 5.08362C78.0321 6.24349 76.9985 7.85851 76.3428 9.91398C76.2428 10.237 76.4651 10.7215 76.7207 10.7508C76.8652 10.7655 76.9985 10.8096 77.143 10.8096C77.921 10.8243 78.7101 10.8243 79.4881 10.8243C121.599 10.8243 163.7 10.8243 205.8 10.8243ZM206.111 587.134C164.089 587.134 122.055 587.134 80.0327 587.134C79.2547 587.134 78.4656 587.134 77.6876 587.134C77.3986 587.134 77.1208 587.164 76.8318 587.193C76.4539 587.222 76.2206 587.751 76.3762 588.191C76.6429 588.955 76.9652 589.689 77.3542 590.364C77.9544 591.436 78.699 592.288 79.577 592.948C80.0105 593.286 80.4773 593.521 80.9885 593.521C81.8443 593.536 82.7001 593.55 83.5447 593.55C165.178 593.55 246.822 593.55 328.455 593.55C329.022 593.55 329.589 593.55 330.167 593.55C330.456 593.55 330.734 593.521 331.023 593.521C331.534 593.506 332.001 593.271 332.434 592.948C332.679 592.758 332.923 592.552 333.145 592.332C334.257 591.245 335.057 589.821 335.624 588.177C335.657 588.089 335.657 588.001 335.679 587.912C335.724 587.736 335.524 587.31 335.379 587.266C334.535 587.017 333.679 587.134 332.834 587.134C290.589 587.134 248.356 587.134 206.111 587.134ZM335.035 15.2142C334.257 15.2288 333.479 15.0967 332.701 15.2876C332.556 15.3169 332.356 15.684 332.379 15.9042C332.39 15.9923 332.379 16.0951 332.401 16.1832C332.679 17.4458 333.012 18.6791 333.568 19.7802C336.38 25.3887 340.97 28.2664 344.415 28.7362C344.771 28.7803 345.115 28.8684 345.471 28.9271C346.104 29.0299 346.749 29.0739 347.383 28.9858C348.294 28.8537 349.216 28.7069 350.117 28.5013C350.528 28.4132 350.917 28.1636 351.317 27.9728C351.45 27.914 351.606 27.4589 351.573 27.2533C351.561 27.1653 351.561 27.0625 351.539 26.9744C350.928 24.3757 350.25 21.821 349.439 19.3251C349.35 19.0608 349.261 18.8112 349.15 18.5763C348.683 17.4899 348.038 16.6383 347.249 15.9629C347.127 15.8602 347.005 15.7721 346.871 15.7133C346.338 15.4784 345.793 15.2435 345.215 15.2288C344.971 15.2288 344.737 15.361 344.704 15.5812C344.671 15.7721 344.682 15.9629 344.782 16.1244C345.26 16.9466 345.738 17.7541 346.216 18.5616C346.705 19.3985 346.971 20.3528 347.082 21.3953C347.116 21.6742 347.116 21.9678 347.071 22.2321C347.005 22.6873 346.938 23.1718 346.794 23.5829C346.227 25.2419 345.282 26.2697 343.882 26.4458C343.537 26.4899 343.17 26.4458 342.826 26.4018C342.615 26.3724 342.403 26.3137 342.203 26.2109C341.392 25.7558 340.736 25.0804 340.347 24.0086C340.103 23.3333 339.869 22.6579 339.647 21.9678C339.058 20.162 338.48 18.3414 337.902 16.5355C337.824 16.2859 337.724 16.0217 337.613 15.7868C337.458 15.4638 337.224 15.2288 336.924 15.2288C336.313 15.2142 335.679 15.2142 335.035 15.2142ZM346.816 568.914C346.382 568.943 346.027 568.943 345.671 569.002C344.893 569.12 344.115 569.237 343.348 569.413C342.859 569.531 342.381 569.736 341.914 569.942C338.869 571.248 336.324 573.539 334.301 576.828C333.39 578.31 332.768 579.97 332.401 581.805C332.379 581.893 332.39 581.996 332.379 582.084C332.356 582.289 332.567 582.671 332.712 582.686C334.123 582.862 335.546 582.774 336.958 582.744C337.024 582.744 337.102 582.73 337.169 582.686C337.291 582.598 337.424 582.51 337.513 582.377C337.647 582.157 337.769 581.922 337.847 581.673C338.547 579.529 339.247 577.371 339.947 575.213C340.092 574.787 340.214 574.346 340.392 573.935C341.014 572.423 341.981 571.586 343.293 571.483C343.504 571.469 343.715 571.483 343.926 571.498C344.515 571.527 345.037 571.806 345.504 572.232C346.227 572.893 346.727 573.774 346.96 574.904C347.138 575.741 347.16 576.549 346.971 577.385C346.827 578.017 346.638 578.619 346.338 579.147C346.082 579.602 345.815 580.028 345.549 580.483C345.293 580.924 345.026 581.379 344.782 581.819C344.693 581.981 344.682 582.172 344.715 582.363C344.749 582.568 345.004 582.7 345.238 582.686C346.593 582.598 347.683 581.834 348.55 580.483C348.916 579.911 349.216 579.28 349.439 578.575C350.25 576.079 350.928 573.524 351.539 570.925C351.561 570.837 351.55 570.735 351.573 570.647C351.606 570.441 351.439 570 351.306 569.927C349.85 569.134 348.283 569.105 346.816 568.914ZM65.0842 29.0299C65.9511 29.0299 68.4073 28.6628 68.9408 28.4719C72.1083 27.3708 74.8535 25.3153 77.0652 22.0853C78.1211 20.5437 78.9991 18.8406 79.4436 16.8145C79.4992 16.5502 79.5548 16.2713 79.5992 16.007C79.6104 15.9189 79.5992 15.8308 79.5881 15.728C79.5659 15.5078 79.4881 15.3757 79.3547 15.3169C78.8657 15.1114 78.3656 15.1848 77.8766 15.1848C76.8874 15.1848 75.8871 15.2142 74.898 15.2582C74.6646 15.2582 74.509 15.4931 74.3867 15.7133C74.2645 15.9336 74.1644 16.1978 74.0866 16.4474C73.4087 18.5176 72.7418 20.5877 72.075 22.6579C71.9083 23.1718 71.7527 23.7003 71.5415 24.1848C70.9191 25.5649 69.9967 26.3724 68.7741 26.4605C68.4184 26.4899 68.0628 26.4458 67.7071 26.3871C67.496 26.3577 67.2848 26.2697 67.0959 26.1522C65.7511 25.33 65.0398 23.9059 64.873 21.9972C64.8619 21.8063 64.8619 21.6155 64.8842 21.4393C64.9953 20.4997 65.1954 19.6041 65.6288 18.8259C65.8844 18.3708 66.1512 17.9303 66.4068 17.4899C66.6624 17.0494 66.918 16.5943 67.1737 16.1391C67.2737 15.9776 67.2848 15.8014 67.2292 15.6106C67.1514 15.361 66.9625 15.2582 66.718 15.2729C66.1401 15.2729 65.5955 15.5225 65.062 15.7721C64.9286 15.8308 64.8064 15.9336 64.6841 16.0363C63.8283 16.7558 63.1615 17.7248 62.6947 18.914C62.5947 19.1636 62.5169 19.4279 62.4279 19.6921C61.6833 22.0266 61.0609 24.4197 60.4607 26.8276C60.4385 26.9157 60.4274 27.0038 60.4163 27.1065C60.4052 27.1946 60.4163 27.2974 60.4052 27.3855C60.3829 27.591 60.5719 27.9874 60.7164 28.0609C62.2279 28.8096 63.795 28.883 65.0842 29.0299ZM77.0763 582.774C77.0763 582.789 77.0763 582.789 77.0763 582.803C77.7876 582.774 78.4989 582.744 79.2102 582.715C79.4992 582.7 79.6993 582.289 79.6104 581.908C79.5326 581.555 79.4436 581.188 79.3658 580.836C79.0213 579.28 78.3767 577.943 77.6098 576.681C74.7868 572.041 70.5968 569.56 67.4404 569.178C65.5843 568.679 63.7616 569.002 61.9278 569.428C61.5166 569.531 61.1165 569.766 60.7053 569.927C60.5719 569.986 60.3941 570.426 60.4163 570.632C60.4496 570.911 60.4719 571.19 60.5385 571.454C60.9275 572.966 61.3276 574.479 61.7389 575.976C61.9834 576.857 62.2612 577.723 62.5391 578.589C62.9281 579.837 63.5505 580.836 64.3618 581.643C64.7063 581.981 65.0731 582.245 65.4954 582.392C65.9733 582.568 66.4513 582.759 66.9625 582.642C67.1292 582.612 67.2181 582.48 67.2292 582.289C67.2403 582.201 67.2626 582.084 67.2292 582.025C67.0403 581.629 66.8402 581.232 66.6402 580.865C66.2623 580.19 65.8177 579.558 65.4954 578.839C64.9175 577.591 64.7063 576.284 65.0398 574.802C65.3954 573.26 66.6846 571.425 68.3851 571.483C68.5963 571.483 68.8074 571.498 69.0186 571.527C69.3743 571.572 69.7077 571.704 70.03 571.924C70.7524 572.408 71.3081 573.098 71.6527 574.067C71.8083 574.493 71.9527 574.919 72.0861 575.345C72.6418 577.077 73.1975 578.795 73.7532 580.527C74.5534 582.994 74.409 582.744 76.2094 582.774C76.5095 582.774 76.7985 582.774 77.0763 582.774Z" fill="white"/>
</svg>
