<svg width="97" height="89" viewBox="0 0 97 89" fill="none" xmlns="http://www.w3.org/2000/svg">
<path d="M21.3974 0H4.2387C1.9014 0 0 1.93062 0 4.30391V21.7195C0 24.093 1.9014 26.0238 4.2387 26.0238H21.3974C23.7353 26.0238 25.6373 24.093 25.6373 21.7195V4.30391C25.6373 1.93062 23.7351 0 21.3974 0ZM2.76173 4.30391C2.76173 3.47644 3.4243 2.8035 4.2387 2.8035H21.3974C22.2126 2.8035 22.876 3.47664 22.876 4.30391V21.7195C22.876 22.5471 22.2126 23.2205 21.3974 23.2205H4.2387C3.4243 23.2205 2.76173 22.5471 2.76173 21.7195V4.30391Z" fill="#D4D4D4"/>
<path d="M36.3568 7.38792H95.619C96.3806 7.38792 97 6.75918 97 5.98617C97 5.21336 96.3806 4.58462 95.619 4.58462H36.3568C35.5952 4.58462 34.9756 5.21336 34.9756 5.98617C34.9758 6.75918 35.5952 7.38792 36.3568 7.38792Z" fill="#D4D4D4"/>
<path d="M36.3568 14.4133H83.1858C83.9474 14.4133 84.567 13.7846 84.567 13.0116C84.567 12.2386 83.9474 11.61 83.1858 11.61H36.3568C35.5952 11.61 34.9756 12.2388 34.9756 13.0116C34.9756 13.7844 35.5952 14.4133 36.3568 14.4133Z" fill="#D4D4D4"/>
<path d="M95.619 18.6361H36.3568C35.5952 18.6361 34.9756 19.2648 34.9756 20.0378C34.9756 20.8106 35.5952 21.4396 36.3568 21.4396H95.619C96.3806 21.4396 97 20.8108 97 20.0378C97 19.265 96.3806 18.6361 95.619 18.6361Z" fill="#D4D4D4"/>
<path d="M95.619 36.0725H36.3568C35.5952 36.0725 34.9756 36.7013 34.9756 37.4743C34.9756 38.2471 35.5952 38.876 36.3568 38.876H95.619C96.3806 38.876 97 38.2473 97 37.4743C97 36.7013 96.3806 36.0725 95.619 36.0725Z" fill="#D4D4D4"/>
<path d="M36.3568 45.9021H83.1858C83.9474 45.9021 84.567 45.2733 84.567 44.5003C84.567 43.7275 83.9474 43.0986 83.1858 43.0986H36.3568C35.5952 43.0986 34.9756 43.7273 34.9756 44.5003C34.9758 45.2731 35.5952 45.9021 36.3568 45.9021Z" fill="#D4D4D4"/>
<path d="M95.619 50.1246H36.3568C35.5952 50.1246 34.9756 50.7533 34.9756 51.5263C34.9756 52.2993 35.5952 52.9281 36.3568 52.9281H95.619C96.3806 52.9281 97 52.2993 97 51.5263C97 50.7533 96.3806 50.1246 95.619 50.1246Z" fill="#D4D4D4"/>
<path d="M95.619 67.5612H36.3568C35.5952 67.5612 34.9756 68.19 34.9756 68.963C34.9756 69.7358 35.5952 70.3647 36.3568 70.3647H95.619C96.3806 70.3647 97 69.736 97 68.963C97 68.19 96.3806 67.5612 95.619 67.5612Z" fill="#D4D4D4"/>
<path d="M36.3568 77.3906H83.1858C83.9474 77.3906 84.567 76.7618 84.567 75.9888C84.567 75.216 83.9474 74.5871 83.1858 74.5871H36.3568C35.5952 74.5871 34.9756 75.2158 34.9756 75.9888C34.9758 76.7616 35.5952 77.3906 36.3568 77.3906Z" fill="#D4D4D4"/>
<path d="M95.619 81.6125H36.3568C35.5952 81.6125 34.9756 82.2412 34.9756 83.0142C34.9756 83.7872 35.5952 84.4158 36.3568 84.4158H95.619C96.3806 84.4158 97 83.787 97 83.0142C97 82.2414 96.3806 81.6125 95.619 81.6125Z" fill="#D4D4D4"/>
<path d="M5.54622 18.9811C5.54583 19.3554 5.68935 19.7077 5.95006 19.9723C6.21077 20.2377 6.55779 20.3838 6.92719 20.3838C7.29539 20.3838 7.64182 20.2384 7.90273 19.9741L12.8181 14.9922L17.7338 19.9739C17.9943 20.2382 18.3407 20.3838 18.7093 20.3838C19.0787 20.3838 19.4257 20.2378 19.6866 19.9725C19.9472 19.7077 20.0905 19.3556 20.0903 18.9811C20.0901 18.6067 19.9462 18.2549 19.6851 17.9902L14.7725 13.0116L19.6853 8.03293C20.2239 7.48658 20.2247 6.59742 19.6866 6.05067C19.4257 5.78543 19.0785 5.63935 18.7091 5.63935C18.3409 5.63935 17.9945 5.78483 17.7338 6.04906L12.8183 11.0309L7.90293 6.04906C7.64221 5.78483 7.29579 5.63915 6.92719 5.63915C6.55799 5.63915 6.21097 5.78523 5.95046 6.05047C5.68955 6.31531 5.54602 6.66755 5.54642 7.0421C5.54662 7.41645 5.69073 7.76829 5.95164 8.03293L10.864 13.0116L5.95164 17.9902C5.69053 18.2549 5.54642 18.6067 5.54622 18.9811Z" fill="#D4D4D4"/>
<path d="M5.54622 81.9583C5.54583 82.3329 5.68935 82.6849 5.95006 82.9497C6.21077 83.2152 6.55779 83.3613 6.92719 83.3613C7.29539 83.3613 7.64182 83.2158 7.90273 82.9515L12.8181 77.9699L17.7338 82.9515C17.9943 83.2158 18.3407 83.3615 18.7093 83.3615C19.0787 83.3615 19.4257 83.2154 19.6866 82.9501C20.2247 82.4034 20.2239 81.514 19.6851 80.9679L14.7725 75.9892L19.6853 71.0106C19.9462 70.7461 20.0901 70.3943 20.0903 70.0197C20.0905 69.6454 19.9472 69.2933 19.6866 69.0283C19.4259 68.7631 19.0787 68.617 18.7093 68.617C18.3409 68.617 17.9945 68.7627 17.734 69.0269L12.8181 74.0086L7.90273 69.0269C7.64202 68.7625 7.29559 68.617 6.92699 68.617C6.55779 68.617 6.21077 68.7631 5.95026 69.0283C5.68935 69.2931 5.54583 69.6454 5.54622 70.0197C5.54642 70.3941 5.69053 70.7459 5.95144 71.0106L10.864 75.9892L5.95144 80.9679C5.69053 81.2321 5.54642 81.584 5.54622 81.9583Z" fill="#D4D4D4"/>
<path d="M21.3974 31.4889H4.2387C1.9014 31.4889 0 33.4193 0 35.792V53.2078C0 55.5811 1.9014 57.5117 4.2387 57.5117H21.3974C23.7353 57.5117 25.6373 55.5811 25.6373 53.2078V35.792C25.6373 33.4193 23.7351 31.4889 21.3974 31.4889ZM2.76173 35.792C2.76173 34.965 3.4243 34.292 4.2387 34.292H21.3974C22.2126 34.292 22.876 34.965 22.876 35.792V53.2078C22.876 54.0352 22.2126 54.7086 21.3974 54.7086H4.2387C3.4243 54.7086 2.76173 54.0352 2.76173 53.2078V35.792Z" fill="#D4D4D4"/>
<path d="M21.3974 62.9768H4.2387C1.9014 62.9768 0 64.9074 0 67.2805V84.6957C0 87.0692 1.9014 89 4.2387 89H21.3974C23.7353 89 25.6373 87.0692 25.6373 84.6957V67.2805C25.6373 64.9074 23.7351 62.9768 21.3974 62.9768ZM2.76173 67.2805C2.76173 66.4533 3.4243 65.7801 4.2387 65.7801H21.3974C22.2126 65.7801 22.876 66.4533 22.876 67.2805V84.6957C22.876 85.5234 22.2126 86.1967 21.3974 86.1967H4.2387C3.4243 86.1967 2.76173 85.5234 2.76173 84.6957V67.2805Z" fill="#D4D4D4"/>
<path d="M9.40821 51.5362C9.67031 51.8446 10.0512 52.0214 10.453 52.0214C10.4784 52.0214 10.5043 52.0208 10.5296 52.0192C10.9539 51.9955 11.3506 51.7689 11.5913 51.413L19.8674 39.174C20.0764 38.8652 20.1542 38.4924 20.0867 38.1243C20.0192 37.7562 19.8145 37.4369 19.5105 37.2249C19.2792 37.0638 19.0094 36.9786 18.7301 36.9786C18.2742 36.9786 17.8484 37.206 17.5907 37.5872L10.3273 48.3282L7.9538 45.5396C7.69111 45.2311 7.30984 45.0543 6.90798 45.0543C6.577 45.0543 6.2565 45.1755 6.00588 45.3953C5.42962 45.9004 5.36588 46.7874 5.86355 47.3723L9.40821 51.5362Z" fill="#D4D4D4"/>
</svg>
