<svg width="563" height="738" viewBox="0 0 563 738" fill="none" xmlns="http://www.w3.org/2000/svg">
<path opacity="0.4" d="M0.0455629 368.82C0.0455629 260.975 0.0455629 153.13 0.0455629 45.3025C0.0455629 39.1601 0.0151875 33.0177 0 26.8572C0 23.7225 0.0303757 20.5879 0.0303757 17.4714C0.0303757 16.3118 0.1215 15.1522 0.273375 14.0107C1.03275 8.26688 4.28287 3.44717 8.82393 1.34535C10.7679 0.45751 12.7727 0.167603 14.8382 0.330676C16.7822 0.493748 18.6806 0.982966 20.5487 1.6715C21.7485 2.12447 22.9483 2.61369 24.1177 3.17539C28.7195 5.36781 33.2758 7.68706 37.7713 10.1513C50.1339 16.9097 62.4813 23.7044 74.8439 30.481C75.6337 30.9158 76.4386 31.3145 77.2435 31.7131C77.441 31.8218 77.8814 31.6044 77.9877 31.3326C78.2003 30.8071 78.413 30.2998 78.5952 29.7562C79.7343 26.4404 80.8733 23.1065 82.0124 19.7726C82.2402 19.1203 82.4377 18.468 82.6806 17.8519C83.3793 16.1125 84.488 14.8441 85.9612 14.065C86.3105 13.8838 86.6901 13.757 87.0698 13.6664C88.0266 13.4127 88.9986 13.3584 89.9706 13.3584C91.3375 13.3584 92.6892 13.3584 94.0561 13.3402C94.6332 13.3221 95.2255 13.2678 95.8026 13.1772C96.076 13.1228 96.3494 12.9779 96.5468 12.6698C97.6251 11.021 98.7034 9.39026 99.7969 7.75954C100.404 6.85358 100.982 5.9295 101.604 5.02354C102.926 3.08479 104.596 1.72585 106.555 0.89237C107.755 0.385033 108.985 0.0951256 110.261 0.0226488C110.747 -0.0135895 111.233 0.00452993 111.719 0.00452993C112.6 0.00452993 113.466 0.00452993 114.347 0.00452993C225.929 0.00452993 337.511 0.00452993 449.094 0.00452993C450.263 0.00452993 451.433 -0.0135895 452.587 0.0226488C454.151 0.0770064 455.67 0.475629 457.113 1.21852C458.753 2.052 460.166 3.26598 461.305 4.89671C462.049 5.96574 462.747 7.07101 463.476 8.17628C464.433 9.64393 465.39 11.0935 466.347 12.5611C466.666 13.0503 467.106 13.2497 467.607 13.304C467.987 13.3402 468.382 13.3765 468.777 13.3765C470.144 13.3946 471.495 13.3584 472.862 13.3946C473.728 13.4127 474.609 13.449 475.475 13.612C477.768 14.0107 479.363 15.587 480.365 18.0331C480.623 18.6492 480.821 19.3196 481.033 19.9537C482.172 23.2877 483.311 26.6035 484.45 29.9374C484.602 30.3723 484.769 30.7709 484.936 31.2058C485.103 31.6587 485.559 31.9124 485.893 31.7312C486.774 31.2601 487.67 30.789 488.551 30.3179C500.822 23.5957 513.079 16.8554 525.35 10.1332C529.846 7.66894 534.417 5.36781 539.004 3.15727C540.902 2.25131 542.846 1.52654 544.836 0.946728C546.263 0.529987 547.706 0.330676 549.164 0.312557C554.935 0.24008 559.826 4.37125 561.937 10.4955C562.651 12.5611 562.909 14.7354 562.939 16.946C562.985 19.3739 563 21.82 563 24.248C563 30.3904 562.954 36.5328 562.954 42.6933C562.954 260.232 562.954 477.771 562.954 695.31C562.954 700.764 563 706.218 563 711.653C563 714.661 562.954 717.687 562.954 720.695C562.954 722.09 562.787 723.467 562.62 724.844C562.514 725.768 562.225 726.656 561.937 727.49C560.16 732.509 557.047 735.77 552.642 737.22C551.245 737.673 549.772 737.799 548.298 737.655C546.354 737.473 544.456 737.02 542.588 736.35C541.282 735.879 540.006 735.335 538.746 734.737C534.25 732.563 529.77 730.298 525.35 727.888C513.079 721.166 500.822 714.426 488.551 707.703C487.67 707.214 486.774 706.761 485.893 706.29C485.574 706.127 485.119 706.363 484.936 706.797C484.769 707.214 484.587 707.631 484.45 708.048C483.311 711.364 482.172 714.697 481.033 718.031C480.821 718.684 480.608 719.318 480.365 719.952C479.697 721.71 478.618 722.996 477.16 723.83C476.811 724.029 476.431 724.156 476.067 724.264C475.11 724.536 474.138 724.609 473.166 724.609C471.799 724.609 470.447 724.609 469.081 724.627C468.503 724.645 467.911 724.699 467.334 724.754C467.045 724.79 466.757 724.917 466.559 725.188C466.241 725.623 465.922 726.058 465.633 726.529C464.251 728.631 462.899 730.751 461.502 732.835C460.196 734.792 458.54 736.169 456.596 737.038C455.412 737.564 454.167 737.854 452.906 737.962C452.42 737.999 451.934 737.999 451.448 737.999C450.476 737.999 449.504 737.999 448.532 737.999C337.147 737.999 225.762 737.999 114.362 737.999C113.299 737.999 112.22 737.981 111.157 737.999C110.079 738.017 109.031 737.836 107.983 737.564C105.523 736.93 103.472 735.498 101.802 733.252C101.422 732.726 101.073 732.164 100.708 731.621C99.3869 729.61 98.0656 727.616 96.7594 725.587C96.3646 724.971 95.8634 724.736 95.2559 724.699C94.0865 724.663 92.917 724.645 91.7628 724.627C90.8819 724.609 90.0162 724.627 89.1353 724.591C88.5582 724.572 87.9659 724.482 87.404 724.373C85.3385 723.974 83.8653 722.561 82.8477 720.441C82.5136 719.735 82.301 718.955 82.0428 718.213C80.9037 714.897 79.7647 711.563 78.6256 708.247C78.4434 707.722 78.2307 707.196 78.0181 706.671C77.9118 706.381 77.4865 706.163 77.2891 706.272C76.4842 706.689 75.6792 707.069 74.8895 707.504C63.6811 713.647 52.4728 719.789 41.2644 725.968C35.888 728.939 30.4509 731.748 24.9682 734.447C22.7205 735.553 20.4272 736.513 18.0427 737.129C16.038 737.636 14.018 737.908 11.9677 737.6C8.64168 737.093 5.87756 735.317 3.62981 732.4C2.21737 730.588 1.23019 728.45 0.653062 726.094C0.243 724.427 0.0607504 722.688 0.0455629 720.949C0.0303754 719.209 0 717.47 0 715.73C0 709.932 0.0151882 704.134 0.0303757 698.336C0.0303757 696.941 0.0303757 695.546 0.0303757 694.168C0.0455631 585.653 0.0455629 477.228 0.0455629 368.82ZM547.083 368.965C547.083 260.432 547.083 151.898 547.083 43.3818C547.083 41.9867 547.083 40.5915 547.068 39.2144C547.068 38.7615 547.008 38.2904 546.947 37.8374C546.886 37.3663 546.658 37.0039 546.309 36.7502C545.519 36.1704 544.669 36.0073 543.803 36.406C542.983 36.7865 542.193 37.2213 541.403 37.6743C534.827 41.4069 528.251 45.1575 521.69 48.9082C519.321 50.249 516.967 51.6079 514.582 52.9488C511.469 54.6882 508.188 55.6485 504.726 55.721C503.07 55.7572 501.415 55.7391 499.79 55.3949C495.613 54.507 491.786 52.5864 488.429 49.4518C487.898 48.9444 487.351 48.4552 486.865 47.8754C486.121 47.0057 485.346 46.4259 484.268 46.9513C482.537 47.2775 480.79 47.4043 479.044 47.4224C477.494 47.4405 475.93 47.3499 474.396 47.0419C470.523 46.2628 466.894 44.6864 463.522 42.2947C457.265 37.8374 451.797 29.7381 450.066 21.2402C449.975 20.7872 449.853 20.3524 449.732 19.9175C449.671 19.7001 449.549 19.5189 449.458 19.3015C449.367 19.0659 449.215 18.9572 449.003 18.9028C447.849 18.6492 446.679 18.776 445.51 18.776C336.175 18.776 226.825 18.776 117.49 18.776C116.609 18.776 115.744 18.776 114.863 18.7941C114.574 18.7941 114.286 18.8666 113.997 18.921C113.8 18.9572 113.678 19.1203 113.557 19.3196C113.268 19.8088 113.132 20.3524 113.025 20.9141C112.266 24.8097 110.838 28.3248 108.955 31.6044C106.206 36.3697 102.743 40.1929 98.4908 42.9651C94.5117 45.5561 90.2744 47.1144 85.7181 47.3499C84.5487 47.4043 83.3945 47.4405 82.225 47.3318C80.767 47.205 79.309 47.1144 77.8814 46.752C77.5928 46.6795 77.2739 46.7701 77.0461 46.9876C76.5145 47.4949 76.0133 48.0385 75.497 48.5639C70.8496 53.2024 65.5188 55.6485 59.459 55.7029C57.2113 55.721 54.9939 55.5217 52.8221 54.815C51.0299 54.2352 49.3138 53.438 47.6431 52.4958C41.067 48.7451 34.4908 45.0126 27.9146 41.2619C25.6365 39.9573 23.3583 38.6527 21.0802 37.3663C20.4727 37.022 19.85 36.6777 19.2122 36.3878C18.3313 35.9892 17.496 36.1523 16.7062 36.7502C16.3569 37.0039 16.1443 37.3844 16.0684 37.8555C15.9924 38.3085 15.9317 38.7796 15.9317 39.2326C15.9165 40.7364 15.9165 42.2403 15.9165 43.7624C15.9165 201.001 15.9165 358.221 15.9165 515.459C15.9165 575.18 15.9165 634.883 15.9165 694.603C15.9165 695.999 15.9165 697.394 15.9317 698.771C15.9317 699.224 16.0076 699.695 16.0684 700.148C16.1443 700.619 16.3721 700.981 16.7214 701.235C17.5112 701.815 18.3617 701.978 19.2274 701.579C20.0475 701.199 20.8372 700.764 21.627 700.311C26.5325 697.521 31.4381 694.712 36.3436 691.904C40.2924 689.657 44.226 687.41 48.1747 685.163C51.4704 683.297 54.9331 682.264 58.5781 682.246C60.7196 682.246 62.8306 682.391 64.9417 683.007C68.693 684.094 72.0494 686.069 75.0413 688.95C75.5729 689.457 76.0893 689.983 76.5753 690.563C77.122 691.197 77.7295 691.288 78.4433 691.106C80.2507 690.653 82.1035 690.581 83.9564 690.545C85.5055 690.526 87.0698 690.617 88.6038 690.925C91.2008 691.451 93.7068 692.32 96.1216 693.589C104.839 698.173 111.081 707.649 112.934 716.727C113.01 717.071 113.071 717.397 113.162 717.742C113.223 717.959 113.299 718.176 113.39 718.376C113.572 718.811 113.861 719.119 114.271 719.137C115.44 719.173 116.609 719.191 117.764 719.191C226.916 719.191 336.053 719.191 445.206 719.191C446.178 719.191 447.15 719.191 448.122 719.173C448.41 719.173 448.699 719.1 448.988 719.046C449.2 719.01 449.322 718.865 449.428 718.647C449.686 718.14 449.838 717.615 449.96 717.035C450.385 715.005 450.901 713.012 451.691 711.146C454.668 703.971 459.057 698.408 465.026 694.658C468.853 692.248 472.938 690.835 477.282 690.599C478.451 690.527 479.606 690.508 480.775 690.617C482.233 690.744 483.676 690.835 485.119 691.197C485.377 691.269 485.726 691.161 485.939 690.961C486.561 690.4 487.123 689.747 487.716 689.168C492.484 684.511 497.937 682.174 504.118 682.228C507.778 682.264 511.241 683.17 514.552 685.036C514.901 685.236 515.251 685.435 515.6 685.634C519.275 687.736 522.966 689.82 526.641 691.922C531.456 694.676 536.285 697.412 541.1 700.166C541.98 700.655 542.861 701.162 543.757 701.579C544.745 702.032 545.671 701.779 546.491 701.018C546.628 700.891 546.765 700.673 546.81 700.456C546.916 700.021 547.008 699.55 547.008 699.097C547.038 697.593 547.038 696.089 547.038 694.567C547.083 586.033 547.083 477.499 547.083 368.965ZM558.474 369.201C558.474 255.467 558.474 141.733 558.474 27.9805C558.474 26.5854 558.474 25.1902 558.474 23.8131C558.474 23.1246 558.474 22.418 558.413 21.7294C558.337 20.6604 558.018 19.7001 557.457 18.8666C556.029 16.7829 554.161 15.6776 551.959 15.3152C551.184 15.1884 550.394 15.2065 549.65 15.4602C548.815 15.732 547.964 16.0038 547.144 16.3661C545.231 17.1996 543.332 18.0875 541.449 19.0297C530.438 24.556 519.427 30.1005 508.431 35.6268C504.407 37.6562 500.382 39.6674 496.357 41.7149C496.008 41.8961 495.689 42.1679 495.355 42.4034C495.127 42.5846 495.127 42.7658 495.34 42.947C495.492 43.0738 495.628 43.2731 495.811 43.3456C497.998 44.3784 500.291 44.8857 502.63 44.9582C505.181 45.0307 507.657 44.5052 510.026 43.3456C511.651 42.5484 513.231 41.6605 514.81 40.7908C522.13 36.7865 529.466 32.764 536.786 28.7597C538.457 27.8356 540.158 26.9659 541.829 26.0418C542.816 25.4982 543.864 25.2264 544.942 25.2627C546.977 25.3533 548.709 26.2773 550.045 28.1617C550.956 29.4301 551.533 30.8796 551.549 32.5828C551.564 34.2135 551.579 35.8261 551.579 37.4569C551.579 258.438 551.579 479.42 551.579 700.401C551.579 701.561 551.579 702.721 551.579 703.88C551.579 704.569 551.564 705.276 551.518 705.964C551.488 706.417 551.412 706.888 551.275 707.323C550.075 711.001 547.494 712.668 544.745 712.704C543.773 712.722 542.816 712.469 541.92 711.98C541.479 711.726 541.039 711.508 540.598 711.255C531.334 706.181 522.055 701.108 512.79 696.053C511.818 695.527 510.831 695.02 509.844 694.549C507.657 693.498 505.363 693.009 503.009 693.009C500.564 693.009 498.18 693.552 495.887 694.585C495.704 694.658 495.552 694.821 495.401 694.966C495.325 695.038 495.203 695.165 495.218 695.219C495.294 695.419 495.37 695.654 495.522 695.745C496.038 696.071 496.555 696.379 497.102 696.633C512.046 704.152 526.975 711.69 541.935 719.191C543.636 720.043 545.383 720.767 547.099 721.583C547.919 721.981 548.769 722.217 549.605 722.507C550.364 722.761 551.139 722.797 551.913 722.67C554.115 722.326 555.999 721.239 557.441 719.191C558.019 718.376 558.353 717.415 558.459 716.346C558.504 715.893 558.504 715.422 558.52 714.951C558.535 713.447 558.535 711.943 558.535 710.421C558.474 596.669 558.474 482.935 558.474 369.201ZM4.54106 368.839C4.54106 482.464 4.54106 596.089 4.54106 709.715C4.54106 711.219 4.54106 712.722 4.54106 714.245C4.54106 714.933 4.57143 715.64 4.60181 716.328C4.63218 716.908 4.79924 717.452 4.99668 717.995C5.19412 718.539 5.46749 719.01 5.80162 719.427C6.87993 720.822 8.18605 721.764 9.71999 722.289C11.0717 722.742 12.393 722.851 13.7447 722.38C14.4889 722.126 15.2482 721.891 15.962 721.547C17.7694 720.677 19.607 719.916 21.384 719.028C33.291 713.067 45.198 707.069 57.0898 701.09C60.3095 699.477 63.5292 697.847 66.749 696.216C67.0983 696.035 67.4628 695.854 67.721 695.473C67.7817 695.401 67.8425 695.219 67.8273 695.201C67.6147 694.984 67.402 694.694 67.1439 694.567C65.1391 693.625 63.0281 693.154 60.9018 693.009C58.244 692.828 55.6773 693.371 53.2017 694.513C51.5767 695.274 49.9972 696.18 48.4177 697.049C43.6488 699.659 38.88 702.25 34.1111 704.859C29.9649 707.124 25.8035 709.37 21.6574 711.653C20.8524 712.088 20.0323 712.396 19.1666 712.559C17.8757 712.831 16.6151 712.596 15.476 711.961C13.0005 710.566 11.5121 708.301 11.4817 704.913C11.4666 703.409 11.4665 701.905 11.4665 700.383C11.4665 479.402 11.4665 258.402 11.4665 37.4206C11.4665 36.261 11.4665 35.1014 11.4665 33.9418C11.4665 33.2532 11.4969 32.5466 11.5425 31.858C11.5729 31.2782 11.7247 30.7347 11.907 30.1911C12.3322 28.9952 12.9853 27.9987 13.8054 27.1652C14.4737 26.4767 15.233 25.9331 16.0835 25.6613C17.3137 25.2445 18.5591 25.0815 19.8197 25.4982C20.2905 25.6432 20.7461 25.8062 21.2017 26.0418C23.1457 27.0927 25.1049 28.1255 27.0489 29.1764C34.8097 33.4344 42.5705 37.6924 50.3465 41.9504C51.1363 42.3853 51.9564 42.7477 52.7613 43.1644C54.0978 43.8711 55.5103 44.2697 56.9379 44.5958C59.7779 45.2481 62.5421 44.8495 65.3062 44.0704C65.8681 43.9073 66.43 43.6899 66.9768 43.4362C67.235 43.3094 67.4628 43.0738 67.721 42.8926C67.9488 42.7296 67.9336 42.5665 67.721 42.3491C67.3413 41.9685 66.9009 41.7511 66.4452 41.5337C51.2122 33.9236 35.9943 26.2773 20.7765 18.631C19.1666 17.8157 17.5112 17.1453 15.8861 16.3661C15.066 15.9675 14.2155 15.732 13.3802 15.4602C12.5297 15.1884 11.6488 15.1884 10.7831 15.3515C8.91505 15.732 7.27481 16.6742 5.93831 18.323C5.103 19.3739 4.58662 20.5879 4.57143 22.0556C4.55625 23.795 4.54106 25.5345 4.54106 27.2739C4.54106 141.135 4.54106 254.996 4.54106 368.839ZM281.227 13.3584C338.651 13.3584 396.09 13.3584 453.513 13.3584C454.485 13.3584 455.457 13.3584 456.429 13.3584C456.824 13.3584 457.204 13.3584 457.599 13.3402C457.796 13.3402 457.979 13.2859 458.176 13.2678C458.556 13.2315 458.814 12.6517 458.677 12.235C458.237 10.9304 457.599 9.77077 456.839 8.71986C456.141 7.74142 455.321 6.92606 454.394 6.27377C453.711 5.80267 452.997 5.47652 452.192 5.47652C450.825 5.47652 449.474 5.4584 448.107 5.4584C337.132 5.4584 226.157 5.4584 115.182 5.4584C114.301 5.4584 113.435 5.4584 112.554 5.4584C111.977 5.4584 111.385 5.49464 110.808 5.47652C110.003 5.4584 109.274 5.80267 108.606 6.27377C106.631 7.70518 105.219 9.69829 104.323 12.235C104.186 12.6336 104.49 13.2315 104.839 13.2678C105.037 13.2859 105.219 13.3402 105.416 13.3402C106.479 13.3584 107.558 13.3584 108.621 13.3584C166.166 13.3584 223.696 13.3584 281.227 13.3584ZM281.652 724.591C224.228 724.591 166.789 724.591 109.365 724.591C108.302 724.591 107.224 724.591 106.16 724.591C105.766 724.591 105.386 724.627 104.991 724.663C104.475 724.699 104.156 725.352 104.368 725.895C104.733 726.837 105.173 727.743 105.705 728.577C106.525 729.899 107.543 730.95 108.742 731.766C109.335 732.183 109.973 732.472 110.671 732.472C111.841 732.491 113.01 732.509 114.164 732.509C225.716 732.509 337.284 732.509 448.836 732.509C449.61 732.509 450.385 732.509 451.175 732.509C451.569 732.509 451.949 732.472 452.344 732.472C453.043 732.454 453.68 732.164 454.273 731.766C454.607 731.53 454.941 731.277 455.245 731.005C456.764 729.664 457.857 727.906 458.632 725.877C458.677 725.768 458.677 725.66 458.708 725.551C458.768 725.333 458.495 724.808 458.297 724.754C457.143 724.446 455.974 724.591 454.82 724.591C397.092 724.591 339.379 724.591 281.652 724.591ZM457.827 18.776C456.764 18.7941 455.7 18.631 454.637 18.8666C454.44 18.9028 454.167 19.3558 454.197 19.6276C454.212 19.7363 454.197 19.8632 454.227 19.9719C454.607 21.5301 455.063 23.0521 455.822 24.4111C459.664 31.3326 465.937 34.8839 470.645 35.4638C471.131 35.5181 471.602 35.6268 472.088 35.6993C472.953 35.8262 473.834 35.8805 474.7 35.7718C475.945 35.6087 477.206 35.4275 478.436 35.1739C478.998 35.0651 479.53 34.7571 480.076 34.5216C480.259 34.4491 480.471 33.8874 480.426 33.6337C480.41 33.525 480.41 33.3982 480.38 33.2895C479.545 30.0824 478.618 26.9296 477.51 23.8494C477.388 23.5232 477.267 23.2152 477.115 22.9253C476.477 21.5845 475.596 20.5336 474.518 19.7001C474.351 19.5732 474.184 19.4645 474.001 19.3921C473.272 19.1021 472.528 18.8122 471.738 18.7941C471.404 18.7941 471.085 18.9572 471.04 19.229C470.994 19.4645 471.009 19.7001 471.146 19.8994C471.799 20.9141 472.452 21.9106 473.105 22.9072C473.774 23.94 474.138 25.1177 474.29 26.4042C474.335 26.7484 474.335 27.1108 474.275 27.437C474.184 27.9987 474.092 28.5966 473.895 29.1039C473.12 31.1514 471.83 32.4197 469.916 32.6372C469.445 32.6915 468.944 32.6372 468.473 32.5828C468.185 32.5466 467.896 32.4741 467.623 32.3473C466.514 31.7856 465.618 30.9521 465.086 29.6294C464.752 28.7959 464.433 27.9624 464.129 27.1108C463.325 24.8822 462.535 22.6354 461.745 20.4067C461.639 20.0987 461.502 19.7726 461.35 19.4827C461.138 19.084 460.819 18.7941 460.409 18.7941C459.573 18.776 458.708 18.776 457.827 18.776ZM473.925 702.105C473.333 702.141 472.847 702.141 472.361 702.213C471.298 702.358 470.235 702.503 469.187 702.721C468.519 702.866 467.866 703.119 467.228 703.373C463.066 704.986 459.588 707.812 456.824 711.871C455.579 713.701 454.728 715.748 454.227 718.013C454.197 718.122 454.212 718.249 454.197 718.358C454.167 718.611 454.455 719.082 454.652 719.1C456.581 719.318 458.525 719.209 460.454 719.173C460.545 719.173 460.652 719.155 460.743 719.1C460.91 718.992 461.092 718.883 461.213 718.72C461.396 718.448 461.563 718.158 461.669 717.85C462.626 715.205 463.583 712.541 464.54 709.878C464.737 709.352 464.904 708.809 465.147 708.301C465.998 706.435 467.319 705.402 469.111 705.276C469.4 705.257 469.688 705.276 469.977 705.294C470.782 705.33 471.495 705.674 472.133 706.2C473.12 707.015 473.804 708.102 474.123 709.497C474.366 710.53 474.396 711.527 474.138 712.559C473.941 713.339 473.682 714.081 473.272 714.734C472.923 715.295 472.559 715.821 472.194 716.383C471.845 716.926 471.48 717.488 471.146 718.031C471.025 718.231 471.009 718.466 471.055 718.702C471.101 718.956 471.45 719.119 471.769 719.1C473.622 718.992 475.11 718.05 476.295 716.383C476.796 715.676 477.206 714.897 477.51 714.027C478.618 710.947 479.545 707.794 480.38 704.587C480.41 704.478 480.395 704.351 480.426 704.243C480.471 703.989 480.243 703.445 480.061 703.355C478.072 702.376 475.93 702.34 473.925 702.105ZM88.9379 35.8261C90.1225 35.8261 93.479 35.3732 94.208 35.1376C98.5364 33.7787 102.288 31.242 105.31 27.2558C106.753 25.3533 107.953 23.2514 108.56 20.751C108.636 20.4248 108.712 20.0806 108.773 19.7544C108.788 19.6457 108.773 19.537 108.758 19.4102C108.727 19.1384 108.621 18.9753 108.439 18.9028C107.77 18.6492 107.087 18.7398 106.419 18.7398C105.067 18.7398 103.7 18.776 102.348 18.8304C102.03 18.8304 101.817 19.1203 101.65 19.3921C101.483 19.6638 101.346 19.99 101.24 20.298C100.313 22.8528 99.4021 25.4076 98.4908 27.9624C98.263 28.5966 98.0504 29.2489 97.7618 29.8468C96.9113 31.55 95.6508 32.5466 93.9801 32.6553C93.4941 32.6915 93.0081 32.6372 92.5221 32.5647C92.2336 32.5285 91.945 32.4197 91.6868 32.2748C89.8492 31.2601 88.8772 29.5026 88.6493 27.1471C88.6341 26.9115 88.6341 26.676 88.6645 26.4585C88.8164 25.2989 89.0898 24.1936 89.6821 23.2333C90.0314 22.6716 90.3959 22.128 90.7452 21.5845C91.0945 21.0409 91.4438 20.4792 91.7931 19.9175C91.9298 19.7182 91.945 19.5008 91.8691 19.2652C91.7628 18.9572 91.5046 18.8304 91.1705 18.8485C90.3807 18.8485 89.6365 19.1565 88.9075 19.4645C88.7253 19.537 88.5582 19.6638 88.3912 19.7907C87.2217 20.6785 86.3105 21.8744 85.6726 23.342C85.5359 23.6501 85.4296 23.9762 85.3081 24.3024C84.2905 27.1833 83.44 30.1367 82.6199 33.1083C82.5895 33.217 82.5743 33.3257 82.5592 33.4525C82.544 33.5613 82.5592 33.6881 82.544 33.7968C82.5136 34.0505 82.7718 34.5397 82.9692 34.6303C85.0347 35.5544 87.1761 35.645 88.9379 35.8261ZM105.325 719.209C105.325 719.227 105.325 719.227 105.325 719.245C106.297 719.209 107.269 719.173 108.241 719.137C108.636 719.119 108.909 718.611 108.788 718.14C108.682 717.705 108.56 717.252 108.454 716.817C107.983 714.897 107.102 713.248 106.054 711.69C102.197 705.964 96.4709 702.902 92.1576 702.431C89.6213 701.815 87.1306 702.213 84.6247 702.739C84.0627 702.866 83.516 703.156 82.954 703.355C82.7718 703.427 82.5288 703.971 82.5592 704.225C82.6047 704.569 82.6351 704.913 82.7262 705.239C83.2578 707.106 83.8045 708.972 84.3665 710.82C84.7006 711.907 85.0803 712.976 85.46 714.045C85.9915 715.585 86.842 716.817 87.9507 717.814C88.4215 718.231 88.9227 718.557 89.4998 718.738C90.1529 718.956 90.806 719.191 91.5046 719.046C91.7324 719.01 91.8539 718.847 91.8691 718.611C91.8843 718.503 91.9146 718.358 91.8691 718.285C91.6109 717.796 91.3375 717.307 91.0641 716.854C90.5478 716.02 89.9403 715.241 89.4998 714.353C88.7101 712.813 88.4215 711.201 88.8772 709.37C89.3632 707.468 91.1249 705.203 93.4486 705.276C93.7371 705.276 94.0257 705.294 94.3143 705.33C94.8003 705.384 95.2559 705.547 95.6963 705.819C96.6835 706.417 97.4429 707.269 97.9137 708.464C98.1263 708.99 98.3238 709.515 98.506 710.041C99.2654 712.179 100.025 714.299 100.784 716.437C101.878 719.481 101.68 719.173 104.141 719.209C104.551 719.209 104.946 719.209 105.325 719.209Z" fill="white"/>
</svg>
