<svg width="18" height="14" viewBox="0 0 18 14" fill="none" xmlns="http://www.w3.org/2000/svg">
<path d="M15.4801 13.4208C15.8622 13.4208 16.1933 13.294 16.4748 13.0437L11.6586 8.20417C11.543 8.28731 11.431 8.36816 11.3252 8.44504C10.9648 8.71186 10.6722 8.92007 10.4476 9.06927C10.223 9.21881 9.9242 9.37123 9.55118 9.52684C9.17792 9.68264 8.83018 9.7603 8.50759 9.7603H8.49814H8.4887C8.16608 9.7603 7.81834 9.68267 7.4451 9.52684C7.07187 9.37123 6.77305 9.21881 6.54867 9.06927C6.32407 8.92007 6.0317 8.71189 5.67109 8.44504C5.5706 8.37101 5.45915 8.28979 5.33866 8.20287L0.521484 13.0437C0.80293 13.294 1.13425 13.4208 1.51634 13.4208H15.4801Z" fill="url(#paint0_linear)"/>
<path d="M0.958225 5.15689C0.59783 4.91546 0.278236 4.63897 0 4.32752V11.6904L4.24502 7.42507C3.39578 6.82934 2.30157 6.07415 0.958225 5.15689Z" fill="url(#paint1_linear)"/>
<path d="M16.0525 5.15689C14.7604 6.03563 13.6622 6.79212 12.7578 7.42677L17.0011 11.6906V4.32752C16.7291 4.6327 16.4129 4.90901 16.0525 5.15689Z" fill="url(#paint2_linear)"/>
<path d="M15.4814 0H1.51772C1.03057 0 0.656039 0.165291 0.393666 0.495532C0.131078 0.825928 0 1.23913 0 1.73466C0 2.13492 0.173948 2.56862 0.521689 3.03587C0.86943 3.50293 1.23945 3.8698 1.63158 4.13665C1.84654 4.28926 2.4948 4.74209 3.57636 5.49498C4.16021 5.90151 4.66795 6.25585 5.10427 6.56162C5.47617 6.822 5.79691 7.04748 6.06172 7.2346C6.09212 7.25603 6.13993 7.29039 6.20338 7.33598C6.27175 7.38532 6.35826 7.44793 6.46499 7.52537C6.67051 7.67472 6.84124 7.79544 6.97723 7.88767C7.11303 7.97993 7.27757 8.08298 7.47059 8.19742C7.66345 8.31169 7.84536 8.39763 8.0161 8.45478C8.18687 8.5119 8.34495 8.54056 8.49038 8.54056H8.49983H8.50927C8.65467 8.54056 8.81279 8.5119 8.98359 8.45478C9.15429 8.39763 9.33605 8.31188 9.52907 8.19742C9.72191 8.08298 9.88622 7.97971 10.0225 7.88767C10.1584 7.79544 10.3292 7.67475 10.5347 7.52537C10.6412 7.44793 10.7278 7.38529 10.7961 7.33613C10.8596 7.29036 10.9074 7.25622 10.938 7.2346C11.1443 7.09037 11.4657 6.86581 11.898 6.56426C12.6844 6.0152 13.8427 5.20707 15.3776 4.13665C15.8392 3.81267 16.2249 3.42171 16.5349 2.96432C16.8443 2.50694 16.9994 2.02716 16.9994 1.52514C16.9994 1.10571 16.849 0.746818 16.5488 0.447899C16.2483 0.149351 15.8925 0 15.4814 0Z" fill="url(#paint3_linear)"/>
<defs>
<linearGradient id="paint0_linear" x1="0.82249" y1="11.0183" x2="16.0738" y2="10.981" gradientUnits="userSpaceOnUse">
<stop stop-color="#8F6D55"/>
<stop offset="1" stop-color="#4D4444"/>
</linearGradient>
<linearGradient id="paint1_linear" x1="0.0800948" y1="8.3003" x2="4.13835" y2="8.29843" gradientUnits="userSpaceOnUse">
<stop stop-color="#8F6D55"/>
<stop offset="1" stop-color="#4D4444"/>
</linearGradient>
<linearGradient id="paint2_linear" x1="12.8379" y1="8.3004" x2="16.8945" y2="8.29853" gradientUnits="userSpaceOnUse">
<stop stop-color="#8F6D55"/>
<stop offset="1" stop-color="#4D4444"/>
</linearGradient>
<linearGradient id="paint3_linear" x1="0.320743" y1="4.60821" x2="16.5722" y2="4.58237" gradientUnits="userSpaceOnUse">
<stop stop-color="#8F6D55"/>
<stop offset="1" stop-color="#4D4444"/>
</linearGradient>
</defs>
</svg>
