<svg width="16" height="16" viewBox="0 0 16 16" xmlns="http://www.w3.org/2000/svg">
<path d="M8.00003 8.4772C9.9812 8.4772 11.5874 6.5795 11.5874 4.23858C11.5874 0.992372 9.98127 0 8.00003 0C6.01871 0 4.41263 0.992372 4.41263 4.23858C4.41267 6.5795 6.01875 8.4772 8.00003 8.4772Z" />
<path d="M15.9218 14.7159L14.1119 10.6002C14.0291 10.4119 13.8837 10.2557 13.7026 10.1606L10.8938 8.68456C10.8319 8.65207 10.7569 8.65838 10.7012 8.70094C9.90674 9.30749 8.97266 9.6281 8.00003 9.6281C7.02724 9.6281 6.09324 9.30749 5.29881 8.70094C5.24297 8.65838 5.16797 8.65207 5.10603 8.68456L2.29738 10.1606C2.11629 10.2557 1.97102 10.4118 1.88816 10.6002L0.0782702 14.7159C-0.0465105 14.9996 -0.0209365 15.3242 0.146702 15.5845C0.314263 15.8447 0.597845 16 0.905319 16H15.0946C15.4021 16 15.6858 15.8446 15.8533 15.5845C16.0209 15.3242 16.0465 14.9995 15.9218 14.7159Z" />
</svg>
