<svg id="Слой_1" data-name="Слой 1" xmlns="http://www.w3.org/2000/svg" viewBox="0 0 26.63 25.63"><defs><style>.cls-1{fill:#8b6d55;}.cls-2{fill:#fff;}</style></defs><title>намек</title><path class="cls-1" d="M21.82,12.81A8.5,8.5,0,1,1,13.6,4.32,8.5,8.5,0,0,1,21.82,12.81Z"/><path class="cls-2" d="M14.66,9.65s-.46.39-.14.81.77.89.9,1a11.43,11.43,0,0,1-1,1.52,8,8,0,0,1-2,1.69l-.41.22c-.08-.08-.71-.66-1-.92s-.81.14-.81.14-1.3,1.3-1.56,1.6a.64.64,0,0,0-.12.64,2.38,2.38,0,0,0,2.44,1.31c1.58,0,3.2-1.19,4.46-2.49,1.42-1.3,2.85-3.07,2.84-4.79A2.38,2.38,0,0,0,16.89,8a.64.64,0,0,0-.64.11c-.3.26-1.6,1.56-1.6,1.56Zm0,0"/></svg>