<svg width="14" height="16" viewBox="0 0 14 16"  xmlns="http://www.w3.org/2000/svg">
<path d="M7.23425 0C2.51158 0 0 2.81013 0 5.87427C0 7.29533 0.855143 9.06741 2.22402 9.62944C2.43188 9.71644 2.54497 9.67944 2.59128 9.50043C2.6322 9.36442 2.81206 8.70939 2.8993 8.40038C2.92623 8.30138 2.91222 8.21537 2.82606 8.12237C2.37157 7.63435 2.01077 6.74531 2.01077 5.91127C2.01077 3.77417 3.8406 1.69908 6.95423 1.69908C9.64674 1.69908 11.5304 3.32315 11.5304 5.64626C11.5304 8.27137 10.0345 10.0875 8.09047 10.0875C7.01454 10.0875 6.21325 9.30342 6.46742 8.33338C6.77437 7.17833 7.37641 5.93627 7.37641 5.10323C7.37641 4.3562 6.92192 3.73817 5.99354 3.73817C4.89822 3.73817 4.00969 4.74521 4.00969 6.09728C4.00969 6.95632 4.3371 7.53634 4.3371 7.53634C4.3371 7.53634 3.25364 11.6005 3.05224 12.3596C2.7119 13.6446 3.09855 15.7257 3.13193 15.9047C3.1524 16.0037 3.27194 16.0347 3.33872 15.9537C3.44534 15.8237 4.75498 14.0886 5.12224 12.8346C5.25579 12.3776 5.80399 10.5245 5.80399 10.5245C6.16478 11.1295 7.20625 11.6365 8.31556 11.6365C11.6155 11.6365 14 8.94341 14 5.60125C13.9882 2.39711 11.035 0 7.23425 0Z" />
</svg>
