<svg id="Слой_1" data-name="Слой 1" xmlns="http://www.w3.org/2000/svg" xmlns:xlink="http://www.w3.org/1999/xlink" viewBox="0 0 121.25 124.25"><defs><style>.cls-1{fill:url(#Безымянный_градиент_14);}.cls-2{fill:url(#Безымянный_градиент_14-2);}</style><linearGradient id="Безымянный_градиент_14" x1="23.87" y1="56.61" x2="98.54" y2="56.61" gradientUnits="userSpaceOnUse"><stop offset="0" stop-color="#916a40"/><stop offset="0.32" stop-color="#916a40"/><stop offset="0.71" stop-color="#63473f"/><stop offset="0.99" stop-color="#4d3c3f"/></linearGradient><linearGradient id="Безымянный_градиент_14-2" x1="81.17" y1="19.83" x2="84.65" y2="19.83" xlink:href="#Безымянный_градиент_14"/></defs><title>намек</title><path class="cls-1" d="M97.12,44.75H70.91L81.56,41.5a12.35,12.35,0,0,0,8.22-8A12.56,12.56,0,0,0,88,22.12a1.42,1.42,0,0,0-2.28,1.68,9.72,9.72,0,0,1,1.36,8.81,9.55,9.55,0,0,1-6.36,6.19L63.27,44.12,68.6,26.66a9.65,9.65,0,0,1,9.33-6.86h.16a1.42,1.42,0,0,0,0-2.83h-.18a12.47,12.47,0,0,0-12,8.87L60.55,43.32l-4-13A9.71,9.71,0,1,0,44.45,42.41l7.68,2.34H25.29a1.42,1.42,0,0,0-1.42,1.42V61.5a1.42,1.42,0,0,0,1.42,1.42h2.83V94.83a1.42,1.42,0,0,0,1.42,1.42H92a1.42,1.42,0,0,0,1.42-1.42V62.92h3.67a1.42,1.42,0,0,0,1.42-1.42V46.17A1.42,1.42,0,0,0,97.12,44.75ZM50.62,93.42H31V62.92H50.62Zm0-33.33H26.7V47.58H50.62ZM45.28,39.7a6.88,6.88,0,0,1,2-13.46,7,7,0,0,1,1.69.21,6.83,6.83,0,0,1,4.91,4.67l3.77,12.35ZM68.12,93.42H53.45V47.58H68.12Zm22.5,0H71V62.92H90.62ZM95.7,60.08H71V47.58H95.7Z"/><circle class="cls-2" cx="82.91" cy="19.83" r="1.74"/></svg>