<svg width="20" height="21" viewBox="0 0 20 21" xmlns="http://www.w3.org/2000/svg">
<path d="M19.6959 18.4683L14.7656 13.5176C16.0332 12.0627 16.7278 10.2322 16.7278 8.32646C16.7278 3.87398 12.9757 0.251465 8.36391 0.251465C3.75212 0.251465 0 3.87398 0 8.32646C0 12.7789 3.75212 16.4014 8.36391 16.4014C10.0952 16.4014 11.7451 15.8973 13.1557 14.9402L18.1235 19.9285C18.3311 20.1367 18.6104 20.2515 18.9097 20.2515C19.193 20.2515 19.4617 20.1472 19.6657 19.9576C20.0992 19.5549 20.113 18.8871 19.6959 18.4683ZM8.36391 2.35798C11.7727 2.35798 14.5459 5.03537 14.5459 8.32646C14.5459 11.6175 11.7727 14.2949 8.36391 14.2949C4.95507 14.2949 2.18189 11.6175 2.18189 8.32646C2.18189 5.03537 4.95507 2.35798 8.36391 2.35798Z"/>
</svg>
