<svg width="80" height="82" viewBox="0 0 80 82" fill="none" xmlns="http://www.w3.org/2000/svg">
<path d="M32.293 16.098C27.937 20.4539 25.5381 26.2453 25.5381 32.4055C25.5381 45.1512 35.8528 55.4678 48.6005 55.4678C54.7606 55.4678 60.5522 53.0689 64.9079 48.713C69.2637 44.357 71.6628 38.5657 71.6628 32.4055C71.6628 26.2453 69.2639 20.4538 64.9079 16.098C60.552 11.7422 54.7606 9.34317 48.6005 9.34317C42.4403 9.34317 36.6488 11.742 32.293 16.098ZM69.3184 32.4056C69.3184 37.9396 67.1634 43.1424 63.2503 47.0555C59.3371 50.9687 54.1344 53.1236 48.6005 53.1236C37.1501 53.1236 27.8825 43.8572 27.8825 32.4056C27.8825 26.8717 30.0376 21.6688 33.9506 17.7558C37.8637 13.8427 43.0665 11.6877 48.6005 11.6877C60.0507 11.6875 69.3184 20.9539 69.3184 32.4056Z" fill="url(#paint0_linear)"/>
<path d="M38.5903 39.5347C38.1326 39.077 37.3904 39.077 36.9327 39.5347C36.4749 39.9925 36.4749 40.7346 36.9327 41.1924L38.7386 42.9985C38.9674 43.2273 39.2675 43.3418 39.5675 43.3418C40.6024 43.3418 41.1369 42.0813 40.3964 41.3407L38.5903 39.5347Z" fill="url(#paint1_linear)"/>
<path d="M57.5357 24.2013C57.7645 24.4301 58.0645 24.5445 58.3646 24.5445C59.3995 24.5445 59.9339 23.284 59.1935 22.5435L57.3874 20.7374C56.9296 20.2797 56.1875 20.2797 55.7297 20.7374C55.272 21.1952 55.272 21.9373 55.7297 22.3951L57.5357 24.2013Z" fill="url(#paint2_linear)"/>
<path d="M46.5146 34.0258C45.8689 33.9816 45.3093 34.469 45.2649 35.1149C45.2205 35.7608 45.7081 36.3203 46.354 36.3646C49.8934 36.6067 52.8005 33.6704 52.5595 30.1591C52.5151 29.5132 51.9562 29.0257 51.3097 29.07C50.6638 29.1144 50.1762 29.6739 50.2206 30.3198C50.2895 31.3244 49.922 32.3075 49.2122 33.0173C48.5022 33.7271 47.5189 34.0947 46.5146 34.0258Z" fill="url(#paint3_linear)"/>
<path d="M9.2478 81.0073C11.6173 81.0073 13.9869 80.1054 15.7909 78.3013C15.8088 78.2833 31.9719 59.1025 31.9899 59.0811C36.9253 62.1674 42.6356 63.8202 48.6006 63.8202C56.9918 63.8202 64.8807 60.5526 70.8141 54.619C83.0626 42.3704 83.0626 22.4405 70.8141 10.1919C66.1209 5.49888 60.1864 2.45833 53.6523 1.39923C53.0128 1.29562 52.4111 1.7296 52.3076 2.36878C52.204 3.0078 52.6382 3.60994 53.2772 3.7134C59.3225 4.69342 64.8135 7.5069 69.1565 11.8499C80.4909 23.1844 80.4909 41.627 69.1565 52.9616C63.6658 58.4522 56.3656 61.4761 48.6006 61.4761C42.83 61.4761 37.2551 59.8133 32.4165 56.5589C17.27 46.3857 15.092 24.8025 28.0447 11.8499C33.5964 6.29809 40.9803 3.27488 48.8351 3.33833C49.4815 3.34333 50.0116 2.82292 50.0168 2.17546C50.0219 1.52816 49.5014 0.999156 48.8541 0.993843C40.3661 0.925705 32.3865 4.19239 26.387 10.1921C15.8685 20.7105 14.3831 36.8933 21.9299 49.0119L11.5115 57.7951C11.0166 58.2124 10.9536 58.9519 11.371 59.4468C11.7881 59.9417 12.5276 60.0049 13.0227 59.5874L23.251 50.9645C25.1446 53.5454 27.4585 55.859 30.0397 57.7571C30.0264 57.7729 14.1488 76.6279 14.1332 76.6435C11.4395 79.3373 7.05631 79.3373 4.36254 76.6435C1.35137 73.6323 1.73831 68.5661 5.31178 66.0814C5.3971 66.0222 5.16097 66.213 9.42502 62.6205C9.91996 62.2032 9.98294 61.4637 9.56552 60.9688C9.14825 60.4739 8.4089 60.4107 7.91381 60.8281L3.92746 64.1889C-0.78433 67.5062 -1.33896 74.2576 2.70474 78.3013C4.50866 80.1054 6.87831 81.0073 9.2478 81.0073Z" fill="url(#paint4_linear)"/>
<defs>
<linearGradient id="paint0_linear" x1="1.50848" y1="44.166" x2="77.9901" y2="44.105" gradientUnits="userSpaceOnUse">
<stop stop-color="#8F6D55"/>
<stop offset="1" stop-color="#4D4444"/>
</linearGradient>
<linearGradient id="paint1_linear" x1="1.50848" y1="44.166" x2="77.9901" y2="44.105" gradientUnits="userSpaceOnUse">
<stop stop-color="#8F6D55"/>
<stop offset="1" stop-color="#4D4444"/>
</linearGradient>
<linearGradient id="paint2_linear" x1="1.50848" y1="44.166" x2="77.9901" y2="44.105" gradientUnits="userSpaceOnUse">
<stop stop-color="#8F6D55"/>
<stop offset="1" stop-color="#4D4444"/>
</linearGradient>
<linearGradient id="paint3_linear" x1="1.50848" y1="44.166" x2="77.9901" y2="44.105" gradientUnits="userSpaceOnUse">
<stop stop-color="#8F6D55"/>
<stop offset="1" stop-color="#4D4444"/>
</linearGradient>
<linearGradient id="paint4_linear" x1="1.50848" y1="44.166" x2="77.9901" y2="44.105" gradientUnits="userSpaceOnUse">
<stop stop-color="#8F6D55"/>
<stop offset="1" stop-color="#4D4444"/>
</linearGradient>
</defs>
</svg>
