<?xml version="1.0" encoding="utf-8"?>
<!-- Generator: Adobe Illustrator 21.1.0, SVG Export Plug-In . SVG Version: 6.00 Build 0)  -->
<svg version="1.1" id="object" xmlns="http://www.w3.org/2000/svg" xmlns:xlink="http://www.w3.org/1999/xlink" x="0px" y="0px"
	 viewBox="0 0 306 213" style="enable-background:new 0 0 306 213;" xml:space="preserve">
<style type="text/css">
	
		.st0{clip-path:url(#SVGID_2_);fill:#FFFFFF;stroke:#404040;stroke-width:2.8346;stroke-linecap:round;stroke-linejoin:round;stroke-miterlimit:10;}
	.st1{clip-path:url(#SVGID_4_);}
	.st2{fill:#FFFFFF;stroke:#404040;stroke-width:2.8346;stroke-linecap:round;stroke-linejoin:round;stroke-miterlimit:10;}
	.st3{fill:none;stroke:#404040;stroke-width:2.8346;stroke-linecap:round;stroke-linejoin:round;stroke-miterlimit:10;}
	.st4{fill:#FFFFFF;}
	.st5{fill:#404040;}
	.st6{fill:url(#SVGID_5_);}
</style>
<linearGradient id="SVGID_2_" gradientUnits="userSpaceOnUse" x1="55.788" y1="106.4947" x2="250.1967" y2="106.4947">
	<stop  offset="0" style="stop-color:#936A43"/>
	<stop  offset="0.3172" style="stop-color:#936A43"/>
	<stop  offset="0.7059" style="stop-color:#624740"/>
	<stop  offset="0.9909" style="stop-color:#4D3C3F"/>
</linearGradient>
<path style="fill:url(#SVGID_2_);" d="M105,46l-1.4,10.4c-0.1,0.7-0.7,1.2-1.4,1.2c-0.1,0-0.1,0-0.2,0c-0.8-0.1-1.3-0.8-1.2-1.6
	l1.4-10.4c0.1-0.8,0.8-1.3,1.6-1.2C104.6,44.5,105.1,45.2,105,46z M111.7,138.9c0.1,0.7,0.7,1.2,1.4,1.2c0.1,0,0.2,0,0.2,0
	c0.8-0.1,1.3-0.9,1.2-1.6l-2.5-14.8c-0.1-0.8-0.9-1.3-1.6-1.2c-0.8,0.1-1.3,0.9-1.2,1.6L111.7,138.9z M113.8,142.8
	c-0.8,0.1-1.3,0.9-1.2,1.6l0.3,1.8c0.1,0.7,0.7,1.2,1.4,1.2c0.1,0,0.2,0,0.2,0c0.8-0.1,1.3-0.9,1.2-1.6l-0.3-1.8
	C115.3,143.2,114.6,142.7,113.8,142.8z M115,150.1c-0.8,0.1-1.3,0.9-1.2,1.6l2.5,15c0.1,0.7,0.7,1.2,1.4,1.2c0.1,0,0.2,0,0.2,0
	c0.8-0.1,1.3-0.9,1.2-1.6l-2.5-15C116.5,150.5,115.8,149.9,115,150.1z M193.8,140.1c0.1,0,0.2,0,0.2,0c0.7,0,1.3-0.5,1.4-1.2l2.5-15
	c0.1-0.8-0.4-1.5-1.2-1.6c-0.8-0.1-1.5,0.4-1.6,1.2l-2.5,15C192.5,139.2,193.1,140,193.8,140.1z M192.6,147.4c0.1,0,0.2,0,0.2,0
	c0.7,0,1.3-0.5,1.4-1.2l0.3-1.8c0.1-0.8-0.4-1.5-1.2-1.6c-0.8-0.1-1.5,0.4-1.6,1.2l-0.3,1.8C191.3,146.5,191.9,147.3,192.6,147.4z
	 M189.2,167.9c0.1,0,0.2,0,0.2,0c0.7,0,1.3-0.5,1.4-1.2l2.5-15c0.1-0.8-0.4-1.5-1.2-1.6c-0.8-0.1-1.5,0.4-1.6,1.2l-2.5,15
	C187.9,167,188.4,167.7,189.2,167.9z M139.9,140.1c0,0,0.1,0,0.1,0c0.8-0.1,1.4-0.8,1.3-1.5l-1.4-14.7c-0.1-0.8-0.8-1.3-1.5-1.3
	c-0.8,0.1-1.4,0.8-1.3,1.5l1.4,14.7C138.6,139.5,139.2,140.1,139.9,140.1z M139,144.3l0.2,1.8c0.1,0.7,0.7,1.3,1.4,1.3
	c0,0,0.1,0,0.1,0c0.8-0.1,1.4-0.8,1.3-1.5l-0.2-1.8c-0.1-0.8-0.8-1.3-1.5-1.3C139.5,142.9,139,143.6,139,144.3z M139.7,151.6
	l1.4,14.8c0.1,0.7,0.7,1.3,1.4,1.3c0,0,0.1,0,0.1,0c0.8-0.1,1.4-0.8,1.3-1.5l-1.4-14.8c-0.1-0.8-0.8-1.3-1.5-1.3
	C140.2,150.1,139.6,150.8,139.7,151.6z M167.2,140.1c0,0,0.1,0,0.1,0c0.7,0,1.3-0.5,1.4-1.3l1.4-14.9c0.1-0.8-0.5-1.5-1.3-1.5
	c-0.8-0.1-1.5,0.5-1.5,1.3l-1.4,14.9C165.9,139.4,166.5,140,167.2,140.1z M166.5,147.4c0,0,0.1,0,0.1,0c0.7,0,1.3-0.5,1.4-1.3
	l0.2-1.8c0.1-0.8-0.5-1.5-1.3-1.5c-0.8-0.1-1.5,0.5-1.5,1.3l-0.2,1.8C165.2,146.6,165.8,147.3,166.5,147.4z M164.6,167.7
	c0,0,0.1,0,0.1,0c0.7,0,1.3-0.5,1.4-1.3l1.4-14.9c0.1-0.8-0.5-1.5-1.3-1.5c-0.8-0.1-1.5,0.5-1.5,1.3l-1.4,14.9
	C163.2,167,163.8,167.7,164.6,167.7z M250,42.8l-28,44.7c0.6,2.1,1,4.4,1.1,6.7h2.2c2,0,3.6,1.6,3.6,3.6v14.8c0,2-1.6,3.6-3.6,3.6
	h-2l-8.9,52.9c-0.7,3.9-3.7,7.8-8.9,7.8H101.8c-5.1,0-8.1-3.9-8.9-7.8l-8.9-53h-3.2c-2,0-3.6-1.6-3.6-3.6V97.8c0-2,1.6-3.6,3.6-3.6
	h2.5c0.8,0,1.4,0.6,1.4,1.4S84.1,97,83.3,97h-2.5c-0.4,0-0.8,0.3-0.8,0.8v14.8c0,0.4,0.3,0.8,0.8,0.8h144.5c0.4,0,0.7-0.3,0.7-0.8
	V97.8c0-0.4-0.3-0.8-0.7-0.8H222c-0.1,0-0.2,0-0.3,0s-0.2,0-0.3,0h-1.3c-0.8,0-1.4-0.6-1.4-1.4s0.6-1.4,1.4-1.4h0.1
	c-0.1-1.1-0.2-2.2-0.4-3.3l-6.9,11.1c-0.3,0.4-0.7,0.7-1.2,0.7c-0.3,0-0.5-0.1-0.8-0.2c-0.7-0.4-0.9-1.3-0.4-2l8.4-13.4
	c-3.6-10.8-13.7-18.5-25.7-18.5c-14.4,0-26.3,11.4-27,25.6h13.7c0.7-6.7,6.4-12,13.4-12s12.6,5.3,13.4,12h0.8c0.8,0,1.4,0.6,1.4,1.4
	s-0.6,1.4-1.4,1.4h-1.9c-0.1,0-0.2,0-0.3,0s-0.2,0-0.3,0h-23.4c-0.1,0-0.2,0-0.3,0s-0.2,0-0.3,0H165c-0.1,0-0.2,0-0.3,0
	s-0.2,0-0.3,0H98.6c-0.8,0-1.4-0.6-1.4-1.4s0.6-1.4,1.4-1.4h6.1l0.1-4.6c-6.2-0.7-11-5.9-11-12.3c0-5.5,3.7-28.8,5.1-37.6l0.4-2.4
	c0.1-0.7,0.8-1.2,1.5-1.2c0,0,0.1,0,0.1,0h10.7c0,0,0,0,0.1,0c0.7,0,1.3,0.5,1.4,1.2c0.7,4.2,2.2,13.6,3.5,22.3
	c0.2-0.5,0.4-1,0.5-1.5l0.5-1.3c0.2-0.6,0.7-1,1.3-1h15.1c0.6,0,1.1,0.4,1.3,1l0.5,1.3c0.1,0.4,0.3,0.7,0.4,1.1
	c8.2-10.9,21-17.3,34.7-17.3c19.1,0,36.2,12.7,41.7,30.9c3.5,3,6.4,6.8,8.2,11.2l26.8-42.8c0.4-0.7,1.3-0.9,2-0.4
	C250.2,41.2,250.4,42.1,250,42.8z M182.7,94.2h21c-0.7-5.2-5.1-9.1-10.5-9.1S183.4,89,182.7,94.2z M106.2,86.9
	c5.3,0,9.6-4.3,9.6-9.5c0-4.4-2.7-22.5-5.3-38.4h-8.6l-0.2,1.3c-1.4,8.7-5.1,31.8-5.1,37.1C96.7,82.6,100.9,86.9,106.2,86.9z
	 M111.8,94.2c-0.9-1.6-1.4-3.3-1.7-5.1c-0.8,0.3-1.6,0.4-2.5,0.5l-0.1,4.6H111.8z M140,86.5c0-7.5-4.7-21-7-27.4l-0.1-0.4h-13.1
	l-0.1,0.4c-0.7,1.9-1.5,4.2-2.3,6.8c0.2,1.6,0.4,3.1,0.6,4.5l2.3-8.8c0.2-0.8,1-1.2,1.7-1c0.8,0.2,1.2,1,1,1.7l-2.7,10.1
	c-0.2,0.6-0.7,1.1-1.4,1.1c-0.1,0-0.2,0-0.4,0c-0.1,0-0.2-0.1-0.3-0.1c0.2,1.8,0.3,3.2,0.3,4.1c0,4.4-2.3,8.2-5.8,10.4
	c0.2,2.3,1,4.5,2.3,6.4h22.5C139.2,91.9,140,89.3,140,86.5z M179.1,69.2c-2.6-1.3-5.4-2-8.3-2c-10.1,0-18.3,8.2-18.3,18.3
	c0,3.1,0.7,6,2.2,8.6h8.6C163.8,83.4,170.1,74.1,179.1,69.2z M208.5,70c-6.2-15-21.1-25.2-37.6-25.2c-13.5,0-26,6.6-33.6,17.7
	c2.5,7.3,5.6,17.4,5.6,23.9c0,2.7-0.7,5.3-1.9,7.7h10.6c-1.2-2.7-1.8-5.6-1.8-8.6c0-11.7,9.5-21.1,21.1-21.1c4.1,0,8,1.2,11.4,3.4
	c3.4-1.3,7-2.1,10.9-2.1C198.8,65.7,204,67.3,208.5,70z M220.4,116.1H86.9l8.8,52.5c0.2,0.9,1.2,5.5,6.1,5.5h103.7
	c4.8,0,5.9-4.6,6.1-5.5L220.4,116.1z M94.3,102.6c0.3,0,0.5-0.1,0.8-0.2c0.7-0.4,0.9-1.3,0.4-2L58.4,41.3c-0.4-0.7-1.3-0.9-2-0.4
	c-0.7,0.4-0.9,1.3-0.4,2L93.1,102C93.4,102.4,93.8,102.6,94.3,102.6z"/>
</svg>
