<svg width="157" height="28" viewBox="0 0 157 28" fill="none" xmlns="http://www.w3.org/2000/svg">
<path d="M6.78029 13.4539C4.54214 13.4539 3.83449 12.9767 3.83449 11.4299V7.41492C6.50052 7.43137 7.19172 8.08956 7.19172 9.50469H7.81709V4.65048H7.19172C7.19172 6.08206 6.38532 6.6909 3.83449 6.6909V1.58986C3.83449 1.40886 3.93323 1.29367 4.13071 1.29367H6.38532C8.80451 1.29367 9.70964 1.77086 9.98941 3.66318H10.6148L10.4502 0.536743H0.181027V1.21139C1.71153 1.27721 1.95839 1.58986 1.95839 3.23536V11.5122C1.95839 13.1742 1.67862 13.4868 0 13.5361V14.2108H11.0262L11.2895 10.7059H10.6148C10.1704 12.8286 9.28176 13.4539 6.78029 13.4539Z" fill="black"/>
<path d="M30.6589 10.8706V3.91016C30.6589 1.75456 30.8893 1.27738 32.4198 1.22801V0.553345H28.4373L23.8128 11.0516H23.747L19.2707 0.553345H15.0248V1.22801C16.5553 1.29383 16.8021 1.77103 16.8021 3.77853V10.9858C16.8021 13.1907 16.5224 13.4869 14.8438 13.5363V14.2109H19.7973V13.5363C18.1352 13.4869 17.8554 13.1908 17.8554 10.8542V2.74186H17.9212L23.0229 14.392H23.4179L28.6018 2.74186H28.7828V10.9858C28.7828 13.1907 28.5031 13.4869 26.8245 13.5363V14.2109H32.5844V13.5363C30.9223 13.5034 30.6589 13.2072 30.6589 10.8706Z" fill="black"/>
<path d="M41.9162 0.553345H36.3373V1.22801C37.8678 1.29383 38.1146 1.60646 38.1146 3.25196V11.5288C38.1146 13.1908 37.8349 13.5034 36.1562 13.5527V14.2274H42.4264V13.5527C40.2705 13.5527 39.9743 13.1908 39.9743 11.4465V8.00744H41.5706C45.5368 8.00744 47.0343 6.46068 47.0343 3.97598C47.0508 1.83684 45.1582 0.553345 41.9162 0.553345ZM41.2415 7.11887H39.9743V1.68874C39.9743 1.50774 40.073 1.39256 40.2705 1.39256H41.8998C43.8417 1.39256 44.7304 2.21531 44.7304 4.20635C44.7468 6.26322 43.5784 7.11887 41.2415 7.11887Z" fill="black"/>
<path d="M53.3883 10.8706V3.91016C53.3883 1.75456 53.6187 1.27738 55.1492 1.22801V0.553345H49.7513V1.22801C51.2818 1.29383 51.5287 1.77103 51.5287 3.77853V10.9858C51.5287 13.1907 51.2489 13.4869 49.5703 13.5363V14.2109H55.3303V13.5363C53.6517 13.5034 53.3883 13.2072 53.3883 10.8706Z" fill="black"/>
<path d="M69.8425 12.3186L65.9093 7.59607C68.3943 7.16824 69.4805 5.85184 69.4805 3.97598C69.4805 1.82038 67.6044 0.553345 64.3459 0.553345H58.767V1.22801C60.2975 1.29383 60.5443 1.60646 60.5443 3.25196V11.5288C60.5443 13.1908 60.2646 13.5034 58.5859 13.5527V14.2274H64.8561V13.5527C62.7002 13.5527 62.404 13.1908 62.404 11.4465V7.76062C63.5066 7.76062 63.8522 7.84289 64.4775 8.66564L68.8222 14.2439H72.2453V13.5692C71.2414 13.3882 70.4844 13.1085 69.8425 12.3186ZM63.6876 6.8556H62.4204V1.68874C62.4204 1.50774 62.5192 1.39256 62.7167 1.39256H64.3459C66.2878 1.39256 67.1765 2.18239 67.1765 4.07471C67.193 6.03284 66.0245 6.8556 63.6876 6.8556Z" fill="black"/>
<path d="M81.3154 13.4539C79.0773 13.4539 78.3696 12.9767 78.3696 11.4299V7.41492C81.0357 7.43137 81.7269 8.08956 81.7269 9.50469H82.3522V4.65048H81.7269C81.7269 6.08206 80.9205 6.6909 78.3696 6.6909V1.58986C78.3696 1.40886 78.4684 1.29367 78.6659 1.29367H80.9205C83.3397 1.29367 84.2448 1.77086 84.5246 3.66318H85.1499L84.9854 0.536743H74.7162V1.21139C76.2467 1.27721 76.4935 1.58986 76.4935 3.23536V11.5122C76.4935 13.1742 76.2138 13.4868 74.5352 13.5361V14.2108H85.5614L85.8247 10.7059H85.1499C84.7056 12.8286 83.8334 13.4539 81.3154 13.4539Z" fill="black"/>
<path d="M109.819 11.397V3.36701C109.819 1.57342 110.049 1.27721 111.58 1.21139V0.536743H106.182V1.21139C107.712 1.27721 107.959 1.58986 107.959 3.23536V6.77317H100.767V3.36701C100.767 1.57342 100.998 1.27721 102.528 1.21139V0.536743H97.1303V1.21139C98.6608 1.27721 98.9076 1.58986 98.9076 3.23536V11.5122C98.9076 13.1742 98.6278 13.4868 96.9492 13.5361V14.2108H102.709V13.5361C101.047 13.4868 100.767 13.1906 100.767 11.3806V7.67819H107.959V11.5287C107.959 13.1906 107.679 13.5032 106.001 13.5526V14.2273H111.761V13.5526C110.082 13.5032 109.819 13.207 109.819 11.397Z" fill="black"/>
<path d="M125.664 10.5578L121.632 0.536743H120.875L116.251 12.1046C115.839 13.1248 115.395 13.421 114.309 13.5361V14.2108H118.62V13.5361C117.649 13.5361 117.238 13.3222 117.238 12.664C117.238 12.1869 117.518 11.216 118.341 9.25786H123.08L123.804 11.1831C124.117 12.0058 124.216 12.302 124.216 12.7628C124.216 13.3058 123.821 13.5197 122.57 13.5197V14.2108H128.363V13.5197C127.129 13.5362 126.75 13.2235 125.664 10.5578ZM118.703 8.38576L120.776 3.15308L122.751 8.38576H118.703Z" fill="black"/>
<path d="M137.911 13.421C135.459 13.421 134.752 13.0096 134.752 11.0186V3.36701C134.752 1.57342 134.982 1.27721 136.513 1.21139V0.536743H131.115V1.21139C132.645 1.27721 132.892 1.58986 132.892 3.23536V11.5122C132.892 13.1742 132.612 13.4868 130.934 13.5361V14.2108H142.404L142.667 10.7059H141.993C141.483 12.9273 140.627 13.421 137.911 13.421Z" fill="black"/>
<path d="M156.325 10.7224C155.815 12.9273 154.959 13.421 152.243 13.421C149.791 13.421 149.084 13.0096 149.084 11.0186V3.36701C149.084 1.57342 149.314 1.27721 150.845 1.21139V0.536743H145.447V1.21139C146.977 1.27721 147.224 1.58986 147.224 3.23536V11.5122C147.224 13.1742 146.944 13.4868 145.266 13.5361V14.2108H156.736L156.999 10.7059H156.325V10.7224Z" fill="black"/>
<path d="M36.8798 22.8002V22.9977H36.9127C37.1102 23.047 37.2089 23.0799 37.2418 23.1129C37.357 23.1951 37.4064 23.3268 37.4064 23.5078C37.4064 23.6888 37.3406 23.952 37.1925 24.3141L36.2709 26.733L35.3657 24.4128C35.267 24.1495 35.1847 23.9356 35.1518 23.804C35.1189 23.6723 35.1024 23.5407 35.1024 23.442C35.1024 23.2774 35.1518 23.1622 35.267 23.0964C35.2999 23.0635 35.3986 23.0306 35.6126 22.9812H35.6455V22.7838H33.3086V22.9812H33.3415C33.4732 22.9977 33.5555 23.0306 33.6213 23.047C33.6871 23.0799 33.7365 23.1128 33.7858 23.1787C33.8846 23.2938 34.0492 23.623 34.2631 24.1824L35.7278 27.8025L35.7442 27.819H36.1063L37.4722 24.347C37.6862 23.7875 37.8836 23.4255 38.0482 23.2609C38.1799 23.1293 38.3444 23.0306 38.5584 22.9812H38.5913V22.7838H36.8798V22.8002Z" fill="black"/>
<path d="M40.961 21.6813C41.1256 21.6813 41.2573 21.6319 41.3725 21.5332C41.4712 21.4345 41.537 21.3028 41.537 21.1383C41.537 20.9902 41.4877 20.8585 41.3725 20.7433C41.2573 20.6446 41.1256 20.5788 40.9775 20.5788C40.8129 20.5788 40.6813 20.6282 40.5825 20.7433C40.4673 20.8421 40.418 20.9737 40.418 21.1383C40.418 21.3028 40.4673 21.4345 40.5825 21.5332C40.6648 21.6155 40.7965 21.6813 40.961 21.6813Z" fill="black"/>
<path d="M42.2612 27.6709C41.9814 27.6215 41.7839 27.5393 41.6687 27.4405C41.5865 27.3583 41.5206 27.2595 41.5042 27.1444C41.4713 27.0292 41.4548 26.8317 41.4548 26.5684V26.1241V22.718L39.6939 22.9319V23.1129H39.7268C39.8914 23.1293 40.023 23.1458 40.1218 23.1952C40.2041 23.2445 40.2864 23.3103 40.3522 23.4255C40.418 23.5242 40.4509 23.6559 40.4838 23.804C40.5003 23.9685 40.5168 24.2483 40.5168 24.6432V26.0748C40.5168 26.4203 40.5003 26.6836 40.4838 26.8482C40.4674 27.0292 40.4345 27.1608 40.4016 27.2431C40.3357 27.3747 40.2699 27.457 40.1712 27.5228C40.0724 27.5722 39.9078 27.6215 39.6774 27.6545H39.6445V27.8355H42.2941V27.6545L42.2612 27.6709Z" fill="black"/>
<path d="M46.7868 22.8002V22.9977H46.8198C47.0172 23.047 47.116 23.0799 47.1489 23.1129C47.2641 23.1951 47.3135 23.3268 47.3135 23.5078C47.3135 23.6888 47.2476 23.952 47.0995 24.3141L46.1779 26.733L45.2728 24.4128C45.1741 24.1495 45.0918 23.9356 45.0589 23.804C45.0259 23.6723 45.0095 23.5407 45.0095 23.442C45.0095 23.2774 45.0589 23.1622 45.1741 23.0964C45.207 23.0635 45.3057 23.0306 45.5197 22.9812H45.5526V22.7838H43.1992V22.9812H43.2321C43.3638 22.9977 43.4461 23.0306 43.5119 23.047C43.5777 23.0799 43.6271 23.1128 43.6765 23.1787C43.7752 23.2938 43.9398 23.623 44.1537 24.1824L45.6184 27.8025L45.6349 27.819H45.9969L47.3628 24.347C47.5768 23.7875 47.7743 23.4255 47.9388 23.2609C48.0705 23.1293 48.2351 23.0306 48.449 22.9812H48.4819V22.7838H46.7868V22.8002Z" fill="black"/>
<path d="M53.6842 26.4532L53.6677 26.4862C53.569 26.7823 53.4538 26.9962 53.3221 27.1279C53.2069 27.2431 53.0424 27.3418 52.8613 27.4076C52.6803 27.4735 52.4828 27.5064 52.2689 27.5064C51.9891 27.5064 51.7258 27.4405 51.4625 27.3254C51.2156 27.2102 51.0017 27.0292 50.8207 26.8153C50.6561 26.6013 50.5244 26.3381 50.4257 26.0254C50.3269 25.7128 50.2776 25.3672 50.2776 25.0381C50.2776 24.9558 50.2776 24.8242 50.294 24.6596H53.7335V24.6267C53.7335 24.1331 53.5854 23.7053 53.2892 23.3762C53.1082 23.1622 52.8778 22.9977 52.598 22.8825C52.3347 22.7673 52.0385 22.718 51.7258 22.718C51.1333 22.718 50.6067 22.899 50.1459 23.2774C49.5041 23.7875 49.1914 24.4786 49.1914 25.3672C49.1914 26.009 49.356 26.5684 49.7016 27.0127C49.9484 27.3254 50.2447 27.5722 50.5903 27.7203C50.9359 27.8684 51.3637 27.9506 51.841 27.9506C52.4005 27.9506 52.8613 27.8355 53.1905 27.5886C53.5361 27.3583 53.75 26.9963 53.8652 26.5355V26.5026L53.6842 26.4532ZM50.3599 24.3635C50.4092 23.9521 50.5573 23.6065 50.7877 23.3268C51.0346 23.047 51.3144 22.899 51.6435 22.899C51.841 22.899 52.022 22.9483 52.1866 23.0635C52.3512 23.1787 52.4993 23.3268 52.598 23.5078C52.7132 23.7052 52.779 23.985 52.812 24.3635H50.3599Z" fill="black"/>
<path d="M58.8995 22.899C58.7678 22.7838 58.5539 22.718 58.2906 22.718C57.8792 22.718 57.5006 22.8332 57.1715 23.0635C57.0234 23.1787 56.8753 23.3268 56.7436 23.5243C56.7272 23.2939 56.6942 23.0306 56.6449 22.7344V22.7015L55.0979 22.9154H55.065V23.0964H55.0979C55.2625 23.1129 55.3941 23.1294 55.4929 23.1787C55.5752 23.2281 55.6575 23.2939 55.7233 23.4091C55.7891 23.5078 55.822 23.6395 55.8549 23.7876C55.8714 23.9521 55.8879 24.2318 55.8879 24.6268V26.0583C55.8879 26.4039 55.8714 26.6672 55.8549 26.8317C55.8385 27.0127 55.8056 27.1444 55.7727 27.2267C55.7068 27.3583 55.641 27.4406 55.5423 27.5064C55.4435 27.5558 55.2789 27.6051 55.0485 27.638H55.0156V27.819H57.6652V27.638H57.6323C57.3525 27.5887 57.155 27.5064 57.0398 27.4077C56.9576 27.3254 56.8917 27.2267 56.8753 27.1115C56.8424 26.9963 56.8259 26.7988 56.8259 26.5355V26.0913V25.0052C56.8259 24.3964 56.8917 23.9192 57.0398 23.5901C57.188 23.261 57.369 23.0964 57.6323 23.0964C57.8133 23.0964 57.9779 23.1623 58.1096 23.3104L58.2906 23.5078C58.3893 23.623 58.521 23.6888 58.6691 23.6888C58.7843 23.6888 58.8995 23.6559 58.9653 23.5736C59.0476 23.4914 59.0805 23.3926 59.0805 23.2775C59.097 23.1458 59.0311 22.9977 58.8995 22.899Z" fill="black"/>
<path d="M64.4459 26.4532L64.4294 26.4862C64.3307 26.7823 64.2155 26.9962 64.0838 27.1279C63.9686 27.2431 63.8041 27.3418 63.623 27.4076C63.442 27.4735 63.2445 27.5064 63.0306 27.5064C62.7508 27.5064 62.4875 27.4405 62.2242 27.3254C61.9773 27.2102 61.7634 27.0292 61.5824 26.8153C61.4178 26.6013 61.2861 26.3381 61.1874 26.0254C61.0887 25.7128 61.0393 25.3672 61.0393 25.0381C61.0393 24.9558 61.0393 24.8242 61.0557 24.6596H64.4953V24.6267C64.4953 24.1331 64.3472 23.7053 64.0509 23.3762C63.8699 23.1622 63.6395 22.9977 63.3597 22.8825C63.0964 22.7673 62.8002 22.718 62.4875 22.718C61.8951 22.718 61.3684 22.899 60.9076 23.2774C60.2658 23.7875 59.9531 24.4786 59.9531 25.3672C59.9531 26.009 60.1177 26.5684 60.4633 27.0127C60.7101 27.3254 61.0064 27.5722 61.352 27.7203C61.6976 27.8684 62.1255 27.9506 62.6027 27.9506C63.1622 27.9506 63.623 27.8355 63.9522 27.5886C64.2978 27.3583 64.5117 26.9963 64.6269 26.5355V26.5026L64.4459 26.4532ZM61.1216 24.3635C61.1709 23.9521 61.3191 23.6065 61.5495 23.3268C61.7963 23.047 62.0761 22.899 62.4052 22.899C62.6027 22.899 62.7837 22.9483 62.9483 23.0635C63.1129 23.1787 63.261 23.3268 63.3597 23.5078C63.4749 23.7052 63.5408 23.985 63.5737 24.3635H61.1216Z" fill="black"/>
<path d="M70.6993 21.6813C70.8639 21.6813 70.9956 21.6319 71.1108 21.5332C71.2095 21.4345 71.2753 21.3028 71.2753 21.1383C71.2753 20.9902 71.226 20.8585 71.1108 20.7433C70.9956 20.6446 70.8639 20.5788 70.7158 20.5788C70.5512 20.5788 70.4196 20.6282 70.3208 20.7433C70.2056 20.8421 70.1562 20.9737 70.1562 21.1383C70.1562 21.3028 70.2056 21.4345 70.3208 21.5332C70.4031 21.6155 70.5348 21.6813 70.6993 21.6813Z" fill="black"/>
<path d="M71.9995 27.6709C71.7197 27.6215 71.5222 27.5393 71.407 27.4405C71.3247 27.3583 71.2589 27.2595 71.2425 27.1444C71.2095 27.0292 71.1931 26.8317 71.1931 26.5684V26.1241V22.718L69.4322 22.9319V23.1129H69.4651C69.6297 23.1293 69.7613 23.1458 69.8601 23.1952C69.9424 23.2445 70.0246 23.3103 70.0905 23.4255C70.1563 23.5242 70.1892 23.6559 70.2221 23.804C70.2386 23.9685 70.255 24.2483 70.255 24.6432V26.0748C70.255 26.4203 70.2386 26.6836 70.2221 26.8482C70.2057 27.0292 70.1728 27.1608 70.1398 27.2431C70.074 27.3747 70.0082 27.457 69.9094 27.5228C69.8107 27.5722 69.6461 27.6215 69.4157 27.6545H69.3828V27.8355H72.0324V27.6545L71.9995 27.6709Z" fill="black"/>
<path d="M78.8771 27.6709C78.5973 27.6215 78.3998 27.5393 78.2846 27.4405C78.2024 27.3583 78.1365 27.2595 78.1201 27.1444C78.0872 27.0292 78.0707 26.8317 78.0707 26.5684V24.0837C78.0707 23.6559 77.9226 23.3103 77.6099 23.08C77.2972 22.8496 76.8858 22.718 76.3756 22.718C75.7338 22.718 75.1578 22.9483 74.6805 23.4091V23.3926C74.6805 23.1951 74.6476 22.9812 74.5983 22.7509V22.718L72.969 22.9319H72.9361V23.1129H72.969C73.1336 23.1293 73.2652 23.1458 73.364 23.1952C73.4463 23.2445 73.5285 23.3103 73.5944 23.4255C73.6602 23.5242 73.6931 23.6559 73.726 23.804C73.7425 23.9685 73.7589 24.2483 73.7589 24.6432V26.0748C73.7589 26.4203 73.7425 26.6836 73.726 26.8482C73.7096 27.0292 73.6767 27.1608 73.6437 27.2431C73.5779 27.3747 73.5121 27.457 73.4133 27.5228C73.3146 27.5722 73.15 27.6215 72.9196 27.6545H72.8867V27.8355H75.5363V27.6545H75.5034C75.2236 27.6051 75.0261 27.5228 74.9109 27.4241C74.8287 27.3418 74.7628 27.2431 74.7464 27.1279C74.7135 27.0127 74.697 26.8152 74.697 26.552V26.1241V24.9723C74.697 24.528 74.7135 24.1989 74.7464 24.0014C74.7793 23.804 74.8616 23.6394 74.9768 23.4913C75.0755 23.3432 75.2236 23.2281 75.4047 23.1458C75.5857 23.0635 75.7832 23.0141 75.9971 23.0141C76.1946 23.0141 76.3756 23.0471 76.5402 23.1293C76.7048 23.1952 76.82 23.3103 76.9187 23.442C77.001 23.5572 77.0504 23.7052 77.0833 23.9027C77.1162 24.1002 77.1326 24.4128 77.1326 24.8407V26.0748C77.1326 26.4203 77.1162 26.6672 77.0997 26.8482C77.0833 27.0292 77.0504 27.1608 77.0174 27.2431C76.9516 27.3747 76.8858 27.457 76.787 27.5228C76.6883 27.5722 76.5237 27.6215 76.2933 27.6545H76.2604V27.8355H78.91V27.6545L78.8771 27.6709Z" fill="black"/>
<path d="M89.3124 27.5557C88.9997 27.5557 88.7693 27.4734 88.6376 27.2924C88.506 27.1114 88.4402 26.7988 88.4402 26.371V19.5586L86.5805 19.789V19.9864H86.6134C86.9261 19.9864 87.1565 20.0687 87.2882 20.2497C87.4198 20.4307 87.4856 20.7269 87.4856 21.1383V23.2281C87.2223 23.0141 86.9919 22.8825 86.7945 22.8002C86.5805 22.718 86.3172 22.6686 86.021 22.6686C85.4121 22.6686 84.869 22.866 84.4082 23.2445C84.1284 23.4913 83.898 23.804 83.7499 24.166C83.5854 24.528 83.5195 24.9394 83.5195 25.3672C83.5195 25.7786 83.5854 26.1571 83.7335 26.5026C83.8816 26.8482 84.0955 27.1443 84.3588 27.3747C84.7867 27.7367 85.2969 27.9177 85.9058 27.9177C86.202 27.9177 86.4818 27.8684 86.7451 27.7861C86.9919 27.7038 87.2388 27.5886 87.5186 27.4076C87.5186 27.6051 87.535 27.7861 87.5844 27.9671V28L89.3288 27.7367H89.3617V27.5228H89.3124V27.5557ZM84.7538 24.3141C84.8525 24.0014 85.0007 23.7217 85.1817 23.4913C85.4779 23.1129 85.8235 22.9154 86.2349 22.9154C86.416 22.9154 86.597 22.9648 86.7615 23.0471C86.9261 23.1293 87.0742 23.2445 87.173 23.3926C87.2882 23.5572 87.3705 23.7711 87.4198 24.0508C87.4692 24.3141 87.4856 24.7255 87.4856 25.2685C87.4856 25.7786 87.4692 26.19 87.4198 26.4532C87.3705 26.7165 87.2882 26.9469 87.173 27.1279C87.0578 27.3089 86.9261 27.4405 86.7451 27.5393C86.5641 27.638 86.383 27.6874 86.1856 27.6874C85.7741 27.6874 85.4285 27.4899 85.1488 27.1114C84.9842 26.8811 84.8525 26.6178 84.7538 26.2887C84.6551 25.976 84.6057 25.6469 84.6057 25.3178C84.6057 24.9723 84.6551 24.6432 84.7538 24.3141Z" fill="black"/>
<path d="M94.8756 26.4532L94.8591 26.4862C94.7604 26.7823 94.6452 26.9962 94.5135 27.1279C94.3983 27.2431 94.2338 27.3418 94.0527 27.4076C93.8717 27.4735 93.6742 27.5064 93.4603 27.5064C93.1805 27.5064 92.9172 27.4405 92.6539 27.3254C92.407 27.2102 92.1931 27.0292 92.0121 26.8153C91.8475 26.6013 91.7158 26.3381 91.6171 26.0254C91.5183 25.7128 91.469 25.3672 91.469 25.0381C91.469 24.9558 91.469 24.8242 91.4854 24.6596H94.9249V24.6267C94.9249 24.1331 94.7768 23.7053 94.4806 23.3762C94.2996 23.1622 94.0692 22.9977 93.7894 22.8825C93.5261 22.7673 93.2299 22.718 92.9172 22.718C92.3247 22.718 91.7981 22.899 91.3373 23.2774C90.6955 23.7875 90.3828 24.4786 90.3828 25.3672C90.3828 26.009 90.5474 26.5684 90.893 27.0127C91.1398 27.3254 91.4361 27.5722 91.7817 27.7203C92.1273 27.8684 92.5551 27.9506 93.0324 27.9506C93.5919 27.9506 94.0527 27.8355 94.3819 27.5886C94.7275 27.3583 94.9414 26.9963 95.0566 26.5355V26.5026L94.8756 26.4532ZM91.5513 24.3635C91.6006 23.9521 91.7487 23.6065 91.9791 23.3268C92.226 23.047 92.5058 22.899 92.8349 22.899C93.0324 22.899 93.2134 22.9483 93.378 23.0635C93.5426 23.1787 93.6907 23.3268 93.7894 23.5078C93.9046 23.7052 93.9704 23.985 94.0034 24.3635H91.5513Z" fill="black"/>
<path d="M98.8237 27.6709C98.5439 27.6215 98.3464 27.5393 98.2313 27.4405C98.149 27.3583 98.0831 27.2595 98.0667 27.1444C98.0338 27.0292 98.0173 26.8317 98.0173 26.5684V26.1241V19.5586L96.2564 19.7725V19.97H96.2893C96.4539 19.9864 96.5855 20.0029 96.6843 20.0522C96.7666 20.1016 96.8489 20.1674 96.9147 20.2662C96.9805 20.3649 97.0134 20.4965 97.0463 20.6446C97.0628 20.8092 97.0793 21.0889 97.0793 21.4838V26.0748C97.0793 26.4203 97.0628 26.6836 97.0463 26.8646C97.0299 27.0456 96.997 27.1773 96.9641 27.2595C96.8982 27.3912 96.8324 27.4734 96.7337 27.5393C96.6349 27.5886 96.4703 27.638 96.2399 27.6709H96.207V27.8519H98.8566V27.6709H98.8237Z" fill="black"/>
<path d="M101.555 21.6813C101.719 21.6813 101.851 21.6319 101.966 21.5332C102.065 21.4345 102.131 21.3028 102.131 21.1383C102.131 20.9902 102.081 20.8585 101.966 20.7433C101.851 20.6446 101.719 20.5788 101.571 20.5788C101.407 20.5788 101.275 20.6282 101.176 20.7433C101.061 20.8421 101.012 20.9737 101.012 21.1383C101.012 21.3028 101.061 21.4345 101.176 21.5332C101.259 21.6155 101.39 21.6813 101.555 21.6813Z" fill="black"/>
<path d="M102.855 27.6709C102.575 27.6215 102.378 27.5393 102.262 27.4405C102.18 27.3583 102.114 27.2595 102.098 27.1444C102.065 27.0292 102.049 26.8317 102.049 26.5684V26.1241V22.718L100.288 22.9319V23.1129H100.321C100.485 23.1293 100.617 23.1458 100.716 23.1952C100.798 23.2445 100.88 23.3103 100.946 23.4255C101.012 23.5242 101.045 23.6559 101.078 23.804C101.094 23.9685 101.111 24.2483 101.111 24.6432V26.0748C101.111 26.4203 101.094 26.6836 101.078 26.8482C101.061 27.0292 101.028 27.1608 100.995 27.2431C100.929 27.3747 100.864 27.457 100.765 27.5228C100.666 27.5722 100.502 27.6215 100.271 27.6545H100.238V27.8355H102.888V27.6545L102.855 27.6709Z" fill="black"/>
<path d="M108.171 26.7001C108.056 26.9798 107.941 27.1773 107.826 27.2925C107.595 27.5228 107.283 27.638 106.921 27.638C106.476 27.638 106.098 27.457 105.769 27.1279C105.555 26.914 105.39 26.6343 105.275 26.3052C105.16 25.9761 105.094 25.647 105.094 25.3014C105.094 24.9229 105.16 24.5445 105.291 24.1496C105.374 23.9027 105.489 23.6888 105.604 23.5243C105.719 23.3597 105.867 23.2116 106.032 23.1129C106.213 22.9813 106.427 22.9319 106.657 22.9319C106.822 22.9319 106.97 22.9813 107.085 23.0635C107.135 23.1129 107.184 23.1623 107.217 23.2116C107.25 23.2775 107.299 23.3926 107.349 23.5572C107.48 23.9357 107.678 24.1331 107.941 24.1331C108.073 24.1331 108.171 24.0837 108.27 24.0015C108.352 23.9192 108.402 23.804 108.402 23.6724C108.402 23.4749 108.303 23.2939 108.089 23.1294C107.76 22.8661 107.316 22.7344 106.74 22.7344C106.328 22.7344 105.933 22.8167 105.588 22.9484C105.242 23.0965 104.946 23.3104 104.699 23.5901C104.485 23.8369 104.32 24.1167 104.189 24.4622C104.074 24.8078 104.008 25.1533 104.008 25.4989C104.008 26.2064 104.238 26.7988 104.666 27.2596C105.127 27.7368 105.752 27.9671 106.542 27.9671C107.036 27.9671 107.431 27.8684 107.727 27.6874C108.007 27.5064 108.237 27.1937 108.369 26.7659L108.385 26.733L108.204 26.6672L108.171 26.7001Z" fill="black"/>
<path d="M111.02 21.6813C111.184 21.6813 111.316 21.6319 111.431 21.5332C111.53 21.4345 111.596 21.3028 111.596 21.1383C111.596 20.9902 111.546 20.8585 111.431 20.7433C111.316 20.6446 111.184 20.5788 111.036 20.5788C110.872 20.5788 110.74 20.6282 110.641 20.7433C110.526 20.8421 110.477 20.9737 110.477 21.1383C110.477 21.3028 110.526 21.4345 110.641 21.5332C110.723 21.6155 110.872 21.6813 111.02 21.6813Z" fill="black"/>
<path d="M112.335 27.6709C112.056 27.6215 111.858 27.5393 111.743 27.4405C111.661 27.3583 111.595 27.2595 111.578 27.1444C111.545 27.0292 111.529 26.8317 111.529 26.5684V26.1241V22.718L109.768 22.9319V23.1129H109.801C109.966 23.1293 110.097 23.1458 110.196 23.1952C110.278 23.2445 110.361 23.3103 110.426 23.4255C110.492 23.5242 110.525 23.6559 110.558 23.804C110.575 23.9685 110.591 24.2483 110.591 24.6432V26.0748C110.591 26.4203 110.575 26.6836 110.558 26.8482C110.542 27.0292 110.509 27.1608 110.476 27.2431C110.41 27.3747 110.344 27.457 110.245 27.5228C110.147 27.5722 109.982 27.6215 109.752 27.6545H109.719V27.8355H112.368V27.6545L112.335 27.6709Z" fill="black"/>
<path d="M114.856 21.6813C115.02 21.6813 115.152 21.6319 115.267 21.5332C115.366 21.4345 115.432 21.3028 115.432 21.1383C115.432 20.9902 115.382 20.8585 115.267 20.7433C115.152 20.6446 115.02 20.5788 114.872 20.5788C114.707 20.5788 114.576 20.6282 114.477 20.7433C114.362 20.8421 114.312 20.9737 114.312 21.1383C114.312 21.3028 114.362 21.4345 114.477 21.5332C114.559 21.6155 114.691 21.6813 114.856 21.6813Z" fill="black"/>
<path d="M116.171 27.6709C115.892 27.6215 115.694 27.5393 115.579 27.4405C115.497 27.3583 115.431 27.2595 115.414 27.1444C115.381 27.0292 115.365 26.8317 115.365 26.5684V26.1241V22.718L113.604 22.9319V23.1129H113.637C113.802 23.1293 113.933 23.1458 114.032 23.1952C114.114 23.2445 114.197 23.3103 114.262 23.4255C114.328 23.5242 114.361 23.6559 114.394 23.804C114.41 23.9685 114.427 24.2483 114.427 24.6432V26.0748C114.427 26.4203 114.41 26.6836 114.394 26.8482C114.378 27.0292 114.345 27.1608 114.312 27.2431C114.246 27.3747 114.18 27.457 114.081 27.5228C113.983 27.5722 113.818 27.6215 113.588 27.6545H113.555V27.8355H116.204V27.6545L116.171 27.6709Z" fill="black"/>
<path d="M120.464 25.5318C120.267 25.2849 119.987 25.071 119.592 24.89L118.95 24.6103C118.654 24.4786 118.44 24.347 118.308 24.1989C118.177 24.0508 118.111 23.8863 118.111 23.7053C118.111 23.4913 118.193 23.2939 118.341 23.1458C118.489 22.9977 118.67 22.9154 118.884 22.9154C119.032 22.9154 119.197 22.9483 119.362 23.0306C119.526 23.1129 119.658 23.2281 119.789 23.3762C119.872 23.4749 119.954 23.5901 120.003 23.6888C120.053 23.804 120.102 23.9521 120.151 24.1331V24.166H120.349L120.283 22.8002V22.7673H120.102L120.086 22.7838C120.02 22.8825 119.954 22.9483 119.905 22.9483C119.855 22.9483 119.806 22.9319 119.757 22.9154L119.543 22.8331C119.362 22.7673 119.164 22.718 118.95 22.718C118.489 22.718 118.094 22.866 117.815 23.1622C117.568 23.4255 117.436 23.7382 117.436 24.1002C117.436 24.4293 117.568 24.7419 117.815 24.9887C117.979 25.1697 118.325 25.3837 118.835 25.6469C119.115 25.795 119.329 25.9102 119.444 25.9925C119.559 26.0748 119.658 26.1571 119.74 26.2558C119.872 26.4368 119.954 26.6342 119.954 26.8811C119.954 27.1773 119.855 27.3912 119.658 27.5557C119.477 27.7038 119.263 27.7696 119.016 27.7696C118.621 27.7696 118.259 27.5557 117.963 27.1279C117.798 26.8975 117.65 26.5684 117.551 26.1735V26.1406H117.387V27.8684H117.535L117.551 27.8519C117.617 27.7367 117.716 27.6874 117.848 27.6874C117.897 27.6874 117.946 27.6874 117.979 27.7038C118.012 27.7203 118.16 27.7696 118.292 27.819C118.572 27.9177 118.851 27.9671 119.115 27.9671C119.608 27.9671 120.036 27.8026 120.349 27.4899C120.629 27.2102 120.777 26.8646 120.777 26.4532C120.76 26.0912 120.662 25.795 120.464 25.5318Z" fill="black"/>
</svg>
