<svg width="82" height="110" viewBox="0 0 82 110" fill="none" xmlns="http://www.w3.org/2000/svg">
<path d="M7.77064 14.0003C8.02575 14.0003 8.23218 13.7938 8.23218 13.5387V6.84642H14.9245C15.1796 6.84642 15.386 6.63999 15.386 6.38488C15.386 6.12977 15.1796 5.92334 14.9245 5.92334H7.77064C7.51553 5.92334 7.3091 6.12977 7.3091 6.38488V13.5387C7.3091 13.7938 7.51553 14.0003 7.77064 14.0003Z" fill="url(#paint0_linear)"/>
<path d="M18.3094 6.84642H20.463C20.7181 6.84642 20.9245 6.63999 20.9245 6.38488C20.9245 6.12977 20.7181 5.92334 20.463 5.92334H18.3094C18.0543 5.92334 17.8479 6.12977 17.8479 6.38488C17.8479 6.63999 18.0543 6.84642 18.3094 6.84642Z" fill="url(#paint1_linear)"/>
<path d="M7.77064 19.5387C8.02575 19.5387 8.23218 19.3323 8.23218 19.0772V16.9232C8.23218 16.6681 8.02575 16.4617 7.77064 16.4617C7.51553 16.4617 7.3091 16.6681 7.3091 16.9232V19.0772C7.3091 19.3323 7.51553 19.5387 7.77064 19.5387Z" fill="url(#paint2_linear)"/>
<path d="M66.6169 102.385C66.6169 102.64 66.8233 102.846 67.0784 102.846H74.2323C74.4874 102.846 74.6938 102.64 74.6938 102.385V95.231C74.6938 94.9759 74.4874 94.7695 74.2323 94.7695C73.9772 94.7695 73.7707 94.9759 73.7707 95.231V101.923H67.0784C66.8233 101.923 66.6169 102.13 66.6169 102.385Z" fill="url(#paint3_linear)"/>
<path d="M63.6944 101.923H61.5399C61.2848 101.923 61.0784 102.13 61.0784 102.385C61.0784 102.64 61.2848 102.846 61.5399 102.846H63.6944C63.9495 102.846 64.1559 102.64 64.1559 102.385C64.1559 102.13 63.9495 101.923 63.6944 101.923Z" fill="url(#paint4_linear)"/>
<path d="M74.2323 92.3081C74.4874 92.3081 74.6938 92.1017 74.6938 91.8466V89.6926C74.6938 89.4375 74.4874 89.231 74.2323 89.231C73.9772 89.231 73.7707 89.4375 73.7707 89.6926V91.8466C73.7707 92.1017 73.9772 92.3081 74.2323 92.3081Z" fill="url(#paint5_linear)"/>
<path d="M80.2323 0.538574H1.77073C1.26052 0.538574 0.847656 0.951885 0.847656 1.46165V108.539C0.847656 109.048 1.26052 109.462 1.77073 109.462H80.2323C80.7425 109.462 81.1553 109.048 81.1553 108.539V1.46165C81.1553 0.951885 80.7425 0.538574 80.2323 0.538574ZM79.3092 107.615H2.69381V72.8464H15.4799C17.1898 80.6049 24.7292 85.6737 28.2141 87.6441C27.179 87.559 26.3804 87.3777 26.2539 87.1564C25.9204 86.5731 25.4615 86.6592 25.3272 86.6989C24.6034 86.9143 24.2175 88.3089 24.2572 88.966C24.3374 90.3006 26.3612 90.3826 26.8507 90.3826C26.8876 90.3826 26.9156 90.3822 26.9336 90.3817H43.9023V95.2436C43.9023 95.4988 44.1088 95.7052 44.3639 95.7052C44.619 95.7052 44.8254 95.4988 44.8254 95.2436V90.3822H64.6436C64.8275 90.3822 64.9943 90.2731 65.0673 90.1041L70.0108 78.7071C70.0261 78.6706 70.0379 78.6319 70.0433 78.5922L70.927 72.7229C71.0584 72.7948 71.2016 72.8464 71.3621 72.8464H79.3092V107.615ZM13.1244 58.623C13.8663 59.001 14.6834 59.0214 15.4078 58.7294C15.44 58.7223 15.4729 58.7225 15.5042 58.7082C15.6099 58.659 15.7057 58.5994 15.8017 58.5402C15.8292 58.5235 15.8603 58.5168 15.8873 58.4991C16.8584 57.8604 17.5465 56.4241 17.6652 54.8173C17.6664 54.8094 17.6715 54.803 17.6722 54.795C17.6745 54.7698 17.6729 54.7482 17.6747 54.7234C17.6754 54.7106 17.6778 54.6983 17.6785 54.6855C17.6797 54.6633 17.6774 54.6417 17.6783 54.6195C17.6836 54.5027 17.678 54.3878 17.6774 54.272C17.666 52.3161 16.8267 50.5066 15.3185 49.2615C14.3715 48.4798 13.0392 47.1944 12.243 45.6245C12.0969 45.3364 11.971 45.0379 11.8667 44.7318C11.6996 44.2415 11.5954 43.7299 11.574 43.2028C11.8007 43.5417 12.0839 43.8547 12.4052 44.1329C12.7136 44.4001 13.0559 44.6306 13.4087 44.8286C13.4201 44.835 13.4309 44.8424 13.4424 44.8487C13.6204 44.9472 13.7997 45.0337 13.9808 45.1121C14.0396 45.2503 14.1097 45.3861 14.179 45.5221C14.8743 46.8866 16.0509 48.1297 17.0105 49.1371C19.22 51.4583 19.1406 54.5534 18.3798 56.5546C17.6145 58.5671 17.3837 59.1742 15.689 59.9003C14.5947 60.3682 13.1361 60.0604 11.9715 59.1152C11.0213 58.3449 10.5364 57.3403 10.7049 56.4943C10.7617 56.2094 10.8924 56.0674 11.1403 56.0196C11.2016 56.0079 11.2647 56.0025 11.3296 56.0025C11.6722 56.0025 12.0472 56.1513 12.2626 56.2878C12.0418 56.5159 11.9309 56.8007 11.9453 57.1144C11.9724 57.6878 12.424 58.266 13.1244 58.623ZM16.7572 54.6342C16.5764 54.4314 16.3572 54.2632 16.146 54.1433C15.8377 53.9671 15.5331 53.8769 15.2563 53.8769C15.2049 53.8769 15.1544 53.8801 15.1049 53.8864C15.1535 53.7917 15.2139 53.6795 15.2915 53.547C15.3483 53.4492 15.4438 53.336 15.68 53.332C16.0775 53.2865 16.5102 53.6078 16.5823 53.7237C16.7261 53.9787 16.7761 54.2403 16.7571 54.5918C16.7564 54.6061 16.758 54.6199 16.7572 54.6342ZM15.652 40.9286C17.9904 38.5866 23.4144 37.6802 26.0159 39.1956C26.765 39.6314 27.2996 40.3801 27.5231 41.3036C27.8008 42.4498 27.579 43.7397 26.9318 44.7534C26.2233 45.8617 25.3651 46.1209 24.7701 46.143C24.2707 46.1552 23.8723 46.0267 23.6424 45.9028C23.8957 45.5949 23.8867 45.3051 23.8489 45.1383C23.7578 44.7426 23.3684 44.4379 22.832 44.3428C22.2704 44.2441 21.4465 44.378 20.9859 45.0874C20.4522 45.9091 20.6965 46.9628 21.6097 47.7723C22.8184 48.8452 24.886 49.2992 26.8682 48.4668C26.5137 48.8042 26.1428 49.1482 25.7554 49.5063C24.9126 50.2851 24.0409 51.091 23.1493 52.0195L22.4832 52.7091C21.4643 53.7609 20.4635 54.8006 19.5409 55.9358C20.0788 53.7601 19.8679 50.8002 17.6794 48.5007C15.0282 45.7166 13.1956 43.3913 15.652 40.9286ZM15.4725 39.4605C15.7133 39.0332 15.8749 38.6016 15.941 38.192C16.0397 38.067 16.3171 37.7507 16.7671 37.5238C16.6698 37.7808 16.6112 38.0773 16.6355 38.4073C16.6599 38.7237 16.1449 39.1494 15.4725 39.4605ZM22.5751 46.038C22.6941 46.5504 23.4567 46.9056 24.1148 47.0192C24.7846 47.135 26.4694 47.1909 27.7088 45.2506C28.4895 44.0291 28.7554 42.4723 28.4201 41.0863C28.137 39.9163 27.4483 38.9616 26.4811 38.3978C24.2743 37.114 20.4259 37.3286 17.5237 38.6155C17.5386 38.5233 17.564 38.4328 17.5568 38.3369C17.5063 37.6784 18.0986 37.1957 18.1022 37.1926C18.2554 37.0727 18.3176 36.8694 18.2563 36.6846C18.1959 36.4998 18.0255 36.3732 17.8308 36.3673C17.7157 36.365 17.6126 36.383 17.5043 36.3925C22.681 34.0239 26.2088 35.4763 27.9108 36.6256C28.7378 37.1847 29.6146 38.0797 30.0776 39.1531C30.2401 39.6787 30.3516 40.2341 30.4118 40.8178C30.4965 43.5888 29.8218 45.144 27.8125 46.8213C25.6049 48.6639 23.2106 47.9585 22.2218 47.0818C22.009 46.893 21.3465 46.2273 21.7593 45.5904C21.9522 45.2943 22.2785 45.2415 22.4552 45.2366C22.4669 45.2361 22.4778 45.2357 22.4877 45.2357C22.7518 45.2357 22.9303 45.3263 22.9501 45.2857C22.9501 45.2857 22.9267 45.3389 22.8041 45.4277C22.6085 45.5692 22.521 45.8031 22.5751 46.038ZM13.9348 39.9767C13.9235 39.988 13.9168 40.001 13.9057 40.0124C13.8994 40.0189 13.8954 40.0261 13.8893 40.0326C12.8572 41.1224 13.0534 42.6577 13.3921 43.7316C12.5394 43.1241 11.8867 42.2699 11.957 41.4136C11.9704 41.2517 11.9935 41.1134 12.0206 40.9848C12.2161 40.5619 12.481 40.1505 12.8028 39.749C12.8941 39.6351 12.9928 39.5226 13.0942 39.4105C13.2367 39.1872 13.3196 38.8985 13.2145 38.4915C13.1765 38.3459 13.1238 38.2337 13.0647 38.1368C12.9484 37.9467 12.7958 37.8416 12.6007 37.8416C12.5907 37.8416 12.5808 37.8421 12.5709 37.8425C12.2942 37.8556 12.0751 38.0151 11.8984 38.6655C11.8705 38.5839 11.8579 38.4952 11.8597 38.41C11.8741 37.7591 12.5862 37.0718 14.1475 37.0019C14.2741 36.9953 14.3845 37.0061 14.4863 37.0258C14.7287 37.0728 14.9026 37.1901 14.9877 37.3819C15.0328 37.484 15.0513 37.6131 15.0546 37.7542C15.068 38.3289 14.7295 39.1805 13.9348 39.9767ZM23.1457 53.3514L23.8146 52.6586C24.6881 51.75 25.549 50.954 26.3819 50.1842C29.18 47.5975 31.5968 45.3637 31.3894 41.2256C31.3793 41.0238 31.3518 40.8318 31.3304 40.6364C31.3277 40.5666 31.3308 40.5053 31.3272 40.4342C31.3024 39.9534 31.1891 39.5163 31.0426 39.1027C30.2563 36.2594 28.285 34.1971 26.3482 32.7881H43.9023V43.0664C43.8996 43.1421 43.5192 50.6511 39.2284 51.6359C36.753 52.2038 35.3747 50.9364 34.9078 49.5608C34.4579 48.237 34.7779 46.4648 36.2554 45.7878C37.3876 45.2695 38.4531 45.4133 39.1112 46.1664C39.6457 46.7772 39.7404 47.6051 39.3474 48.2267C38.9642 48.8351 38.0898 48.9176 37.6788 48.7031C37.512 48.6165 37.3434 48.4651 37.5129 48.0586C37.6112 47.8233 37.5003 47.5533 37.2659 47.4546C37.0297 47.3559 36.7602 47.4668 36.662 47.7025C36.3465 48.4565 36.5781 49.1709 37.2524 49.5216C38.0971 49.9615 39.4844 49.7393 40.128 48.7198C40.741 47.7498 40.6112 46.4797 39.8062 45.5589C39.0778 44.7255 37.6617 44.1283 35.8714 44.9486C34.3903 45.6267 33.771 47.0946 33.8006 48.5066C33.8003 48.5106 33.7983 48.5138 33.7981 48.5178C33.7954 48.5611 33.6511 52.8475 37.6292 53.6781C38.1088 53.7787 38.5658 53.8233 39.0003 53.8233C41.3089 53.8233 42.9739 52.557 43.9023 51.6004V70.1055C43.0003 69.1559 41.2762 67.9347 38.1133 67.4004C34.659 66.8167 31.9231 65.3595 30.7963 63.503C30.2897 62.6688 30.1619 61.8262 30.3885 60.995C30.8089 59.8653 31.5573 59.0218 32.5595 58.6289C33.6187 58.2133 34.841 58.3197 35.8245 58.9137C37.1172 59.6935 37.2425 61.1006 36.7945 62.1499C36.3915 63.0937 35.4657 63.9059 34.2993 63.5882C33.7395 63.4367 33.5538 63.0135 33.4925 62.7746C33.3996 62.4095 33.4799 62.0269 33.6926 61.8222C33.872 61.6514 34.1334 61.6149 34.4715 61.7172C34.713 61.7884 34.9736 61.6523 35.0457 61.4076C35.1196 61.1637 34.9808 60.9064 34.7365 60.8329C34.0766 60.6364 33.479 60.7491 33.0535 61.1565C32.601 61.5906 32.4225 62.3153 32.5983 63.0031C32.784 63.7306 33.3302 64.2818 34.0577 64.4788C35.5135 64.8741 36.982 64.0623 37.6436 62.5127C38.2485 61.0961 38.0682 59.1896 36.3023 58.1232C35.0736 57.3817 33.5475 57.2506 32.2233 57.7698C30.8386 58.312 29.8209 59.4947 29.3585 61.0993C28.9754 62.4271 29.1277 63.713 29.8092 64.9214C30.7467 66.5829 32.5461 67.8422 34.2614 68.734C33.1375 68.7353 31.9431 68.8448 30.6611 69.0924C29.5541 69.3057 28.6157 69.6296 27.8127 70.0281C27.8042 70.031 27.7949 70.0328 27.7864 70.0357C27.755 70.0465 27.7316 70.0677 27.7043 70.0841C24.7127 71.6205 23.7632 74.268 23.9823 76.5712C24.3005 79.9047 27.1058 83.5037 31.0838 83.5055H31.0874C34.8365 83.5051 36.9739 80.9522 37.1469 78.4295C37.2885 76.3526 36.0679 74.0692 33.0201 73.6514C31.1965 73.4013 29.6875 73.9205 28.8789 75.0748C28.2236 76.0114 28.1379 77.2545 28.659 78.2415C29.1899 79.2467 30.2103 79.8146 31.5201 79.7983C31.7752 79.7952 31.979 79.586 31.9763 79.3314C31.9736 79.0781 31.7671 78.8753 31.5147 78.8753C31.4994 78.8739 31.4841 78.8757 31.4678 78.8757C30.5457 78.8757 29.8389 78.498 29.4757 77.8102C29.1133 77.126 29.1764 76.2602 29.6352 75.6039C29.9895 75.0982 30.8873 74.291 32.8939 74.5655C35.5207 74.926 36.3302 76.8384 36.2257 78.3664C36.0823 80.4618 34.2713 82.5824 31.0874 82.5824H31.0838C27.6241 82.5811 25.1812 79.4157 24.9017 76.4837C24.6682 74.0312 25.8471 72.0594 28.136 70.8938C30.5644 70.0634 33.6079 70.1628 36.4961 71.1697C39.6971 72.2853 41.3197 74.9977 41.3197 79.2318C41.3197 82.9221 40.1122 86.6413 39.746 87.6842H30.2725C29.178 87.1528 18.4096 81.7099 16.3822 72.6102C16.2141 71.9349 16.1377 71.0724 16.1377 71.0724C16.0879 70.6028 16.0532 70.1275 16.0532 69.6404C16.0532 60.6738 19.4985 57.1171 23.1457 53.3514ZM22.0108 29.9631C22.3054 29.9498 22.5722 29.8374 22.7834 29.6585C23.0085 29.8493 23.296 29.9689 23.6136 29.9689C23.9311 29.9689 24.2182 29.8494 24.4431 29.6587C24.6684 29.8494 24.9556 29.9689 25.2731 29.9689C25.5907 29.9689 25.8782 29.8493 26.1034 29.6585C26.3285 29.8493 26.6161 29.9689 26.9336 29.9689C27.2511 29.9689 27.5383 29.8494 27.7636 29.6587C27.9885 29.8494 28.2756 29.9689 28.5931 29.9689C28.9107 29.9689 29.1982 29.8493 29.4234 29.6585C29.6485 29.8493 29.9361 29.9689 30.2536 29.9689C30.5711 29.9689 30.8584 29.8494 31.0836 29.6587C31.3085 29.8494 31.5956 29.9689 31.9132 29.9689C32.2307 29.9689 32.5183 29.8493 32.7434 29.6585C32.9685 29.8493 33.2561 29.9689 33.5736 29.9689C33.8912 29.9689 34.1787 29.8493 34.4038 29.6585C34.629 29.8493 34.9165 29.9689 35.2341 29.9689C35.5516 29.9689 35.8387 29.8494 36.0636 29.6587C36.2889 29.8494 36.5761 29.9689 36.8936 29.9689C37.2112 29.9689 37.4987 29.8493 37.7239 29.6585C37.949 29.8493 38.2366 29.9689 38.5541 29.9689C38.8716 29.9689 39.1588 29.8494 39.3841 29.6587C39.609 29.8494 39.8961 29.9689 40.2136 29.9689C40.5312 29.9689 40.8187 29.8493 41.0439 29.6585C41.269 29.8493 41.5566 29.9689 41.8741 29.9689C42.1916 29.9689 42.4789 29.8494 42.7041 29.6587C42.929 29.8494 43.2161 29.9689 43.5337 29.9689C43.6626 29.9689 43.7847 29.9441 43.9023 29.9088V30.2988H22.0108V29.9631ZM21.9531 29.0458C21.931 29.0458 21.912 29.0369 21.891 29.0332C21.799 29.0169 21.7212 28.9698 21.6662 28.899C21.618 28.8366 21.5844 28.7622 21.5844 28.6775C21.5844 28.4743 21.7494 28.3089 21.9531 28.3089C22.1569 28.3089 22.3218 28.4743 22.3218 28.6775C22.3218 28.8804 22.1569 29.0458 21.9531 29.0458ZM23.2449 28.6775C23.2449 28.4743 23.4099 28.3089 23.6136 28.3089C23.8164 28.3089 23.9814 28.4743 23.9814 28.6775C23.9814 28.8804 23.8164 29.0458 23.6136 29.0458C23.4099 29.0458 23.2449 28.8804 23.2449 28.6775ZM24.9044 28.6775C24.9044 28.4743 25.0694 28.3089 25.2731 28.3089C25.4769 28.3089 25.6418 28.4743 25.6418 28.6775C25.6418 28.8804 25.4769 29.0458 25.2731 29.0458C25.0694 29.0458 24.9044 28.8804 24.9044 28.6775ZM26.5649 28.6775C26.5649 28.4743 26.7299 28.3089 26.9336 28.3089C27.1373 28.3089 27.3023 28.4743 27.3023 28.6775C27.3023 28.8804 27.1373 29.0458 26.9336 29.0458C26.7299 29.0458 26.5649 28.8804 26.5649 28.6775ZM28.2254 28.6775C28.2254 28.4743 28.3903 28.3089 28.5931 28.3089C28.7969 28.3089 28.9618 28.4743 28.9618 28.6775C28.9618 28.8804 28.7969 29.0458 28.5931 29.0458C28.3903 29.0458 28.2254 28.8804 28.2254 28.6775ZM29.8849 28.6775C29.8849 28.4743 30.0499 28.3089 30.2536 28.3089C30.4573 28.3089 30.6223 28.4743 30.6223 28.6775C30.6223 28.8804 30.4573 29.0458 30.2536 29.0458C30.0499 29.0458 29.8849 28.8804 29.8849 28.6775ZM31.5454 28.6775C31.5454 28.4743 31.7103 28.3089 31.9132 28.3089C32.1169 28.3089 32.2819 28.4743 32.2819 28.6775C32.2819 28.8804 32.1169 29.0458 31.9132 29.0458C31.7103 29.0458 31.5454 28.8804 31.5454 28.6775ZM33.2049 28.6775C33.2049 28.4743 33.3699 28.3089 33.5736 28.3089C33.7773 28.3089 33.9423 28.4743 33.9423 28.6775C33.9423 28.8804 33.7773 29.0458 33.5736 29.0458C33.3699 29.0458 33.2049 28.8804 33.2049 28.6775ZM34.8654 28.6775C34.8654 28.4743 35.0303 28.3089 35.2341 28.3089C35.4369 28.3089 35.6019 28.4743 35.6019 28.6775C35.6019 28.8804 35.4369 29.0458 35.2341 29.0458C35.0303 29.0458 34.8654 28.8804 34.8654 28.6775ZM36.5249 28.6775C36.5249 28.4743 36.6899 28.3089 36.8936 28.3089C37.0974 28.3089 37.2623 28.4743 37.2623 28.6775C37.2623 28.8804 37.0974 29.0458 36.8936 29.0458C36.6899 29.0458 36.5249 28.8804 36.5249 28.6775ZM38.1854 28.6775C38.1854 28.4743 38.3504 28.3089 38.5541 28.3089C38.7578 28.3089 38.9228 28.4743 38.9228 28.6775C38.9228 28.8804 38.7578 29.0458 38.5541 29.0458C38.3504 29.0458 38.1854 28.8804 38.1854 28.6775ZM39.8459 28.6775C39.8459 28.4743 40.0108 28.3089 40.2136 28.3089C40.4174 28.3089 40.5823 28.4743 40.5823 28.6775C40.5823 28.8804 40.4174 29.0458 40.2136 29.0458C40.0108 29.0458 39.8459 28.8804 39.8459 28.6775ZM41.5054 28.6775C41.5054 28.4743 41.6704 28.3089 41.8741 28.3089C42.0778 28.3089 42.2428 28.4743 42.2428 28.6775C42.2428 28.8804 42.0778 29.0458 41.8741 29.0458C41.6704 29.0458 41.5054 28.8804 41.5054 28.6775ZM43.1659 28.6775C43.1659 28.4743 43.3308 28.3089 43.5337 28.3089C43.7374 28.3089 43.9023 28.4743 43.9023 28.6775C43.9023 28.8804 43.7374 29.0458 43.5337 29.0458C43.3308 29.0458 43.1659 28.8804 43.1659 28.6775ZM43.9023 31.2219V31.865H24.951C24.5404 31.6208 24.1459 31.4056 23.7831 31.2219H43.9023ZM43.9023 47.75V50.1713C43.5149 50.7285 41.3693 53.5192 37.8185 52.7749C37.6443 52.7385 37.4841 52.6907 37.3288 52.6391C37.5636 52.6753 37.8079 52.6987 38.0673 52.6987C38.4901 52.6987 38.9453 52.6478 39.4348 52.5356C41.8313 51.9855 43.1605 49.8506 43.9023 47.75ZM40.7241 87.6842C41.1944 86.2954 42.2428 82.8017 42.2428 79.2318C42.2428 74.6281 40.3606 71.5389 36.8008 70.298C35.9962 70.0179 35.1795 69.8073 34.3646 69.66C35.3987 69.6666 36.357 69.7818 37.2341 70.0115C37.6526 70.1577 37.974 70.2574 38.1835 70.3193C39.038 70.6467 39.8157 71.0808 40.4922 71.6516C43.7515 74.4032 43.8978 79.1743 43.9023 79.8218V87.6842H40.7241ZM43.9023 88.6072V89.4586H26.9228C26.2142 89.4695 25.2001 89.2725 25.1785 88.9101C25.156 88.5374 25.3462 87.9681 25.5102 87.7026C26.2122 88.6502 28.9716 88.6531 30.1689 88.6072H43.9023ZM41.0925 70.9507C40.4149 70.3776 39.6518 69.9253 38.8201 69.5727C38.7765 69.5415 38.7287 69.5146 38.674 69.4998C38.6678 69.4981 38.5859 69.4749 38.4668 69.4394C38.1692 69.327 37.8652 69.224 37.5492 69.1386C35.9904 68.5911 33.1742 67.4183 31.4753 65.6154C33.0197 66.8926 35.292 67.8596 37.96 68.3108C42.3906 69.0592 43.6979 71.2475 43.9023 71.6463V75.0198C43.354 73.6048 42.4844 72.1275 41.0925 70.9507ZM44.8254 79.7462V70.6959L52.9159 70.6935L52.3072 80.1427H44.8254V79.9178C44.8259 79.8987 44.8261 79.8323 44.8254 79.7462ZM44.8254 32.3221V29.1391H66.2518V30.562L55.8942 33.3475L55.1255 33.3848L57.2031 31.0686C57.3735 30.8789 57.3573 30.5868 57.168 30.4169C56.9787 30.2474 56.6866 30.2632 56.5162 30.452L53.8295 33.4477L52.887 33.4934L54.049 30.9523C54.1544 30.7202 54.0526 30.4466 53.8209 30.3407C53.591 30.2361 53.3143 30.3357 53.2088 30.5683L51.8555 33.5291H50.7393L51.3483 30.8631C51.405 30.6147 51.25 30.3673 51.0012 30.3105C50.7515 30.2519 50.5054 30.4097 50.4486 30.6576L49.7924 33.5291H48.8803L49.0514 30.7892C49.0676 30.5345 48.8738 30.3155 48.6196 30.2997C48.3311 30.2907 48.1463 30.4777 48.1301 30.7315L47.9552 33.5291H47.0175L47.1971 30.7905C47.2133 30.5363 47.0213 30.3164 46.7671 30.2997C46.5129 30.288 46.293 30.4755 46.2758 30.7301L46.0959 33.5291H44.8254V32.331L44.8263 32.3266L44.8254 32.3221ZM56.3432 54.9749L50.7641 34.4519L51.835 34.4518L60.2243 56.244L52.7325 57.0339L48.9348 34.4521L49.8072 34.452L55.4525 55.2174C55.5084 55.4224 55.6941 55.5577 55.8978 55.5577C55.9375 55.5577 55.9781 55.5527 56.0186 55.5414C56.2647 55.4747 56.4099 55.221 56.3432 54.9749ZM60.483 57.1375L62.3373 68.8225L53.8287 69.7282L52.8449 57.9473L60.483 57.1375ZM62.3454 69.7426L61.1988 79.6659L53.2338 80.1149L53.8386 70.6525L62.3454 69.7426ZM61.0295 80.5955L59.076 89.4591H52.3507L53.1614 81.0424L61.0295 80.5955ZM61.9941 80.4985L68.8233 79.1255L64.3407 89.4591H60.021L61.9941 80.4985ZM62.1417 79.5317L63.2934 69.5856L70.8023 67.3543L69.1827 78.1117L62.1417 79.5317ZM63.2444 68.6447L61.3908 56.9672L68.1097 54.9708L70.8061 66.3901L63.2444 68.6447ZM61.1514 56.0829L52.8124 34.4209L53.6404 34.3807L63.0895 53.5664C63.1698 53.7295 63.3329 53.8242 63.5033 53.8242C63.5718 53.8242 63.6412 53.8089 63.707 53.7769C63.936 53.6642 64.0297 53.3874 63.9171 53.1589L54.6449 34.3321L55.7141 34.2802L67.742 54.1173L61.1514 56.0829ZM46.0962 34.4522L47.6902 55.5586C47.7091 55.801 47.9111 55.9854 48.1499 55.9854C48.1617 55.9854 48.1734 55.9849 48.186 55.984C48.4402 55.9651 48.6304 55.7433 48.6115 55.4891L47.018 34.4522H47.9984L51.8051 57.0743H44.8254V34.4522H46.0962ZM51.9244 57.9949L52.9112 69.7729H44.8254V57.9972L51.9244 57.9949ZM52.2317 81.0649L51.4227 89.4591H44.8254V81.0657L52.2317 81.0649ZM79.3092 71.0003H71.3621C71.2979 71.0003 71.2415 71.0243 71.1809 71.0368L71.8182 66.8045C71.82 66.793 71.816 66.7816 71.8169 66.7701C71.8196 66.7331 71.8184 66.6963 71.8122 66.6596C71.8105 66.6498 71.8133 66.6398 71.811 66.6301L71.8087 66.6206C71.8058 66.6052 71.8092 66.59 71.8047 66.5746C71.8021 66.5659 71.7956 66.5601 71.7925 66.5517L68.8957 54.283C68.8947 54.2785 68.8917 54.2747 68.8905 54.2703C68.8894 54.2659 68.8908 54.2617 68.8894 54.2573C68.8857 54.2448 68.8766 54.2361 68.8718 54.2241C68.8623 54.1991 68.8557 54.1728 68.8416 54.1496L56.6798 34.092L66.8332 31.3616C67.0352 31.3075 67.1749 31.1245 67.1749 30.9158V28.6775C67.1749 28.4224 66.9685 28.216 66.7133 28.216H44.8254V20.4618C44.8254 20.2067 44.619 20.0003 44.3639 20.0003C44.1088 20.0003 43.9023 20.2067 43.9023 20.4618V27.4459C43.7847 27.4105 43.6626 27.3858 43.5337 27.3858C43.2161 27.3858 42.929 27.5054 42.7041 27.6962C42.4789 27.5054 42.1916 27.3858 41.8741 27.3858C41.5566 27.3858 41.269 27.5054 41.0439 27.6963C40.8187 27.5054 40.5312 27.3858 40.2136 27.3858C39.8961 27.3858 39.609 27.5054 39.3841 27.6962C39.1588 27.5054 38.8716 27.3858 38.5541 27.3858C38.2366 27.3858 37.949 27.5054 37.7239 27.6963C37.4987 27.5054 37.2112 27.3858 36.8936 27.3858C36.5761 27.3858 36.2889 27.5054 36.0636 27.6962C35.8387 27.5054 35.5516 27.3858 35.2341 27.3858C34.9165 27.3858 34.629 27.5054 34.4038 27.6963C34.1787 27.5054 33.8912 27.3858 33.5736 27.3858C33.2561 27.3858 32.9685 27.5054 32.7434 27.6963C32.5183 27.5054 32.2307 27.3858 31.9132 27.3858C31.5956 27.3858 31.3085 27.5054 31.0836 27.6962C30.8584 27.5054 30.5711 27.3858 30.2536 27.3858C29.9361 27.3858 29.6485 27.5054 29.4234 27.6963C29.1982 27.5054 28.9107 27.3858 28.5931 27.3858C28.2756 27.3858 27.9885 27.5054 27.7636 27.6962C27.5383 27.5054 27.2511 27.3858 26.9336 27.3858C26.6161 27.3858 26.3285 27.5054 26.1034 27.6963C25.8782 27.5054 25.5907 27.3858 25.2731 27.3858C24.9556 27.3858 24.6684 27.5054 24.4431 27.6962C24.2182 27.5054 23.9311 27.3858 23.6136 27.3858C23.296 27.3858 23.0085 27.5054 22.7834 27.6963C22.5582 27.5054 22.2707 27.3858 21.9531 27.3858C21.241 27.3858 20.6614 27.9654 20.6614 28.6775C20.6614 29.0558 20.8277 29.3931 21.0877 29.6295V30.7603C21.0877 30.7746 21.0946 30.7866 21.0959 30.8006C21.099 30.8354 21.1057 30.8689 21.1161 30.9011C21.1233 30.9232 21.1308 30.945 21.1413 30.9657C21.1562 30.9953 21.1756 31.022 21.1964 31.0475C21.211 31.0655 21.2248 31.0841 21.2421 31.0998C21.2662 31.1215 21.2944 31.1378 21.3228 31.1541C21.344 31.1663 21.3638 31.1803 21.3872 31.1892C21.3933 31.1916 21.3978 31.1963 21.4041 31.1984C21.4626 31.2179 25.4156 32.5757 28.0847 35.6416C25.9526 34.3316 21.78 32.9277 15.8314 36.1974C15.6755 36.2831 15.5394 36.3735 15.3904 36.4609C15.0655 36.1994 14.6339 36.0538 14.1061 36.0797C11.9489 36.1762 10.96 37.3098 10.9375 38.3901C10.9249 38.9544 11.1764 39.4331 11.5793 39.6914C11.4094 39.9274 11.2553 40.2441 11.1505 40.6655C10.8902 41.2475 10.7257 41.8492 10.6671 42.4714C10.4336 44.9526 11.8768 47.6173 14.7308 49.9737C15.5788 50.6736 16.1807 51.5824 16.5008 52.5977C16.2479 52.4909 15.9768 52.4102 15.7034 52.4085C15.6998 52.4085 15.6962 52.4085 15.6926 52.4085C15.1716 52.4085 14.7461 52.6478 14.4928 53.0832C14.0322 53.8747 13.8176 54.4385 14.1665 54.8022C14.399 55.0438 14.7443 55.0461 15.1986 54.8045C15.2536 54.7851 15.4727 54.8086 15.7395 54.9753C16.0514 55.1691 16.2272 55.4211 16.2353 55.5595C16.2722 56.2542 16.1548 57.1395 15.4594 57.6642C15.4558 57.6668 15.4527 57.6697 15.4492 57.6723C15.361 57.7378 15.2601 57.7953 15.1529 57.8482C14.4308 58.1848 13.75 57.9057 13.5436 57.8009C13.1163 57.5827 12.8765 57.2627 12.8675 57.0721C12.8657 57.0369 12.8621 56.9549 13.0207 56.8544C13.2776 56.6917 13.3858 56.4019 13.2939 56.1165C13.1145 55.5568 12.0724 55.0371 11.2088 55.0835C10.4606 55.1259 9.94772 55.5743 9.79988 56.314C9.5601 57.5147 10.155 58.8303 11.39 59.8323C12.3591 60.6183 13.5129 61.0366 14.5938 61.0366C15.1058 61.0362 15.6016 60.9424 16.0532 60.7486C16.3331 60.6286 16.5762 60.5066 16.7986 60.3818C15.7742 62.7545 15.1301 65.688 15.1301 69.6404C15.1301 70.1025 15.1583 70.5539 15.1993 71.0003H2.69381V2.38473H79.3092V71.0003Z" fill="url(#paint6_linear)"/>
<path d="M65.0647 56.3829C64.8141 56.4307 64.65 56.6727 64.6978 56.9229L66.4718 66.215C66.5142 66.4363 66.708 66.59 66.9244 66.59C66.9532 66.59 66.9829 66.5872 67.0118 66.5818C67.2624 66.5341 67.4265 66.292 67.3787 66.0419L65.6046 56.7498C65.5569 56.4987 65.3063 56.3365 65.0647 56.3829Z" fill="url(#paint7_linear)"/>
<path d="M67.0162 69.4872C66.7646 69.4574 66.533 69.6382 66.5041 69.8915L65.5801 77.6984C65.5495 77.9513 65.7307 78.1807 65.984 78.2109C66.002 78.2131 66.021 78.2141 66.039 78.2141C66.2689 78.2141 66.469 78.0414 66.496 77.8066L67.42 69.9996C67.4506 69.7468 67.2695 69.5174 67.0162 69.4872Z" fill="url(#paint8_linear)"/>
<path d="M65.2322 80.7552C64.9852 80.6804 64.7301 80.8188 64.6562 81.0626L62.4279 88.3909C62.354 88.6347 62.4919 88.8925 62.7353 88.9669C62.7803 88.9804 62.8254 88.9867 62.8696 88.9867C63.0679 88.9867 63.2509 88.8587 63.3113 88.6595L65.5396 81.3312C65.6136 81.0874 65.4756 80.8296 65.2322 80.7552Z" fill="url(#paint9_linear)"/>
<path d="M57.8622 68.1057C57.8793 68.1057 57.8964 68.1048 57.9135 68.103C58.1668 68.0751 58.3498 67.847 58.3219 67.5937L57.4033 59.2486C57.3745 58.9948 57.1446 58.8119 56.894 58.8402C56.6407 58.8682 56.4577 59.0963 56.4856 59.3496L57.4042 67.6947C57.4304 67.9308 57.6305 68.1057 57.8622 68.1057Z" fill="url(#paint10_linear)"/>
<path d="M57.406 78.9735C57.4195 78.9749 57.4322 78.9753 57.4457 78.9753C57.6828 78.9753 57.8847 78.7932 57.9045 78.5525L58.449 72.0558C58.4706 71.8016 58.2822 71.5785 58.028 71.5573C57.7819 71.5343 57.5503 71.7241 57.5295 71.9783L56.9851 78.475C56.9634 78.7292 57.1518 78.9523 57.406 78.9735Z" fill="url(#paint11_linear)"/>
<path d="M55.723 88.9795C55.75 88.9845 55.777 88.9867 55.8041 88.9867C56.0231 88.9867 56.2178 88.8294 56.2575 88.6059L57.3987 82.1741C57.4438 81.923 57.2761 81.6837 57.0246 81.6391C56.7794 81.5936 56.5343 81.7617 56.4901 82.0127L55.3489 88.4445C55.3038 88.6956 55.4715 88.9349 55.723 88.9795Z" fill="url(#paint12_linear)"/>
<path d="M48.3517 88.9854C48.3643 88.9863 48.3761 88.9867 48.3887 88.9867C48.6267 88.9867 48.8295 88.8028 48.8475 88.5613L49.3235 82.4626C49.3433 82.2084 49.154 81.9861 48.8998 81.9663C48.6447 81.946 48.4229 82.1358 48.404 82.3904L47.928 88.4891C47.9082 88.7433 48.0975 88.9656 48.3517 88.9854Z" fill="url(#paint13_linear)"/>
<path d="M48.9107 79.4698H48.9171C49.1722 79.4661 49.3759 79.2566 49.3723 79.0019L49.2776 72.1532C49.274 71.9003 49.0685 71.698 48.8161 71.698H48.8098C48.5547 71.7016 48.351 71.9112 48.3546 72.1658L48.4492 79.0145C48.4528 79.2674 48.6583 79.4698 48.9107 79.4698Z" fill="url(#paint14_linear)"/>
<path d="M48.8162 68.9319C48.8234 68.9319 48.8315 68.9319 48.8387 68.9314C49.0938 68.9188 49.2894 68.702 49.2768 68.4478L48.8252 59.2765C48.8135 59.0219 48.5908 58.8258 48.342 58.838C48.0869 58.8506 47.8913 59.0674 47.9039 59.3216L48.3555 68.4929C48.3673 68.7399 48.571 68.9319 48.8162 68.9319Z" fill="url(#paint15_linear)"/>
<defs>
<linearGradient id="paint0_linear" x1="2.3629" y1="59.31" x2="79.1373" y2="59.2647" gradientUnits="userSpaceOnUse">
<stop stop-color="#8F6D55"/>
<stop offset="1" stop-color="#4D4444"/>
</linearGradient>
<linearGradient id="paint1_linear" x1="2.3629" y1="59.31" x2="79.1373" y2="59.2647" gradientUnits="userSpaceOnUse">
<stop stop-color="#8F6D55"/>
<stop offset="1" stop-color="#4D4444"/>
</linearGradient>
<linearGradient id="paint2_linear" x1="2.3629" y1="59.31" x2="79.1373" y2="59.2647" gradientUnits="userSpaceOnUse">
<stop stop-color="#8F6D55"/>
<stop offset="1" stop-color="#4D4444"/>
</linearGradient>
<linearGradient id="paint3_linear" x1="2.3629" y1="59.31" x2="79.1373" y2="59.2647" gradientUnits="userSpaceOnUse">
<stop stop-color="#8F6D55"/>
<stop offset="1" stop-color="#4D4444"/>
</linearGradient>
<linearGradient id="paint4_linear" x1="2.3629" y1="59.31" x2="79.1373" y2="59.2647" gradientUnits="userSpaceOnUse">
<stop stop-color="#8F6D55"/>
<stop offset="1" stop-color="#4D4444"/>
</linearGradient>
<linearGradient id="paint5_linear" x1="2.3629" y1="59.31" x2="79.1373" y2="59.2647" gradientUnits="userSpaceOnUse">
<stop stop-color="#8F6D55"/>
<stop offset="1" stop-color="#4D4444"/>
</linearGradient>
<linearGradient id="paint6_linear" x1="2.3629" y1="59.31" x2="79.1373" y2="59.2647" gradientUnits="userSpaceOnUse">
<stop stop-color="#8F6D55"/>
<stop offset="1" stop-color="#4D4444"/>
</linearGradient>
<linearGradient id="paint7_linear" x1="2.3629" y1="59.31" x2="79.1373" y2="59.2647" gradientUnits="userSpaceOnUse">
<stop stop-color="#8F6D55"/>
<stop offset="1" stop-color="#4D4444"/>
</linearGradient>
<linearGradient id="paint8_linear" x1="2.3629" y1="59.31" x2="79.1373" y2="59.2647" gradientUnits="userSpaceOnUse">
<stop stop-color="#8F6D55"/>
<stop offset="1" stop-color="#4D4444"/>
</linearGradient>
<linearGradient id="paint9_linear" x1="2.3629" y1="59.31" x2="79.1373" y2="59.2647" gradientUnits="userSpaceOnUse">
<stop stop-color="#8F6D55"/>
<stop offset="1" stop-color="#4D4444"/>
</linearGradient>
<linearGradient id="paint10_linear" x1="2.3629" y1="59.31" x2="79.1373" y2="59.2647" gradientUnits="userSpaceOnUse">
<stop stop-color="#8F6D55"/>
<stop offset="1" stop-color="#4D4444"/>
</linearGradient>
<linearGradient id="paint11_linear" x1="2.3629" y1="59.31" x2="79.1373" y2="59.2647" gradientUnits="userSpaceOnUse">
<stop stop-color="#8F6D55"/>
<stop offset="1" stop-color="#4D4444"/>
</linearGradient>
<linearGradient id="paint12_linear" x1="2.3629" y1="59.31" x2="79.1373" y2="59.2647" gradientUnits="userSpaceOnUse">
<stop stop-color="#8F6D55"/>
<stop offset="1" stop-color="#4D4444"/>
</linearGradient>
<linearGradient id="paint13_linear" x1="2.3629" y1="59.31" x2="79.1373" y2="59.2647" gradientUnits="userSpaceOnUse">
<stop stop-color="#8F6D55"/>
<stop offset="1" stop-color="#4D4444"/>
</linearGradient>
<linearGradient id="paint14_linear" x1="2.3629" y1="59.31" x2="79.1373" y2="59.2647" gradientUnits="userSpaceOnUse">
<stop stop-color="#8F6D55"/>
<stop offset="1" stop-color="#4D4444"/>
</linearGradient>
<linearGradient id="paint15_linear" x1="2.3629" y1="59.31" x2="79.1373" y2="59.2647" gradientUnits="userSpaceOnUse">
<stop stop-color="#8F6D55"/>
<stop offset="1" stop-color="#4D4444"/>
</linearGradient>
</defs>
</svg>
