<svg width="82" height="110" viewBox="0 0 82 110" fill="none" xmlns="http://www.w3.org/2000/svg">
<path d="M7.77073 14.0003C8.02584 14.0003 8.23227 13.7938 8.23227 13.5387V6.84642H14.9246C15.1797 6.84642 15.3861 6.63999 15.3861 6.38488C15.3861 6.12977 15.1797 5.92334 14.9246 5.92334H7.77073C7.51562 5.92334 7.30919 6.12977 7.30919 6.38488V13.5387C7.30919 13.7938 7.51562 14.0003 7.77073 14.0003Z" fill="url(#paint0_linear)"/>
<path d="M18.3094 6.84642H20.463C20.7181 6.84642 20.9245 6.63999 20.9245 6.38488C20.9245 6.12977 20.7181 5.92334 20.463 5.92334H18.3094C18.0543 5.92334 17.8479 6.12977 17.8479 6.38488C17.8479 6.63999 18.0543 6.84642 18.3094 6.84642Z" fill="url(#paint1_linear)"/>
<path d="M7.77073 19.5387C8.02584 19.5387 8.23227 19.3323 8.23227 19.0772V16.9232C8.23227 16.6681 8.02584 16.4617 7.77073 16.4617C7.51562 16.4617 7.30919 16.6681 7.30919 16.9232V19.0772C7.30919 19.3323 7.51562 19.5387 7.77073 19.5387Z" fill="url(#paint2_linear)"/>
<path d="M74.2323 94.7695C73.9772 94.7695 73.7707 94.9759 73.7707 95.231V101.923H67.0784C66.8233 101.923 66.6169 102.13 66.6169 102.385C66.6169 102.64 66.8233 102.846 67.0784 102.846H74.2323C74.4874 102.846 74.6938 102.64 74.6938 102.385V95.231C74.6938 94.9759 74.4874 94.7695 74.2323 94.7695Z" fill="url(#paint3_linear)"/>
<path d="M63.6935 101.923H61.54C61.2849 101.923 61.0784 102.13 61.0784 102.385C61.0784 102.64 61.2849 102.846 61.54 102.846H63.6935C63.9486 102.846 64.155 102.64 64.155 102.385C64.155 102.13 63.9486 101.923 63.6935 101.923Z" fill="url(#paint4_linear)"/>
<path d="M74.2323 89.231C73.9772 89.231 73.7707 89.4375 73.7707 89.6926V91.8466C73.7707 92.1017 73.9772 92.3081 74.2323 92.3081C74.4874 92.3081 74.6938 92.1017 74.6938 91.8466V89.6926C74.6938 89.4375 74.4874 89.231 74.2323 89.231Z" fill="url(#paint5_linear)"/>
<path d="M80.2323 0.538574H1.77073C1.26052 0.538574 0.847656 0.951886 0.847656 1.46165V108.539C0.847656 109.048 1.26052 109.462 1.77073 109.462H80.2323C80.7425 109.462 81.1553 109.048 81.1553 108.539V1.46165C81.1553 0.951886 80.7425 0.538574 80.2323 0.538574ZM79.3092 2.38473V71.0003H70.801C70.7482 70.0226 70.5546 69.297 70.5382 69.2384L67.8591 58.4576C67.8077 58.2521 67.6229 58.1074 67.4111 58.1074H64.1216C63.0946 54.3678 61.7802 50.885 60.6079 47.78C60.1069 46.4538 59.6343 45.1957 59.2204 44.014C59.1692 43.8674 59.1138 43.7154 59.0646 43.5714C58.3288 41.4222 57.8296 39.5688 57.8296 38.158C57.8296 32.4627 60.835 28.2376 60.8657 28.1953C60.9666 28.0551 60.9811 27.8694 60.9026 27.7148C60.8233 27.5607 60.6647 27.4633 60.4916 27.4633H37.1713C36.9982 27.4633 36.8395 27.5607 36.7602 27.7148C36.6818 27.8694 36.6962 28.0551 36.7972 28.1953C36.8163 28.2218 38.0013 29.8881 38.8849 32.5277C38.8094 32.5823 38.7269 32.6261 38.6641 32.698L38.0865 33.3573C35.9667 31.3887 33.1377 30.1739 30.0237 30.1739C23.4784 30.1739 18.1526 35.4992 18.1526 42.0446C18.1526 48.5904 23.4784 53.9157 30.0237 53.9157C31.9007 53.9157 33.6705 53.466 35.2501 52.687C34.3732 55.1926 33.5378 57.8674 32.9017 60.6621H26.0601C25.8564 60.6621 25.6761 60.7959 25.6175 60.9916C25.5822 61.1103 25.3389 61.9401 25.0401 63.2275C24.7413 61.9404 24.498 61.1103 24.4627 60.9916C24.4041 60.7959 24.2239 60.6621 24.0201 60.6621H16.9069C16.7031 60.6621 16.5228 60.7959 16.4642 60.9916C16.3779 61.2825 15.0472 65.8183 14.6958 71.0003H2.69381V2.38473H79.3092ZM64.1807 78.0528C64.0541 78.6304 63.9684 79.3469 63.9684 80.2419V90.9726C63.9684 91.1123 64.0316 91.2444 64.1406 91.3318C64.183 91.3665 64.6941 91.7704 65.6235 92.1842H61.7644C62.6938 91.7704 63.2049 91.3665 63.2473 91.3318C63.3564 91.2444 63.4195 91.1123 63.4195 90.9726V80.2419C63.4195 79.9285 63.4062 79.6433 63.3874 79.3714C63.3699 79.1205 63.3469 78.8831 63.3164 78.6653C63.2821 78.4211 63.2403 78.1991 63.1933 77.9935C62.838 76.4366 62.1773 75.9419 62.0772 75.8762C62.0033 75.827 61.9168 75.8004 61.8284 75.7995C60.195 75.7802 59.0096 75.2947 58.3038 74.3572C56.9246 72.5237 57.7341 69.503 57.7458 69.4611L59.3842 62.867H68.004L69.6457 69.4728C69.6496 69.4869 69.8276 70.1614 69.8756 71.0596C69.9032 71.5752 69.8865 72.1624 69.7688 72.7461C69.6543 73.3145 69.4456 73.8767 69.0841 74.3572C68.3783 75.2947 67.1929 75.7802 65.5595 75.7995C65.4712 75.8004 65.3846 75.827 65.3107 75.8762C65.2704 75.9026 65.1376 76.0011 64.9716 76.2073C64.7203 76.5193 64.3926 77.0865 64.1807 78.0528ZM59.0121 92.0351C58.9039 92.2062 58.7899 92.3781 58.6695 92.5516C58.6477 92.5829 58.6251 92.6143 58.6031 92.6458C58.4946 92.7993 58.3819 92.9529 58.2632 93.1072C57.5669 94.0139 56.6972 94.9278 55.5995 95.7674H40.4489C39.5511 95.0804 38.8051 94.3424 38.1809 93.599C38.0518 93.4451 37.9301 93.2913 37.8113 93.1374C37.6923 92.9831 37.5787 92.8295 37.4698 92.6759C36.6392 91.5048 36.0945 90.3703 35.7443 89.4451C35.6834 89.2844 35.6279 89.1305 35.5782 88.9835C35.523 88.8204 35.4732 88.6657 35.4305 88.522C35.349 88.2486 35.2866 88.0088 35.2431 87.8194H60.8062C60.6242 88.6186 60.1423 90.247 59.0121 92.0351ZM18.8314 92.6759L11.921 89.4451H34.7468C35.0626 90.3521 35.565 91.4844 36.3395 92.6759H18.8314ZM45.9268 86.8963H34.6833C34.5508 86.8963 34.4246 86.9531 34.3371 87.0527C34.2497 87.1523 34.2091 87.2844 34.2254 87.416C34.2328 87.4739 34.2914 87.8864 34.4624 88.522H22.4219L16.4796 81.9451H50.4008L45.9268 86.8963ZM15.6349 71.0003C15.9441 66.6485 16.9447 62.7223 17.2566 61.5851H23.6704C23.8389 62.1997 24.2092 63.6363 24.5637 65.5043C24.6453 65.9349 24.7248 66.3896 24.8021 66.8624C24.8873 67.3836 24.968 67.9229 25.0409 68.4837C25.1464 69.2943 25.2331 70.138 25.2948 71.0003C25.3384 71.6104 25.3698 72.2262 25.3822 72.8464C25.4129 74.3776 25.3284 75.9137 25.0877 77.368H20.7479C20.5811 77.368 20.4279 77.4577 20.3459 77.6029C20.2638 77.748 20.2665 77.926 20.3531 78.0685L22.1393 81.022H17.323C16.6166 80.2181 16.2722 79.3192 16.2722 79.3192C15.6843 77.3387 15.5039 75.0801 15.5478 72.8464C15.56 72.2259 15.5914 71.6103 15.6349 71.0003ZM32.8236 61.5851C32.873 61.7651 32.9434 62.0338 33.0219 62.3439C33.1013 62.657 33.1895 63.0178 33.2873 63.4443C34.0035 66.5669 35.0532 72.4607 34.2409 77.368H26.0319C26.2643 75.9003 26.3416 74.3647 26.3152 72.8464C26.3045 72.2258 26.2749 71.6091 26.2334 71.0003C26.0975 69.0036 25.8172 67.1041 25.5172 65.5044C25.8712 63.6356 26.2414 62.1994 26.4099 61.5851H32.8236ZM23.2413 81.0604L21.5664 78.2911H45.314L43.6382 81.0604H23.2413ZM51.7828 81.7932C51.9053 81.6576 51.936 81.4629 51.8621 81.2961C51.7882 81.1293 51.6223 81.022 51.4402 81.022H44.7405L46.5273 78.0685C46.6139 77.926 46.6166 77.748 46.5346 77.6029C46.4525 77.4577 46.2993 77.368 46.1325 77.368H35.1852C36.2197 70.8328 34.1677 62.9534 33.7037 61.2975C34.4229 58.0115 35.4376 54.8847 36.4758 51.9952C39.106 50.2838 41.0218 47.5655 41.6606 44.3856H58.3716C58.7784 45.5403 59.2409 46.7735 59.7443 48.1059C60.8824 51.12 62.1543 54.4953 63.1612 58.1074H59.9769C59.765 58.1074 59.5802 58.2521 59.5288 58.4576L56.8534 69.2262C56.8137 69.3673 55.9123 72.7089 57.5637 74.9089C58.4228 76.0528 59.793 76.6613 61.6391 76.7186C61.8291 76.9296 62.2896 77.6083 62.4423 79.1758C59.4655 83.2585 54.8353 83.8252 53.9534 83.8967C53.8862 83.9022 53.834 83.9056 53.8128 83.9067H49.8728L51.7828 81.7932ZM39.3582 33.306C39.4141 33.2425 39.4916 33.2046 39.5754 33.1987C39.5774 33.1986 39.5793 33.2008 39.5813 33.2007C39.6605 33.197 39.7438 33.2222 39.8062 33.2767L40.7166 34.0745C40.8483 34.1899 40.8618 34.3909 40.7464 34.5225L30.3419 46.4022C30.2257 46.5333 30.0273 46.5513 29.8903 46.4409L24.4159 42.0342C24.3501 41.981 24.3086 41.9058 24.2996 41.8215C24.2906 41.7372 24.3149 41.6547 24.3681 41.5885L25.1262 40.6451C25.2362 40.5081 25.4372 40.4855 25.5733 40.5964L29.5676 43.8119C29.7578 43.966 30.04 43.9421 30.204 43.7564L39.3582 33.306ZM59.6442 28.3864C58.7482 29.8796 56.9066 33.5142 56.9066 38.158C56.9066 39.6107 57.3579 41.3836 58.0539 43.4626H41.802C41.8578 42.9967 41.8948 42.5253 41.8948 42.0446C41.8948 40.1914 41.4557 38.443 40.6951 36.8786C40.6751 36.6035 40.6513 36.3339 40.6199 36.0676L41.4405 35.1305C41.8912 34.6158 41.8389 33.8306 41.3242 33.3804L40.4138 32.5826C40.236 32.4269 40.0186 32.3513 39.7913 32.3145C39.2054 30.5339 38.4856 29.1644 38.0186 28.3864H59.6442ZM29.8011 42.8149L26.152 39.8775C25.6202 39.4475 24.8368 39.5345 24.4078 40.0659L23.6487 41.0097C23.4414 41.2675 23.3468 41.5912 23.3819 41.9202C23.4171 42.2501 23.5793 42.5458 23.8371 42.7536L29.3116 47.1603C29.5433 47.3464 29.8209 47.4375 30.0959 47.4375C30.4438 47.4375 30.7891 47.2923 31.0361 47.0102L39.7562 37.0537C39.7717 37.0841 39.7853 37.1156 39.8008 37.1461C39.9833 37.5091 40.1445 37.8837 40.2864 38.2684C40.428 38.6515 40.5485 39.0436 40.647 39.4454C40.8514 40.2802 40.9718 41.1476 40.9718 42.0446C40.9718 42.5262 40.9298 42.9972 40.8692 43.4626C40.8489 43.6175 40.8253 43.7713 40.7986 43.9241C40.7716 44.0786 40.7468 44.2334 40.7135 44.3856C40.1868 46.7917 38.87 48.9039 37.0453 50.4336C36.8265 50.6171 36.5966 50.7872 36.3638 50.9535C36.1535 51.1035 35.9367 51.2435 35.716 51.3786C34.0548 52.3955 32.1101 52.9926 30.0237 52.9926C23.9868 52.9926 19.0757 48.0815 19.0757 42.0446C19.0757 36.0081 23.9868 31.097 30.0237 31.097C32.9052 31.097 35.5223 32.2244 37.4792 34.0504L29.8011 42.8149ZM60.3374 59.0305H67.0505L67.7746 61.9439H59.6136L60.3374 59.0305ZM61.8221 87.416C61.8383 87.2844 61.7978 87.1519 61.7103 87.0527C61.6229 86.9531 61.4967 86.8963 61.3642 86.8963H47.171L49.0385 84.8297H53.9751C54.0171 84.8297 54.0548 84.8163 54.0935 84.8059C55.164 84.6902 59.3988 84.0157 62.4964 80.5138V90.7364C62.1768 90.9518 61.4066 91.4036 60.2653 91.7464C61.5393 89.4393 61.8054 87.5459 61.8221 87.416ZM2.69381 107.616V72.8464H14.6145C14.575 75.1581 14.7734 77.5128 15.396 79.6095C15.4186 79.6705 15.6613 80.3051 16.1518 81.022H15.4402C15.2581 81.022 15.0922 81.1293 15.0183 81.2961C14.9444 81.4629 14.9751 81.6576 15.0977 81.7932L21.1779 88.522H9.84405C9.6277 88.522 9.4402 88.6721 9.39333 88.8835C9.34645 89.0945 9.45282 89.3099 9.64844 89.4019L18.5331 93.5557C18.5944 93.5841 18.6611 93.599 18.7287 93.599H36.9847C37.7622 94.6197 38.754 95.6526 40.0171 96.5985C40.0974 96.658 40.1938 96.6905 40.2939 96.6905H55.7545C55.8546 96.6905 55.951 96.658 56.0312 96.5985C57.4983 95.4999 58.5902 94.2852 59.4147 93.1072H70.1415C70.3966 93.1072 70.6031 92.9008 70.6031 92.6457C70.6031 92.3906 70.3966 92.1842 70.1415 92.1842C67.3011 92.1842 65.445 91.1051 64.8915 90.7351V80.2419C64.8915 77.872 65.527 76.9624 65.7461 76.719C67.5931 76.6618 68.9642 76.0533 69.8242 74.9089C70.2959 74.2807 70.5547 73.5595 70.6896 72.8464H79.3092V107.616H2.69381Z" fill="url(#paint6_linear)"/>
<defs>
<linearGradient id="paint0_linear" x1="2.3629" y1="59.31" x2="79.1373" y2="59.2647" gradientUnits="userSpaceOnUse">
<stop stop-color="#8F6D55"/>
<stop offset="1" stop-color="#4D4444"/>
</linearGradient>
<linearGradient id="paint1_linear" x1="2.3629" y1="59.31" x2="79.1373" y2="59.2647" gradientUnits="userSpaceOnUse">
<stop stop-color="#8F6D55"/>
<stop offset="1" stop-color="#4D4444"/>
</linearGradient>
<linearGradient id="paint2_linear" x1="2.3629" y1="59.31" x2="79.1373" y2="59.2647" gradientUnits="userSpaceOnUse">
<stop stop-color="#8F6D55"/>
<stop offset="1" stop-color="#4D4444"/>
</linearGradient>
<linearGradient id="paint3_linear" x1="2.3629" y1="59.31" x2="79.1373" y2="59.2647" gradientUnits="userSpaceOnUse">
<stop stop-color="#8F6D55"/>
<stop offset="1" stop-color="#4D4444"/>
</linearGradient>
<linearGradient id="paint4_linear" x1="2.3629" y1="59.31" x2="79.1373" y2="59.2647" gradientUnits="userSpaceOnUse">
<stop stop-color="#8F6D55"/>
<stop offset="1" stop-color="#4D4444"/>
</linearGradient>
<linearGradient id="paint5_linear" x1="2.3629" y1="59.31" x2="79.1373" y2="59.2647" gradientUnits="userSpaceOnUse">
<stop stop-color="#8F6D55"/>
<stop offset="1" stop-color="#4D4444"/>
</linearGradient>
<linearGradient id="paint6_linear" x1="2.3629" y1="59.31" x2="79.1373" y2="59.2647" gradientUnits="userSpaceOnUse">
<stop stop-color="#8F6D55"/>
<stop offset="1" stop-color="#4D4444"/>
</linearGradient>
</defs>
</svg>
