<svg width="100" height="100" viewBox="0 0 100 100" fill="none" xmlns="http://www.w3.org/2000/svg">
<path d="M30.2757 41.0804C28.8938 39.5729 26.507 39.4472 24.9993 40.8291C23.4919 42.211 23.3661 44.5978 24.748 46.1055L43.7179 66.7086C44.4717 67.4624 45.3511 67.9647 46.356 67.9647C46.356 67.9647 46.356 67.9647 46.4815 67.9647C47.4866 67.9647 48.4915 67.5879 49.1196 66.8341L97.1098 18.9699C98.6172 17.4624 98.6172 15.0754 97.1098 13.6935C95.6024 12.186 93.2153 12.186 91.8334 13.6935L46.6075 58.7939L30.2757 41.0804Z" fill="url(#paint0_linear)"/>
<path d="M96.231 46.231C94.0953 46.231 92.4623 47.8642 92.4623 49.9998C92.4623 73.3664 73.3669 92.4621 50 92.4621C26.6331 92.4621 7.53769 73.3667 7.53769 50C7.53769 26.6333 26.6331 7.53769 50 7.53769C52.1358 7.53769 53.7687 5.90449 53.7687 3.76897C53.7687 1.63344 52.1355 0 50 0C22.4873 0 0 22.4873 0 50C0 77.5127 22.4873 100 50 100C77.5127 100 100 77.5127 100 50C99.9998 47.8642 98.3668 46.231 96.231 46.231Z" fill="url(#paint1_linear)"/>
<defs>
<linearGradient id="paint0_linear" x1="1.88679" y1="53.9568" x2="97.4871" y2="53.8804" gradientUnits="userSpaceOnUse">
<stop stop-color="#8F6D55"/>
<stop offset="1" stop-color="#4D4444"/>
</linearGradient>
<linearGradient id="paint1_linear" x1="1.88679" y1="53.9568" x2="97.4871" y2="53.8804" gradientUnits="userSpaceOnUse">
<stop stop-color="#8F6D55"/>
<stop offset="1" stop-color="#4D4444"/>
</linearGradient>
</defs>
</svg>
